<?xml version="1.0" encoding="utf-8" standalone="no"?>
<!DOCTYPE svg PUBLIC "-//W3C//DTD SVG 1.1//EN"
  "http://www.w3.org/Graphics/SVG/1.1/DTD/svg11.dtd">
<svg xmlns:xlink="http://www.w3.org/1999/xlink" width="497.508437pt" height="340.723594pt" viewBox="0 0 497.508437 340.723594" xmlns="http://www.w3.org/2000/svg" version="1.1">
 <metadata>
  <rdf:RDF xmlns:dc="http://purl.org/dc/elements/1.1/" xmlns:cc="http://creativecommons.org/ns#" xmlns:rdf="http://www.w3.org/1999/02/22-rdf-syntax-ns#">
   <cc:Work>
    <dc:type rdf:resource="http://purl.org/dc/dcmitype/StillImage"/>
    <dc:date>2025-08-19T11:50:15.624134</dc:date>
    <dc:format>image/svg+xml</dc:format>
    <dc:creator>
     <cc:Agent>
      <dc:title>Matplotlib v3.10.3, https://matplotlib.org/</dc:title>
     </cc:Agent>
    </dc:creator>
   </cc:Work>
  </rdf:RDF>
 </metadata>
 <defs>
  <style type="text/css">*{stroke-linejoin: round; stroke-linecap: butt}</style>
 </defs>
 <g id="figure_1">
  <g id="patch_1">
   <path d="M 0 340.723594 
L 497.508437 340.723594 
L 497.508437 -0 
L 0 -0 
z
" style="fill: #ffffff"/>
  </g>
  <g id="axes_1">
   <g id="patch_2">
    <path d="M 43.908438 298.989375 
L 490.308437 298.989375 
L 490.308437 21.789375 
L 43.908438 21.789375 
z
" style="fill: #ffffff"/>
   </g>
   <g id="matplotlib.axis_1">
    <g id="xtick_1">
     <g id="line2d_1">
      <path d="M 64.199347 298.989375 
L 64.199347 21.789375 
" clip-path="url(#p218308f004)" style="fill: none; stroke: #cccccc; stroke-linecap: round"/>
     </g>
     <g id="text_1">
      <!-- 2016 -->
      <g style="fill: #262626" transform="translate(51.965284 316.362969) scale(0.11 -0.11)">
       <defs>
        <path id="ArialMT-32" d="M 3222 541 
L 3222 0 
L 194 0 
Q 188 203 259 391 
Q 375 700 629 1000 
Q 884 1300 1366 1694 
Q 2113 2306 2375 2664 
Q 2638 3022 2638 3341 
Q 2638 3675 2398 3904 
Q 2159 4134 1775 4134 
Q 1369 4134 1125 3890 
Q 881 3647 878 3216 
L 300 3275 
Q 359 3922 746 4261 
Q 1134 4600 1788 4600 
Q 2447 4600 2831 4234 
Q 3216 3869 3216 3328 
Q 3216 3053 3103 2787 
Q 2991 2522 2730 2228 
Q 2469 1934 1863 1422 
Q 1356 997 1212 845 
Q 1069 694 975 541 
L 3222 541 
z
" transform="scale(0.015625)"/>
        <path id="ArialMT-30" d="M 266 2259 
Q 266 3072 433 3567 
Q 600 4063 929 4331 
Q 1259 4600 1759 4600 
Q 2128 4600 2406 4451 
Q 2684 4303 2865 4023 
Q 3047 3744 3150 3342 
Q 3253 2941 3253 2259 
Q 3253 1453 3087 958 
Q 2922 463 2592 192 
Q 2263 -78 1759 -78 
Q 1097 -78 719 397 
Q 266 969 266 2259 
z
M 844 2259 
Q 844 1131 1108 757 
Q 1372 384 1759 384 
Q 2147 384 2411 759 
Q 2675 1134 2675 2259 
Q 2675 3391 2411 3762 
Q 2147 4134 1753 4134 
Q 1366 4134 1134 3806 
Q 844 3388 844 2259 
z
" transform="scale(0.015625)"/>
        <path id="ArialMT-31" d="M 2384 0 
L 1822 0 
L 1822 3584 
Q 1619 3391 1289 3197 
Q 959 3003 697 2906 
L 697 3450 
Q 1169 3672 1522 3987 
Q 1875 4303 2022 4600 
L 2384 4600 
L 2384 0 
z
" transform="scale(0.015625)"/>
        <path id="ArialMT-36" d="M 3184 3459 
L 2625 3416 
Q 2550 3747 2413 3897 
Q 2184 4138 1850 4138 
Q 1581 4138 1378 3988 
Q 1113 3794 959 3422 
Q 806 3050 800 2363 
Q 1003 2672 1297 2822 
Q 1591 2972 1913 2972 
Q 2475 2972 2870 2558 
Q 3266 2144 3266 1488 
Q 3266 1056 3080 686 
Q 2894 316 2569 119 
Q 2244 -78 1831 -78 
Q 1128 -78 684 439 
Q 241 956 241 2144 
Q 241 3472 731 4075 
Q 1159 4600 1884 4600 
Q 2425 4600 2770 4297 
Q 3116 3994 3184 3459 
z
M 888 1484 
Q 888 1194 1011 928 
Q 1134 663 1356 523 
Q 1578 384 1822 384 
Q 2178 384 2434 671 
Q 2691 959 2691 1453 
Q 2691 1928 2437 2201 
Q 2184 2475 1800 2475 
Q 1419 2475 1153 2201 
Q 888 1928 888 1484 
z
" transform="scale(0.015625)"/>
       </defs>
       <use xlink:href="#ArialMT-32"/>
       <use xlink:href="#ArialMT-30" transform="translate(55.615234 0)"/>
       <use xlink:href="#ArialMT-31" transform="translate(111.230469 0)"/>
       <use xlink:href="#ArialMT-36" transform="translate(166.845703 0)"/>
      </g>
     </g>
    </g>
    <g id="xtick_2">
     <g id="line2d_2">
      <path d="M 114.926619 298.989375 
L 114.926619 21.789375 
" clip-path="url(#p218308f004)" style="fill: none; stroke: #cccccc; stroke-linecap: round"/>
     </g>
     <g id="text_2">
      <!-- 2017 -->
      <g style="fill: #262626" transform="translate(102.692557 316.362969) scale(0.11 -0.11)">
       <defs>
        <path id="ArialMT-37" d="M 303 3981 
L 303 4522 
L 3269 4522 
L 3269 4084 
Q 2831 3619 2401 2847 
Q 1972 2075 1738 1259 
Q 1569 684 1522 0 
L 944 0 
Q 953 541 1156 1306 
Q 1359 2072 1739 2783 
Q 2119 3494 2547 3981 
L 303 3981 
z
" transform="scale(0.015625)"/>
       </defs>
       <use xlink:href="#ArialMT-32"/>
       <use xlink:href="#ArialMT-30" transform="translate(55.615234 0)"/>
       <use xlink:href="#ArialMT-31" transform="translate(111.230469 0)"/>
       <use xlink:href="#ArialMT-37" transform="translate(166.845703 0)"/>
      </g>
     </g>
    </g>
    <g id="xtick_3">
     <g id="line2d_3">
      <path d="M 165.653892 298.989375 
L 165.653892 21.789375 
" clip-path="url(#p218308f004)" style="fill: none; stroke: #cccccc; stroke-linecap: round"/>
     </g>
     <g id="text_3">
      <!-- 2018 -->
      <g style="fill: #262626" transform="translate(153.41983 316.362969) scale(0.11 -0.11)">
       <defs>
        <path id="ArialMT-38" d="M 1131 2484 
Q 781 2613 612 2850 
Q 444 3088 444 3419 
Q 444 3919 803 4259 
Q 1163 4600 1759 4600 
Q 2359 4600 2725 4251 
Q 3091 3903 3091 3403 
Q 3091 3084 2923 2848 
Q 2756 2613 2416 2484 
Q 2838 2347 3058 2040 
Q 3278 1734 3278 1309 
Q 3278 722 2862 322 
Q 2447 -78 1769 -78 
Q 1091 -78 675 323 
Q 259 725 259 1325 
Q 259 1772 486 2073 
Q 713 2375 1131 2484 
z
M 1019 3438 
Q 1019 3113 1228 2906 
Q 1438 2700 1772 2700 
Q 2097 2700 2305 2904 
Q 2513 3109 2513 3406 
Q 2513 3716 2298 3927 
Q 2084 4138 1766 4138 
Q 1444 4138 1231 3931 
Q 1019 3725 1019 3438 
z
M 838 1322 
Q 838 1081 952 856 
Q 1066 631 1291 507 
Q 1516 384 1775 384 
Q 2178 384 2440 643 
Q 2703 903 2703 1303 
Q 2703 1709 2433 1975 
Q 2163 2241 1756 2241 
Q 1359 2241 1098 1978 
Q 838 1716 838 1322 
z
" transform="scale(0.015625)"/>
       </defs>
       <use xlink:href="#ArialMT-32"/>
       <use xlink:href="#ArialMT-30" transform="translate(55.615234 0)"/>
       <use xlink:href="#ArialMT-31" transform="translate(111.230469 0)"/>
       <use xlink:href="#ArialMT-38" transform="translate(166.845703 0)"/>
      </g>
     </g>
    </g>
    <g id="xtick_4">
     <g id="line2d_4">
      <path d="M 216.381165 298.989375 
L 216.381165 21.789375 
" clip-path="url(#p218308f004)" style="fill: none; stroke: #cccccc; stroke-linecap: round"/>
     </g>
     <g id="text_4">
      <!-- 2019 -->
      <g style="fill: #262626" transform="translate(204.147102 316.362969) scale(0.11 -0.11)">
       <defs>
        <path id="ArialMT-39" d="M 350 1059 
L 891 1109 
Q 959 728 1153 556 
Q 1347 384 1650 384 
Q 1909 384 2104 503 
Q 2300 622 2425 820 
Q 2550 1019 2634 1356 
Q 2719 1694 2719 2044 
Q 2719 2081 2716 2156 
Q 2547 1888 2255 1720 
Q 1963 1553 1622 1553 
Q 1053 1553 659 1965 
Q 266 2378 266 3053 
Q 266 3750 677 4175 
Q 1088 4600 1706 4600 
Q 2153 4600 2523 4359 
Q 2894 4119 3086 3673 
Q 3278 3228 3278 2384 
Q 3278 1506 3087 986 
Q 2897 466 2520 194 
Q 2144 -78 1638 -78 
Q 1100 -78 759 220 
Q 419 519 350 1059 
z
M 2653 3081 
Q 2653 3566 2395 3850 
Q 2138 4134 1775 4134 
Q 1400 4134 1122 3828 
Q 844 3522 844 3034 
Q 844 2597 1108 2323 
Q 1372 2050 1759 2050 
Q 2150 2050 2401 2323 
Q 2653 2597 2653 3081 
z
" transform="scale(0.015625)"/>
       </defs>
       <use xlink:href="#ArialMT-32"/>
       <use xlink:href="#ArialMT-30" transform="translate(55.615234 0)"/>
       <use xlink:href="#ArialMT-31" transform="translate(111.230469 0)"/>
       <use xlink:href="#ArialMT-39" transform="translate(166.845703 0)"/>
      </g>
     </g>
    </g>
    <g id="xtick_5">
     <g id="line2d_5">
      <path d="M 267.108438 298.989375 
L 267.108438 21.789375 
" clip-path="url(#p218308f004)" style="fill: none; stroke: #cccccc; stroke-linecap: round"/>
     </g>
     <g id="text_5">
      <!-- 2020 -->
      <g style="fill: #262626" transform="translate(254.874375 316.362969) scale(0.11 -0.11)">
       <use xlink:href="#ArialMT-32"/>
       <use xlink:href="#ArialMT-30" transform="translate(55.615234 0)"/>
       <use xlink:href="#ArialMT-32" transform="translate(111.230469 0)"/>
       <use xlink:href="#ArialMT-30" transform="translate(166.845703 0)"/>
      </g>
     </g>
    </g>
    <g id="xtick_6">
     <g id="line2d_6">
      <path d="M 317.83571 298.989375 
L 317.83571 21.789375 
" clip-path="url(#p218308f004)" style="fill: none; stroke: #cccccc; stroke-linecap: round"/>
     </g>
     <g id="text_6">
      <!-- 2021 -->
      <g style="fill: #262626" transform="translate(305.601648 316.362969) scale(0.11 -0.11)">
       <use xlink:href="#ArialMT-32"/>
       <use xlink:href="#ArialMT-30" transform="translate(55.615234 0)"/>
       <use xlink:href="#ArialMT-32" transform="translate(111.230469 0)"/>
       <use xlink:href="#ArialMT-31" transform="translate(166.845703 0)"/>
      </g>
     </g>
    </g>
    <g id="xtick_7">
     <g id="line2d_7">
      <path d="M 368.562983 298.989375 
L 368.562983 21.789375 
" clip-path="url(#p218308f004)" style="fill: none; stroke: #cccccc; stroke-linecap: round"/>
     </g>
     <g id="text_7">
      <!-- 2022 -->
      <g style="fill: #262626" transform="translate(356.32892 316.362969) scale(0.11 -0.11)">
       <use xlink:href="#ArialMT-32"/>
       <use xlink:href="#ArialMT-30" transform="translate(55.615234 0)"/>
       <use xlink:href="#ArialMT-32" transform="translate(111.230469 0)"/>
       <use xlink:href="#ArialMT-32" transform="translate(166.845703 0)"/>
      </g>
     </g>
    </g>
    <g id="xtick_8">
     <g id="line2d_8">
      <path d="M 419.290256 298.989375 
L 419.290256 21.789375 
" clip-path="url(#p218308f004)" style="fill: none; stroke: #cccccc; stroke-linecap: round"/>
     </g>
     <g id="text_8">
      <!-- 2023 -->
      <g style="fill: #262626" transform="translate(407.056193 316.362969) scale(0.11 -0.11)">
       <defs>
        <path id="ArialMT-33" d="M 269 1209 
L 831 1284 
Q 928 806 1161 595 
Q 1394 384 1728 384 
Q 2125 384 2398 659 
Q 2672 934 2672 1341 
Q 2672 1728 2419 1979 
Q 2166 2231 1775 2231 
Q 1616 2231 1378 2169 
L 1441 2663 
Q 1497 2656 1531 2656 
Q 1891 2656 2178 2843 
Q 2466 3031 2466 3422 
Q 2466 3731 2256 3934 
Q 2047 4138 1716 4138 
Q 1388 4138 1169 3931 
Q 950 3725 888 3313 
L 325 3413 
Q 428 3978 793 4289 
Q 1159 4600 1703 4600 
Q 2078 4600 2393 4439 
Q 2709 4278 2876 4000 
Q 3044 3722 3044 3409 
Q 3044 3113 2884 2869 
Q 2725 2625 2413 2481 
Q 2819 2388 3044 2092 
Q 3269 1797 3269 1353 
Q 3269 753 2831 336 
Q 2394 -81 1725 -81 
Q 1122 -81 723 278 
Q 325 638 269 1209 
z
" transform="scale(0.015625)"/>
       </defs>
       <use xlink:href="#ArialMT-32"/>
       <use xlink:href="#ArialMT-30" transform="translate(55.615234 0)"/>
       <use xlink:href="#ArialMT-32" transform="translate(111.230469 0)"/>
       <use xlink:href="#ArialMT-33" transform="translate(166.845703 0)"/>
      </g>
     </g>
    </g>
    <g id="xtick_9">
     <g id="line2d_9">
      <path d="M 470.017528 298.989375 
L 470.017528 21.789375 
" clip-path="url(#p218308f004)" style="fill: none; stroke: #cccccc; stroke-linecap: round"/>
     </g>
     <g id="text_9">
      <!-- 2024 -->
      <g style="fill: #262626" transform="translate(457.783466 316.362969) scale(0.11 -0.11)">
       <defs>
        <path id="ArialMT-34" d="M 2069 0 
L 2069 1097 
L 81 1097 
L 81 1613 
L 2172 4581 
L 2631 4581 
L 2631 1613 
L 3250 1613 
L 3250 1097 
L 2631 1097 
L 2631 0 
L 2069 0 
z
M 2069 1613 
L 2069 3678 
L 634 1613 
L 2069 1613 
z
" transform="scale(0.015625)"/>
       </defs>
       <use xlink:href="#ArialMT-32"/>
       <use xlink:href="#ArialMT-30" transform="translate(55.615234 0)"/>
       <use xlink:href="#ArialMT-32" transform="translate(111.230469 0)"/>
       <use xlink:href="#ArialMT-34" transform="translate(166.845703 0)"/>
      </g>
     </g>
    </g>
    <g id="text_10">
     <!-- Year -->
     <g style="fill: #262626" transform="translate(254.982812 331.138594) scale(0.12 -0.12)">
      <defs>
       <path id="ArialMT-59" d="M 1784 0 
L 1784 1941 
L 19 4581 
L 756 4581 
L 1659 3200 
Q 1909 2813 2125 2425 
Q 2331 2784 2625 3234 
L 3513 4581 
L 4219 4581 
L 2391 1941 
L 2391 0 
L 1784 0 
z
" transform="scale(0.015625)"/>
       <path id="ArialMT-65" d="M 2694 1069 
L 3275 997 
Q 3138 488 2766 206 
Q 2394 -75 1816 -75 
Q 1088 -75 661 373 
Q 234 822 234 1631 
Q 234 2469 665 2931 
Q 1097 3394 1784 3394 
Q 2450 3394 2872 2941 
Q 3294 2488 3294 1666 
Q 3294 1616 3291 1516 
L 816 1516 
Q 847 969 1125 678 
Q 1403 388 1819 388 
Q 2128 388 2347 550 
Q 2566 713 2694 1069 
z
M 847 1978 
L 2700 1978 
Q 2663 2397 2488 2606 
Q 2219 2931 1791 2931 
Q 1403 2931 1139 2672 
Q 875 2413 847 1978 
z
" transform="scale(0.015625)"/>
       <path id="ArialMT-61" d="M 2588 409 
Q 2275 144 1986 34 
Q 1697 -75 1366 -75 
Q 819 -75 525 192 
Q 231 459 231 875 
Q 231 1119 342 1320 
Q 453 1522 633 1644 
Q 813 1766 1038 1828 
Q 1203 1872 1538 1913 
Q 2219 1994 2541 2106 
Q 2544 2222 2544 2253 
Q 2544 2597 2384 2738 
Q 2169 2928 1744 2928 
Q 1347 2928 1158 2789 
Q 969 2650 878 2297 
L 328 2372 
Q 403 2725 575 2942 
Q 747 3159 1072 3276 
Q 1397 3394 1825 3394 
Q 2250 3394 2515 3294 
Q 2781 3194 2906 3042 
Q 3031 2891 3081 2659 
Q 3109 2516 3109 2141 
L 3109 1391 
Q 3109 606 3145 398 
Q 3181 191 3288 0 
L 2700 0 
Q 2613 175 2588 409 
z
M 2541 1666 
Q 2234 1541 1622 1453 
Q 1275 1403 1131 1340 
Q 988 1278 909 1158 
Q 831 1038 831 891 
Q 831 666 1001 516 
Q 1172 366 1500 366 
Q 1825 366 2078 508 
Q 2331 650 2450 897 
Q 2541 1088 2541 1459 
L 2541 1666 
z
" transform="scale(0.015625)"/>
       <path id="ArialMT-72" d="M 416 0 
L 416 3319 
L 922 3319 
L 922 2816 
Q 1116 3169 1280 3281 
Q 1444 3394 1641 3394 
Q 1925 3394 2219 3213 
L 2025 2691 
Q 1819 2813 1613 2813 
Q 1428 2813 1281 2702 
Q 1134 2591 1072 2394 
Q 978 2094 978 1738 
L 978 0 
L 416 0 
z
" transform="scale(0.015625)"/>
      </defs>
      <use xlink:href="#ArialMT-59"/>
      <use xlink:href="#ArialMT-65" transform="translate(57.574219 0)"/>
      <use xlink:href="#ArialMT-61" transform="translate(113.189453 0)"/>
      <use xlink:href="#ArialMT-72" transform="translate(168.804688 0)"/>
     </g>
    </g>
   </g>
   <g id="matplotlib.axis_2">
    <g id="ytick_1">
     <g id="line2d_10">
      <path d="M 43.908438 297.881515 
L 490.308437 297.881515 
" clip-path="url(#p218308f004)" style="fill: none; stroke: #cccccc; stroke-linecap: round"/>
     </g>
     <g id="text_11">
      <!-- 0 -->
      <g style="fill: #262626" transform="translate(28.291406 301.818312) scale(0.11 -0.11)">
       <use xlink:href="#ArialMT-30"/>
      </g>
     </g>
    </g>
    <g id="ytick_2">
     <g id="line2d_11">
      <path d="M 43.908438 257.449393 
L 490.308437 257.449393 
" clip-path="url(#p218308f004)" style="fill: none; stroke: #cccccc; stroke-linecap: round"/>
     </g>
     <g id="text_12">
      <!-- 2 -->
      <g style="fill: #262626" transform="translate(28.291406 261.38619) scale(0.11 -0.11)">
       <use xlink:href="#ArialMT-32"/>
      </g>
     </g>
    </g>
    <g id="ytick_3">
     <g id="line2d_12">
      <path d="M 43.908438 217.017271 
L 490.308437 217.017271 
" clip-path="url(#p218308f004)" style="fill: none; stroke: #cccccc; stroke-linecap: round"/>
     </g>
     <g id="text_13">
      <!-- 4 -->
      <g style="fill: #262626" transform="translate(28.291406 220.954068) scale(0.11 -0.11)">
       <use xlink:href="#ArialMT-34"/>
      </g>
     </g>
    </g>
    <g id="ytick_4">
     <g id="line2d_13">
      <path d="M 43.908438 176.58515 
L 490.308437 176.58515 
" clip-path="url(#p218308f004)" style="fill: none; stroke: #cccccc; stroke-linecap: round"/>
     </g>
     <g id="text_14">
      <!-- 6 -->
      <g style="fill: #262626" transform="translate(28.291406 180.521946) scale(0.11 -0.11)">
       <use xlink:href="#ArialMT-36"/>
      </g>
     </g>
    </g>
    <g id="ytick_5">
     <g id="line2d_14">
      <path d="M 43.908438 136.153028 
L 490.308437 136.153028 
" clip-path="url(#p218308f004)" style="fill: none; stroke: #cccccc; stroke-linecap: round"/>
     </g>
     <g id="text_15">
      <!-- 8 -->
      <g style="fill: #262626" transform="translate(28.291406 140.089824) scale(0.11 -0.11)">
       <use xlink:href="#ArialMT-38"/>
      </g>
     </g>
    </g>
    <g id="ytick_6">
     <g id="line2d_15">
      <path d="M 43.908438 95.720906 
L 490.308437 95.720906 
" clip-path="url(#p218308f004)" style="fill: none; stroke: #cccccc; stroke-linecap: round"/>
     </g>
     <g id="text_16">
      <!-- 10 -->
      <g style="fill: #262626" transform="translate(22.174375 99.657703) scale(0.11 -0.11)">
       <use xlink:href="#ArialMT-31"/>
       <use xlink:href="#ArialMT-30" transform="translate(55.615234 0)"/>
      </g>
     </g>
    </g>
    <g id="ytick_7">
     <g id="line2d_16">
      <path d="M 43.908438 55.288784 
L 490.308437 55.288784 
" clip-path="url(#p218308f004)" style="fill: none; stroke: #cccccc; stroke-linecap: round"/>
     </g>
     <g id="text_17">
      <!-- 12 -->
      <g style="fill: #262626" transform="translate(22.174375 59.225581) scale(0.11 -0.11)">
       <use xlink:href="#ArialMT-31"/>
       <use xlink:href="#ArialMT-32" transform="translate(55.615234 0)"/>
      </g>
     </g>
    </g>
    <g id="text_18">
     <!-- FP32 Metric -->
     <g style="fill: #262626" transform="translate(15.789375 192.728437) rotate(-90) scale(0.12 -0.12)">
      <defs>
       <path id="ArialMT-46" d="M 525 0 
L 525 4581 
L 3616 4581 
L 3616 4041 
L 1131 4041 
L 1131 2622 
L 3281 2622 
L 3281 2081 
L 1131 2081 
L 1131 0 
L 525 0 
z
" transform="scale(0.015625)"/>
       <path id="ArialMT-50" d="M 494 0 
L 494 4581 
L 2222 4581 
Q 2678 4581 2919 4538 
Q 3256 4481 3484 4323 
Q 3713 4166 3852 3881 
Q 3991 3597 3991 3256 
Q 3991 2672 3619 2267 
Q 3247 1863 2275 1863 
L 1100 1863 
L 1100 0 
L 494 0 
z
M 1100 2403 
L 2284 2403 
Q 2872 2403 3119 2622 
Q 3366 2841 3366 3238 
Q 3366 3525 3220 3729 
Q 3075 3934 2838 4000 
Q 2684 4041 2272 4041 
L 1100 4041 
L 1100 2403 
z
" transform="scale(0.015625)"/>
       <path id="ArialMT-20" transform="scale(0.015625)"/>
       <path id="ArialMT-4d" d="M 475 0 
L 475 4581 
L 1388 4581 
L 2472 1338 
Q 2622 884 2691 659 
Q 2769 909 2934 1394 
L 4031 4581 
L 4847 4581 
L 4847 0 
L 4263 0 
L 4263 3834 
L 2931 0 
L 2384 0 
L 1059 3900 
L 1059 0 
L 475 0 
z
" transform="scale(0.015625)"/>
       <path id="ArialMT-74" d="M 1650 503 
L 1731 6 
Q 1494 -44 1306 -44 
Q 1000 -44 831 53 
Q 663 150 594 308 
Q 525 466 525 972 
L 525 2881 
L 113 2881 
L 113 3319 
L 525 3319 
L 525 4141 
L 1084 4478 
L 1084 3319 
L 1650 3319 
L 1650 2881 
L 1084 2881 
L 1084 941 
Q 1084 700 1114 631 
Q 1144 563 1211 522 
Q 1278 481 1403 481 
Q 1497 481 1650 503 
z
" transform="scale(0.015625)"/>
       <path id="ArialMT-69" d="M 425 3934 
L 425 4581 
L 988 4581 
L 988 3934 
L 425 3934 
z
M 425 0 
L 425 3319 
L 988 3319 
L 988 0 
L 425 0 
z
" transform="scale(0.015625)"/>
       <path id="ArialMT-63" d="M 2588 1216 
L 3141 1144 
Q 3050 572 2676 248 
Q 2303 -75 1759 -75 
Q 1078 -75 664 370 
Q 250 816 250 1647 
Q 250 2184 428 2587 
Q 606 2991 970 3192 
Q 1334 3394 1763 3394 
Q 2303 3394 2647 3120 
Q 2991 2847 3088 2344 
L 2541 2259 
Q 2463 2594 2264 2762 
Q 2066 2931 1784 2931 
Q 1359 2931 1093 2626 
Q 828 2322 828 1663 
Q 828 994 1084 691 
Q 1341 388 1753 388 
Q 2084 388 2306 591 
Q 2528 794 2588 1216 
z
" transform="scale(0.015625)"/>
      </defs>
      <use xlink:href="#ArialMT-46"/>
      <use xlink:href="#ArialMT-50" transform="translate(61.083984 0)"/>
      <use xlink:href="#ArialMT-33" transform="translate(127.783203 0)"/>
      <use xlink:href="#ArialMT-32" transform="translate(183.398438 0)"/>
      <use xlink:href="#ArialMT-20" transform="translate(239.013672 0)"/>
      <use xlink:href="#ArialMT-4d" transform="translate(266.796875 0)"/>
      <use xlink:href="#ArialMT-65" transform="translate(350.097656 0)"/>
      <use xlink:href="#ArialMT-74" transform="translate(405.712891 0)"/>
      <use xlink:href="#ArialMT-72" transform="translate(433.496094 0)"/>
      <use xlink:href="#ArialMT-69" transform="translate(466.796875 0)"/>
      <use xlink:href="#ArialMT-63" transform="translate(489.013672 0)"/>
     </g>
    </g>
   </g>
   <g id="PathCollection_1">
    <defs>
     <path id="mfa3c48833c" d="M 0 3 
C 0.795609 3 1.55874 2.683901 2.12132 2.12132 
C 2.683901 1.55874 3 0.795609 3 0 
C 3 -0.795609 2.683901 -1.55874 2.12132 -2.12132 
C 1.55874 -2.683901 0.795609 -3 0 -3 
C -0.795609 -3 -1.55874 -2.683901 -2.12132 -2.12132 
C -2.683901 -1.55874 -3 -0.795609 -3 0 
C -3 0.795609 -2.683901 1.55874 -2.12132 2.12132 
C -1.55874 2.683901 -0.795609 3 0 3 
z
" style="stroke: #0000ff; stroke-opacity: 0.7"/>
    </defs>
    <g clip-path="url(#p218308f004)">
     <use xlink:href="#mfa3c48833c" x="419.290256" y="189.182519" style="fill: #0000ff; fill-opacity: 0.7; stroke: #0000ff; stroke-opacity: 0.7"/>
     <use xlink:href="#mfa3c48833c" x="114.926619" y="267.894853" style="fill: #0000ff; fill-opacity: 0.7; stroke: #0000ff; stroke-opacity: 0.7"/>
     <use xlink:href="#mfa3c48833c" x="267.108438" y="256.51987" style="fill: #0000ff; fill-opacity: 0.7; stroke: #0000ff; stroke-opacity: 0.7"/>
     <use xlink:href="#mfa3c48833c" x="470.017528" y="34.389375" style="fill: #0000ff; fill-opacity: 0.7; stroke: #0000ff; stroke-opacity: 0.7"/>
     <use xlink:href="#mfa3c48833c" x="267.108438" y="218.468855" style="fill: #0000ff; fill-opacity: 0.7; stroke: #0000ff; stroke-opacity: 0.7"/>
     <use xlink:href="#mfa3c48833c" x="165.653892" y="269.337948" style="fill: #0000ff; fill-opacity: 0.7; stroke: #0000ff; stroke-opacity: 0.7"/>
     <use xlink:href="#mfa3c48833c" x="64.199347" y="277.665454" style="fill: #0000ff; fill-opacity: 0.7; stroke: #0000ff; stroke-opacity: 0.7"/>
     <use xlink:href="#mfa3c48833c" x="165.653892" y="280.604699" style="fill: #0000ff; fill-opacity: 0.7; stroke: #0000ff; stroke-opacity: 0.7"/>
     <use xlink:href="#mfa3c48833c" x="317.83571" y="275.980429" style="fill: #0000ff; fill-opacity: 0.7; stroke: #0000ff; stroke-opacity: 0.7"/>
     <use xlink:href="#mfa3c48833c" x="368.562983" y="105.780126" style="fill: #0000ff; fill-opacity: 0.7; stroke: #0000ff; stroke-opacity: 0.7"/>
    </g>
   </g>
   <g id="PathCollection_2">
    <defs>
     <path id="mb6ed62ebb7" d="M 0 3 
C 0.795609 3 1.55874 2.683901 2.12132 2.12132 
C 2.683901 1.55874 3 0.795609 3 0 
C 3 -0.795609 2.683901 -1.55874 2.12132 -2.12132 
C 1.55874 -2.683901 0.795609 -3 0 -3 
C -0.795609 -3 -1.55874 -2.683901 -2.12132 -2.12132 
C -2.683901 -1.55874 -3 -0.795609 -3 0 
C -3 0.795609 -2.683901 1.55874 -2.12132 2.12132 
C -1.55874 2.683901 -0.795609 3 0 3 
z
" style="stroke: #ffa500; stroke-opacity: 0.7"/>
    </defs>
    <g clip-path="url(#p218308f004)">
     <use xlink:href="#mb6ed62ebb7" x="419.290256" y="251.296231" style="fill: #ffa500; fill-opacity: 0.7; stroke: #ffa500; stroke-opacity: 0.7"/>
     <use xlink:href="#mb6ed62ebb7" x="114.926619" y="267.894853" style="fill: #ffa500; fill-opacity: 0.7; stroke: #ffa500; stroke-opacity: 0.7"/>
     <use xlink:href="#mb6ed62ebb7" x="267.108438" y="248.247542" style="fill: #ffa500; fill-opacity: 0.7; stroke: #ffa500; stroke-opacity: 0.7"/>
     <use xlink:href="#mb6ed62ebb7" x="470.017528" y="218.833873" style="fill: #ffa500; fill-opacity: 0.7; stroke: #ffa500; stroke-opacity: 0.7"/>
     <use xlink:href="#mb6ed62ebb7" x="267.108438" y="218.468855" style="fill: #ffa500; fill-opacity: 0.7; stroke: #ffa500; stroke-opacity: 0.7"/>
     <use xlink:href="#mb6ed62ebb7" x="165.653892" y="263.629235" style="fill: #ffa500; fill-opacity: 0.7; stroke: #ffa500; stroke-opacity: 0.7"/>
     <use xlink:href="#mb6ed62ebb7" x="64.199347" y="277.665454" style="fill: #ffa500; fill-opacity: 0.7; stroke: #ffa500; stroke-opacity: 0.7"/>
     <use xlink:href="#mb6ed62ebb7" x="165.653892" y="223.838017" style="fill: #ffa500; fill-opacity: 0.7; stroke: #ffa500; stroke-opacity: 0.7"/>
     <use xlink:href="#mb6ed62ebb7" x="317.83571" y="258.061358" style="fill: #ffa500; fill-opacity: 0.7; stroke: #ffa500; stroke-opacity: 0.7"/>
     <use xlink:href="#mb6ed62ebb7" x="368.562983" y="105.780126" style="fill: #ffa500; fill-opacity: 0.7; stroke: #ffa500; stroke-opacity: 0.7"/>
    </g>
   </g>
   <g id="line2d_17">
    <path d="M 43.908438 277.665454 
L 490.308437 277.665454 
" clip-path="url(#p218308f004)" style="fill: none; stroke-dasharray: 5.55,2.4; stroke-dashoffset: 0; stroke: #808080; stroke-width: 1.5"/>
   </g>
   <g id="line2d_18">
    <path d="M 64.199347 277.665454 
L 69.074039 275.587914 
L 73.948732 273.752474 
L 78.823425 272.159133 
L 83.698118 270.807891 
L 88.572811 269.698748 
L 93.447504 268.831705 
L 98.322197 268.20676 
L 103.19689 267.823916 
L 108.071582 267.68317 
L 112.946275 267.784524 
L 117.820968 268.127977 
L 122.695661 268.713529 
L 127.570354 269.541181 
L 132.445047 270.610932 
L 137.31974 271.922782 
L 145.850452 274.350783 
L 149.506472 275.024461 
L 152.756267 275.410735 
L 156.006062 275.596962 
L 159.255858 275.583142 
L 162.505653 275.369275 
L 165.755448 274.955361 
L 169.411468 274.250588 
L 173.067487 273.29263 
L 176.723507 272.081488 
L 180.379527 270.617161 
L 184.035546 268.899649 
L 187.691566 266.928952 
L 191.347586 264.705071 
L 195.003605 262.228005 
L 198.659625 259.497754 
L 202.721869 256.167197 
L 206.784113 252.524066 
L 210.846357 248.568361 
L 214.908601 244.300082 
L 219.783294 239.106752 
L 222.626865 236.479143 
L 225.470436 234.175097 
L 227.907782 232.45773 
L 230.345129 230.978084 
L 232.782475 229.736157 
L 235.219822 228.73195 
L 237.657168 227.965464 
L 240.094514 227.436697 
L 242.531861 227.145651 
L 244.969207 227.092324 
L 247.406554 227.276718 
L 249.8439 227.698831 
L 252.281247 228.358665 
L 254.718593 229.256218 
L 257.15594 230.391492 
L 259.593286 231.764485 
L 262.030632 233.375199 
L 264.467979 235.223633 
L 267.31155 237.68059 
L 270.155121 240.461111 
L 272.998691 243.565195 
L 275.842262 246.992843 
L 278.685833 250.744054 
L 281.935628 255.427352 
L 285.185424 260.533263 
L 288.435219 266.061788 
L 291.685014 272.012926 
L 294.122361 276.502561 
L 295.747258 279.057303 
L 297.372156 281.230911 
L 298.997053 283.023385 
L 300.621951 284.434726 
L 301.840624 285.243112 
L 303.059297 285.83711 
L 304.277971 286.21672 
L 305.496644 286.381943 
L 306.715317 286.332777 
L 307.93399 286.069224 
L 309.152664 285.591283 
L 310.371337 284.898954 
L 311.59001 283.992237 
L 313.214908 282.449789 
L 314.839805 280.526207 
L 316.464703 278.221491 
L 318.0896 275.535641 
L 319.714498 272.468657 
L 321.74562 268.098958 
L 323.776742 263.133737 
L 325.807864 257.572993 
L 327.838986 251.416729 
L 330.276333 243.243122 
L 332.713679 234.211964 
L 335.151026 224.323254 
L 337.588372 213.576993 
L 340.431943 199.955839 
L 343.275514 185.168395 
L 345.71286 172.57881 
L 348.150207 161.042602 
L 350.587553 150.55977 
L 353.024899 141.130315 
L 355.056021 134.077099 
L 357.087143 127.755395 
L 359.118266 122.165202 
L 361.149388 117.306521 
L 362.774285 113.946264 
L 364.399183 111.054175 
L 366.02408 108.630254 
L 367.648978 106.6745 
L 368.867651 105.514919 
L 370.086324 104.618682 
L 371.304998 103.98579 
L 372.523671 103.616242 
L 373.742344 103.510038 
L 374.961017 103.667178 
L 376.179691 104.087663 
L 377.398364 104.771492 
L 378.617037 105.718664 
L 379.83571 106.929181 
L 381.054383 108.403043 
L 382.679281 110.777838 
L 384.304179 113.6208 
L 385.929076 116.93193 
L 387.553974 120.711227 
L 389.585096 126.093709 
L 391.616218 132.207703 
L 393.64734 139.053208 
L 396.490911 148.851778 
L 398.928257 156.417008 
L 401.365604 163.203298 
L 403.396726 168.263514 
L 405.427848 172.782798 
L 407.45897 176.761151 
L 409.490092 180.198572 
L 411.11499 182.559038 
L 412.739887 184.573308 
L 414.364785 186.241382 
L 415.989682 187.563259 
L 417.61458 188.538941 
L 418.833253 189.04351 
L 420.051926 189.353344 
L 421.2706 189.468443 
L 422.489273 189.388807 
L 423.707946 189.114435 
L 424.926619 188.645327 
L 426.145293 187.981485 
L 427.77019 186.793439 
L 429.395088 185.259198 
L 431.019985 183.37876 
L 432.644883 181.152125 
L 434.269781 178.579295 
L 436.300903 174.876419 
L 438.332025 170.63261 
L 440.363147 165.847871 
L 442.394269 160.522199 
L 444.831615 153.417364 
L 447.268962 145.533587 
L 449.706308 136.870868 
L 452.143655 127.429208 
L 454.987225 115.429442 
L 457.830796 102.369451 
L 460.674367 88.249233 
L 463.517938 73.068789 
L 466.767733 54.421475 
L 470.017528 34.389375 
L 470.017528 34.389375 
" clip-path="url(#p218308f004)" style="fill: none; stroke: #0000ff; stroke-width: 2; stroke-linecap: round"/>
   </g>
   <g id="line2d_19">
    <path d="M 64.199347 277.665454 
L 69.886488 277.424048 
L 75.57363 276.966977 
L 81.260772 276.29424 
L 86.947913 275.405838 
L 92.635055 274.30177 
L 98.322197 272.982037 
L 104.009338 271.446638 
L 110.102704 269.562245 
L 116.196071 267.430277 
L 122.289437 265.050734 
L 128.382803 262.423615 
L 134.476169 259.548922 
L 140.569535 256.426989 
L 151.943818 250.520292 
L 163.318102 244.864146 
L 174.692385 239.458551 
L 186.066668 234.303507 
L 197.440952 229.399013 
L 208.409011 224.906968 
L 217.752172 221.285011 
L 221.001967 220.273485 
L 224.251763 219.516615 
L 227.501558 219.014401 
L 230.751353 218.766844 
L 233.594924 218.759129 
L 236.438495 218.946386 
L 239.68829 219.399134 
L 242.938085 220.106538 
L 246.187881 221.068598 
L 249.437676 222.285315 
L 252.687471 223.756689 
L 255.937266 225.482719 
L 259.187062 227.463405 
L 262.436857 229.698747 
L 265.686652 232.188746 
L 268.936447 234.933402 
L 272.592467 238.325533 
L 276.248487 242.039963 
L 279.904506 246.076694 
L 283.560526 250.435723 
L 287.216546 255.117052 
L 291.27879 260.696535 
L 294.122361 264.631845 
L 295.747258 266.477922 
L 297.372156 267.986152 
L 298.997053 269.156536 
L 300.621951 269.989072 
L 301.840624 270.391762 
L 303.059297 270.604414 
L 304.277971 270.627026 
L 305.496644 270.4596 
L 306.715317 270.102135 
L 307.93399 269.55463 
L 309.558888 268.529009 
L 311.183786 267.16554 
L 312.808683 265.464225 
L 314.433581 263.425063 
L 316.058478 261.048053 
L 317.683376 258.333197 
L 319.714498 254.46453 
L 321.74562 250.067976 
L 323.776742 245.143537 
L 325.807864 239.691213 
L 328.245211 232.451614 
L 330.682557 224.451859 
L 333.119904 215.691949 
L 335.55725 206.171883 
L 338.400821 194.104388 
L 341.244392 181.002236 
L 347.337758 152.194092 
L 349.775104 142.435903 
L 351.806226 135.181772 
L 353.837348 128.725542 
L 355.86847 123.067213 
L 357.493368 119.11504 
L 359.118266 115.673524 
L 360.743163 112.742665 
L 362.368061 110.322464 
L 363.586734 108.842431 
L 364.805407 107.649643 
L 366.02408 106.7441 
L 367.242754 106.125801 
L 368.461427 105.794748 
L 369.6801 105.750938 
L 370.898773 105.994374 
L 372.117447 106.525054 
L 373.33612 107.342979 
L 374.554793 108.448148 
L 375.773466 109.840562 
L 376.992139 111.520221 
L 378.617037 114.206591 
L 380.241935 117.403618 
L 381.866832 121.111302 
L 383.49173 125.329644 
L 385.522852 131.320682 
L 387.553974 138.109623 
L 389.585096 145.696465 
L 391.616218 154.081209 
L 394.053564 165.193714 
L 397.30336 180.092491 
L 400.553155 193.864653 
L 403.396726 204.991117 
L 406.240297 215.255017 
L 409.083867 224.656351 
L 411.521214 232.028107 
L 413.95856 238.766141 
L 416.395907 244.870454 
L 418.833253 250.341046 
L 420.864375 254.41578 
L 422.895497 258.05043 
L 424.926619 261.244995 
L 426.957741 263.999477 
L 428.582639 265.886201 
L 430.207537 267.491272 
L 431.832434 268.814688 
L 433.457332 269.856451 
L 435.082229 270.61656 
L 436.707127 271.095015 
L 438.332025 271.291817 
L 439.956922 271.206964 
L 441.58182 270.840458 
L 443.206718 270.192297 
L 444.831615 269.262483 
L 446.456513 268.051015 
L 448.08141 266.557893 
L 449.706308 264.783117 
L 451.331206 262.726687 
L 453.362328 259.760074 
L 455.39345 256.353377 
L 457.424572 252.506596 
L 459.455694 248.219731 
L 461.89304 242.494581 
L 464.330387 236.13571 
L 466.767733 229.143118 
L 469.20508 221.516805 
L 470.017528 218.833873 
L 470.017528 218.833873 
" clip-path="url(#p218308f004)" style="fill: none; stroke: #ffa500; stroke-width: 2; stroke-linecap: round"/>
   </g>
   <g id="patch_3">
    <path d="M 43.908438 298.989375 
L 43.908438 21.789375 
" style="fill: none; stroke: #cccccc; stroke-width: 1.25; stroke-linejoin: miter; stroke-linecap: square"/>
   </g>
   <g id="patch_4">
    <path d="M 490.308437 298.989375 
L 490.308437 21.789375 
" style="fill: none; stroke: #cccccc; stroke-width: 1.25; stroke-linejoin: miter; stroke-linecap: square"/>
   </g>
   <g id="patch_5">
    <path d="M 43.908438 298.989375 
L 490.308438 298.989375 
" style="fill: none; stroke: #cccccc; stroke-width: 1.25; stroke-linejoin: miter; stroke-linecap: square"/>
   </g>
   <g id="patch_6">
    <path d="M 43.908438 21.789375 
L 490.308438 21.789375 
" style="fill: none; stroke: #cccccc; stroke-width: 1.25; stroke-linejoin: miter; stroke-linecap: square"/>
   </g>
   <g id="text_19">
    <!-- FP32 Over Time -->
    <g style="fill: #262626" transform="translate(223.43125 15.789375) scale(0.12 -0.12)">
     <defs>
      <path id="ArialMT-4f" d="M 309 2231 
Q 309 3372 921 4017 
Q 1534 4663 2503 4663 
Q 3138 4663 3647 4359 
Q 4156 4056 4423 3514 
Q 4691 2972 4691 2284 
Q 4691 1588 4409 1038 
Q 4128 488 3612 205 
Q 3097 -78 2500 -78 
Q 1853 -78 1343 234 
Q 834 547 571 1087 
Q 309 1628 309 2231 
z
M 934 2222 
Q 934 1394 1379 917 
Q 1825 441 2497 441 
Q 3181 441 3623 922 
Q 4066 1403 4066 2288 
Q 4066 2847 3877 3264 
Q 3688 3681 3323 3911 
Q 2959 4141 2506 4141 
Q 1863 4141 1398 3698 
Q 934 3256 934 2222 
z
" transform="scale(0.015625)"/>
      <path id="ArialMT-76" d="M 1344 0 
L 81 3319 
L 675 3319 
L 1388 1331 
Q 1503 1009 1600 663 
Q 1675 925 1809 1294 
L 2547 3319 
L 3125 3319 
L 1869 0 
L 1344 0 
z
" transform="scale(0.015625)"/>
      <path id="ArialMT-54" d="M 1659 0 
L 1659 4041 
L 150 4041 
L 150 4581 
L 3781 4581 
L 3781 4041 
L 2266 4041 
L 2266 0 
L 1659 0 
z
" transform="scale(0.015625)"/>
      <path id="ArialMT-6d" d="M 422 0 
L 422 3319 
L 925 3319 
L 925 2853 
Q 1081 3097 1340 3245 
Q 1600 3394 1931 3394 
Q 2300 3394 2536 3241 
Q 2772 3088 2869 2813 
Q 3263 3394 3894 3394 
Q 4388 3394 4653 3120 
Q 4919 2847 4919 2278 
L 4919 0 
L 4359 0 
L 4359 2091 
Q 4359 2428 4304 2576 
Q 4250 2725 4106 2815 
Q 3963 2906 3769 2906 
Q 3419 2906 3187 2673 
Q 2956 2441 2956 1928 
L 2956 0 
L 2394 0 
L 2394 2156 
Q 2394 2531 2256 2718 
Q 2119 2906 1806 2906 
Q 1569 2906 1367 2781 
Q 1166 2656 1075 2415 
Q 984 2175 984 1722 
L 984 0 
L 422 0 
z
" transform="scale(0.015625)"/>
     </defs>
     <use xlink:href="#ArialMT-46"/>
     <use xlink:href="#ArialMT-50" transform="translate(61.083984 0)"/>
     <use xlink:href="#ArialMT-33" transform="translate(127.783203 0)"/>
     <use xlink:href="#ArialMT-32" transform="translate(183.398438 0)"/>
     <use xlink:href="#ArialMT-20" transform="translate(239.013672 0)"/>
     <use xlink:href="#ArialMT-4f" transform="translate(266.796875 0)"/>
     <use xlink:href="#ArialMT-76" transform="translate(344.580078 0)"/>
     <use xlink:href="#ArialMT-65" transform="translate(394.580078 0)"/>
     <use xlink:href="#ArialMT-72" transform="translate(450.195312 0)"/>
     <use xlink:href="#ArialMT-20" transform="translate(483.496094 0)"/>
     <use xlink:href="#ArialMT-54" transform="translate(509.529297 0)"/>
     <use xlink:href="#ArialMT-69" transform="translate(566.863281 0)"/>
     <use xlink:href="#ArialMT-6d" transform="translate(589.080078 0)"/>
     <use xlink:href="#ArialMT-65" transform="translate(672.380859 0)"/>
    </g>
   </g>
   <g id="legend_1">
    <g id="patch_7">
     <path d="M 51.608438 93.365 
L 242.13875 93.365 
Q 244.33875 93.365 244.33875 91.165 
L 244.33875 29.489375 
Q 244.33875 27.289375 242.13875 27.289375 
L 51.608438 27.289375 
Q 49.408438 27.289375 49.408438 29.489375 
L 49.408438 91.165 
Q 49.408438 93.365 51.608438 93.365 
z
" style="fill: #ffffff; opacity: 0.8; stroke: #cccccc; stroke-linejoin: miter"/>
    </g>
    <g id="PathCollection_3">
     <g>
      <use xlink:href="#mfa3c48833c" x="64.808437" y="36.809531" style="fill: #0000ff; fill-opacity: 0.7; stroke: #0000ff; stroke-opacity: 0.7"/>
     </g>
    </g>
    <g id="text_20">
     <!-- Speedup vs Earliest Year points -->
     <g style="fill: #262626" transform="translate(84.608438 39.697031) scale(0.11 -0.11)">
      <defs>
       <path id="ArialMT-53" d="M 288 1472 
L 859 1522 
Q 900 1178 1048 958 
Q 1197 738 1509 602 
Q 1822 466 2213 466 
Q 2559 466 2825 569 
Q 3091 672 3220 851 
Q 3350 1031 3350 1244 
Q 3350 1459 3225 1620 
Q 3100 1781 2813 1891 
Q 2628 1963 1997 2114 
Q 1366 2266 1113 2400 
Q 784 2572 623 2826 
Q 463 3081 463 3397 
Q 463 3744 659 4045 
Q 856 4347 1234 4503 
Q 1613 4659 2075 4659 
Q 2584 4659 2973 4495 
Q 3363 4331 3572 4012 
Q 3781 3694 3797 3291 
L 3216 3247 
Q 3169 3681 2898 3903 
Q 2628 4125 2100 4125 
Q 1550 4125 1298 3923 
Q 1047 3722 1047 3438 
Q 1047 3191 1225 3031 
Q 1400 2872 2139 2705 
Q 2878 2538 3153 2413 
Q 3553 2228 3743 1945 
Q 3934 1663 3934 1294 
Q 3934 928 3725 604 
Q 3516 281 3123 101 
Q 2731 -78 2241 -78 
Q 1619 -78 1198 103 
Q 778 284 539 648 
Q 300 1013 288 1472 
z
" transform="scale(0.015625)"/>
       <path id="ArialMT-70" d="M 422 -1272 
L 422 3319 
L 934 3319 
L 934 2888 
Q 1116 3141 1344 3267 
Q 1572 3394 1897 3394 
Q 2322 3394 2647 3175 
Q 2972 2956 3137 2557 
Q 3303 2159 3303 1684 
Q 3303 1175 3120 767 
Q 2938 359 2589 142 
Q 2241 -75 1856 -75 
Q 1575 -75 1351 44 
Q 1128 163 984 344 
L 984 -1272 
L 422 -1272 
z
M 931 1641 
Q 931 1000 1190 694 
Q 1450 388 1819 388 
Q 2194 388 2461 705 
Q 2728 1022 2728 1688 
Q 2728 2322 2467 2637 
Q 2206 2953 1844 2953 
Q 1484 2953 1207 2617 
Q 931 2281 931 1641 
z
" transform="scale(0.015625)"/>
       <path id="ArialMT-64" d="M 2575 0 
L 2575 419 
Q 2259 -75 1647 -75 
Q 1250 -75 917 144 
Q 584 363 401 755 
Q 219 1147 219 1656 
Q 219 2153 384 2558 
Q 550 2963 881 3178 
Q 1213 3394 1622 3394 
Q 1922 3394 2156 3267 
Q 2391 3141 2538 2938 
L 2538 4581 
L 3097 4581 
L 3097 0 
L 2575 0 
z
M 797 1656 
Q 797 1019 1065 703 
Q 1334 388 1700 388 
Q 2069 388 2326 689 
Q 2584 991 2584 1609 
Q 2584 2291 2321 2609 
Q 2059 2928 1675 2928 
Q 1300 2928 1048 2622 
Q 797 2316 797 1656 
z
" transform="scale(0.015625)"/>
       <path id="ArialMT-75" d="M 2597 0 
L 2597 488 
Q 2209 -75 1544 -75 
Q 1250 -75 995 37 
Q 741 150 617 320 
Q 494 491 444 738 
Q 409 903 409 1263 
L 409 3319 
L 972 3319 
L 972 1478 
Q 972 1038 1006 884 
Q 1059 663 1231 536 
Q 1403 409 1656 409 
Q 1909 409 2131 539 
Q 2353 669 2445 892 
Q 2538 1116 2538 1541 
L 2538 3319 
L 3100 3319 
L 3100 0 
L 2597 0 
z
" transform="scale(0.015625)"/>
       <path id="ArialMT-73" d="M 197 991 
L 753 1078 
Q 800 744 1014 566 
Q 1228 388 1613 388 
Q 2000 388 2187 545 
Q 2375 703 2375 916 
Q 2375 1106 2209 1216 
Q 2094 1291 1634 1406 
Q 1016 1563 777 1677 
Q 538 1791 414 1992 
Q 291 2194 291 2438 
Q 291 2659 392 2848 
Q 494 3038 669 3163 
Q 800 3259 1026 3326 
Q 1253 3394 1513 3394 
Q 1903 3394 2198 3281 
Q 2494 3169 2634 2976 
Q 2775 2784 2828 2463 
L 2278 2388 
Q 2241 2644 2061 2787 
Q 1881 2931 1553 2931 
Q 1166 2931 1000 2803 
Q 834 2675 834 2503 
Q 834 2394 903 2306 
Q 972 2216 1119 2156 
Q 1203 2125 1616 2013 
Q 2213 1853 2448 1751 
Q 2684 1650 2818 1456 
Q 2953 1263 2953 975 
Q 2953 694 2789 445 
Q 2625 197 2315 61 
Q 2006 -75 1616 -75 
Q 969 -75 630 194 
Q 291 463 197 991 
z
" transform="scale(0.015625)"/>
       <path id="ArialMT-45" d="M 506 0 
L 506 4581 
L 3819 4581 
L 3819 4041 
L 1113 4041 
L 1113 2638 
L 3647 2638 
L 3647 2100 
L 1113 2100 
L 1113 541 
L 3925 541 
L 3925 0 
L 506 0 
z
" transform="scale(0.015625)"/>
       <path id="ArialMT-6c" d="M 409 0 
L 409 4581 
L 972 4581 
L 972 0 
L 409 0 
z
" transform="scale(0.015625)"/>
       <path id="ArialMT-6f" d="M 213 1659 
Q 213 2581 725 3025 
Q 1153 3394 1769 3394 
Q 2453 3394 2887 2945 
Q 3322 2497 3322 1706 
Q 3322 1066 3130 698 
Q 2938 331 2570 128 
Q 2203 -75 1769 -75 
Q 1072 -75 642 372 
Q 213 819 213 1659 
z
M 791 1659 
Q 791 1022 1069 705 
Q 1347 388 1769 388 
Q 2188 388 2466 706 
Q 2744 1025 2744 1678 
Q 2744 2294 2464 2611 
Q 2184 2928 1769 2928 
Q 1347 2928 1069 2612 
Q 791 2297 791 1659 
z
" transform="scale(0.015625)"/>
       <path id="ArialMT-6e" d="M 422 0 
L 422 3319 
L 928 3319 
L 928 2847 
Q 1294 3394 1984 3394 
Q 2284 3394 2536 3286 
Q 2788 3178 2913 3003 
Q 3038 2828 3088 2588 
Q 3119 2431 3119 2041 
L 3119 0 
L 2556 0 
L 2556 2019 
Q 2556 2363 2490 2533 
Q 2425 2703 2258 2804 
Q 2091 2906 1866 2906 
Q 1506 2906 1245 2678 
Q 984 2450 984 1813 
L 984 0 
L 422 0 
z
" transform="scale(0.015625)"/>
      </defs>
      <use xlink:href="#ArialMT-53"/>
      <use xlink:href="#ArialMT-70" transform="translate(66.699219 0)"/>
      <use xlink:href="#ArialMT-65" transform="translate(122.314453 0)"/>
      <use xlink:href="#ArialMT-65" transform="translate(177.929688 0)"/>
      <use xlink:href="#ArialMT-64" transform="translate(233.544922 0)"/>
      <use xlink:href="#ArialMT-75" transform="translate(289.160156 0)"/>
      <use xlink:href="#ArialMT-70" transform="translate(344.775391 0)"/>
      <use xlink:href="#ArialMT-20" transform="translate(400.390625 0)"/>
      <use xlink:href="#ArialMT-76" transform="translate(428.173828 0)"/>
      <use xlink:href="#ArialMT-73" transform="translate(478.173828 0)"/>
      <use xlink:href="#ArialMT-20" transform="translate(528.173828 0)"/>
      <use xlink:href="#ArialMT-45" transform="translate(555.957031 0)"/>
      <use xlink:href="#ArialMT-61" transform="translate(622.65625 0)"/>
      <use xlink:href="#ArialMT-72" transform="translate(678.271484 0)"/>
      <use xlink:href="#ArialMT-6c" transform="translate(711.572266 0)"/>
      <use xlink:href="#ArialMT-69" transform="translate(733.789062 0)"/>
      <use xlink:href="#ArialMT-65" transform="translate(756.005859 0)"/>
      <use xlink:href="#ArialMT-73" transform="translate(811.621094 0)"/>
      <use xlink:href="#ArialMT-74" transform="translate(861.621094 0)"/>
      <use xlink:href="#ArialMT-20" transform="translate(889.404297 0)"/>
      <use xlink:href="#ArialMT-59" transform="translate(915.4375 0)"/>
      <use xlink:href="#ArialMT-65" transform="translate(973.011719 0)"/>
      <use xlink:href="#ArialMT-61" transform="translate(1028.626953 0)"/>
      <use xlink:href="#ArialMT-72" transform="translate(1084.242188 0)"/>
      <use xlink:href="#ArialMT-20" transform="translate(1117.542969 0)"/>
      <use xlink:href="#ArialMT-70" transform="translate(1145.326172 0)"/>
      <use xlink:href="#ArialMT-6f" transform="translate(1200.941406 0)"/>
      <use xlink:href="#ArialMT-69" transform="translate(1256.556641 0)"/>
      <use xlink:href="#ArialMT-6e" transform="translate(1278.773438 0)"/>
      <use xlink:href="#ArialMT-74" transform="translate(1334.388672 0)"/>
      <use xlink:href="#ArialMT-73" transform="translate(1362.171875 0)"/>
     </g>
    </g>
    <g id="line2d_20">
     <path d="M 53.808438 51.540938 
L 64.808437 51.540938 
L 75.808437 51.540938 
" style="fill: none; stroke: #0000ff; stroke-width: 2; stroke-linecap: round"/>
    </g>
    <g id="text_21">
     <!-- Speedup vs Earliest Year -->
     <g style="fill: #262626" transform="translate(84.608438 55.390938) scale(0.11 -0.11)">
      <use xlink:href="#ArialMT-53"/>
      <use xlink:href="#ArialMT-70" transform="translate(66.699219 0)"/>
      <use xlink:href="#ArialMT-65" transform="translate(122.314453 0)"/>
      <use xlink:href="#ArialMT-65" transform="translate(177.929688 0)"/>
      <use xlink:href="#ArialMT-64" transform="translate(233.544922 0)"/>
      <use xlink:href="#ArialMT-75" transform="translate(289.160156 0)"/>
      <use xlink:href="#ArialMT-70" transform="translate(344.775391 0)"/>
      <use xlink:href="#ArialMT-20" transform="translate(400.390625 0)"/>
      <use xlink:href="#ArialMT-76" transform="translate(428.173828 0)"/>
      <use xlink:href="#ArialMT-73" transform="translate(478.173828 0)"/>
      <use xlink:href="#ArialMT-20" transform="translate(528.173828 0)"/>
      <use xlink:href="#ArialMT-45" transform="translate(555.957031 0)"/>
      <use xlink:href="#ArialMT-61" transform="translate(622.65625 0)"/>
      <use xlink:href="#ArialMT-72" transform="translate(678.271484 0)"/>
      <use xlink:href="#ArialMT-6c" transform="translate(711.572266 0)"/>
      <use xlink:href="#ArialMT-69" transform="translate(733.789062 0)"/>
      <use xlink:href="#ArialMT-65" transform="translate(756.005859 0)"/>
      <use xlink:href="#ArialMT-73" transform="translate(811.621094 0)"/>
      <use xlink:href="#ArialMT-74" transform="translate(861.621094 0)"/>
      <use xlink:href="#ArialMT-20" transform="translate(889.404297 0)"/>
      <use xlink:href="#ArialMT-59" transform="translate(915.4375 0)"/>
      <use xlink:href="#ArialMT-65" transform="translate(973.011719 0)"/>
      <use xlink:href="#ArialMT-61" transform="translate(1028.626953 0)"/>
      <use xlink:href="#ArialMT-72" transform="translate(1084.242188 0)"/>
     </g>
    </g>
    <g id="PathCollection_4">
     <g>
      <use xlink:href="#mb6ed62ebb7" x="64.808437" y="68.197344" style="fill: #ffa500; fill-opacity: 0.7; stroke: #ffa500; stroke-opacity: 0.7"/>
     </g>
    </g>
    <g id="text_22">
     <!-- Performance per Watt points -->
     <g style="fill: #262626" transform="translate(84.608438 71.084844) scale(0.11 -0.11)">
      <defs>
       <path id="ArialMT-66" d="M 556 0 
L 556 2881 
L 59 2881 
L 59 3319 
L 556 3319 
L 556 3672 
Q 556 4006 616 4169 
Q 697 4388 901 4523 
Q 1106 4659 1475 4659 
Q 1713 4659 2000 4603 
L 1916 4113 
Q 1741 4144 1584 4144 
Q 1328 4144 1222 4034 
Q 1116 3925 1116 3625 
L 1116 3319 
L 1763 3319 
L 1763 2881 
L 1116 2881 
L 1116 0 
L 556 0 
z
" transform="scale(0.015625)"/>
       <path id="ArialMT-57" d="M 1294 0 
L 78 4581 
L 700 4581 
L 1397 1578 
Q 1509 1106 1591 641 
Q 1766 1375 1797 1488 
L 2669 4581 
L 3400 4581 
L 4056 2263 
Q 4303 1400 4413 641 
Q 4500 1075 4641 1638 
L 5359 4581 
L 5969 4581 
L 4713 0 
L 4128 0 
L 3163 3491 
Q 3041 3928 3019 4028 
Q 2947 3713 2884 3491 
L 1913 0 
L 1294 0 
z
" transform="scale(0.015625)"/>
      </defs>
      <use xlink:href="#ArialMT-50"/>
      <use xlink:href="#ArialMT-65" transform="translate(66.699219 0)"/>
      <use xlink:href="#ArialMT-72" transform="translate(122.314453 0)"/>
      <use xlink:href="#ArialMT-66" transform="translate(155.615234 0)"/>
      <use xlink:href="#ArialMT-6f" transform="translate(183.398438 0)"/>
      <use xlink:href="#ArialMT-72" transform="translate(239.013672 0)"/>
      <use xlink:href="#ArialMT-6d" transform="translate(272.314453 0)"/>
      <use xlink:href="#ArialMT-61" transform="translate(355.615234 0)"/>
      <use xlink:href="#ArialMT-6e" transform="translate(411.230469 0)"/>
      <use xlink:href="#ArialMT-63" transform="translate(466.845703 0)"/>
      <use xlink:href="#ArialMT-65" transform="translate(516.845703 0)"/>
      <use xlink:href="#ArialMT-20" transform="translate(572.460938 0)"/>
      <use xlink:href="#ArialMT-70" transform="translate(600.244141 0)"/>
      <use xlink:href="#ArialMT-65" transform="translate(655.859375 0)"/>
      <use xlink:href="#ArialMT-72" transform="translate(711.474609 0)"/>
      <use xlink:href="#ArialMT-20" transform="translate(744.775391 0)"/>
      <use xlink:href="#ArialMT-57" transform="translate(772.558594 0)"/>
      <use xlink:href="#ArialMT-61" transform="translate(863.193359 0)"/>
      <use xlink:href="#ArialMT-74" transform="translate(918.808594 0)"/>
      <use xlink:href="#ArialMT-74" transform="translate(946.591797 0)"/>
      <use xlink:href="#ArialMT-20" transform="translate(974.375 0)"/>
      <use xlink:href="#ArialMT-70" transform="translate(1002.158203 0)"/>
      <use xlink:href="#ArialMT-6f" transform="translate(1057.773438 0)"/>
      <use xlink:href="#ArialMT-69" transform="translate(1113.388672 0)"/>
      <use xlink:href="#ArialMT-6e" transform="translate(1135.605469 0)"/>
      <use xlink:href="#ArialMT-74" transform="translate(1191.220703 0)"/>
      <use xlink:href="#ArialMT-73" transform="translate(1219.003906 0)"/>
     </g>
    </g>
    <g id="line2d_21">
     <path d="M 53.808438 82.92875 
L 64.808437 82.92875 
L 75.808437 82.92875 
" style="fill: none; stroke: #ffa500; stroke-width: 2; stroke-linecap: round"/>
    </g>
    <g id="text_23">
     <!-- Performance per Watt -->
     <g style="fill: #262626" transform="translate(84.608438 86.77875) scale(0.11 -0.11)">
      <use xlink:href="#ArialMT-50"/>
      <use xlink:href="#ArialMT-65" transform="translate(66.699219 0)"/>
      <use xlink:href="#ArialMT-72" transform="translate(122.314453 0)"/>
      <use xlink:href="#ArialMT-66" transform="translate(155.615234 0)"/>
      <use xlink:href="#ArialMT-6f" transform="translate(183.398438 0)"/>
      <use xlink:href="#ArialMT-72" transform="translate(239.013672 0)"/>
      <use xlink:href="#ArialMT-6d" transform="translate(272.314453 0)"/>
      <use xlink:href="#ArialMT-61" transform="translate(355.615234 0)"/>
      <use xlink:href="#ArialMT-6e" transform="translate(411.230469 0)"/>
      <use xlink:href="#ArialMT-63" transform="translate(466.845703 0)"/>
      <use xlink:href="#ArialMT-65" transform="translate(516.845703 0)"/>
      <use xlink:href="#ArialMT-20" transform="translate(572.460938 0)"/>
      <use xlink:href="#ArialMT-70" transform="translate(600.244141 0)"/>
      <use xlink:href="#ArialMT-65" transform="translate(655.859375 0)"/>
      <use xlink:href="#ArialMT-72" transform="translate(711.474609 0)"/>
      <use xlink:href="#ArialMT-20" transform="translate(744.775391 0)"/>
      <use xlink:href="#ArialMT-57" transform="translate(772.558594 0)"/>
      <use xlink:href="#ArialMT-61" transform="translate(863.193359 0)"/>
      <use xlink:href="#ArialMT-74" transform="translate(918.808594 0)"/>
      <use xlink:href="#ArialMT-74" transform="translate(946.591797 0)"/>
     </g>
    </g>
   </g>
  </g>
 </g>
 <defs>
  <clipPath id="p218308f004">
   <rect x="43.908438" y="21.789375" width="446.4" height="277.2"/>
  </clipPath>
 </defs>
</svg>
