<?xml version="1.0" encoding="utf-8" standalone="no"?>
<!DOCTYPE svg PUBLIC "-//W3C//DTD SVG 1.1//EN"
  "http://www.w3.org/Graphics/SVG/1.1/DTD/svg11.dtd">
<svg xmlns:xlink="http://www.w3.org/1999/xlink" width="1075.566986pt" height="338.4259pt" viewBox="0 0 1075.566986 338.4259" xmlns="http://www.w3.org/2000/svg" version="1.1">
 <metadata>
  <rdf:RDF xmlns:dc="http://purl.org/dc/elements/1.1/" xmlns:cc="http://creativecommons.org/ns#" xmlns:rdf="http://www.w3.org/1999/02/22-rdf-syntax-ns#">
   <cc:Work>
    <dc:type rdf:resource="http://purl.org/dc/dcmitype/StillImage"/>
    <dc:date>2025-11-05T04:43:22.829770</dc:date>
    <dc:format>image/svg+xml</dc:format>
    <dc:creator>
     <cc:Agent>
      <dc:title>Matplotlib v3.10.3, https://matplotlib.org/</dc:title>
     </cc:Agent>
    </dc:creator>
   </cc:Work>
  </rdf:RDF>
 </metadata>
 <defs>
  <style type="text/css">*{stroke-linejoin: round; stroke-linecap: butt}</style>
 </defs>
 <g id="figure_1">
  <g id="patch_1">
   <path d="M -0 338.4259 
L 1075.566986 338.4259 
L 1075.566986 0 
L -0 0 
z
" style="fill: #ffffff"/>
  </g>
  <g id="axes_1">
   <g id="patch_2">
    <path d="M 58.512656 255.52 
L 342.24147 255.52 
L 342.24147 42.4 
L 58.512656 42.4 
z
" style="fill: #ffffff"/>
   </g>
   <g id="matplotlib.axis_1">
    <g id="xtick_1">
     <g id="line2d_1">
      <path d="M 71.409421 255.52 
L 71.409421 42.4 
" clip-path="url(#pfe0f3616af)" style="fill: none; stroke-dasharray: 5.55,2.4; stroke-dashoffset: 0; stroke: #cccccc; stroke-opacity: 0.3; stroke-width: 1.5"/>
     </g>
     <g id="text_1">
      <!-- 2016 -->
      <g style="fill: #262626" transform="translate(53.058327 279.830391) scale(0.165 -0.165)">
       <defs>
        <path id="ArialMT-32" d="M 3222 541 
L 3222 0 
L 194 0 
Q 188 203 259 391 
Q 375 700 629 1000 
Q 884 1300 1366 1694 
Q 2113 2306 2375 2664 
Q 2638 3022 2638 3341 
Q 2638 3675 2398 3904 
Q 2159 4134 1775 4134 
Q 1369 4134 1125 3890 
Q 881 3647 878 3216 
L 300 3275 
Q 359 3922 746 4261 
Q 1134 4600 1788 4600 
Q 2447 4600 2831 4234 
Q 3216 3869 3216 3328 
Q 3216 3053 3103 2787 
Q 2991 2522 2730 2228 
Q 2469 1934 1863 1422 
Q 1356 997 1212 845 
Q 1069 694 975 541 
L 3222 541 
z
" transform="scale(0.015625)"/>
        <path id="ArialMT-30" d="M 266 2259 
Q 266 3072 433 3567 
Q 600 4063 929 4331 
Q 1259 4600 1759 4600 
Q 2128 4600 2406 4451 
Q 2684 4303 2865 4023 
Q 3047 3744 3150 3342 
Q 3253 2941 3253 2259 
Q 3253 1453 3087 958 
Q 2922 463 2592 192 
Q 2263 -78 1759 -78 
Q 1097 -78 719 397 
Q 266 969 266 2259 
z
M 844 2259 
Q 844 1131 1108 757 
Q 1372 384 1759 384 
Q 2147 384 2411 759 
Q 2675 1134 2675 2259 
Q 2675 3391 2411 3762 
Q 2147 4134 1753 4134 
Q 1366 4134 1134 3806 
Q 844 3388 844 2259 
z
" transform="scale(0.015625)"/>
        <path id="ArialMT-31" d="M 2384 0 
L 1822 0 
L 1822 3584 
Q 1619 3391 1289 3197 
Q 959 3003 697 2906 
L 697 3450 
Q 1169 3672 1522 3987 
Q 1875 4303 2022 4600 
L 2384 4600 
L 2384 0 
z
" transform="scale(0.015625)"/>
        <path id="ArialMT-36" d="M 3184 3459 
L 2625 3416 
Q 2550 3747 2413 3897 
Q 2184 4138 1850 4138 
Q 1581 4138 1378 3988 
Q 1113 3794 959 3422 
Q 806 3050 800 2363 
Q 1003 2672 1297 2822 
Q 1591 2972 1913 2972 
Q 2475 2972 2870 2558 
Q 3266 2144 3266 1488 
Q 3266 1056 3080 686 
Q 2894 316 2569 119 
Q 2244 -78 1831 -78 
Q 1128 -78 684 439 
Q 241 956 241 2144 
Q 241 3472 731 4075 
Q 1159 4600 1884 4600 
Q 2425 4600 2770 4297 
Q 3116 3994 3184 3459 
z
M 888 1484 
Q 888 1194 1011 928 
Q 1134 663 1356 523 
Q 1578 384 1822 384 
Q 2178 384 2434 671 
Q 2691 959 2691 1453 
Q 2691 1928 2437 2201 
Q 2184 2475 1800 2475 
Q 1419 2475 1153 2201 
Q 888 1928 888 1484 
z
" transform="scale(0.015625)"/>
       </defs>
       <use xlink:href="#ArialMT-32"/>
       <use xlink:href="#ArialMT-30" transform="translate(55.615234 0)"/>
       <use xlink:href="#ArialMT-31" transform="translate(111.230469 0)"/>
       <use xlink:href="#ArialMT-36" transform="translate(166.845703 0)"/>
      </g>
     </g>
    </g>
    <g id="xtick_2">
     <g id="line2d_2">
      <path d="M 135.893242 255.52 
L 135.893242 42.4 
" clip-path="url(#pfe0f3616af)" style="fill: none; stroke-dasharray: 5.55,2.4; stroke-dashoffset: 0; stroke: #cccccc; stroke-opacity: 0.3; stroke-width: 1.5"/>
     </g>
     <g id="text_2">
      <!-- 2018 -->
      <g style="fill: #262626" transform="translate(117.542148 279.830391) scale(0.165 -0.165)">
       <defs>
        <path id="ArialMT-38" d="M 1131 2484 
Q 781 2613 612 2850 
Q 444 3088 444 3419 
Q 444 3919 803 4259 
Q 1163 4600 1759 4600 
Q 2359 4600 2725 4251 
Q 3091 3903 3091 3403 
Q 3091 3084 2923 2848 
Q 2756 2613 2416 2484 
Q 2838 2347 3058 2040 
Q 3278 1734 3278 1309 
Q 3278 722 2862 322 
Q 2447 -78 1769 -78 
Q 1091 -78 675 323 
Q 259 725 259 1325 
Q 259 1772 486 2073 
Q 713 2375 1131 2484 
z
M 1019 3438 
Q 1019 3113 1228 2906 
Q 1438 2700 1772 2700 
Q 2097 2700 2305 2904 
Q 2513 3109 2513 3406 
Q 2513 3716 2298 3927 
Q 2084 4138 1766 4138 
Q 1444 4138 1231 3931 
Q 1019 3725 1019 3438 
z
M 838 1322 
Q 838 1081 952 856 
Q 1066 631 1291 507 
Q 1516 384 1775 384 
Q 2178 384 2440 643 
Q 2703 903 2703 1303 
Q 2703 1709 2433 1975 
Q 2163 2241 1756 2241 
Q 1359 2241 1098 1978 
Q 838 1716 838 1322 
z
" transform="scale(0.015625)"/>
       </defs>
       <use xlink:href="#ArialMT-32"/>
       <use xlink:href="#ArialMT-30" transform="translate(55.615234 0)"/>
       <use xlink:href="#ArialMT-31" transform="translate(111.230469 0)"/>
       <use xlink:href="#ArialMT-38" transform="translate(166.845703 0)"/>
      </g>
     </g>
    </g>
    <g id="xtick_3">
     <g id="line2d_3">
      <path d="M 200.377063 255.52 
L 200.377063 42.4 
" clip-path="url(#pfe0f3616af)" style="fill: none; stroke-dasharray: 5.55,2.4; stroke-dashoffset: 0; stroke: #cccccc; stroke-opacity: 0.3; stroke-width: 1.5"/>
     </g>
     <g id="text_3">
      <!-- 2020 -->
      <g style="fill: #262626" transform="translate(182.025969 279.830391) scale(0.165 -0.165)">
       <use xlink:href="#ArialMT-32"/>
       <use xlink:href="#ArialMT-30" transform="translate(55.615234 0)"/>
       <use xlink:href="#ArialMT-32" transform="translate(111.230469 0)"/>
       <use xlink:href="#ArialMT-30" transform="translate(166.845703 0)"/>
      </g>
     </g>
    </g>
    <g id="xtick_4">
     <g id="line2d_4">
      <path d="M 264.860884 255.52 
L 264.860884 42.4 
" clip-path="url(#pfe0f3616af)" style="fill: none; stroke-dasharray: 5.55,2.4; stroke-dashoffset: 0; stroke: #cccccc; stroke-opacity: 0.3; stroke-width: 1.5"/>
     </g>
     <g id="text_4">
      <!-- 2022 -->
      <g style="fill: #262626" transform="translate(246.509791 279.830391) scale(0.165 -0.165)">
       <use xlink:href="#ArialMT-32"/>
       <use xlink:href="#ArialMT-30" transform="translate(55.615234 0)"/>
       <use xlink:href="#ArialMT-32" transform="translate(111.230469 0)"/>
       <use xlink:href="#ArialMT-32" transform="translate(166.845703 0)"/>
      </g>
     </g>
    </g>
    <g id="xtick_5">
     <g id="line2d_5">
      <path d="M 329.344706 255.52 
L 329.344706 42.4 
" clip-path="url(#pfe0f3616af)" style="fill: none; stroke-dasharray: 5.55,2.4; stroke-dashoffset: 0; stroke: #cccccc; stroke-opacity: 0.3; stroke-width: 1.5"/>
     </g>
     <g id="text_5">
      <!-- 2024 -->
      <g style="fill: #262626" transform="translate(310.993612 279.830391) scale(0.165 -0.165)">
       <defs>
        <path id="ArialMT-34" d="M 2069 0 
L 2069 1097 
L 81 1097 
L 81 1613 
L 2172 4581 
L 2631 4581 
L 2631 1613 
L 3250 1613 
L 3250 1097 
L 2631 1097 
L 2631 0 
L 2069 0 
z
M 2069 1613 
L 2069 3678 
L 634 1613 
L 2069 1613 
z
" transform="scale(0.015625)"/>
       </defs>
       <use xlink:href="#ArialMT-32"/>
       <use xlink:href="#ArialMT-30" transform="translate(55.615234 0)"/>
       <use xlink:href="#ArialMT-32" transform="translate(111.230469 0)"/>
       <use xlink:href="#ArialMT-34" transform="translate(166.845703 0)"/>
      </g>
     </g>
    </g>
    <g id="text_6">
     <!-- GPU Launch Year -->
     <g style="fill: #262626" transform="translate(136.324563 302.562266) scale(0.16 -0.16)">
      <defs>
       <path id="ArialMT-47" d="M 2638 1797 
L 2638 2334 
L 4578 2338 
L 4578 638 
Q 4131 281 3656 101 
Q 3181 -78 2681 -78 
Q 2006 -78 1454 211 
Q 903 500 622 1047 
Q 341 1594 341 2269 
Q 341 2938 620 3517 
Q 900 4097 1425 4378 
Q 1950 4659 2634 4659 
Q 3131 4659 3532 4498 
Q 3934 4338 4162 4050 
Q 4391 3763 4509 3300 
L 3963 3150 
Q 3859 3500 3706 3700 
Q 3553 3900 3268 4020 
Q 2984 4141 2638 4141 
Q 2222 4141 1919 4014 
Q 1616 3888 1430 3681 
Q 1244 3475 1141 3228 
Q 966 2803 966 2306 
Q 966 1694 1177 1281 
Q 1388 869 1791 669 
Q 2194 469 2647 469 
Q 3041 469 3416 620 
Q 3791 772 3984 944 
L 3984 1797 
L 2638 1797 
z
" transform="scale(0.015625)"/>
       <path id="ArialMT-50" d="M 494 0 
L 494 4581 
L 2222 4581 
Q 2678 4581 2919 4538 
Q 3256 4481 3484 4323 
Q 3713 4166 3852 3881 
Q 3991 3597 3991 3256 
Q 3991 2672 3619 2267 
Q 3247 1863 2275 1863 
L 1100 1863 
L 1100 0 
L 494 0 
z
M 1100 2403 
L 2284 2403 
Q 2872 2403 3119 2622 
Q 3366 2841 3366 3238 
Q 3366 3525 3220 3729 
Q 3075 3934 2838 4000 
Q 2684 4041 2272 4041 
L 1100 4041 
L 1100 2403 
z
" transform="scale(0.015625)"/>
       <path id="ArialMT-55" d="M 3500 4581 
L 4106 4581 
L 4106 1934 
Q 4106 1244 3950 837 
Q 3794 431 3386 176 
Q 2978 -78 2316 -78 
Q 1672 -78 1262 144 
Q 853 366 678 786 
Q 503 1206 503 1934 
L 503 4581 
L 1109 4581 
L 1109 1938 
Q 1109 1341 1220 1058 
Q 1331 775 1601 622 
Q 1872 469 2263 469 
Q 2931 469 3215 772 
Q 3500 1075 3500 1938 
L 3500 4581 
z
" transform="scale(0.015625)"/>
       <path id="ArialMT-20" transform="scale(0.015625)"/>
       <path id="ArialMT-4c" d="M 469 0 
L 469 4581 
L 1075 4581 
L 1075 541 
L 3331 541 
L 3331 0 
L 469 0 
z
" transform="scale(0.015625)"/>
       <path id="ArialMT-61" d="M 2588 409 
Q 2275 144 1986 34 
Q 1697 -75 1366 -75 
Q 819 -75 525 192 
Q 231 459 231 875 
Q 231 1119 342 1320 
Q 453 1522 633 1644 
Q 813 1766 1038 1828 
Q 1203 1872 1538 1913 
Q 2219 1994 2541 2106 
Q 2544 2222 2544 2253 
Q 2544 2597 2384 2738 
Q 2169 2928 1744 2928 
Q 1347 2928 1158 2789 
Q 969 2650 878 2297 
L 328 2372 
Q 403 2725 575 2942 
Q 747 3159 1072 3276 
Q 1397 3394 1825 3394 
Q 2250 3394 2515 3294 
Q 2781 3194 2906 3042 
Q 3031 2891 3081 2659 
Q 3109 2516 3109 2141 
L 3109 1391 
Q 3109 606 3145 398 
Q 3181 191 3288 0 
L 2700 0 
Q 2613 175 2588 409 
z
M 2541 1666 
Q 2234 1541 1622 1453 
Q 1275 1403 1131 1340 
Q 988 1278 909 1158 
Q 831 1038 831 891 
Q 831 666 1001 516 
Q 1172 366 1500 366 
Q 1825 366 2078 508 
Q 2331 650 2450 897 
Q 2541 1088 2541 1459 
L 2541 1666 
z
" transform="scale(0.015625)"/>
       <path id="ArialMT-75" d="M 2597 0 
L 2597 488 
Q 2209 -75 1544 -75 
Q 1250 -75 995 37 
Q 741 150 617 320 
Q 494 491 444 738 
Q 409 903 409 1263 
L 409 3319 
L 972 3319 
L 972 1478 
Q 972 1038 1006 884 
Q 1059 663 1231 536 
Q 1403 409 1656 409 
Q 1909 409 2131 539 
Q 2353 669 2445 892 
Q 2538 1116 2538 1541 
L 2538 3319 
L 3100 3319 
L 3100 0 
L 2597 0 
z
" transform="scale(0.015625)"/>
       <path id="ArialMT-6e" d="M 422 0 
L 422 3319 
L 928 3319 
L 928 2847 
Q 1294 3394 1984 3394 
Q 2284 3394 2536 3286 
Q 2788 3178 2913 3003 
Q 3038 2828 3088 2588 
Q 3119 2431 3119 2041 
L 3119 0 
L 2556 0 
L 2556 2019 
Q 2556 2363 2490 2533 
Q 2425 2703 2258 2804 
Q 2091 2906 1866 2906 
Q 1506 2906 1245 2678 
Q 984 2450 984 1813 
L 984 0 
L 422 0 
z
" transform="scale(0.015625)"/>
       <path id="ArialMT-63" d="M 2588 1216 
L 3141 1144 
Q 3050 572 2676 248 
Q 2303 -75 1759 -75 
Q 1078 -75 664 370 
Q 250 816 250 1647 
Q 250 2184 428 2587 
Q 606 2991 970 3192 
Q 1334 3394 1763 3394 
Q 2303 3394 2647 3120 
Q 2991 2847 3088 2344 
L 2541 2259 
Q 2463 2594 2264 2762 
Q 2066 2931 1784 2931 
Q 1359 2931 1093 2626 
Q 828 2322 828 1663 
Q 828 994 1084 691 
Q 1341 388 1753 388 
Q 2084 388 2306 591 
Q 2528 794 2588 1216 
z
" transform="scale(0.015625)"/>
       <path id="ArialMT-68" d="M 422 0 
L 422 4581 
L 984 4581 
L 984 2938 
Q 1378 3394 1978 3394 
Q 2347 3394 2619 3248 
Q 2891 3103 3008 2847 
Q 3125 2591 3125 2103 
L 3125 0 
L 2563 0 
L 2563 2103 
Q 2563 2525 2380 2717 
Q 2197 2909 1863 2909 
Q 1613 2909 1392 2779 
Q 1172 2650 1078 2428 
Q 984 2206 984 1816 
L 984 0 
L 422 0 
z
" transform="scale(0.015625)"/>
       <path id="ArialMT-59" d="M 1784 0 
L 1784 1941 
L 19 4581 
L 756 4581 
L 1659 3200 
Q 1909 2813 2125 2425 
Q 2331 2784 2625 3234 
L 3513 4581 
L 4219 4581 
L 2391 1941 
L 2391 0 
L 1784 0 
z
" transform="scale(0.015625)"/>
       <path id="ArialMT-65" d="M 2694 1069 
L 3275 997 
Q 3138 488 2766 206 
Q 2394 -75 1816 -75 
Q 1088 -75 661 373 
Q 234 822 234 1631 
Q 234 2469 665 2931 
Q 1097 3394 1784 3394 
Q 2450 3394 2872 2941 
Q 3294 2488 3294 1666 
Q 3294 1616 3291 1516 
L 816 1516 
Q 847 969 1125 678 
Q 1403 388 1819 388 
Q 2128 388 2347 550 
Q 2566 713 2694 1069 
z
M 847 1978 
L 2700 1978 
Q 2663 2397 2488 2606 
Q 2219 2931 1791 2931 
Q 1403 2931 1139 2672 
Q 875 2413 847 1978 
z
" transform="scale(0.015625)"/>
       <path id="ArialMT-72" d="M 416 0 
L 416 3319 
L 922 3319 
L 922 2816 
Q 1116 3169 1280 3281 
Q 1444 3394 1641 3394 
Q 1925 3394 2219 3213 
L 2025 2691 
Q 1819 2813 1613 2813 
Q 1428 2813 1281 2702 
Q 1134 2591 1072 2394 
Q 978 2094 978 1738 
L 978 0 
L 416 0 
z
" transform="scale(0.015625)"/>
      </defs>
      <use xlink:href="#ArialMT-47"/>
      <use xlink:href="#ArialMT-50" transform="translate(77.783203 0)"/>
      <use xlink:href="#ArialMT-55" transform="translate(144.482422 0)"/>
      <use xlink:href="#ArialMT-20" transform="translate(216.699219 0)"/>
      <use xlink:href="#ArialMT-4c" transform="translate(244.482422 0)"/>
      <use xlink:href="#ArialMT-61" transform="translate(300.097656 0)"/>
      <use xlink:href="#ArialMT-75" transform="translate(355.712891 0)"/>
      <use xlink:href="#ArialMT-6e" transform="translate(411.328125 0)"/>
      <use xlink:href="#ArialMT-63" transform="translate(466.943359 0)"/>
      <use xlink:href="#ArialMT-68" transform="translate(516.943359 0)"/>
      <use xlink:href="#ArialMT-20" transform="translate(572.558594 0)"/>
      <use xlink:href="#ArialMT-59" transform="translate(598.591797 0)"/>
      <use xlink:href="#ArialMT-65" transform="translate(656.166016 0)"/>
      <use xlink:href="#ArialMT-61" transform="translate(711.78125 0)"/>
      <use xlink:href="#ArialMT-72" transform="translate(767.396484 0)"/>
     </g>
    </g>
   </g>
   <g id="matplotlib.axis_2">
    <g id="ytick_1">
     <g id="line2d_6">
      <path d="M 58.512656 247.157532 
L 342.24147 247.157532 
" clip-path="url(#pfe0f3616af)" style="fill: none; stroke-dasharray: 5.55,2.4; stroke-dashoffset: 0; stroke: #cccccc; stroke-opacity: 0.3; stroke-width: 1.5"/>
     </g>
     <g id="text_7">
      <!-- 0 -->
      <g style="fill: #262626" transform="translate(36.837109 253.062727) scale(0.165 -0.165)">
       <use xlink:href="#ArialMT-30"/>
      </g>
     </g>
    </g>
    <g id="ytick_2">
     <g id="line2d_7">
      <path d="M 58.512656 209.742223 
L 342.24147 209.742223 
" clip-path="url(#pfe0f3616af)" style="fill: none; stroke-dasharray: 5.55,2.4; stroke-dashoffset: 0; stroke: #cccccc; stroke-opacity: 0.3; stroke-width: 1.5"/>
     </g>
     <g id="text_8">
      <!-- 5 -->
      <g style="fill: #262626" transform="translate(36.837109 215.647419) scale(0.165 -0.165)">
       <defs>
        <path id="ArialMT-35" d="M 266 1200 
L 856 1250 
Q 922 819 1161 601 
Q 1400 384 1738 384 
Q 2144 384 2425 690 
Q 2706 997 2706 1503 
Q 2706 1984 2436 2262 
Q 2166 2541 1728 2541 
Q 1456 2541 1237 2417 
Q 1019 2294 894 2097 
L 366 2166 
L 809 4519 
L 3088 4519 
L 3088 3981 
L 1259 3981 
L 1013 2750 
Q 1425 3038 1878 3038 
Q 2478 3038 2890 2622 
Q 3303 2206 3303 1553 
Q 3303 931 2941 478 
Q 2500 -78 1738 -78 
Q 1113 -78 717 272 
Q 322 622 266 1200 
z
" transform="scale(0.015625)"/>
       </defs>
       <use xlink:href="#ArialMT-35"/>
      </g>
     </g>
    </g>
    <g id="ytick_3">
     <g id="line2d_8">
      <path d="M 58.512656 172.326915 
L 342.24147 172.326915 
" clip-path="url(#pfe0f3616af)" style="fill: none; stroke-dasharray: 5.55,2.4; stroke-dashoffset: 0; stroke: #cccccc; stroke-opacity: 0.3; stroke-width: 1.5"/>
     </g>
     <g id="text_9">
      <!-- 10 -->
      <g style="fill: #262626" transform="translate(27.661563 178.23211) scale(0.165 -0.165)">
       <use xlink:href="#ArialMT-31"/>
       <use xlink:href="#ArialMT-30" transform="translate(55.615234 0)"/>
      </g>
     </g>
    </g>
    <g id="ytick_4">
     <g id="line2d_9">
      <path d="M 58.512656 134.911606 
L 342.24147 134.911606 
" clip-path="url(#pfe0f3616af)" style="fill: none; stroke-dasharray: 5.55,2.4; stroke-dashoffset: 0; stroke: #cccccc; stroke-opacity: 0.3; stroke-width: 1.5"/>
     </g>
     <g id="text_10">
      <!-- 15 -->
      <g style="fill: #262626" transform="translate(27.661563 140.816802) scale(0.165 -0.165)">
       <use xlink:href="#ArialMT-31"/>
       <use xlink:href="#ArialMT-35" transform="translate(55.615234 0)"/>
      </g>
     </g>
    </g>
    <g id="ytick_5">
     <g id="line2d_10">
      <path d="M 58.512656 97.496298 
L 342.24147 97.496298 
" clip-path="url(#pfe0f3616af)" style="fill: none; stroke-dasharray: 5.55,2.4; stroke-dashoffset: 0; stroke: #cccccc; stroke-opacity: 0.3; stroke-width: 1.5"/>
     </g>
     <g id="text_11">
      <!-- 20 -->
      <g style="fill: #262626" transform="translate(27.661563 103.401493) scale(0.165 -0.165)">
       <use xlink:href="#ArialMT-32"/>
       <use xlink:href="#ArialMT-30" transform="translate(55.615234 0)"/>
      </g>
     </g>
    </g>
    <g id="ytick_6">
     <g id="line2d_11">
      <path d="M 58.512656 60.08099 
L 342.24147 60.08099 
" clip-path="url(#pfe0f3616af)" style="fill: none; stroke-dasharray: 5.55,2.4; stroke-dashoffset: 0; stroke: #cccccc; stroke-opacity: 0.3; stroke-width: 1.5"/>
     </g>
     <g id="text_12">
      <!-- 25 -->
      <g style="fill: #262626" transform="translate(27.661563 65.986185) scale(0.165 -0.165)">
       <use xlink:href="#ArialMT-32"/>
       <use xlink:href="#ArialMT-35" transform="translate(55.615234 0)"/>
      </g>
     </g>
    </g>
    <g id="text_13">
     <!-- FP16 Metric -->
     <g style="fill: #262626" transform="translate(20.084063 197.468594) rotate(-90) scale(0.18 -0.18)">
      <defs>
       <path id="ArialMT-46" d="M 525 0 
L 525 4581 
L 3616 4581 
L 3616 4041 
L 1131 4041 
L 1131 2622 
L 3281 2622 
L 3281 2081 
L 1131 2081 
L 1131 0 
L 525 0 
z
" transform="scale(0.015625)"/>
       <path id="ArialMT-4d" d="M 475 0 
L 475 4581 
L 1388 4581 
L 2472 1338 
Q 2622 884 2691 659 
Q 2769 909 2934 1394 
L 4031 4581 
L 4847 4581 
L 4847 0 
L 4263 0 
L 4263 3834 
L 2931 0 
L 2384 0 
L 1059 3900 
L 1059 0 
L 475 0 
z
" transform="scale(0.015625)"/>
       <path id="ArialMT-74" d="M 1650 503 
L 1731 6 
Q 1494 -44 1306 -44 
Q 1000 -44 831 53 
Q 663 150 594 308 
Q 525 466 525 972 
L 525 2881 
L 113 2881 
L 113 3319 
L 525 3319 
L 525 4141 
L 1084 4478 
L 1084 3319 
L 1650 3319 
L 1650 2881 
L 1084 2881 
L 1084 941 
Q 1084 700 1114 631 
Q 1144 563 1211 522 
Q 1278 481 1403 481 
Q 1497 481 1650 503 
z
" transform="scale(0.015625)"/>
       <path id="ArialMT-69" d="M 425 3934 
L 425 4581 
L 988 4581 
L 988 3934 
L 425 3934 
z
M 425 0 
L 425 3319 
L 988 3319 
L 988 0 
L 425 0 
z
" transform="scale(0.015625)"/>
      </defs>
      <use xlink:href="#ArialMT-46"/>
      <use xlink:href="#ArialMT-50" transform="translate(61.083984 0)"/>
      <use xlink:href="#ArialMT-31" transform="translate(127.783203 0)"/>
      <use xlink:href="#ArialMT-36" transform="translate(183.398438 0)"/>
      <use xlink:href="#ArialMT-20" transform="translate(239.013672 0)"/>
      <use xlink:href="#ArialMT-4d" transform="translate(266.796875 0)"/>
      <use xlink:href="#ArialMT-65" transform="translate(350.097656 0)"/>
      <use xlink:href="#ArialMT-74" transform="translate(405.712891 0)"/>
      <use xlink:href="#ArialMT-72" transform="translate(433.496094 0)"/>
      <use xlink:href="#ArialMT-69" transform="translate(466.796875 0)"/>
      <use xlink:href="#ArialMT-63" transform="translate(489.013672 0)"/>
     </g>
    </g>
   </g>
   <g id="PathCollection_1">
    <defs>
     <path id="m185ae6485e" d="M 0 4.5 
C 1.193414 4.5 2.338109 4.025852 3.181981 3.181981 
C 4.025852 2.338109 4.5 1.193414 4.5 0 
C 4.5 -1.193414 4.025852 -2.338109 3.181981 -3.181981 
C 2.338109 -4.025852 1.193414 -4.5 0 -4.5 
C -1.193414 -4.5 -2.338109 -4.025852 -3.181981 -3.181981 
C -4.025852 -2.338109 -4.5 -1.193414 -4.5 0 
C -4.5 1.193414 -4.025852 2.338109 -3.181981 3.181981 
C -2.338109 4.025852 -1.193414 4.5 0 4.5 
z
" style="stroke: #ce682a; stroke-opacity: 0.7; stroke-width: 1.5"/>
    </defs>
    <g clip-path="url(#pfe0f3616af)">
     <use xlink:href="#m185ae6485e" x="297.102795" y="149.622402" style="fill: #ce682a; fill-opacity: 0.7; stroke: #ce682a; stroke-opacity: 0.7; stroke-width: 1.5"/>
     <use xlink:href="#m185ae6485e" x="103.651331" y="236.056675" style="fill: #ce682a; fill-opacity: 0.7; stroke: #ce682a; stroke-opacity: 0.7; stroke-width: 1.5"/>
     <use xlink:href="#m185ae6485e" x="200.377063" y="216.530008" style="fill: #ce682a; fill-opacity: 0.7; stroke: #ce682a; stroke-opacity: 0.7; stroke-width: 1.5"/>
     <use xlink:href="#m185ae6485e" x="329.344706" y="52.087273" style="fill: #ce682a; fill-opacity: 0.7; stroke: #ce682a; stroke-opacity: 0.7; stroke-width: 1.5"/>
     <use xlink:href="#m185ae6485e" x="200.377063" y="232.45852" style="fill: #ce682a; fill-opacity: 0.7; stroke: #ce682a; stroke-opacity: 0.7; stroke-width: 1.5"/>
     <use xlink:href="#m185ae6485e" x="135.893242" y="236.590899" style="fill: #ce682a; fill-opacity: 0.7; stroke: #ce682a; stroke-opacity: 0.7; stroke-width: 1.5"/>
     <use xlink:href="#m185ae6485e" x="71.409421" y="239.67447" style="fill: #ce682a; fill-opacity: 0.7; stroke: #ce682a; stroke-opacity: 0.7; stroke-width: 1.5"/>
     <use xlink:href="#m185ae6485e" x="135.893242" y="221.57371" style="fill: #ce682a; fill-opacity: 0.7; stroke: #ce682a; stroke-opacity: 0.7; stroke-width: 1.5"/>
     <use xlink:href="#m185ae6485e" x="232.618974" y="243.103716" style="fill: #ce682a; fill-opacity: 0.7; stroke: #ce682a; stroke-opacity: 0.7; stroke-width: 1.5"/>
     <use xlink:href="#m185ae6485e" x="264.860884" y="211.600222" style="fill: #ce682a; fill-opacity: 0.7; stroke: #ce682a; stroke-opacity: 0.7; stroke-width: 1.5"/>
     <use xlink:href="#m185ae6485e" x="297.102795" y="149.622402" style="fill: #ce682a; fill-opacity: 0.7; stroke: #ce682a; stroke-opacity: 0.7; stroke-width: 1.5"/>
    </g>
   </g>
   <g id="PathCollection_2">
    <defs>
     <path id="m3322516361" d="M 0 4.5 
C 1.193414 4.5 2.338109 4.025852 3.181981 3.181981 
C 4.025852 2.338109 4.5 1.193414 4.5 0 
C 4.5 -1.193414 4.025852 -2.338109 3.181981 -3.181981 
C 2.338109 -4.025852 1.193414 -4.5 0 -4.5 
C -1.193414 -4.5 -2.338109 -4.025852 -3.181981 -3.181981 
C -4.025852 -2.338109 -4.5 -1.193414 -4.5 0 
C -4.5 1.193414 -4.025852 2.338109 -3.181981 3.181981 
C -2.338109 4.025852 -1.193414 4.5 0 4.5 
z
" style="stroke: #2e8b57; stroke-opacity: 0.7; stroke-width: 1.5"/>
    </defs>
    <g clip-path="url(#pfe0f3616af)">
     <use xlink:href="#m3322516361" x="297.102795" y="205.356762" style="fill: #2e8b57; fill-opacity: 0.7; stroke: #2e8b57; stroke-opacity: 0.7; stroke-width: 1.5"/>
     <use xlink:href="#m3322516361" x="103.651331" y="236.056675" style="fill: #2e8b57; fill-opacity: 0.7; stroke: #2e8b57; stroke-opacity: 0.7; stroke-width: 1.5"/>
     <use xlink:href="#m3322516361" x="200.377063" y="210.404504" style="fill: #2e8b57; fill-opacity: 0.7; stroke: #2e8b57; stroke-opacity: 0.7; stroke-width: 1.5"/>
     <use xlink:href="#m3322516361" x="329.344706" y="188.636454" style="fill: #2e8b57; fill-opacity: 0.7; stroke: #2e8b57; stroke-opacity: 0.7; stroke-width: 1.5"/>
     <use xlink:href="#m3322516361" x="200.377063" y="232.45852" style="fill: #2e8b57; fill-opacity: 0.7; stroke: #2e8b57; stroke-opacity: 0.7; stroke-width: 1.5"/>
     <use xlink:href="#m3322516361" x="135.893242" y="234.477572" style="fill: #2e8b57; fill-opacity: 0.7; stroke: #2e8b57; stroke-opacity: 0.7; stroke-width: 1.5"/>
     <use xlink:href="#m3322516361" x="71.409421" y="239.67447" style="fill: #2e8b57; fill-opacity: 0.7; stroke: #2e8b57; stroke-opacity: 0.7; stroke-width: 1.5"/>
     <use xlink:href="#m3322516361" x="135.893242" y="137.512581" style="fill: #2e8b57; fill-opacity: 0.7; stroke: #2e8b57; stroke-opacity: 0.7; stroke-width: 1.5"/>
     <use xlink:href="#m3322516361" x="232.618974" y="239.786957" style="fill: #2e8b57; fill-opacity: 0.7; stroke: #2e8b57; stroke-opacity: 0.7; stroke-width: 1.5"/>
     <use xlink:href="#m3322516361" x="264.860884" y="211.600222" style="fill: #2e8b57; fill-opacity: 0.7; stroke: #2e8b57; stroke-opacity: 0.7; stroke-width: 1.5"/>
     <use xlink:href="#m3322516361" x="297.102795" y="214.645822" style="fill: #2e8b57; fill-opacity: 0.7; stroke: #2e8b57; stroke-opacity: 0.7; stroke-width: 1.5"/>
    </g>
   </g>
   <g id="line2d_12">
    <path d="M 58.512656 239.67447 
L 342.24147 239.67447 
" clip-path="url(#pfe0f3616af)" style="fill: none; stroke-dasharray: 3.7,1.6; stroke-dashoffset: 0; stroke: #808080"/>
   </g>
   <g id="line2d_13">
    <path d="M 71.409421 239.67447 
L 79.413418 239.117117 
L 87.417416 238.334709 
L 95.421414 237.327246 
L 103.425412 236.094729 
L 111.42941 234.637158 
L 119.433408 232.954532 
L 132.601275 229.883662 
L 146.285529 226.464325 
L 159.969784 222.812702 
L 171.846684 219.638208 
L 174.945005 219.166899 
L 178.043327 218.938919 
L 180.883455 218.943696 
L 183.723584 219.152936 
L 186.821905 219.614389 
L 189.920227 220.319171 
L 193.018549 221.267282 
L 196.116871 222.458723 
L 199.215192 223.893492 
L 202.313514 225.571591 
L 205.411836 227.493019 
L 208.768351 229.849156 
L 212.124866 232.490867 
L 215.481382 235.418152 
L 219.09609 238.585792 
L 221.161638 240.042444 
L 223.227186 241.222702 
L 225.292734 242.126565 
L 227.100088 242.690715 
L 228.907442 243.04325 
L 230.714797 243.18417 
L 232.522151 243.113475 
L 234.329505 242.831165 
L 236.13686 242.33724 
L 237.944214 241.631701 
L 240.009762 240.56625 
L 242.07531 239.224404 
L 244.140858 237.606163 
L 246.206405 235.711527 
L 248.530147 233.249683 
L 252.144855 228.971073 
L 256.017758 224.062427 
L 260.148853 218.457766 
L 264.279949 212.472439 
L 268.411045 206.106443 
L 272.800334 198.925475 
L 277.189623 191.31477 
L 281.578912 183.271902 
L 285.193621 176.209492 
L 288.808329 168.677946 
L 292.681232 160.087837 
L 296.554134 150.95918 
L 300.685229 140.628346 
L 304.816325 129.684764 
L 308.947421 118.128434 
L 313.33671 105.178444 
L 317.725999 91.536719 
L 322.373482 76.338572 
L 327.020964 60.364917 
L 329.344706 52.087273 
L 329.344706 52.087273 
" clip-path="url(#pfe0f3616af)" style="fill: none; stroke: #ce682a; stroke-opacity: 0.7; stroke-width: 2; stroke-linecap: round"/>
   </g>
   <g id="line2d_14">
    <path d="M 71.409421 239.67447 
L 73.733162 241.517233 
L 75.79871 242.88093 
L 77.864257 243.986447 
L 79.929805 244.833785 
L 81.995353 245.422943 
L 84.060901 245.753923 
L 85.868255 245.831742 
L 87.67561 245.711893 
L 89.482964 245.394375 
L 91.548512 244.789455 
L 93.61406 243.926355 
L 95.679607 242.805077 
L 97.745155 241.425618 
L 99.810703 239.787981 
L 102.134444 237.637034 
L 104.458186 235.159329 
L 106.781927 232.354866 
L 109.105668 229.223645 
L 111.687603 225.361275 
L 114.269538 221.095501 
L 117.109666 215.937216 
L 119.949794 210.292807 
L 122.789923 204.733107 
L 125.371858 200.142041 
L 127.953792 195.992125 
L 130.535727 192.28336 
L 132.859468 189.322653 
L 135.18321 186.719279 
L 137.506951 184.473235 
L 139.572499 182.776734 
L 141.638047 181.362569 
L 143.703594 180.230739 
L 145.510949 179.471992 
L 147.318303 178.929408 
L 149.125658 178.602988 
L 150.933012 178.492731 
L 152.740366 178.598637 
L 154.547721 178.920707 
L 156.355075 179.458941 
L 158.162429 180.213337 
L 160.227977 181.340195 
L 162.293525 182.749388 
L 164.359073 184.440918 
L 166.424621 186.414783 
L 168.748362 188.959154 
L 175.719586 196.694334 
L 182.69081 204.102682 
L 189.662034 211.184199 
L 196.375064 217.69454 
L 203.088095 223.901812 
L 209.801125 229.806014 
L 216.514155 235.407139 
L 218.579703 236.939176 
L 220.645251 238.1857 
L 222.710799 239.146712 
L 224.518153 239.753387 
L 226.325508 240.141467 
L 228.132862 240.310952 
L 229.940216 240.261841 
L 231.747571 239.994134 
L 233.554925 239.507832 
L 235.362279 238.802935 
L 237.169634 237.879441 
L 239.235182 236.556353 
L 241.300729 234.947751 
L 243.366277 233.053637 
L 245.431825 230.874011 
L 247.755566 228.080654 
L 252.919436 221.601264 
L 255.501371 218.8339 
L 258.083305 216.400316 
L 260.407047 214.495473 
L 262.730788 212.860991 
L 265.054529 211.496872 
L 267.378271 210.403115 
L 269.443819 209.657856 
L 271.509366 209.126217 
L 273.574914 208.808198 
L 275.640462 208.703798 
L 277.70601 208.813017 
L 279.771558 209.135856 
L 286.484588 210.465044 
L 289.324716 210.660025 
L 292.164845 210.622026 
L 295.004973 210.351046 
L 297.845101 209.847086 
L 300.685229 209.110145 
L 303.525358 208.140224 
L 306.365486 206.937322 
L 309.205614 205.501439 
L 312.045742 203.832575 
L 315.144064 201.746284 
L 318.242386 199.382726 
L 321.340708 196.741902 
L 324.439029 193.823811 
L 327.795545 190.34966 
L 329.344706 188.636454 
L 329.344706 188.636454 
" clip-path="url(#pfe0f3616af)" style="fill: none; stroke: #2e8b57; stroke-opacity: 0.7; stroke-width: 2; stroke-linecap: round"/>
   </g>
   <g id="patch_3">
    <path d="M 58.512656 255.52 
L 58.512656 42.4 
" style="fill: none; stroke: #cccccc; stroke-width: 1.875; stroke-linejoin: miter; stroke-linecap: square"/>
   </g>
   <g id="patch_4">
    <path d="M 342.24147 255.52 
L 342.24147 42.4 
" style="fill: none; stroke: #cccccc; stroke-width: 1.875; stroke-linejoin: miter; stroke-linecap: square"/>
   </g>
   <g id="patch_5">
    <path d="M 58.512656 255.52 
L 342.24147 255.52 
" style="fill: none; stroke: #cccccc; stroke-width: 1.875; stroke-linejoin: miter; stroke-linecap: square"/>
   </g>
   <g id="patch_6">
    <path d="M 58.512656 42.4 
L 342.24147 42.4 
" style="fill: none; stroke: #cccccc; stroke-width: 1.875; stroke-linejoin: miter; stroke-linecap: square"/>
   </g>
   <g id="patch_7">
    <path d="M 281.71876 85.032312 
Q 304.704732 69.378327 326.304566 54.668334 
" style="fill: none; stroke: #a9a9a9; stroke-width: 1.5; stroke-linecap: round"/>
    <path d="M 320.986276 55.386519 
L 326.304566 54.668334 
L 323.68814 59.353877 
" style="fill: none; stroke: #a9a9a9; stroke-width: 1.5; stroke-linecap: round"/>
   </g>
   <g id="text_14">
    <!-- NVIDIA B200 -->
    <g transform="translate(232.618974 97.496298) scale(0.12 -0.12)">
     <defs>
      <path id="ArialMT-4e" d="M 488 0 
L 488 4581 
L 1109 4581 
L 3516 984 
L 3516 4581 
L 4097 4581 
L 4097 0 
L 3475 0 
L 1069 3600 
L 1069 0 
L 488 0 
z
" transform="scale(0.015625)"/>
      <path id="ArialMT-56" d="M 1803 0 
L 28 4581 
L 684 4581 
L 1875 1253 
Q 2019 853 2116 503 
Q 2222 878 2363 1253 
L 3600 4581 
L 4219 4581 
L 2425 0 
L 1803 0 
z
" transform="scale(0.015625)"/>
      <path id="ArialMT-49" d="M 597 0 
L 597 4581 
L 1203 4581 
L 1203 0 
L 597 0 
z
" transform="scale(0.015625)"/>
      <path id="ArialMT-44" d="M 494 0 
L 494 4581 
L 2072 4581 
Q 2606 4581 2888 4516 
Q 3281 4425 3559 4188 
Q 3922 3881 4101 3404 
Q 4281 2928 4281 2316 
Q 4281 1794 4159 1391 
Q 4038 988 3847 723 
Q 3656 459 3429 307 
Q 3203 156 2883 78 
Q 2563 0 2147 0 
L 494 0 
z
M 1100 541 
L 2078 541 
Q 2531 541 2789 625 
Q 3047 709 3200 863 
Q 3416 1078 3536 1442 
Q 3656 1806 3656 2325 
Q 3656 3044 3420 3430 
Q 3184 3816 2847 3947 
Q 2603 4041 2063 4041 
L 1100 4041 
L 1100 541 
z
" transform="scale(0.015625)"/>
      <path id="ArialMT-41" d="M -9 0 
L 1750 4581 
L 2403 4581 
L 4278 0 
L 3588 0 
L 3053 1388 
L 1138 1388 
L 634 0 
L -9 0 
z
M 1313 1881 
L 2866 1881 
L 2388 3150 
Q 2169 3728 2063 4100 
Q 1975 3659 1816 3225 
L 1313 1881 
z
" transform="scale(0.015625)"/>
      <path id="ArialMT-42" d="M 469 0 
L 469 4581 
L 2188 4581 
Q 2713 4581 3030 4442 
Q 3347 4303 3526 4014 
Q 3706 3725 3706 3409 
Q 3706 3116 3547 2856 
Q 3388 2597 3066 2438 
Q 3481 2316 3704 2022 
Q 3928 1728 3928 1328 
Q 3928 1006 3792 729 
Q 3656 453 3456 303 
Q 3256 153 2954 76 
Q 2653 0 2216 0 
L 469 0 
z
M 1075 2656 
L 2066 2656 
Q 2469 2656 2644 2709 
Q 2875 2778 2992 2937 
Q 3109 3097 3109 3338 
Q 3109 3566 3000 3739 
Q 2891 3913 2687 3977 
Q 2484 4041 1991 4041 
L 1075 4041 
L 1075 2656 
z
M 1075 541 
L 2216 541 
Q 2509 541 2628 563 
Q 2838 600 2978 687 
Q 3119 775 3209 942 
Q 3300 1109 3300 1328 
Q 3300 1584 3169 1773 
Q 3038 1963 2805 2039 
Q 2572 2116 2134 2116 
L 1075 2116 
L 1075 541 
z
" transform="scale(0.015625)"/>
     </defs>
     <use xlink:href="#ArialMT-4e"/>
     <use xlink:href="#ArialMT-56" transform="translate(72.216797 0)"/>
     <use xlink:href="#ArialMT-49" transform="translate(138.916016 0)"/>
     <use xlink:href="#ArialMT-44" transform="translate(166.699219 0)"/>
     <use xlink:href="#ArialMT-49" transform="translate(238.916016 0)"/>
     <use xlink:href="#ArialMT-41" transform="translate(266.699219 0)"/>
     <use xlink:href="#ArialMT-20" transform="translate(327.898438 0)"/>
     <use xlink:href="#ArialMT-42" transform="translate(355.681641 0)"/>
     <use xlink:href="#ArialMT-32" transform="translate(422.380859 0)"/>
     <use xlink:href="#ArialMT-30" transform="translate(477.996094 0)"/>
     <use xlink:href="#ArialMT-30" transform="translate(533.611328 0)"/>
    </g>
   </g>
   <g id="patch_8">
    <path d="M 274.51395 104.296426 
Q 301.377975 144.960156 327.317587 184.224615 
" style="fill: none; stroke: #a9a9a9; stroke-width: 1.5; stroke-linecap: round"/>
    <path d="M 326.674238 178.896754 
L 327.317587 184.224615 
L 322.669289 181.542577 
" style="fill: none; stroke: #a9a9a9; stroke-width: 1.5; stroke-linecap: round"/>
   </g>
   <g id="text_15">
    <!-- NVIDIA B200 -->
    <g transform="translate(232.618974 97.496298) scale(0.12 -0.12)">
     <use xlink:href="#ArialMT-4e"/>
     <use xlink:href="#ArialMT-56" transform="translate(72.216797 0)"/>
     <use xlink:href="#ArialMT-49" transform="translate(138.916016 0)"/>
     <use xlink:href="#ArialMT-44" transform="translate(166.699219 0)"/>
     <use xlink:href="#ArialMT-49" transform="translate(238.916016 0)"/>
     <use xlink:href="#ArialMT-41" transform="translate(266.699219 0)"/>
     <use xlink:href="#ArialMT-20" transform="translate(327.898438 0)"/>
     <use xlink:href="#ArialMT-42" transform="translate(355.681641 0)"/>
     <use xlink:href="#ArialMT-32" transform="translate(422.380859 0)"/>
     <use xlink:href="#ArialMT-30" transform="translate(477.996094 0)"/>
     <use xlink:href="#ArialMT-30" transform="translate(533.611328 0)"/>
    </g>
   </g>
   <g id="patch_9">
    <path d="M 101.732863 179.247598 
Q 87.01996 208.566654 73.059239 236.386804 
" style="fill: none; stroke: #a9a9a9; stroke-width: 1.5; stroke-linecap: round"/>
    <path d="M 77.357171 233.173117 
L 73.059239 236.386804 
L 73.067049 231.020246 
" style="fill: none; stroke: #a9a9a9; stroke-width: 1.5; stroke-linecap: round"/>
   </g>
   <g id="text_16">
    <!-- NVIDIA P100 -->
    <g transform="translate(71.409421 172.326915) scale(0.12 -0.12)">
     <use xlink:href="#ArialMT-4e"/>
     <use xlink:href="#ArialMT-56" transform="translate(72.216797 0)"/>
     <use xlink:href="#ArialMT-49" transform="translate(138.916016 0)"/>
     <use xlink:href="#ArialMT-44" transform="translate(166.699219 0)"/>
     <use xlink:href="#ArialMT-49" transform="translate(238.916016 0)"/>
     <use xlink:href="#ArialMT-41" transform="translate(266.699219 0)"/>
     <use xlink:href="#ArialMT-20" transform="translate(327.898438 0)"/>
     <use xlink:href="#ArialMT-50" transform="translate(355.681641 0)"/>
     <use xlink:href="#ArialMT-31" transform="translate(422.380859 0)"/>
     <use xlink:href="#ArialMT-30" transform="translate(477.996094 0)"/>
     <use xlink:href="#ArialMT-30" transform="translate(533.611328 0)"/>
    </g>
   </g>
   <g id="text_17">
    <!-- (a) FP16 Performance vs Efficiency -->
    <g style="fill: #262626" transform="translate(74.703313 327.8584) scale(0.16 -0.16)">
     <defs>
      <path id="ArialMT-28" d="M 1497 -1347 
Q 1031 -759 709 28 
Q 388 816 388 1659 
Q 388 2403 628 3084 
Q 909 3875 1497 4659 
L 1900 4659 
Q 1522 4009 1400 3731 
Q 1209 3300 1100 2831 
Q 966 2247 966 1656 
Q 966 153 1900 -1347 
L 1497 -1347 
z
" transform="scale(0.015625)"/>
      <path id="ArialMT-29" d="M 791 -1347 
L 388 -1347 
Q 1322 153 1322 1656 
Q 1322 2244 1188 2822 
Q 1081 3291 891 3722 
Q 769 4003 388 4659 
L 791 4659 
Q 1378 3875 1659 3084 
Q 1900 2403 1900 1659 
Q 1900 816 1576 28 
Q 1253 -759 791 -1347 
z
" transform="scale(0.015625)"/>
      <path id="ArialMT-66" d="M 556 0 
L 556 2881 
L 59 2881 
L 59 3319 
L 556 3319 
L 556 3672 
Q 556 4006 616 4169 
Q 697 4388 901 4523 
Q 1106 4659 1475 4659 
Q 1713 4659 2000 4603 
L 1916 4113 
Q 1741 4144 1584 4144 
Q 1328 4144 1222 4034 
Q 1116 3925 1116 3625 
L 1116 3319 
L 1763 3319 
L 1763 2881 
L 1116 2881 
L 1116 0 
L 556 0 
z
" transform="scale(0.015625)"/>
      <path id="ArialMT-6f" d="M 213 1659 
Q 213 2581 725 3025 
Q 1153 3394 1769 3394 
Q 2453 3394 2887 2945 
Q 3322 2497 3322 1706 
Q 3322 1066 3130 698 
Q 2938 331 2570 128 
Q 2203 -75 1769 -75 
Q 1072 -75 642 372 
Q 213 819 213 1659 
z
M 791 1659 
Q 791 1022 1069 705 
Q 1347 388 1769 388 
Q 2188 388 2466 706 
Q 2744 1025 2744 1678 
Q 2744 2294 2464 2611 
Q 2184 2928 1769 2928 
Q 1347 2928 1069 2612 
Q 791 2297 791 1659 
z
" transform="scale(0.015625)"/>
      <path id="ArialMT-6d" d="M 422 0 
L 422 3319 
L 925 3319 
L 925 2853 
Q 1081 3097 1340 3245 
Q 1600 3394 1931 3394 
Q 2300 3394 2536 3241 
Q 2772 3088 2869 2813 
Q 3263 3394 3894 3394 
Q 4388 3394 4653 3120 
Q 4919 2847 4919 2278 
L 4919 0 
L 4359 0 
L 4359 2091 
Q 4359 2428 4304 2576 
Q 4250 2725 4106 2815 
Q 3963 2906 3769 2906 
Q 3419 2906 3187 2673 
Q 2956 2441 2956 1928 
L 2956 0 
L 2394 0 
L 2394 2156 
Q 2394 2531 2256 2718 
Q 2119 2906 1806 2906 
Q 1569 2906 1367 2781 
Q 1166 2656 1075 2415 
Q 984 2175 984 1722 
L 984 0 
L 422 0 
z
" transform="scale(0.015625)"/>
      <path id="ArialMT-76" d="M 1344 0 
L 81 3319 
L 675 3319 
L 1388 1331 
Q 1503 1009 1600 663 
Q 1675 925 1809 1294 
L 2547 3319 
L 3125 3319 
L 1869 0 
L 1344 0 
z
" transform="scale(0.015625)"/>
      <path id="ArialMT-73" d="M 197 991 
L 753 1078 
Q 800 744 1014 566 
Q 1228 388 1613 388 
Q 2000 388 2187 545 
Q 2375 703 2375 916 
Q 2375 1106 2209 1216 
Q 2094 1291 1634 1406 
Q 1016 1563 777 1677 
Q 538 1791 414 1992 
Q 291 2194 291 2438 
Q 291 2659 392 2848 
Q 494 3038 669 3163 
Q 800 3259 1026 3326 
Q 1253 3394 1513 3394 
Q 1903 3394 2198 3281 
Q 2494 3169 2634 2976 
Q 2775 2784 2828 2463 
L 2278 2388 
Q 2241 2644 2061 2787 
Q 1881 2931 1553 2931 
Q 1166 2931 1000 2803 
Q 834 2675 834 2503 
Q 834 2394 903 2306 
Q 972 2216 1119 2156 
Q 1203 2125 1616 2013 
Q 2213 1853 2448 1751 
Q 2684 1650 2818 1456 
Q 2953 1263 2953 975 
Q 2953 694 2789 445 
Q 2625 197 2315 61 
Q 2006 -75 1616 -75 
Q 969 -75 630 194 
Q 291 463 197 991 
z
" transform="scale(0.015625)"/>
      <path id="ArialMT-45" d="M 506 0 
L 506 4581 
L 3819 4581 
L 3819 4041 
L 1113 4041 
L 1113 2638 
L 3647 2638 
L 3647 2100 
L 1113 2100 
L 1113 541 
L 3925 541 
L 3925 0 
L 506 0 
z
" transform="scale(0.015625)"/>
      <path id="ArialMT-79" d="M 397 -1278 
L 334 -750 
Q 519 -800 656 -800 
Q 844 -800 956 -737 
Q 1069 -675 1141 -563 
Q 1194 -478 1313 -144 
Q 1328 -97 1363 -6 
L 103 3319 
L 709 3319 
L 1400 1397 
Q 1534 1031 1641 628 
Q 1738 1016 1872 1384 
L 2581 3319 
L 3144 3319 
L 1881 -56 
Q 1678 -603 1566 -809 
Q 1416 -1088 1222 -1217 
Q 1028 -1347 759 -1347 
Q 597 -1347 397 -1278 
z
" transform="scale(0.015625)"/>
     </defs>
     <use xlink:href="#ArialMT-28"/>
     <use xlink:href="#ArialMT-61" transform="translate(33.300781 0)"/>
     <use xlink:href="#ArialMT-29" transform="translate(88.916016 0)"/>
     <use xlink:href="#ArialMT-20" transform="translate(122.216797 0)"/>
     <use xlink:href="#ArialMT-46" transform="translate(150 0)"/>
     <use xlink:href="#ArialMT-50" transform="translate(211.083984 0)"/>
     <use xlink:href="#ArialMT-31" transform="translate(277.783203 0)"/>
     <use xlink:href="#ArialMT-36" transform="translate(333.398438 0)"/>
     <use xlink:href="#ArialMT-20" transform="translate(389.013672 0)"/>
     <use xlink:href="#ArialMT-50" transform="translate(416.796875 0)"/>
     <use xlink:href="#ArialMT-65" transform="translate(483.496094 0)"/>
     <use xlink:href="#ArialMT-72" transform="translate(539.111328 0)"/>
     <use xlink:href="#ArialMT-66" transform="translate(572.412109 0)"/>
     <use xlink:href="#ArialMT-6f" transform="translate(600.195312 0)"/>
     <use xlink:href="#ArialMT-72" transform="translate(655.810547 0)"/>
     <use xlink:href="#ArialMT-6d" transform="translate(689.111328 0)"/>
     <use xlink:href="#ArialMT-61" transform="translate(772.412109 0)"/>
     <use xlink:href="#ArialMT-6e" transform="translate(828.027344 0)"/>
     <use xlink:href="#ArialMT-63" transform="translate(883.642578 0)"/>
     <use xlink:href="#ArialMT-65" transform="translate(933.642578 0)"/>
     <use xlink:href="#ArialMT-20" transform="translate(989.257812 0)"/>
     <use xlink:href="#ArialMT-76" transform="translate(1017.041016 0)"/>
     <use xlink:href="#ArialMT-73" transform="translate(1067.041016 0)"/>
     <use xlink:href="#ArialMT-20" transform="translate(1117.041016 0)"/>
     <use xlink:href="#ArialMT-45" transform="translate(1144.824219 0)"/>
     <use xlink:href="#ArialMT-66" transform="translate(1211.523438 0)"/>
     <use xlink:href="#ArialMT-66" transform="translate(1237.556641 0)"/>
     <use xlink:href="#ArialMT-69" transform="translate(1265.339844 0)"/>
     <use xlink:href="#ArialMT-63" transform="translate(1287.556641 0)"/>
     <use xlink:href="#ArialMT-69" transform="translate(1337.556641 0)"/>
     <use xlink:href="#ArialMT-65" transform="translate(1359.773438 0)"/>
     <use xlink:href="#ArialMT-6e" transform="translate(1415.388672 0)"/>
     <use xlink:href="#ArialMT-63" transform="translate(1471.003906 0)"/>
     <use xlink:href="#ArialMT-79" transform="translate(1521.003906 0)"/>
    </g>
   </g>
  </g>
  <g id="axes_2">
   <g id="patch_10">
    <path d="M 418.848249 255.52 
L 702.577063 255.52 
L 702.577063 42.4 
L 418.848249 42.4 
z
" style="fill: #ffffff"/>
   </g>
   <g id="matplotlib.axis_3">
    <g id="xtick_6">
     <g id="line2d_15">
      <path d="M 431.745014 255.52 
L 431.745014 42.4 
" clip-path="url(#pea63d587d1)" style="fill: none; stroke-dasharray: 5.55,2.4; stroke-dashoffset: 0; stroke: #cccccc; stroke-opacity: 0.3; stroke-width: 1.5"/>
     </g>
     <g id="text_18">
      <!-- 2016 -->
      <g style="fill: #262626" transform="translate(413.39392 279.830391) scale(0.165 -0.165)">
       <use xlink:href="#ArialMT-32"/>
       <use xlink:href="#ArialMT-30" transform="translate(55.615234 0)"/>
       <use xlink:href="#ArialMT-31" transform="translate(111.230469 0)"/>
       <use xlink:href="#ArialMT-36" transform="translate(166.845703 0)"/>
      </g>
     </g>
    </g>
    <g id="xtick_7">
     <g id="line2d_16">
      <path d="M 496.228835 255.52 
L 496.228835 42.4 
" clip-path="url(#pea63d587d1)" style="fill: none; stroke-dasharray: 5.55,2.4; stroke-dashoffset: 0; stroke: #cccccc; stroke-opacity: 0.3; stroke-width: 1.5"/>
     </g>
     <g id="text_19">
      <!-- 2018 -->
      <g style="fill: #262626" transform="translate(477.877741 279.830391) scale(0.165 -0.165)">
       <use xlink:href="#ArialMT-32"/>
       <use xlink:href="#ArialMT-30" transform="translate(55.615234 0)"/>
       <use xlink:href="#ArialMT-31" transform="translate(111.230469 0)"/>
       <use xlink:href="#ArialMT-38" transform="translate(166.845703 0)"/>
      </g>
     </g>
    </g>
    <g id="xtick_8">
     <g id="line2d_17">
      <path d="M 560.712656 255.52 
L 560.712656 42.4 
" clip-path="url(#pea63d587d1)" style="fill: none; stroke-dasharray: 5.55,2.4; stroke-dashoffset: 0; stroke: #cccccc; stroke-opacity: 0.3; stroke-width: 1.5"/>
     </g>
     <g id="text_20">
      <!-- 2020 -->
      <g style="fill: #262626" transform="translate(542.361563 279.830391) scale(0.165 -0.165)">
       <use xlink:href="#ArialMT-32"/>
       <use xlink:href="#ArialMT-30" transform="translate(55.615234 0)"/>
       <use xlink:href="#ArialMT-32" transform="translate(111.230469 0)"/>
       <use xlink:href="#ArialMT-30" transform="translate(166.845703 0)"/>
      </g>
     </g>
    </g>
    <g id="xtick_9">
     <g id="line2d_18">
      <path d="M 625.196478 255.52 
L 625.196478 42.4 
" clip-path="url(#pea63d587d1)" style="fill: none; stroke-dasharray: 5.55,2.4; stroke-dashoffset: 0; stroke: #cccccc; stroke-opacity: 0.3; stroke-width: 1.5"/>
     </g>
     <g id="text_21">
      <!-- 2022 -->
      <g style="fill: #262626" transform="translate(606.845384 279.830391) scale(0.165 -0.165)">
       <use xlink:href="#ArialMT-32"/>
       <use xlink:href="#ArialMT-30" transform="translate(55.615234 0)"/>
       <use xlink:href="#ArialMT-32" transform="translate(111.230469 0)"/>
       <use xlink:href="#ArialMT-32" transform="translate(166.845703 0)"/>
      </g>
     </g>
    </g>
    <g id="xtick_10">
     <g id="line2d_19">
      <path d="M 689.680299 255.52 
L 689.680299 42.4 
" clip-path="url(#pea63d587d1)" style="fill: none; stroke-dasharray: 5.55,2.4; stroke-dashoffset: 0; stroke: #cccccc; stroke-opacity: 0.3; stroke-width: 1.5"/>
     </g>
     <g id="text_22">
      <!-- 2024 -->
      <g style="fill: #262626" transform="translate(671.329205 279.830391) scale(0.165 -0.165)">
       <use xlink:href="#ArialMT-32"/>
       <use xlink:href="#ArialMT-30" transform="translate(55.615234 0)"/>
       <use xlink:href="#ArialMT-32" transform="translate(111.230469 0)"/>
       <use xlink:href="#ArialMT-34" transform="translate(166.845703 0)"/>
      </g>
     </g>
    </g>
    <g id="text_23">
     <!-- GPU Launch Year -->
     <g style="fill: #262626" transform="translate(496.660156 302.562266) scale(0.16 -0.16)">
      <use xlink:href="#ArialMT-47"/>
      <use xlink:href="#ArialMT-50" transform="translate(77.783203 0)"/>
      <use xlink:href="#ArialMT-55" transform="translate(144.482422 0)"/>
      <use xlink:href="#ArialMT-20" transform="translate(216.699219 0)"/>
      <use xlink:href="#ArialMT-4c" transform="translate(244.482422 0)"/>
      <use xlink:href="#ArialMT-61" transform="translate(300.097656 0)"/>
      <use xlink:href="#ArialMT-75" transform="translate(355.712891 0)"/>
      <use xlink:href="#ArialMT-6e" transform="translate(411.328125 0)"/>
      <use xlink:href="#ArialMT-63" transform="translate(466.943359 0)"/>
      <use xlink:href="#ArialMT-68" transform="translate(516.943359 0)"/>
      <use xlink:href="#ArialMT-20" transform="translate(572.558594 0)"/>
      <use xlink:href="#ArialMT-59" transform="translate(598.591797 0)"/>
      <use xlink:href="#ArialMT-65" transform="translate(656.166016 0)"/>
      <use xlink:href="#ArialMT-61" transform="translate(711.78125 0)"/>
      <use xlink:href="#ArialMT-72" transform="translate(767.396484 0)"/>
     </g>
    </g>
   </g>
   <g id="matplotlib.axis_4">
    <g id="ytick_7">
     <g id="line2d_20">
      <path d="M 418.848249 255.141964 
L 702.577063 255.141964 
" clip-path="url(#pea63d587d1)" style="fill: none; stroke-dasharray: 5.55,2.4; stroke-dashoffset: 0; stroke: #cccccc; stroke-opacity: 0.3; stroke-width: 1.5"/>
     </g>
     <g id="text_24">
      <!-- 0.0 -->
      <g style="fill: #262626" transform="translate(383.413249 261.04716) scale(0.165 -0.165)">
       <defs>
        <path id="ArialMT-2e" d="M 581 0 
L 581 641 
L 1222 641 
L 1222 0 
L 581 0 
z
" transform="scale(0.015625)"/>
       </defs>
       <use xlink:href="#ArialMT-30"/>
       <use xlink:href="#ArialMT-2e" transform="translate(55.615234 0)"/>
       <use xlink:href="#ArialMT-30" transform="translate(83.398438 0)"/>
      </g>
     </g>
    </g>
    <g id="ytick_8">
     <g id="line2d_21">
      <path d="M 418.848249 216.194256 
L 702.577063 216.194256 
" clip-path="url(#pea63d587d1)" style="fill: none; stroke-dasharray: 5.55,2.4; stroke-dashoffset: 0; stroke: #cccccc; stroke-opacity: 0.3; stroke-width: 1.5"/>
     </g>
     <g id="text_25">
      <!-- 2.5 -->
      <g style="fill: #262626" transform="translate(383.413249 222.099451) scale(0.165 -0.165)">
       <use xlink:href="#ArialMT-32"/>
       <use xlink:href="#ArialMT-2e" transform="translate(55.615234 0)"/>
       <use xlink:href="#ArialMT-35" transform="translate(83.398438 0)"/>
      </g>
     </g>
    </g>
    <g id="ytick_9">
     <g id="line2d_22">
      <path d="M 418.848249 177.246547 
L 702.577063 177.246547 
" clip-path="url(#pea63d587d1)" style="fill: none; stroke-dasharray: 5.55,2.4; stroke-dashoffset: 0; stroke: #cccccc; stroke-opacity: 0.3; stroke-width: 1.5"/>
     </g>
     <g id="text_26">
      <!-- 5.0 -->
      <g style="fill: #262626" transform="translate(383.413249 183.151743) scale(0.165 -0.165)">
       <use xlink:href="#ArialMT-35"/>
       <use xlink:href="#ArialMT-2e" transform="translate(55.615234 0)"/>
       <use xlink:href="#ArialMT-30" transform="translate(83.398438 0)"/>
      </g>
     </g>
    </g>
    <g id="ytick_10">
     <g id="line2d_23">
      <path d="M 418.848249 138.298839 
L 702.577063 138.298839 
" clip-path="url(#pea63d587d1)" style="fill: none; stroke-dasharray: 5.55,2.4; stroke-dashoffset: 0; stroke: #cccccc; stroke-opacity: 0.3; stroke-width: 1.5"/>
     </g>
     <g id="text_27">
      <!-- 7.5 -->
      <g style="fill: #262626" transform="translate(383.413249 144.204034) scale(0.165 -0.165)">
       <defs>
        <path id="ArialMT-37" d="M 303 3981 
L 303 4522 
L 3269 4522 
L 3269 4084 
Q 2831 3619 2401 2847 
Q 1972 2075 1738 1259 
Q 1569 684 1522 0 
L 944 0 
Q 953 541 1156 1306 
Q 1359 2072 1739 2783 
Q 2119 3494 2547 3981 
L 303 3981 
z
" transform="scale(0.015625)"/>
       </defs>
       <use xlink:href="#ArialMT-37"/>
       <use xlink:href="#ArialMT-2e" transform="translate(55.615234 0)"/>
       <use xlink:href="#ArialMT-35" transform="translate(83.398438 0)"/>
      </g>
     </g>
    </g>
    <g id="ytick_11">
     <g id="line2d_24">
      <path d="M 418.848249 99.351131 
L 702.577063 99.351131 
" clip-path="url(#pea63d587d1)" style="fill: none; stroke-dasharray: 5.55,2.4; stroke-dashoffset: 0; stroke: #cccccc; stroke-opacity: 0.3; stroke-width: 1.5"/>
     </g>
     <g id="text_28">
      <!-- 10.0 -->
      <g style="fill: #262626" transform="translate(374.237703 105.256326) scale(0.165 -0.165)">
       <use xlink:href="#ArialMT-31"/>
       <use xlink:href="#ArialMT-30" transform="translate(55.615234 0)"/>
       <use xlink:href="#ArialMT-2e" transform="translate(111.230469 0)"/>
       <use xlink:href="#ArialMT-30" transform="translate(139.013672 0)"/>
      </g>
     </g>
    </g>
    <g id="ytick_12">
     <g id="line2d_25">
      <path d="M 418.848249 60.403422 
L 702.577063 60.403422 
" clip-path="url(#pea63d587d1)" style="fill: none; stroke-dasharray: 5.55,2.4; stroke-dashoffset: 0; stroke: #cccccc; stroke-opacity: 0.3; stroke-width: 1.5"/>
     </g>
     <g id="text_29">
      <!-- 12.5 -->
      <g style="fill: #262626" transform="translate(374.237703 66.308617) scale(0.165 -0.165)">
       <use xlink:href="#ArialMT-31"/>
       <use xlink:href="#ArialMT-32" transform="translate(55.615234 0)"/>
       <use xlink:href="#ArialMT-2e" transform="translate(111.230469 0)"/>
       <use xlink:href="#ArialMT-35" transform="translate(139.013672 0)"/>
      </g>
     </g>
    </g>
    <g id="text_30">
     <!-- FP32 Metric -->
     <g style="fill: #262626" transform="translate(366.660203 197.468594) rotate(-90) scale(0.18 -0.18)">
      <defs>
       <path id="ArialMT-33" d="M 269 1209 
L 831 1284 
Q 928 806 1161 595 
Q 1394 384 1728 384 
Q 2125 384 2398 659 
Q 2672 934 2672 1341 
Q 2672 1728 2419 1979 
Q 2166 2231 1775 2231 
Q 1616 2231 1378 2169 
L 1441 2663 
Q 1497 2656 1531 2656 
Q 1891 2656 2178 2843 
Q 2466 3031 2466 3422 
Q 2466 3731 2256 3934 
Q 2047 4138 1716 4138 
Q 1388 4138 1169 3931 
Q 950 3725 888 3313 
L 325 3413 
Q 428 3978 793 4289 
Q 1159 4600 1703 4600 
Q 2078 4600 2393 4439 
Q 2709 4278 2876 4000 
Q 3044 3722 3044 3409 
Q 3044 3113 2884 2869 
Q 2725 2625 2413 2481 
Q 2819 2388 3044 2092 
Q 3269 1797 3269 1353 
Q 3269 753 2831 336 
Q 2394 -81 1725 -81 
Q 1122 -81 723 278 
Q 325 638 269 1209 
z
" transform="scale(0.015625)"/>
      </defs>
      <use xlink:href="#ArialMT-46"/>
      <use xlink:href="#ArialMT-50" transform="translate(61.083984 0)"/>
      <use xlink:href="#ArialMT-33" transform="translate(127.783203 0)"/>
      <use xlink:href="#ArialMT-32" transform="translate(183.398438 0)"/>
      <use xlink:href="#ArialMT-20" transform="translate(239.013672 0)"/>
      <use xlink:href="#ArialMT-4d" transform="translate(266.796875 0)"/>
      <use xlink:href="#ArialMT-65" transform="translate(350.097656 0)"/>
      <use xlink:href="#ArialMT-74" transform="translate(405.712891 0)"/>
      <use xlink:href="#ArialMT-72" transform="translate(433.496094 0)"/>
      <use xlink:href="#ArialMT-69" transform="translate(466.796875 0)"/>
      <use xlink:href="#ArialMT-63" transform="translate(489.013672 0)"/>
     </g>
    </g>
   </g>
   <g id="PathCollection_3">
    <g clip-path="url(#pea63d587d1)">
     <use xlink:href="#m185ae6485e" x="657.438388" y="145.568315" style="fill: #ce682a; fill-opacity: 0.7; stroke: #ce682a; stroke-opacity: 0.7; stroke-width: 1.5"/>
     <use xlink:href="#m185ae6485e" x="463.986924" y="232.033372" style="fill: #ce682a; fill-opacity: 0.7; stroke: #ce682a; stroke-opacity: 0.7; stroke-width: 1.5"/>
     <use xlink:href="#m185ae6485e" x="560.712656" y="223.26748" style="fill: #ce682a; fill-opacity: 0.7; stroke: #ce682a; stroke-opacity: 0.7; stroke-width: 1.5"/>
     <use xlink:href="#m185ae6485e" x="689.680299" y="52.087273" style="fill: #ce682a; fill-opacity: 0.7; stroke: #ce682a; stroke-opacity: 0.7; stroke-width: 1.5"/>
     <use xlink:href="#m185ae6485e" x="560.712656" y="193.944263" style="fill: #ce682a; fill-opacity: 0.7; stroke: #ce682a; stroke-opacity: 0.7; stroke-width: 1.5"/>
     <use xlink:href="#m185ae6485e" x="496.228835" y="233.145463" style="fill: #ce682a; fill-opacity: 0.7; stroke: #ce682a; stroke-opacity: 0.7; stroke-width: 1.5"/>
     <use xlink:href="#m185ae6485e" x="431.745014" y="239.562881" style="fill: #ce682a; fill-opacity: 0.7; stroke: #ce682a; stroke-opacity: 0.7; stroke-width: 1.5"/>
     <use xlink:href="#m185ae6485e" x="496.228835" y="241.827948" style="fill: #ce682a; fill-opacity: 0.7; stroke: #ce682a; stroke-opacity: 0.7; stroke-width: 1.5"/>
     <use xlink:href="#m185ae6485e" x="592.954567" y="238.264351" style="fill: #ce682a; fill-opacity: 0.7; stroke: #ce682a; stroke-opacity: 0.7; stroke-width: 1.5"/>
     <use xlink:href="#m185ae6485e" x="625.196478" y="107.103057" style="fill: #ce682a; fill-opacity: 0.7; stroke: #ce682a; stroke-opacity: 0.7; stroke-width: 1.5"/>
     <use xlink:href="#m185ae6485e" x="657.438388" y="145.568315" style="fill: #ce682a; fill-opacity: 0.7; stroke: #ce682a; stroke-opacity: 0.7; stroke-width: 1.5"/>
    </g>
   </g>
   <g id="PathCollection_4">
    <g clip-path="url(#pea63d587d1)">
     <use xlink:href="#m3322516361" x="657.438388" y="208.181829" style="fill: #2e8b57; fill-opacity: 0.7; stroke: #2e8b57; stroke-opacity: 0.7; stroke-width: 1.5"/>
     <use xlink:href="#m3322516361" x="463.986924" y="232.033372" style="fill: #2e8b57; fill-opacity: 0.7; stroke: #2e8b57; stroke-opacity: 0.7; stroke-width: 1.5"/>
     <use xlink:href="#m3322516361" x="560.712656" y="216.892583" style="fill: #2e8b57; fill-opacity: 0.7; stroke: #2e8b57; stroke-opacity: 0.7; stroke-width: 1.5"/>
     <use xlink:href="#m3322516361" x="689.680299" y="194.225557" style="fill: #2e8b57; fill-opacity: 0.7; stroke: #2e8b57; stroke-opacity: 0.7; stroke-width: 1.5"/>
     <use xlink:href="#m3322516361" x="560.712656" y="193.944263" style="fill: #2e8b57; fill-opacity: 0.7; stroke: #2e8b57; stroke-opacity: 0.7; stroke-width: 1.5"/>
     <use xlink:href="#m3322516361" x="496.228835" y="228.746163" style="fill: #2e8b57; fill-opacity: 0.7; stroke: #2e8b57; stroke-opacity: 0.7; stroke-width: 1.5"/>
     <use xlink:href="#m3322516361" x="431.745014" y="239.562881" style="fill: #2e8b57; fill-opacity: 0.7; stroke: #2e8b57; stroke-opacity: 0.7; stroke-width: 1.5"/>
     <use xlink:href="#m3322516361" x="496.228835" y="198.081895" style="fill: #2e8b57; fill-opacity: 0.7; stroke: #2e8b57; stroke-opacity: 0.7; stroke-width: 1.5"/>
     <use xlink:href="#m3322516361" x="592.954567" y="224.455395" style="fill: #2e8b57; fill-opacity: 0.7; stroke: #2e8b57; stroke-opacity: 0.7; stroke-width: 1.5"/>
     <use xlink:href="#m3322516361" x="625.196478" y="107.103057" style="fill: #2e8b57; fill-opacity: 0.7; stroke: #2e8b57; stroke-opacity: 0.7; stroke-width: 1.5"/>
     <use xlink:href="#m3322516361" x="657.438388" y="218.617414" style="fill: #2e8b57; fill-opacity: 0.7; stroke: #2e8b57; stroke-opacity: 0.7; stroke-width: 1.5"/>
    </g>
   </g>
   <g id="line2d_26">
    <path d="M 418.848249 239.562881 
L 702.577063 239.562881 
" clip-path="url(#pea63d587d1)" style="fill: none; stroke-dasharray: 3.7,1.6; stroke-dashoffset: 0; stroke: #808080"/>
   </g>
   <g id="line2d_27">
    <path d="M 431.745014 239.562881 
L 435.359722 237.714662 
L 438.974431 236.120007 
L 442.58914 234.778917 
L 445.945655 233.760662 
L 449.30217 232.961043 
L 452.658685 232.380058 
L 456.015201 232.017707 
L 459.371716 231.873992 
L 462.728231 231.948911 
L 466.084746 232.242465 
L 469.441262 232.754653 
L 472.797777 233.485476 
L 476.154292 234.434934 
L 479.510807 235.603026 
L 482.867322 236.779068 
L 485.449257 237.415838 
L 488.031192 237.813073 
L 490.613127 237.970774 
L 493.195062 237.88894 
L 495.776996 237.567572 
L 498.358931 237.00667 
L 500.940866 236.206233 
L 503.522801 235.166261 
L 506.104736 233.886755 
L 508.68667 232.367714 
L 511.526799 230.420107 
L 514.366927 228.182663 
L 517.207055 225.655383 
L 520.047183 222.838266 
L 523.145505 219.434489 
L 526.243827 215.685783 
L 532.182277 208.303743 
L 534.247825 206.263644 
L 536.313373 204.545413 
L 538.120727 203.305994 
L 539.928081 202.313006 
L 541.735436 201.566449 
L 543.54279 201.066323 
L 545.350144 200.812628 
L 547.157499 200.805364 
L 548.964853 201.044531 
L 550.772207 201.530129 
L 552.579562 202.262158 
L 554.386916 203.240618 
L 556.19427 204.465509 
L 558.001625 205.936831 
L 560.067173 207.920094 
L 562.13272 210.225226 
L 564.198268 212.852227 
L 566.52201 216.192337 
L 568.845751 219.939812 
L 571.169492 224.094653 
L 573.751427 229.188918 
L 576.333362 234.786103 
L 578.140716 238.710207 
L 579.431683 241.008362 
L 580.722651 242.86031 
L 581.755425 244.020599 
L 582.788199 244.895315 
L 583.820973 245.484459 
L 584.853746 245.788031 
L 585.88652 245.80603 
L 586.919294 245.538457 
L 587.952068 244.985311 
L 588.984842 244.146593 
L 590.017616 243.022302 
L 591.308583 241.215352 
L 592.599551 238.962195 
L 593.890518 236.262831 
L 595.439679 232.434601 
L 596.98884 227.963833 
L 598.538001 222.850527 
L 600.345355 216.072907 
L 602.15271 208.42072 
L 604.218257 198.604468 
L 606.283805 187.645925 
L 608.349353 175.545092 
L 611.705868 155.385945 
L 613.771416 144.531967 
L 615.836964 134.929563 
L 617.644318 127.554141 
L 619.451673 121.136954 
L 621.000833 116.399186 
L 622.549994 112.365427 
L 623.840962 109.541747 
L 625.131929 107.206963 
L 626.422897 105.361075 
L 627.45567 104.236369 
L 628.488444 103.424556 
L 629.521218 102.925637 
L 630.295799 102.756784 
L 631.070379 102.763933 
L 631.84496 102.947085 
L 632.877733 103.465069 
L 633.910507 104.295946 
L 634.943281 105.439716 
L 635.976055 106.89638 
L 637.267023 109.157216 
L 638.55799 111.906948 
L 639.848957 115.145575 
L 641.398118 119.675707 
L 643.463666 125.708412 
L 645.27102 130.332671 
L 647.078375 134.346196 
L 648.627536 137.300267 
L 650.176697 139.805635 
L 651.725857 141.862302 
L 653.016825 143.233432 
L 654.307792 144.292963 
L 655.59876 145.040895 
L 656.631534 145.41489 
L 657.664307 145.589462 
L 658.697081 145.56461 
L 659.729855 145.340335 
L 660.762629 144.916637 
L 662.053597 144.106576 
L 663.344564 142.984916 
L 664.635531 141.551657 
L 665.926499 139.806799 
L 667.47566 137.30166 
L 669.02482 134.347818 
L 670.573981 130.945274 
L 672.381336 126.40853 
L 674.18869 121.261052 
L 676.254238 114.630383 
L 678.319786 107.202021 
L 680.385334 98.975967 
L 682.709075 88.768163 
L 685.032816 77.55078 
L 687.614751 63.902945 
L 689.680299 52.087273 
L 689.680299 52.087273 
" clip-path="url(#pea63d587d1)" style="fill: none; stroke: #ce682a; stroke-opacity: 0.7; stroke-width: 2; stroke-linecap: round"/>
   </g>
   <g id="line2d_28">
    <path d="M 431.745014 239.562881 
L 435.876109 239.337082 
L 440.007205 238.894096 
L 444.138301 238.233924 
L 448.269396 237.356566 
L 452.400492 236.262021 
L 456.789781 234.861096 
L 461.17907 233.214987 
L 465.568359 231.323696 
L 469.957649 229.187222 
L 474.346938 226.805564 
L 478.736227 224.178724 
L 493.969642 214.741948 
L 502.231833 209.978305 
L 510.494025 205.469966 
L 518.756216 201.216931 
L 527.018407 197.2192 
L 530.633116 195.648794 
L 532.956857 194.926707 
L 535.280599 194.451901 
L 537.60434 194.224378 
L 539.928081 194.244136 
L 542.251823 194.511177 
L 544.575564 195.025499 
L 546.899305 195.787103 
L 549.223046 196.795989 
L 551.546788 198.052157 
L 553.870529 199.555607 
L 556.19427 201.306339 
L 558.776205 203.541619 
L 561.35814 206.082186 
L 563.940075 208.928038 
L 566.780203 212.411082 
L 569.620331 216.263522 
L 572.46046 220.485358 
L 575.558781 225.512294 
L 578.39891 230.153486 
L 579.689877 231.723275 
L 580.722651 232.68828 
L 581.755425 233.394774 
L 582.788199 233.842756 
L 583.820973 234.032226 
L 584.853746 233.963184 
L 585.88652 233.635631 
L 586.919294 233.049566 
L 587.952068 232.204989 
L 588.984842 231.1019 
L 590.27581 229.359507 
L 591.566777 227.213189 
L 592.857744 224.662947 
L 594.406905 221.069476 
L 595.956066 216.894353 
L 597.76342 211.288234 
L 599.570775 204.890422 
L 601.378129 197.700918 
L 603.443677 188.514923 
L 605.509225 178.294881 
L 607.832966 165.561325 
L 611.964062 142.20038 
L 613.771416 133.702323 
L 615.320577 127.35107 
L 616.869738 121.860859 
L 618.418899 117.231691 
L 619.709866 114.031792 
L 621.000833 111.429839 
L 622.033607 109.778798 
L 623.066381 108.510442 
L 624.099155 107.624772 
L 624.873736 107.211657 
L 625.648316 107.013802 
L 626.422897 107.031208 
L 627.197477 107.263875 
L 627.972057 107.711802 
L 628.746638 108.37499 
L 629.779412 109.594091 
L 630.812186 111.195877 
L 631.84496 113.180348 
L 633.135927 116.199089 
L 634.426894 119.815777 
L 635.976055 124.94509 
L 637.525216 130.935446 
L 639.074377 137.786845 
L 640.881731 146.868405 
L 644.49644 165.778492 
L 646.820181 176.663019 
L 649.143923 186.525935 
L 651.467664 195.367238 
L 653.533212 202.368524 
L 655.59876 208.56261 
L 657.406114 213.32028 
L 659.213468 217.459937 
L 660.762629 220.516327 
L 662.31179 223.118667 
L 663.860951 225.266957 
L 665.151918 226.710355 
L 666.442886 227.838441 
L 667.733853 228.651214 
L 668.766627 229.074408 
L 669.799401 229.295802 
L 670.832175 229.315396 
L 671.864949 229.133189 
L 672.897723 228.749183 
L 673.930497 228.163377 
L 675.221464 227.147338 
L 676.512431 225.815987 
L 677.803399 224.169323 
L 679.35256 221.777114 
L 680.901721 218.930855 
L 682.450881 215.630547 
L 684.258236 211.206318 
L 686.06559 206.164077 
L 687.872944 200.503823 
L 689.680299 194.225557 
L 689.680299 194.225557 
" clip-path="url(#pea63d587d1)" style="fill: none; stroke: #2e8b57; stroke-opacity: 0.7; stroke-width: 2; stroke-linecap: round"/>
   </g>
   <g id="patch_11">
    <path d="M 418.848249 255.52 
L 418.848249 42.4 
" style="fill: none; stroke: #cccccc; stroke-width: 1.875; stroke-linejoin: miter; stroke-linecap: square"/>
   </g>
   <g id="patch_12">
    <path d="M 702.577063 255.52 
L 702.577063 42.4 
" style="fill: none; stroke: #cccccc; stroke-width: 1.875; stroke-linejoin: miter; stroke-linecap: square"/>
   </g>
   <g id="patch_13">
    <path d="M 418.848249 255.52 
L 702.577063 255.52 
" style="fill: none; stroke: #cccccc; stroke-width: 1.875; stroke-linejoin: miter; stroke-linecap: square"/>
   </g>
   <g id="patch_14">
    <path d="M 418.848249 42.4 
L 702.577063 42.4 
" style="fill: none; stroke: #cccccc; stroke-width: 1.875; stroke-linejoin: miter; stroke-linecap: square"/>
   </g>
   <g id="patch_15">
    <path d="M 595.899104 102.259601 
Q 609.562509 104.535984 621.571665 106.536762 
" style="fill: none; stroke: #a9a9a9; stroke-width: 1.5; stroke-linecap: round"/>
    <path d="M 617.23134 103.380565 
L 621.571665 106.536762 
L 616.442512 108.115303 
" style="fill: none; stroke: #a9a9a9; stroke-width: 1.5; stroke-linecap: round"/>
   </g>
   <g id="text_31">
    <!-- NVIDIA L40 -->
    <g transform="translate(528.470746 99.351131) scale(0.12 -0.12)">
     <use xlink:href="#ArialMT-4e"/>
     <use xlink:href="#ArialMT-56" transform="translate(72.216797 0)"/>
     <use xlink:href="#ArialMT-49" transform="translate(138.916016 0)"/>
     <use xlink:href="#ArialMT-44" transform="translate(166.699219 0)"/>
     <use xlink:href="#ArialMT-49" transform="translate(238.916016 0)"/>
     <use xlink:href="#ArialMT-41" transform="translate(266.699219 0)"/>
     <use xlink:href="#ArialMT-20" transform="translate(327.898438 0)"/>
     <use xlink:href="#ArialMT-4c" transform="translate(355.681641 0)"/>
     <use xlink:href="#ArialMT-34" transform="translate(411.296875 0)"/>
     <use xlink:href="#ArialMT-30" transform="translate(466.912109 0)"/>
    </g>
   </g>
   <g id="text_32">
    <!-- (b) FP32 Performance vs Efficiency -->
    <g style="fill: #262626" transform="translate(435.038906 327.8584) scale(0.16 -0.16)">
     <defs>
      <path id="ArialMT-62" d="M 941 0 
L 419 0 
L 419 4581 
L 981 4581 
L 981 2947 
Q 1338 3394 1891 3394 
Q 2197 3394 2470 3270 
Q 2744 3147 2920 2923 
Q 3097 2700 3197 2384 
Q 3297 2069 3297 1709 
Q 3297 856 2875 390 
Q 2453 -75 1863 -75 
Q 1275 -75 941 416 
L 941 0 
z
M 934 1684 
Q 934 1088 1097 822 
Q 1363 388 1816 388 
Q 2184 388 2453 708 
Q 2722 1028 2722 1663 
Q 2722 2313 2464 2622 
Q 2206 2931 1841 2931 
Q 1472 2931 1203 2611 
Q 934 2291 934 1684 
z
" transform="scale(0.015625)"/>
     </defs>
     <use xlink:href="#ArialMT-28"/>
     <use xlink:href="#ArialMT-62" transform="translate(33.300781 0)"/>
     <use xlink:href="#ArialMT-29" transform="translate(88.916016 0)"/>
     <use xlink:href="#ArialMT-20" transform="translate(122.216797 0)"/>
     <use xlink:href="#ArialMT-46" transform="translate(150 0)"/>
     <use xlink:href="#ArialMT-50" transform="translate(211.083984 0)"/>
     <use xlink:href="#ArialMT-33" transform="translate(277.783203 0)"/>
     <use xlink:href="#ArialMT-32" transform="translate(333.398438 0)"/>
     <use xlink:href="#ArialMT-20" transform="translate(389.013672 0)"/>
     <use xlink:href="#ArialMT-50" transform="translate(416.796875 0)"/>
     <use xlink:href="#ArialMT-65" transform="translate(483.496094 0)"/>
     <use xlink:href="#ArialMT-72" transform="translate(539.111328 0)"/>
     <use xlink:href="#ArialMT-66" transform="translate(572.412109 0)"/>
     <use xlink:href="#ArialMT-6f" transform="translate(600.195312 0)"/>
     <use xlink:href="#ArialMT-72" transform="translate(655.810547 0)"/>
     <use xlink:href="#ArialMT-6d" transform="translate(689.111328 0)"/>
     <use xlink:href="#ArialMT-61" transform="translate(772.412109 0)"/>
     <use xlink:href="#ArialMT-6e" transform="translate(828.027344 0)"/>
     <use xlink:href="#ArialMT-63" transform="translate(883.642578 0)"/>
     <use xlink:href="#ArialMT-65" transform="translate(933.642578 0)"/>
     <use xlink:href="#ArialMT-20" transform="translate(989.257812 0)"/>
     <use xlink:href="#ArialMT-76" transform="translate(1017.041016 0)"/>
     <use xlink:href="#ArialMT-73" transform="translate(1067.041016 0)"/>
     <use xlink:href="#ArialMT-20" transform="translate(1117.041016 0)"/>
     <use xlink:href="#ArialMT-45" transform="translate(1144.824219 0)"/>
     <use xlink:href="#ArialMT-66" transform="translate(1211.523438 0)"/>
     <use xlink:href="#ArialMT-66" transform="translate(1237.556641 0)"/>
     <use xlink:href="#ArialMT-69" transform="translate(1265.339844 0)"/>
     <use xlink:href="#ArialMT-63" transform="translate(1287.556641 0)"/>
     <use xlink:href="#ArialMT-69" transform="translate(1337.556641 0)"/>
     <use xlink:href="#ArialMT-65" transform="translate(1359.773438 0)"/>
     <use xlink:href="#ArialMT-6e" transform="translate(1415.388672 0)"/>
     <use xlink:href="#ArialMT-63" transform="translate(1471.003906 0)"/>
     <use xlink:href="#ArialMT-79" transform="translate(1521.003906 0)"/>
    </g>
   </g>
  </g>
  <g id="axes_3">
   <g id="patch_16">
    <path d="M 779.183843 255.52 
L 1062.912656 255.52 
L 1062.912656 42.4 
L 779.183843 42.4 
z
" style="fill: #ffffff"/>
   </g>
   <g id="matplotlib.axis_5">
    <g id="xtick_11">
     <g id="line2d_29">
      <path d="M 792.080607 255.52 
L 792.080607 42.4 
" clip-path="url(#pa9868b12b3)" style="fill: none; stroke-dasharray: 5.55,2.4; stroke-dashoffset: 0; stroke: #cccccc; stroke-opacity: 0.3; stroke-width: 1.5"/>
     </g>
     <g id="text_33">
      <!-- 2016 -->
      <g style="fill: #262626" transform="translate(773.729513 279.830391) scale(0.165 -0.165)">
       <use xlink:href="#ArialMT-32"/>
       <use xlink:href="#ArialMT-30" transform="translate(55.615234 0)"/>
       <use xlink:href="#ArialMT-31" transform="translate(111.230469 0)"/>
       <use xlink:href="#ArialMT-36" transform="translate(166.845703 0)"/>
      </g>
     </g>
    </g>
    <g id="xtick_12">
     <g id="line2d_30">
      <path d="M 856.564428 255.52 
L 856.564428 42.4 
" clip-path="url(#pa9868b12b3)" style="fill: none; stroke-dasharray: 5.55,2.4; stroke-dashoffset: 0; stroke: #cccccc; stroke-opacity: 0.3; stroke-width: 1.5"/>
     </g>
     <g id="text_34">
      <!-- 2018 -->
      <g style="fill: #262626" transform="translate(838.213334 279.830391) scale(0.165 -0.165)">
       <use xlink:href="#ArialMT-32"/>
       <use xlink:href="#ArialMT-30" transform="translate(55.615234 0)"/>
       <use xlink:href="#ArialMT-31" transform="translate(111.230469 0)"/>
       <use xlink:href="#ArialMT-38" transform="translate(166.845703 0)"/>
      </g>
     </g>
    </g>
    <g id="xtick_13">
     <g id="line2d_31">
      <path d="M 921.048249 255.52 
L 921.048249 42.4 
" clip-path="url(#pa9868b12b3)" style="fill: none; stroke-dasharray: 5.55,2.4; stroke-dashoffset: 0; stroke: #cccccc; stroke-opacity: 0.3; stroke-width: 1.5"/>
     </g>
     <g id="text_35">
      <!-- 2020 -->
      <g style="fill: #262626" transform="translate(902.697156 279.830391) scale(0.165 -0.165)">
       <use xlink:href="#ArialMT-32"/>
       <use xlink:href="#ArialMT-30" transform="translate(55.615234 0)"/>
       <use xlink:href="#ArialMT-32" transform="translate(111.230469 0)"/>
       <use xlink:href="#ArialMT-30" transform="translate(166.845703 0)"/>
      </g>
     </g>
    </g>
    <g id="xtick_14">
     <g id="line2d_32">
      <path d="M 985.532071 255.52 
L 985.532071 42.4 
" clip-path="url(#pa9868b12b3)" style="fill: none; stroke-dasharray: 5.55,2.4; stroke-dashoffset: 0; stroke: #cccccc; stroke-opacity: 0.3; stroke-width: 1.5"/>
     </g>
     <g id="text_36">
      <!-- 2022 -->
      <g style="fill: #262626" transform="translate(967.180977 279.830391) scale(0.165 -0.165)">
       <use xlink:href="#ArialMT-32"/>
       <use xlink:href="#ArialMT-30" transform="translate(55.615234 0)"/>
       <use xlink:href="#ArialMT-32" transform="translate(111.230469 0)"/>
       <use xlink:href="#ArialMT-32" transform="translate(166.845703 0)"/>
      </g>
     </g>
    </g>
    <g id="xtick_15">
     <g id="line2d_33">
      <path d="M 1050.015892 255.52 
L 1050.015892 42.4 
" clip-path="url(#pa9868b12b3)" style="fill: none; stroke-dasharray: 5.55,2.4; stroke-dashoffset: 0; stroke: #cccccc; stroke-opacity: 0.3; stroke-width: 1.5"/>
     </g>
     <g id="text_37">
      <!-- 2024 -->
      <g style="fill: #262626" transform="translate(1031.664798 279.830391) scale(0.165 -0.165)">
       <use xlink:href="#ArialMT-32"/>
       <use xlink:href="#ArialMT-30" transform="translate(55.615234 0)"/>
       <use xlink:href="#ArialMT-32" transform="translate(111.230469 0)"/>
       <use xlink:href="#ArialMT-34" transform="translate(166.845703 0)"/>
      </g>
     </g>
    </g>
    <g id="text_38">
     <!-- GPU Launch Year -->
     <g style="fill: #262626" transform="translate(856.995749 302.562266) scale(0.16 -0.16)">
      <use xlink:href="#ArialMT-47"/>
      <use xlink:href="#ArialMT-50" transform="translate(77.783203 0)"/>
      <use xlink:href="#ArialMT-55" transform="translate(144.482422 0)"/>
      <use xlink:href="#ArialMT-20" transform="translate(216.699219 0)"/>
      <use xlink:href="#ArialMT-4c" transform="translate(244.482422 0)"/>
      <use xlink:href="#ArialMT-61" transform="translate(300.097656 0)"/>
      <use xlink:href="#ArialMT-75" transform="translate(355.712891 0)"/>
      <use xlink:href="#ArialMT-6e" transform="translate(411.328125 0)"/>
      <use xlink:href="#ArialMT-63" transform="translate(466.943359 0)"/>
      <use xlink:href="#ArialMT-68" transform="translate(516.943359 0)"/>
      <use xlink:href="#ArialMT-20" transform="translate(572.558594 0)"/>
      <use xlink:href="#ArialMT-59" transform="translate(598.591797 0)"/>
      <use xlink:href="#ArialMT-65" transform="translate(656.166016 0)"/>
      <use xlink:href="#ArialMT-61" transform="translate(711.78125 0)"/>
      <use xlink:href="#ArialMT-72" transform="translate(767.396484 0)"/>
     </g>
    </g>
   </g>
   <g id="matplotlib.axis_6">
    <g id="ytick_13">
     <g id="line2d_34">
      <path d="M 779.183843 243.88302 
L 1062.912656 243.88302 
" clip-path="url(#pa9868b12b3)" style="fill: none; stroke-dasharray: 5.55,2.4; stroke-dashoffset: 0; stroke: #cccccc; stroke-opacity: 0.3; stroke-width: 1.5"/>
     </g>
     <g id="text_39">
      <!-- 0.0 -->
      <g style="fill: #262626" transform="translate(743.748843 249.788215) scale(0.165 -0.165)">
       <use xlink:href="#ArialMT-30"/>
       <use xlink:href="#ArialMT-2e" transform="translate(55.615234 0)"/>
       <use xlink:href="#ArialMT-30" transform="translate(83.398438 0)"/>
      </g>
     </g>
    </g>
    <g id="ytick_14">
     <g id="line2d_35">
      <path d="M 779.183843 207.094878 
L 1062.912656 207.094878 
" clip-path="url(#pa9868b12b3)" style="fill: none; stroke-dasharray: 5.55,2.4; stroke-dashoffset: 0; stroke: #cccccc; stroke-opacity: 0.3; stroke-width: 1.5"/>
     </g>
     <g id="text_40">
      <!-- 2.5 -->
      <g style="fill: #262626" transform="translate(743.748843 213.000073) scale(0.165 -0.165)">
       <use xlink:href="#ArialMT-32"/>
       <use xlink:href="#ArialMT-2e" transform="translate(55.615234 0)"/>
       <use xlink:href="#ArialMT-35" transform="translate(83.398438 0)"/>
      </g>
     </g>
    </g>
    <g id="ytick_15">
     <g id="line2d_36">
      <path d="M 779.183843 170.306736 
L 1062.912656 170.306736 
" clip-path="url(#pa9868b12b3)" style="fill: none; stroke-dasharray: 5.55,2.4; stroke-dashoffset: 0; stroke: #cccccc; stroke-opacity: 0.3; stroke-width: 1.5"/>
     </g>
     <g id="text_41">
      <!-- 5.0 -->
      <g style="fill: #262626" transform="translate(743.748843 176.211931) scale(0.165 -0.165)">
       <use xlink:href="#ArialMT-35"/>
       <use xlink:href="#ArialMT-2e" transform="translate(55.615234 0)"/>
       <use xlink:href="#ArialMT-30" transform="translate(83.398438 0)"/>
      </g>
     </g>
    </g>
    <g id="ytick_16">
     <g id="line2d_37">
      <path d="M 779.183843 133.518594 
L 1062.912656 133.518594 
" clip-path="url(#pa9868b12b3)" style="fill: none; stroke-dasharray: 5.55,2.4; stroke-dashoffset: 0; stroke: #cccccc; stroke-opacity: 0.3; stroke-width: 1.5"/>
     </g>
     <g id="text_42">
      <!-- 7.5 -->
      <g style="fill: #262626" transform="translate(743.748843 139.423789) scale(0.165 -0.165)">
       <use xlink:href="#ArialMT-37"/>
       <use xlink:href="#ArialMT-2e" transform="translate(55.615234 0)"/>
       <use xlink:href="#ArialMT-35" transform="translate(83.398438 0)"/>
      </g>
     </g>
    </g>
    <g id="ytick_17">
     <g id="line2d_38">
      <path d="M 779.183843 96.730452 
L 1062.912656 96.730452 
" clip-path="url(#pa9868b12b3)" style="fill: none; stroke-dasharray: 5.55,2.4; stroke-dashoffset: 0; stroke: #cccccc; stroke-opacity: 0.3; stroke-width: 1.5"/>
     </g>
     <g id="text_43">
      <!-- 10.0 -->
      <g style="fill: #262626" transform="translate(734.573296 102.635647) scale(0.165 -0.165)">
       <use xlink:href="#ArialMT-31"/>
       <use xlink:href="#ArialMT-30" transform="translate(55.615234 0)"/>
       <use xlink:href="#ArialMT-2e" transform="translate(111.230469 0)"/>
       <use xlink:href="#ArialMT-30" transform="translate(139.013672 0)"/>
      </g>
     </g>
    </g>
    <g id="ytick_18">
     <g id="line2d_39">
      <path d="M 779.183843 59.94231 
L 1062.912656 59.94231 
" clip-path="url(#pa9868b12b3)" style="fill: none; stroke-dasharray: 5.55,2.4; stroke-dashoffset: 0; stroke: #cccccc; stroke-opacity: 0.3; stroke-width: 1.5"/>
     </g>
     <g id="text_44">
      <!-- 12.5 -->
      <g style="fill: #262626" transform="translate(734.573296 65.847505) scale(0.165 -0.165)">
       <use xlink:href="#ArialMT-31"/>
       <use xlink:href="#ArialMT-32" transform="translate(55.615234 0)"/>
       <use xlink:href="#ArialMT-2e" transform="translate(111.230469 0)"/>
       <use xlink:href="#ArialMT-35" transform="translate(139.013672 0)"/>
      </g>
     </g>
    </g>
    <g id="text_45">
     <!-- FP64 Metric -->
     <g style="fill: #262626" transform="translate(726.995796 197.468594) rotate(-90) scale(0.18 -0.18)">
      <use xlink:href="#ArialMT-46"/>
      <use xlink:href="#ArialMT-50" transform="translate(61.083984 0)"/>
      <use xlink:href="#ArialMT-36" transform="translate(127.783203 0)"/>
      <use xlink:href="#ArialMT-34" transform="translate(183.398438 0)"/>
      <use xlink:href="#ArialMT-20" transform="translate(239.013672 0)"/>
      <use xlink:href="#ArialMT-4d" transform="translate(266.796875 0)"/>
      <use xlink:href="#ArialMT-65" transform="translate(350.097656 0)"/>
      <use xlink:href="#ArialMT-74" transform="translate(405.712891 0)"/>
      <use xlink:href="#ArialMT-72" transform="translate(433.496094 0)"/>
      <use xlink:href="#ArialMT-69" transform="translate(466.796875 0)"/>
      <use xlink:href="#ArialMT-63" transform="translate(489.013672 0)"/>
     </g>
    </g>
   </g>
   <g id="PathCollection_5">
    <g clip-path="url(#pa9868b12b3)">
     <use xlink:href="#m185ae6485e" x="1017.773981" y="138.840246" style="fill: #ce682a; fill-opacity: 0.7; stroke: #ce682a; stroke-opacity: 0.7; stroke-width: 1.5"/>
     <use xlink:href="#m185ae6485e" x="824.322518" y="222.05266" style="fill: #ce682a; fill-opacity: 0.7; stroke: #ce682a; stroke-opacity: 0.7; stroke-width: 1.5"/>
     <use xlink:href="#m185ae6485e" x="921.048249" y="213.772818" style="fill: #ce682a; fill-opacity: 0.7; stroke: #ce682a; stroke-opacity: 0.7; stroke-width: 1.5"/>
     <use xlink:href="#m185ae6485e" x="1050.015892" y="52.087273" style="fill: #ce682a; fill-opacity: 0.7; stroke: #ce682a; stroke-opacity: 0.7; stroke-width: 1.5"/>
     <use xlink:href="#m185ae6485e" x="921.048249" y="242.078756" style="fill: #ce682a; fill-opacity: 0.7; stroke: #ce682a; stroke-opacity: 0.7; stroke-width: 1.5"/>
     <use xlink:href="#m185ae6485e" x="856.564428" y="242.584815" style="fill: #ce682a; fill-opacity: 0.7; stroke: #ce682a; stroke-opacity: 0.7; stroke-width: 1.5"/>
     <use xlink:href="#m185ae6485e" x="792.080607" y="229.167763" style="fill: #ce682a; fill-opacity: 0.7; stroke: #ce682a; stroke-opacity: 0.7; stroke-width: 1.5"/>
     <use xlink:href="#m185ae6485e" x="856.564428" y="243.097053" style="fill: #ce682a; fill-opacity: 0.7; stroke: #ce682a; stroke-opacity: 0.7; stroke-width: 1.5"/>
     <use xlink:href="#m185ae6485e" x="953.29016" y="227.938145" style="fill: #ce682a; fill-opacity: 0.7; stroke: #ce682a; stroke-opacity: 0.7; stroke-width: 1.5"/>
     <use xlink:href="#m185ae6485e" x="985.532071" y="239.513549" style="fill: #ce682a; fill-opacity: 0.7; stroke: #ce682a; stroke-opacity: 0.7; stroke-width: 1.5"/>
     <use xlink:href="#m185ae6485e" x="1017.773981" y="138.840246" style="fill: #ce682a; fill-opacity: 0.7; stroke: #ce682a; stroke-opacity: 0.7; stroke-width: 1.5"/>
    </g>
   </g>
   <g id="PathCollection_6">
    <g clip-path="url(#pa9868b12b3)">
     <use xlink:href="#m3322516361" x="1017.773981" y="198.864688" style="fill: #2e8b57; fill-opacity: 0.7; stroke: #2e8b57; stroke-opacity: 0.7; stroke-width: 1.5"/>
     <use xlink:href="#m3322516361" x="824.322518" y="222.05266" style="fill: #2e8b57; fill-opacity: 0.7; stroke: #2e8b57; stroke-opacity: 0.7; stroke-width: 1.5"/>
     <use xlink:href="#m3322516361" x="921.048249" y="207.750777" style="fill: #2e8b57; fill-opacity: 0.7; stroke: #2e8b57; stroke-opacity: 0.7; stroke-width: 1.5"/>
     <use xlink:href="#m3322516361" x="1050.015892" y="186.344296" style="fill: #2e8b57; fill-opacity: 0.7; stroke: #2e8b57; stroke-opacity: 0.7; stroke-width: 1.5"/>
     <use xlink:href="#m3322516361" x="921.048249" y="242.078756" style="fill: #2e8b57; fill-opacity: 0.7; stroke: #2e8b57; stroke-opacity: 0.7; stroke-width: 1.5"/>
     <use xlink:href="#m3322516361" x="856.564428" y="242.325174" style="fill: #2e8b57; fill-opacity: 0.7; stroke: #2e8b57; stroke-opacity: 0.7; stroke-width: 1.5"/>
     <use xlink:href="#m3322516361" x="792.080607" y="229.167763" style="fill: #2e8b57; fill-opacity: 0.7; stroke: #2e8b57; stroke-opacity: 0.7; stroke-width: 1.5"/>
     <use xlink:href="#m3322516361" x="856.564428" y="240.514589" style="fill: #2e8b57; fill-opacity: 0.7; stroke: #2e8b57; stroke-opacity: 0.7; stroke-width: 1.5"/>
     <use xlink:href="#m3322516361" x="953.29016" y="214.892338" style="fill: #2e8b57; fill-opacity: 0.7; stroke: #2e8b57; stroke-opacity: 0.7; stroke-width: 1.5"/>
     <use xlink:href="#m3322516361" x="985.532071" y="239.513549" style="fill: #2e8b57; fill-opacity: 0.7; stroke: #2e8b57; stroke-opacity: 0.7; stroke-width: 1.5"/>
     <use xlink:href="#m3322516361" x="1017.773981" y="208.868762" style="fill: #2e8b57; fill-opacity: 0.7; stroke: #2e8b57; stroke-opacity: 0.7; stroke-width: 1.5"/>
    </g>
   </g>
   <g id="line2d_40">
    <path d="M 779.183843 229.167763 
L 1062.912656 229.167763 
" clip-path="url(#pa9868b12b3)" style="fill: none; stroke-dasharray: 3.7,1.6; stroke-dashoffset: 0; stroke: #808080"/>
   </g>
   <g id="line2d_41">
    <path d="M 792.080607 229.167763 
L 794.920735 227.081489 
L 797.760863 225.277185 
L 800.600992 223.754852 
L 803.182927 222.615599 
L 805.764861 221.709378 
L 808.346796 221.036192 
L 810.928731 220.596039 
L 813.510666 220.388919 
L 816.0926 220.414833 
L 818.674535 220.673781 
L 821.25647 221.165762 
L 823.838405 221.890776 
L 826.42034 222.848825 
L 829.002274 224.039906 
L 831.584209 225.464022 
L 834.424337 227.299702 
L 837.264466 229.417354 
L 840.104594 231.816975 
L 843.719303 234.930541 
L 846.817624 237.290942 
L 849.915946 239.363746 
L 852.756074 241.01117 
L 855.596203 242.416932 
L 858.436331 243.581032 
L 861.276459 244.503471 
L 864.116587 245.184248 
L 866.956716 245.623364 
L 869.796844 245.820818 
L 872.636972 245.77661 
L 875.477101 245.49074 
L 878.317229 244.963209 
L 881.157357 244.194016 
L 883.997485 243.183161 
L 886.837614 241.930645 
L 890.194129 240.176017 
L 895.616192 237.426671 
L 901.038255 234.931706 
L 906.460318 232.691124 
L 911.624188 230.793736 
L 916.788057 229.12708 
L 921.951927 227.691156 
L 927.115796 226.485964 
L 932.279666 225.511503 
L 937.443535 224.768937 
L 939.767277 224.612583 
L 942.091018 224.66968 
L 944.414759 224.94023 
L 946.738501 225.424231 
L 949.062242 226.121683 
L 951.385983 227.032588 
L 953.967918 228.295049 
L 956.549853 229.82103 
L 959.131788 231.610532 
L 961.713722 233.663554 
L 964.553851 236.226246 
L 967.393979 239.107797 
L 971.525075 243.429565 
L 972.816042 244.356029 
L 974.107009 245.021094 
L 975.397977 245.42476 
L 976.688944 245.567029 
L 977.979911 245.447899 
L 979.270879 245.067371 
L 980.561846 244.425445 
L 981.852814 243.52212 
L 983.143781 242.357397 
L 984.692942 240.614685 
L 986.242103 238.495558 
L 987.791264 236.000018 
L 989.598618 232.61281 
L 991.405972 228.713262 
L 993.213327 224.301373 
L 995.278875 218.631858 
L 997.344422 212.293164 
L 999.668164 204.362255 
L 1001.991905 195.595586 
L 1006.897581 176.947807 
L 1011.545064 160.118623 
L 1016.192546 144.103949 
L 1020.840029 128.903783 
L 1025.229318 115.295961 
L 1029.618607 102.414661 
L 1033.749703 90.954758 
L 1037.880799 80.138418 
L 1042.011894 69.965641 
L 1045.884796 61.013148 
L 1049.757699 52.626286 
L 1050.015892 52.087273 
L 1050.015892 52.087273 
" clip-path="url(#pa9868b12b3)" style="fill: none; stroke: #ce682a; stroke-opacity: 0.7; stroke-width: 2; stroke-linecap: round"/>
   </g>
   <g id="line2d_42">
    <path d="M 792.080607 229.167763 
L 794.920735 227.165716 
L 797.760863 225.429368 
L 800.600992 223.958718 
L 803.44112 222.753766 
L 806.023055 221.88892 
L 808.60499 221.24366 
L 811.186924 220.817985 
L 813.768859 220.611895 
L 816.350794 220.625391 
L 818.932729 220.858472 
L 821.514663 221.311138 
L 824.096598 221.98339 
L 826.678533 222.875228 
L 829.260468 223.98665 
L 832.100596 225.462837 
L 834.940724 227.204721 
L 837.780853 229.212304 
L 840.879174 231.699755 
L 844.23569 234.333761 
L 847.334011 236.497421 
L 850.432333 238.404059 
L 853.530655 240.053676 
L 856.628977 241.446272 
L 859.727298 242.581847 
L 862.567427 243.397005 
L 865.407555 243.996193 
L 868.247683 244.379412 
L 871.087811 244.546661 
L 873.92794 244.497942 
L 876.768068 244.233253 
L 879.608196 243.752595 
L 882.448324 243.055968 
L 885.288453 242.143371 
L 888.386774 240.901499 
L 896.132579 237.330163 
L 906.460318 232.354332 
L 917.046251 227.003638 
L 927.632183 221.399385 
L 940.283664 214.672405 
L 942.349211 214.026062 
L 944.414759 213.636953 
L 946.222114 213.507496 
L 948.029468 213.574985 
L 949.836822 213.839419 
L 951.90237 214.382787 
L 953.967918 215.183391 
L 956.033466 216.241229 
L 958.099014 217.556302 
L 960.164561 219.12861 
L 962.230109 220.958154 
L 964.553851 223.323866 
L 966.877592 226.015141 
L 969.201333 229.03198 
L 971.266881 231.723171 
L 973.074235 233.755839 
L 974.88159 235.485106 
L 976.688944 236.910971 
L 978.496298 238.033434 
L 980.045459 238.754063 
L 981.59462 239.251784 
L 983.143781 239.526598 
L 984.692942 239.578505 
L 986.242103 239.407504 
L 987.791264 239.013596 
L 989.340425 238.396781 
L 990.889585 237.557059 
L 992.69694 236.295652 
L 994.504294 234.730844 
L 996.311648 232.862635 
L 998.119003 230.691024 
L 1000.184551 227.83767 
L 1002.508292 224.200081 
L 1006.123001 218.686425 
L 1009.479516 213.954961 
L 1012.836031 209.597474 
L 1016.192546 205.613963 
L 1019.290868 202.268807 
L 1022.38919 199.242306 
L 1025.487512 196.53446 
L 1028.32764 194.332197 
L 1031.167768 192.397691 
L 1034.007896 190.730944 
L 1036.848025 189.331956 
L 1039.429959 188.2925 
L 1042.011894 187.474332 
L 1044.593829 186.877452 
L 1047.175764 186.50186 
L 1049.757699 186.347555 
L 1050.015892 186.344296 
L 1050.015892 186.344296 
" clip-path="url(#pa9868b12b3)" style="fill: none; stroke: #2e8b57; stroke-opacity: 0.7; stroke-width: 2; stroke-linecap: round"/>
   </g>
   <g id="patch_17">
    <path d="M 779.183843 255.52 
L 779.183843 42.4 
" style="fill: none; stroke: #cccccc; stroke-width: 1.875; stroke-linejoin: miter; stroke-linecap: square"/>
   </g>
   <g id="patch_18">
    <path d="M 1062.912656 255.52 
L 1062.912656 42.4 
" style="fill: none; stroke: #cccccc; stroke-width: 1.875; stroke-linejoin: miter; stroke-linecap: square"/>
   </g>
   <g id="patch_19">
    <path d="M 779.183843 255.52 
L 1062.912656 255.52 
" style="fill: none; stroke: #cccccc; stroke-width: 1.875; stroke-linejoin: miter; stroke-linecap: square"/>
   </g>
   <g id="patch_20">
    <path d="M 779.183843 42.4 
L 1062.912656 42.4 
" style="fill: none; stroke: #cccccc; stroke-width: 1.875; stroke-linejoin: miter; stroke-linecap: square"/>
   </g>
   <g id="patch_21">
    <path d="M 966.712083 103.628229 
Q 991.773209 150.798435 1016.04749 196.487637 
" style="fill: none; stroke: #a9a9a9; stroke-width: 1.5; stroke-linecap: round"/>
    <path d="M 1015.914849 191.122713 
L 1016.04749 196.487637 
L 1011.675967 193.374795 
" style="fill: none; stroke: #a9a9a9; stroke-width: 1.5; stroke-linecap: round"/>
   </g>
   <g id="text_46">
    <!-- NVIDIA GH200 -->
    <g transform="translate(921.048249 96.730452) scale(0.12 -0.12)">
     <defs>
      <path id="ArialMT-48" d="M 513 0 
L 513 4581 
L 1119 4581 
L 1119 2700 
L 3500 2700 
L 3500 4581 
L 4106 4581 
L 4106 0 
L 3500 0 
L 3500 2159 
L 1119 2159 
L 1119 0 
L 513 0 
z
" transform="scale(0.015625)"/>
     </defs>
     <use xlink:href="#ArialMT-4e"/>
     <use xlink:href="#ArialMT-56" transform="translate(72.216797 0)"/>
     <use xlink:href="#ArialMT-49" transform="translate(138.916016 0)"/>
     <use xlink:href="#ArialMT-44" transform="translate(166.699219 0)"/>
     <use xlink:href="#ArialMT-49" transform="translate(238.916016 0)"/>
     <use xlink:href="#ArialMT-41" transform="translate(266.699219 0)"/>
     <use xlink:href="#ArialMT-20" transform="translate(327.898438 0)"/>
     <use xlink:href="#ArialMT-47" transform="translate(355.681641 0)"/>
     <use xlink:href="#ArialMT-48" transform="translate(433.464844 0)"/>
     <use xlink:href="#ArialMT-32" transform="translate(505.681641 0)"/>
     <use xlink:href="#ArialMT-30" transform="translate(561.296875 0)"/>
     <use xlink:href="#ArialMT-30" transform="translate(616.912109 0)"/>
    </g>
   </g>
   <g id="patch_22">
    <path d="M 973.454765 103.102734 
Q 994.828562 119.900384 1014.883781 135.661765 
" style="fill: none; stroke: #a9a9a9; stroke-width: 1.5; stroke-linecap: round"/>
    <path d="M 1012.59278 130.808795 
L 1014.883781 135.661765 
L 1009.626805 134.582784 
" style="fill: none; stroke: #a9a9a9; stroke-width: 1.5; stroke-linecap: round"/>
   </g>
   <g id="text_47">
    <!-- NVIDIA GH200 -->
    <g transform="translate(921.048249 96.730452) scale(0.12 -0.12)">
     <use xlink:href="#ArialMT-4e"/>
     <use xlink:href="#ArialMT-56" transform="translate(72.216797 0)"/>
     <use xlink:href="#ArialMT-49" transform="translate(138.916016 0)"/>
     <use xlink:href="#ArialMT-44" transform="translate(166.699219 0)"/>
     <use xlink:href="#ArialMT-49" transform="translate(238.916016 0)"/>
     <use xlink:href="#ArialMT-41" transform="translate(266.699219 0)"/>
     <use xlink:href="#ArialMT-20" transform="translate(327.898438 0)"/>
     <use xlink:href="#ArialMT-47" transform="translate(355.681641 0)"/>
     <use xlink:href="#ArialMT-48" transform="translate(433.464844 0)"/>
     <use xlink:href="#ArialMT-32" transform="translate(505.681641 0)"/>
     <use xlink:href="#ArialMT-30" transform="translate(561.296875 0)"/>
     <use xlink:href="#ArialMT-30" transform="translate(616.912109 0)"/>
    </g>
   </g>
   <g id="text_48">
    <!-- (c) FP64 Performance vs Efficiency -->
    <g style="fill: #262626" transform="translate(795.823249 327.8584) scale(0.16 -0.16)">
     <use xlink:href="#ArialMT-28"/>
     <use xlink:href="#ArialMT-63" transform="translate(33.300781 0)"/>
     <use xlink:href="#ArialMT-29" transform="translate(83.300781 0)"/>
     <use xlink:href="#ArialMT-20" transform="translate(116.601562 0)"/>
     <use xlink:href="#ArialMT-46" transform="translate(144.384766 0)"/>
     <use xlink:href="#ArialMT-50" transform="translate(205.46875 0)"/>
     <use xlink:href="#ArialMT-36" transform="translate(272.167969 0)"/>
     <use xlink:href="#ArialMT-34" transform="translate(327.783203 0)"/>
     <use xlink:href="#ArialMT-20" transform="translate(383.398438 0)"/>
     <use xlink:href="#ArialMT-50" transform="translate(411.181641 0)"/>
     <use xlink:href="#ArialMT-65" transform="translate(477.880859 0)"/>
     <use xlink:href="#ArialMT-72" transform="translate(533.496094 0)"/>
     <use xlink:href="#ArialMT-66" transform="translate(566.796875 0)"/>
     <use xlink:href="#ArialMT-6f" transform="translate(594.580078 0)"/>
     <use xlink:href="#ArialMT-72" transform="translate(650.195312 0)"/>
     <use xlink:href="#ArialMT-6d" transform="translate(683.496094 0)"/>
     <use xlink:href="#ArialMT-61" transform="translate(766.796875 0)"/>
     <use xlink:href="#ArialMT-6e" transform="translate(822.412109 0)"/>
     <use xlink:href="#ArialMT-63" transform="translate(878.027344 0)"/>
     <use xlink:href="#ArialMT-65" transform="translate(928.027344 0)"/>
     <use xlink:href="#ArialMT-20" transform="translate(983.642578 0)"/>
     <use xlink:href="#ArialMT-76" transform="translate(1011.425781 0)"/>
     <use xlink:href="#ArialMT-73" transform="translate(1061.425781 0)"/>
     <use xlink:href="#ArialMT-20" transform="translate(1111.425781 0)"/>
     <use xlink:href="#ArialMT-45" transform="translate(1139.208984 0)"/>
     <use xlink:href="#ArialMT-66" transform="translate(1205.908203 0)"/>
     <use xlink:href="#ArialMT-66" transform="translate(1231.941406 0)"/>
     <use xlink:href="#ArialMT-69" transform="translate(1259.724609 0)"/>
     <use xlink:href="#ArialMT-63" transform="translate(1281.941406 0)"/>
     <use xlink:href="#ArialMT-69" transform="translate(1331.941406 0)"/>
     <use xlink:href="#ArialMT-65" transform="translate(1354.158203 0)"/>
     <use xlink:href="#ArialMT-6e" transform="translate(1409.773438 0)"/>
     <use xlink:href="#ArialMT-63" transform="translate(1465.388672 0)"/>
     <use xlink:href="#ArialMT-79" transform="translate(1515.388672 0)"/>
    </g>
   </g>
  </g>
  <g id="legend_1">
   <g id="line2d_43">
    <path d="M 347.310993 20.4475 
L 363.310993 20.4475 
L 379.310993 20.4475 
" style="fill: none; stroke: #ce682a; stroke-width: 2; stroke-linecap: round"/>
   </g>
   <g id="text_49">
    <!-- Performance Factor -->
    <g style="fill: #262626" transform="translate(392.110993 26.0475) scale(0.16 -0.16)">
     <use xlink:href="#ArialMT-50"/>
     <use xlink:href="#ArialMT-65" transform="translate(66.699219 0)"/>
     <use xlink:href="#ArialMT-72" transform="translate(122.314453 0)"/>
     <use xlink:href="#ArialMT-66" transform="translate(155.615234 0)"/>
     <use xlink:href="#ArialMT-6f" transform="translate(183.398438 0)"/>
     <use xlink:href="#ArialMT-72" transform="translate(239.013672 0)"/>
     <use xlink:href="#ArialMT-6d" transform="translate(272.314453 0)"/>
     <use xlink:href="#ArialMT-61" transform="translate(355.615234 0)"/>
     <use xlink:href="#ArialMT-6e" transform="translate(411.230469 0)"/>
     <use xlink:href="#ArialMT-63" transform="translate(466.845703 0)"/>
     <use xlink:href="#ArialMT-65" transform="translate(516.845703 0)"/>
     <use xlink:href="#ArialMT-20" transform="translate(572.460938 0)"/>
     <use xlink:href="#ArialMT-46" transform="translate(600.244141 0)"/>
     <use xlink:href="#ArialMT-61" transform="translate(661.328125 0)"/>
     <use xlink:href="#ArialMT-63" transform="translate(716.943359 0)"/>
     <use xlink:href="#ArialMT-74" transform="translate(766.943359 0)"/>
     <use xlink:href="#ArialMT-6f" transform="translate(794.726562 0)"/>
     <use xlink:href="#ArialMT-72" transform="translate(850.341797 0)"/>
    </g>
   </g>
   <g id="line2d_44">
    <path d="M 565.483493 20.4475 
L 581.483493 20.4475 
L 597.483493 20.4475 
" style="fill: none; stroke: #2e8b57; stroke-width: 2; stroke-linecap: round"/>
   </g>
   <g id="text_50">
    <!-- Efficiency Factor -->
    <g style="fill: #262626" transform="translate(610.283493 26.0475) scale(0.16 -0.16)">
     <use xlink:href="#ArialMT-45"/>
     <use xlink:href="#ArialMT-66" transform="translate(66.699219 0)"/>
     <use xlink:href="#ArialMT-66" transform="translate(92.732422 0)"/>
     <use xlink:href="#ArialMT-69" transform="translate(120.515625 0)"/>
     <use xlink:href="#ArialMT-63" transform="translate(142.732422 0)"/>
     <use xlink:href="#ArialMT-69" transform="translate(192.732422 0)"/>
     <use xlink:href="#ArialMT-65" transform="translate(214.949219 0)"/>
     <use xlink:href="#ArialMT-6e" transform="translate(270.564453 0)"/>
     <use xlink:href="#ArialMT-63" transform="translate(326.179688 0)"/>
     <use xlink:href="#ArialMT-79" transform="translate(376.179688 0)"/>
     <use xlink:href="#ArialMT-20" transform="translate(426.179688 0)"/>
     <use xlink:href="#ArialMT-46" transform="translate(453.962891 0)"/>
     <use xlink:href="#ArialMT-61" transform="translate(515.046875 0)"/>
     <use xlink:href="#ArialMT-63" transform="translate(570.662109 0)"/>
     <use xlink:href="#ArialMT-74" transform="translate(620.662109 0)"/>
     <use xlink:href="#ArialMT-6f" transform="translate(648.445312 0)"/>
     <use xlink:href="#ArialMT-72" transform="translate(704.060547 0)"/>
    </g>
   </g>
  </g>
 </g>
 <defs>
  <clipPath id="pfe0f3616af">
   <rect x="58.512656" y="42.4" width="283.728814" height="213.12"/>
  </clipPath>
  <clipPath id="pea63d587d1">
   <rect x="418.848249" y="42.4" width="283.728814" height="213.12"/>
  </clipPath>
  <clipPath id="pa9868b12b3">
   <rect x="779.183843" y="42.4" width="283.728814" height="213.12"/>
  </clipPath>
 </defs>
</svg>
