<?xml version="1.0" encoding="utf-8" standalone="no"?>
<!DOCTYPE svg PUBLIC "-//W3C//DTD SVG 1.1//EN"
  "http://www.w3.org/Graphics/SVG/1.1/DTD/svg11.dtd">
<svg xmlns:xlink="http://www.w3.org/1999/xlink" width="764.793263pt" height="1127.52pt" viewBox="0 0 764.793263 1127.52" xmlns="http://www.w3.org/2000/svg" version="1.1">
 <metadata>
  <rdf:RDF xmlns:dc="http://purl.org/dc/elements/1.1/" xmlns:cc="http://creativecommons.org/ns#" xmlns:rdf="http://www.w3.org/1999/02/22-rdf-syntax-ns#">
   <cc:Work>
    <dc:type rdf:resource="http://purl.org/dc/dcmitype/StillImage"/>
    <dc:date>2025-08-21T07:58:17.224821</dc:date>
    <dc:format>image/svg+xml</dc:format>
    <dc:creator>
     <cc:Agent>
      <dc:title>Matplotlib v3.10.3, https://matplotlib.org/</dc:title>
     </cc:Agent>
    </dc:creator>
   </cc:Work>
  </rdf:RDF>
 </metadata>
 <defs>
  <style type="text/css">*{stroke-linejoin: round; stroke-linecap: butt}</style>
 </defs>
 <g id="figure_1">
  <g id="patch_1">
   <path d="M 0 1127.52 
L 764.793263 1127.52 
L 764.793263 0 
L 0 0 
z
" style="fill: #ffffff"/>
  </g>
  <g id="axes_1">
   <g id="patch_2">
    <path d="M 79.880634 152.555344 
L 753.668842 152.555344 
L 753.668842 24.269588 
L 79.880634 24.269588 
z
" style="fill: #ffffff"/>
   </g>
   <g id="matplotlib.axis_1">
    <g id="xtick_1">
     <g id="line2d_1">
      <path d="M 110.507371 152.555344 
L 110.507371 24.269588 
" clip-path="url(#p372668396a)" style="fill: none; stroke-dasharray: 5.55,2.4; stroke-dashoffset: 0; stroke: #cccccc; stroke-opacity: 0.6; stroke-width: 1.5"/>
     </g>
    </g>
    <g id="xtick_2">
     <g id="line2d_2">
      <path d="M 178.566786 152.555344 
L 178.566786 24.269588 
" clip-path="url(#p372668396a)" style="fill: none; stroke-dasharray: 5.55,2.4; stroke-dashoffset: 0; stroke: #cccccc; stroke-opacity: 0.6; stroke-width: 1.5"/>
     </g>
    </g>
    <g id="xtick_3">
     <g id="line2d_3">
      <path d="M 246.626201 152.555344 
L 246.626201 24.269588 
" clip-path="url(#p372668396a)" style="fill: none; stroke-dasharray: 5.55,2.4; stroke-dashoffset: 0; stroke: #cccccc; stroke-opacity: 0.6; stroke-width: 1.5"/>
     </g>
    </g>
    <g id="xtick_4">
     <g id="line2d_4">
      <path d="M 314.685616 152.555344 
L 314.685616 24.269588 
" clip-path="url(#p372668396a)" style="fill: none; stroke-dasharray: 5.55,2.4; stroke-dashoffset: 0; stroke: #cccccc; stroke-opacity: 0.6; stroke-width: 1.5"/>
     </g>
    </g>
    <g id="xtick_5">
     <g id="line2d_5">
      <path d="M 382.745031 152.555344 
L 382.745031 24.269588 
" clip-path="url(#p372668396a)" style="fill: none; stroke-dasharray: 5.55,2.4; stroke-dashoffset: 0; stroke: #cccccc; stroke-opacity: 0.6; stroke-width: 1.5"/>
     </g>
    </g>
    <g id="xtick_6">
     <g id="line2d_6">
      <path d="M 450.804445 152.555344 
L 450.804445 24.269588 
" clip-path="url(#p372668396a)" style="fill: none; stroke-dasharray: 5.55,2.4; stroke-dashoffset: 0; stroke: #cccccc; stroke-opacity: 0.6; stroke-width: 1.5"/>
     </g>
    </g>
    <g id="xtick_7">
     <g id="line2d_7">
      <path d="M 518.86386 152.555344 
L 518.86386 24.269588 
" clip-path="url(#p372668396a)" style="fill: none; stroke-dasharray: 5.55,2.4; stroke-dashoffset: 0; stroke: #cccccc; stroke-opacity: 0.6; stroke-width: 1.5"/>
     </g>
    </g>
    <g id="xtick_8">
     <g id="line2d_8">
      <path d="M 586.923275 152.555344 
L 586.923275 24.269588 
" clip-path="url(#p372668396a)" style="fill: none; stroke-dasharray: 5.55,2.4; stroke-dashoffset: 0; stroke: #cccccc; stroke-opacity: 0.6; stroke-width: 1.5"/>
     </g>
    </g>
    <g id="xtick_9">
     <g id="line2d_9">
      <path d="M 654.98269 152.555344 
L 654.98269 24.269588 
" clip-path="url(#p372668396a)" style="fill: none; stroke-dasharray: 5.55,2.4; stroke-dashoffset: 0; stroke: #cccccc; stroke-opacity: 0.6; stroke-width: 1.5"/>
     </g>
    </g>
    <g id="xtick_10">
     <g id="line2d_10">
      <path d="M 723.042105 152.555344 
L 723.042105 24.269588 
" clip-path="url(#p372668396a)" style="fill: none; stroke-dasharray: 5.55,2.4; stroke-dashoffset: 0; stroke: #cccccc; stroke-opacity: 0.6; stroke-width: 1.5"/>
     </g>
    </g>
   </g>
   <g id="matplotlib.axis_2">
    <g id="ytick_1">
     <g id="line2d_11">
      <path d="M 79.880634 152.555344 
L 753.668842 152.555344 
" clip-path="url(#p372668396a)" style="fill: none; stroke-dasharray: 5.55,2.4; stroke-dashoffset: 0; stroke: #cccccc; stroke-opacity: 0.6; stroke-width: 1.5"/>
     </g>
     <g id="text_1">
      <!-- $\mathdefault{0.0}$ -->
      <g style="fill: #262626" transform="translate(46.8139 158.263096) scale(0.165 -0.165)">
       <defs>
        <path id="CMR17-30" d="M 2688 2025 
C 2688 2416 2682 3080 2413 3591 
C 2176 4039 1798 4198 1466 4198 
C 1158 4198 768 4058 525 3597 
C 269 3118 243 2524 243 2025 
C 243 1661 250 1106 448 619 
C 723 -39 1216 -128 1466 -128 
C 1760 -128 2208 -7 2470 600 
C 2662 1042 2688 1559 2688 2025 
z
M 1466 -26 
C 1056 -26 813 325 723 812 
C 653 1188 653 1738 653 2096 
C 653 2588 653 2997 736 3387 
C 858 3929 1216 4096 1466 4096 
C 1728 4096 2067 3923 2189 3400 
C 2272 3036 2278 2607 2278 2096 
C 2278 1680 2278 1169 2202 792 
C 2067 95 1690 -26 1466 -26 
z
" transform="scale(0.015625)"/>
        <path id="CMMI12-3a" d="M 1178 307 
C 1178 492 1024 619 870 619 
C 685 619 557 466 557 313 
C 557 128 710 0 864 0 
C 1050 0 1178 153 1178 307 
z
" transform="scale(0.015625)"/>
       </defs>
       <use xlink:href="#CMR17-30" transform="scale(0.996264)"/>
       <use xlink:href="#CMMI12-3a" transform="translate(45.690477 0) scale(0.996264)"/>
       <use xlink:href="#CMR17-30" transform="translate(72.787654 0) scale(0.996264)"/>
      </g>
     </g>
    </g>
    <g id="ytick_2">
     <g id="line2d_12">
      <path d="M 79.880634 93.448379 
L 753.668842 93.448379 
" clip-path="url(#p372668396a)" style="fill: none; stroke-dasharray: 5.55,2.4; stroke-dashoffset: 0; stroke: #cccccc; stroke-opacity: 0.6; stroke-width: 1.5"/>
     </g>
     <g id="text_2">
      <!-- $\mathdefault{0.5}$ -->
      <g style="fill: #262626" transform="translate(46.8139 99.156132) scale(0.165 -0.165)">
       <defs>
        <path id="CMR17-35" d="M 730 3692 
C 794 3666 1056 3584 1325 3584 
C 1920 3584 2246 3911 2432 4100 
C 2432 4157 2432 4192 2394 4192 
C 2387 4192 2374 4192 2323 4163 
C 2099 4058 1837 3973 1517 3973 
C 1325 3973 1037 3999 723 4139 
C 653 4171 640 4171 634 4171 
C 602 4171 595 4164 595 4037 
L 595 2203 
C 595 2089 595 2057 659 2057 
C 691 2057 704 2070 736 2114 
C 941 2401 1222 2522 1542 2522 
C 1766 2522 2246 2382 2246 1289 
C 2246 1085 2246 715 2054 421 
C 1894 159 1645 25 1370 25 
C 947 25 518 320 403 814 
C 429 807 480 795 506 795 
C 589 795 749 840 749 1038 
C 749 1210 627 1280 506 1280 
C 358 1280 262 1190 262 1011 
C 262 454 704 -128 1382 -128 
C 2042 -128 2669 440 2669 1264 
C 2669 2030 2170 2624 1549 2624 
C 1222 2624 947 2503 730 2274 
L 730 3692 
z
" transform="scale(0.015625)"/>
       </defs>
       <use xlink:href="#CMR17-30" transform="scale(0.996264)"/>
       <use xlink:href="#CMMI12-3a" transform="translate(45.690477 0) scale(0.996264)"/>
       <use xlink:href="#CMR17-35" transform="translate(72.787654 0) scale(0.996264)"/>
      </g>
     </g>
    </g>
    <g id="ytick_3">
     <g id="line2d_13">
      <path d="M 79.880634 34.341415 
L 753.668842 34.341415 
" clip-path="url(#p372668396a)" style="fill: none; stroke-dasharray: 5.55,2.4; stroke-dashoffset: 0; stroke: #cccccc; stroke-opacity: 0.6; stroke-width: 1.5"/>
     </g>
     <g id="text_3">
      <!-- $\mathdefault{1.0}$ -->
      <g style="fill: #262626" transform="translate(46.8139 40.049167) scale(0.165 -0.165)">
       <defs>
        <path id="CMR17-31" d="M 1702 4058 
C 1702 4192 1696 4192 1606 4192 
C 1357 3916 979 3827 621 3827 
C 602 3827 570 3827 563 3808 
C 557 3795 557 3782 557 3648 
C 755 3648 1088 3686 1344 3839 
L 1344 461 
C 1344 236 1331 160 781 160 
L 589 160 
L 589 0 
C 896 0 1216 0 1523 0 
C 1830 0 2150 0 2458 0 
L 2458 160 
L 2266 160 
C 1715 160 1702 230 1702 458 
L 1702 4058 
z
" transform="scale(0.015625)"/>
       </defs>
       <use xlink:href="#CMR17-31" transform="scale(0.996264)"/>
       <use xlink:href="#CMMI12-3a" transform="translate(45.690477 0) scale(0.996264)"/>
       <use xlink:href="#CMR17-30" transform="translate(72.787654 0) scale(0.996264)"/>
      </g>
     </g>
    </g>
    <g id="text_4">
     <!-- Transistors -->
     <g style="fill: #262626" transform="translate(39.325835 126.298181) rotate(-90) scale(0.18 -0.18)">
      <defs>
       <path id="CMSS17-54" d="M 2317 3968 
L 2848 3968 
C 2925 3968 3002 3968 3078 3968 
L 3878 3968 
L 3878 4376 
L 218 4376 
L 218 3968 
L 1018 3968 
C 1094 3968 1171 3968 1248 3968 
L 1779 3968 
L 1779 -32 
L 2317 -32 
L 2317 3968 
z
" transform="scale(0.015625)"/>
       <path id="CMSS17-72" d="M 954 1363 
C 954 1965 1395 2368 1958 2368 
L 1958 2789 
C 1549 2789 1165 2585 934 2253 
L 934 2758 
L 480 2758 
L 480 0 
L 954 0 
L 954 1363 
z
" transform="scale(0.015625)"/>
       <path id="CMSS17-61" d="M 2406 1791 
C 2406 2392 1978 2808 1402 2808 
C 1120 2808 813 2757 461 2553 
L 499 2135 
C 659 2248 934 2432 1395 2432 
C 1722 2432 1920 2180 1920 1782 
L 1920 1536 
C 896 1536 256 1238 256 726 
C 256 461 416 -64 947 -64 
C 1043 -64 1562 -64 1933 217 
L 1933 -19 
L 2406 -19 
L 2406 1791 
z
M 1920 816 
C 1920 701 1920 548 1728 434 
C 1562 325 1350 325 1261 325 
C 941 325 723 511 723 744 
C 723 1211 1722 1211 1920 1211 
L 1920 816 
z
" transform="scale(0.015625)"/>
       <path id="CMSS17-6e" d="M 2618 1877 
C 2618 2283 2522 2816 1798 2816 
C 1389 2816 1120 2606 941 2389 
L 941 2758 
L 474 2758 
L 474 0 
L 960 0 
L 960 1559 
C 960 1964 1114 2428 1549 2428 
C 2112 2428 2131 2048 2131 1829 
L 2131 0 
L 2618 0 
L 2618 1877 
z
" transform="scale(0.015625)"/>
       <path id="CMSS17-73" d="M 2061 2627 
C 1683 2807 1389 2807 1197 2807 
C 742 2807 198 2648 198 2003 
C 198 1359 902 1218 1094 1179 
C 1389 1122 1715 1058 1715 740 
C 1715 337 1254 337 1171 337 
C 915 337 563 407 243 638 
L 166 210 
C 531 0 883 -64 1178 -64 
C 1965 -64 2163 416 2163 781 
C 2163 1094 1984 1305 1862 1401 
C 1651 1568 1574 1587 1050 1696 
C 960 1709 646 1779 646 2066 
C 646 2432 1050 2432 1139 2432 
C 1555 2432 1811 2303 1984 2208 
L 2061 2627 
z
" transform="scale(0.015625)"/>
       <path id="CMSS17-69" d="M 979 4183 
L 442 4183 
L 442 3648 
L 979 3648 
L 979 4183 
z
M 947 2739 
L 474 2739 
L 474 0 
L 947 0 
L 947 2739 
z
" transform="scale(0.015625)"/>
       <path id="CMSS17-74" d="M 1069 2368 
L 1901 2368 
L 1901 2737 
L 1069 2737 
L 1069 3520 
L 614 3520 
L 614 2737 
L 109 2737 
L 109 2368 
L 602 2368 
L 602 749 
C 602 384 685 -64 1107 -64 
C 1427 -64 1722 25 2003 172 
L 1901 548 
C 1747 414 1562 337 1363 337 
C 1082 337 1069 696 1069 856 
L 1069 2368 
z
" transform="scale(0.015625)"/>
       <path id="CMSS17-6f" d="M 2829 1356 
C 2829 2176 2221 2816 1504 2816 
C 768 2816 173 2157 173 1356 
C 173 544 787 -64 1498 -64 
C 2227 -64 2829 563 2829 1356 
z
M 1504 337 
C 1050 337 659 709 659 1408 
C 659 2151 1114 2427 1498 2427 
C 1914 2427 2342 2126 2342 1408 
C 2342 683 1926 337 1504 337 
z
" transform="scale(0.015625)"/>
      </defs>
      <use xlink:href="#CMSS17-54" transform="scale(0.996264)"/>
      <use xlink:href="#CMSS17-72" transform="translate(56.012199 0) scale(0.996264)"/>
      <use xlink:href="#CMSS17-61" transform="translate(87.921971 0) scale(0.996264)"/>
      <use xlink:href="#CMSS17-6e" transform="translate(132.843892 0) scale(0.996264)"/>
      <use xlink:href="#CMSS17-73" transform="translate(181.048835 0) scale(0.996264)"/>
      <use xlink:href="#CMSS17-69" transform="translate(216.962377 0) scale(0.996264)"/>
      <use xlink:href="#CMSS17-73" transform="translate(239.1431 0) scale(0.996264)"/>
      <use xlink:href="#CMSS17-74" transform="translate(275.056642 0) scale(0.996264)"/>
      <use xlink:href="#CMSS17-6f" transform="translate(308.888209 0) scale(0.996264)"/>
      <use xlink:href="#CMSS17-72" transform="translate(353.129378 0) scale(0.996264)"/>
      <use xlink:href="#CMSS17-73" transform="translate(385.039151 0) scale(0.996264)"/>
     </g>
    </g>
    <g id="text_5">
     <!-- $\times\mathdefault{10^{11}}\mathdefault{}$ -->
     <g style="fill: #262626" transform="translate(79.880634 21.269588) scale(0.165 -0.165)">
      <defs>
       <path id="CMSY10-2" d="M 2490 1785 
L 1210 3059 
C 1133 3136 1120 3148 1069 3148 
C 1005 3148 941 3091 941 3020 
C 941 2976 954 2963 1024 2892 
L 2304 1606 
L 1024 320 
C 954 249 941 236 941 192 
C 941 121 1005 64 1069 64 
C 1120 64 1133 76 1210 153 
L 2483 1427 
L 3808 102 
C 3821 96 3866 64 3904 64 
C 3981 64 4032 121 4032 192 
C 4032 204 4032 230 4013 262 
C 4006 275 2989 1280 2669 1606 
L 3840 2777 
C 3872 2816 3968 2899 4000 2937 
C 4006 2950 4032 2976 4032 3020 
C 4032 3091 3981 3148 3904 3148 
C 3853 3148 3827 3123 3757 3052 
L 2490 1785 
z
" transform="scale(0.015625)"/>
      </defs>
      <use xlink:href="#CMSY10-2" transform="scale(0.996264)"/>
      <use xlink:href="#CMR17-31" transform="translate(77.487468 0) scale(0.996264)"/>
      <use xlink:href="#CMR17-30" transform="translate(123.177945 0) scale(0.996264)"/>
      <use xlink:href="#CMR17-31" transform="translate(168.868422 36.153639) scale(0.697382)"/>
      <use xlink:href="#CMR17-31" transform="translate(200.851604 36.153639) scale(0.697382)"/>
     </g>
    </g>
   </g>
   <g id="FillBetweenPolyCollection_1"/>
   <g id="line2d_14">
    <path d="M 110.507371 134.468613 
L 178.566786 127.612205 
L 246.626201 130.567553 
L 314.685616 136.47825 
L 382.745031 88.483394 
L 450.804445 119.100802 
L 518.86386 88.483394 
L 586.923275 62.358116 
L 654.98269 57.984201 
L 723.042105 29.612858 
" clip-path="url(#p372668396a)" style="fill: none; stroke: #4c72b0; stroke-width: 2; stroke-linecap: round"/>
    <defs>
     <path id="m9aed8874f4" d="M 0 4.5 
C 1.193414 4.5 2.338109 4.025852 3.181981 3.181981 
C 4.025852 2.338109 4.5 1.193414 4.5 0 
C 4.5 -1.193414 4.025852 -2.338109 3.181981 -3.181981 
C 2.338109 -4.025852 1.193414 -4.5 0 -4.5 
C -1.193414 -4.5 -2.338109 -4.025852 -3.181981 -3.181981 
C -4.025852 -2.338109 -4.5 -1.193414 -4.5 0 
C -4.5 1.193414 -4.025852 2.338109 -3.181981 3.181981 
C -2.338109 4.025852 -1.193414 4.5 0 4.5 
z
" style="stroke: #ffffff; stroke-width: 0.75"/>
    </defs>
    <g clip-path="url(#p372668396a)">
     <use xlink:href="#m9aed8874f4" x="110.507371" y="134.468613" style="fill: #4c72b0; stroke: #ffffff; stroke-width: 0.75"/>
     <use xlink:href="#m9aed8874f4" x="178.566786" y="127.612205" style="fill: #4c72b0; stroke: #ffffff; stroke-width: 0.75"/>
     <use xlink:href="#m9aed8874f4" x="246.626201" y="130.567553" style="fill: #4c72b0; stroke: #ffffff; stroke-width: 0.75"/>
     <use xlink:href="#m9aed8874f4" x="314.685616" y="136.47825" style="fill: #4c72b0; stroke: #ffffff; stroke-width: 0.75"/>
     <use xlink:href="#m9aed8874f4" x="382.745031" y="88.483394" style="fill: #4c72b0; stroke: #ffffff; stroke-width: 0.75"/>
     <use xlink:href="#m9aed8874f4" x="450.804445" y="119.100802" style="fill: #4c72b0; stroke: #ffffff; stroke-width: 0.75"/>
     <use xlink:href="#m9aed8874f4" x="518.86386" y="88.483394" style="fill: #4c72b0; stroke: #ffffff; stroke-width: 0.75"/>
     <use xlink:href="#m9aed8874f4" x="586.923275" y="62.358116" style="fill: #4c72b0; stroke: #ffffff; stroke-width: 0.75"/>
     <use xlink:href="#m9aed8874f4" x="654.98269" y="57.984201" style="fill: #4c72b0; stroke: #ffffff; stroke-width: 0.75"/>
     <use xlink:href="#m9aed8874f4" x="723.042105" y="29.612858" style="fill: #4c72b0; stroke: #ffffff; stroke-width: 0.75"/>
    </g>
   </g>
   <g id="patch_3">
    <path d="M 79.880634 152.555344 
L 79.880634 24.269588 
" style="fill: none; stroke: #cccccc; stroke-width: 1.875; stroke-linejoin: miter; stroke-linecap: square"/>
   </g>
   <g id="patch_4">
    <path d="M 753.668842 152.555344 
L 753.668842 24.269588 
" style="fill: none; stroke: #cccccc; stroke-width: 1.875; stroke-linejoin: miter; stroke-linecap: square"/>
   </g>
   <g id="patch_5">
    <path d="M 79.880634 152.555344 
L 753.668842 152.555344 
" style="fill: none; stroke: #cccccc; stroke-width: 1.875; stroke-linejoin: miter; stroke-linecap: square"/>
   </g>
   <g id="patch_6">
    <path d="M 79.880634 24.269588 
L 753.668842 24.269588 
" style="fill: none; stroke: #cccccc; stroke-width: 1.875; stroke-linejoin: miter; stroke-linecap: square"/>
   </g>
   <g id="text_6">
    <!-- Transistor Count -->
    <g style="fill: #262626" transform="translate(362.422673 18.269588) scale(0.16 -0.16)">
     <defs>
      <path id="CMSS17-43" d="M 3501 714 
C 3072 427 2874 344 2355 344 
C 1459 344 934 1303 934 2179 
C 934 3112 1472 4032 2381 4032 
C 2790 4032 3059 3918 3386 3715 
L 3475 4217 
C 3168 4370 2778 4440 2387 4440 
C 1158 4440 397 3316 397 2179 
C 397 927 1299 -64 2323 -64 
C 2874 -64 3066 -19 3539 280 
L 3501 714 
z
" transform="scale(0.015625)"/>
      <path id="CMSS17-75" d="M 2618 2739 
L 2131 2739 
L 2131 972 
C 2131 498 1786 306 1421 306 
C 998 306 960 447 960 709 
L 960 2739 
L 474 2739 
L 474 678 
C 474 179 646 -64 1088 -64 
C 1306 -64 1798 -13 2144 306 
L 2144 0 
L 2618 0 
L 2618 2739 
z
" transform="scale(0.015625)"/>
     </defs>
     <use xlink:href="#CMSS17-54" transform="scale(0.996264)"/>
     <use xlink:href="#CMSS17-72" transform="translate(56.012199 0) scale(0.996264)"/>
     <use xlink:href="#CMSS17-61" transform="translate(87.921971 0) scale(0.996264)"/>
     <use xlink:href="#CMSS17-6e" transform="translate(132.843892 0) scale(0.996264)"/>
     <use xlink:href="#CMSS17-73" transform="translate(181.048835 0) scale(0.996264)"/>
     <use xlink:href="#CMSS17-69" transform="translate(216.962377 0) scale(0.996264)"/>
     <use xlink:href="#CMSS17-73" transform="translate(239.1431 0) scale(0.996264)"/>
     <use xlink:href="#CMSS17-74" transform="translate(275.056642 0) scale(0.996264)"/>
     <use xlink:href="#CMSS17-6f" transform="translate(308.888209 0) scale(0.996264)"/>
     <use xlink:href="#CMSS17-72" transform="translate(353.129378 0) scale(0.996264)"/>
     <use xlink:href="#CMSS17-43" transform="translate(416.268263 0) scale(0.996264)"/>
     <use xlink:href="#CMSS17-6f" transform="translate(476.124035 0) scale(0.996264)"/>
     <use xlink:href="#CMSS17-75" transform="translate(522.967659 0) scale(0.996264)"/>
     <use xlink:href="#CMSS17-6e" transform="translate(571.172602 0) scale(0.996264)"/>
     <use xlink:href="#CMSS17-74" transform="translate(619.377545 0) scale(0.996264)"/>
    </g>
   </g>
  </g>
  <g id="axes_2">
   <g id="patch_7">
    <path d="M 79.880634 324.814767 
L 753.668842 324.814767 
L 753.668842 196.529011 
L 79.880634 196.529011 
z
" style="fill: #ffffff"/>
   </g>
   <g id="matplotlib.axis_3">
    <g id="xtick_11">
     <g id="line2d_15">
      <path d="M 110.507371 324.814767 
L 110.507371 196.529011 
" clip-path="url(#pe2b6b2af4c)" style="fill: none; stroke-dasharray: 5.55,2.4; stroke-dashoffset: 0; stroke: #cccccc; stroke-opacity: 0.6; stroke-width: 1.5"/>
     </g>
    </g>
    <g id="xtick_12">
     <g id="line2d_16">
      <path d="M 178.566786 324.814767 
L 178.566786 196.529011 
" clip-path="url(#pe2b6b2af4c)" style="fill: none; stroke-dasharray: 5.55,2.4; stroke-dashoffset: 0; stroke: #cccccc; stroke-opacity: 0.6; stroke-width: 1.5"/>
     </g>
    </g>
    <g id="xtick_13">
     <g id="line2d_17">
      <path d="M 246.626201 324.814767 
L 246.626201 196.529011 
" clip-path="url(#pe2b6b2af4c)" style="fill: none; stroke-dasharray: 5.55,2.4; stroke-dashoffset: 0; stroke: #cccccc; stroke-opacity: 0.6; stroke-width: 1.5"/>
     </g>
    </g>
    <g id="xtick_14">
     <g id="line2d_18">
      <path d="M 314.685616 324.814767 
L 314.685616 196.529011 
" clip-path="url(#pe2b6b2af4c)" style="fill: none; stroke-dasharray: 5.55,2.4; stroke-dashoffset: 0; stroke: #cccccc; stroke-opacity: 0.6; stroke-width: 1.5"/>
     </g>
    </g>
    <g id="xtick_15">
     <g id="line2d_19">
      <path d="M 382.745031 324.814767 
L 382.745031 196.529011 
" clip-path="url(#pe2b6b2af4c)" style="fill: none; stroke-dasharray: 5.55,2.4; stroke-dashoffset: 0; stroke: #cccccc; stroke-opacity: 0.6; stroke-width: 1.5"/>
     </g>
    </g>
    <g id="xtick_16">
     <g id="line2d_20">
      <path d="M 450.804445 324.814767 
L 450.804445 196.529011 
" clip-path="url(#pe2b6b2af4c)" style="fill: none; stroke-dasharray: 5.55,2.4; stroke-dashoffset: 0; stroke: #cccccc; stroke-opacity: 0.6; stroke-width: 1.5"/>
     </g>
    </g>
    <g id="xtick_17">
     <g id="line2d_21">
      <path d="M 518.86386 324.814767 
L 518.86386 196.529011 
" clip-path="url(#pe2b6b2af4c)" style="fill: none; stroke-dasharray: 5.55,2.4; stroke-dashoffset: 0; stroke: #cccccc; stroke-opacity: 0.6; stroke-width: 1.5"/>
     </g>
    </g>
    <g id="xtick_18">
     <g id="line2d_22">
      <path d="M 586.923275 324.814767 
L 586.923275 196.529011 
" clip-path="url(#pe2b6b2af4c)" style="fill: none; stroke-dasharray: 5.55,2.4; stroke-dashoffset: 0; stroke: #cccccc; stroke-opacity: 0.6; stroke-width: 1.5"/>
     </g>
    </g>
    <g id="xtick_19">
     <g id="line2d_23">
      <path d="M 654.98269 324.814767 
L 654.98269 196.529011 
" clip-path="url(#pe2b6b2af4c)" style="fill: none; stroke-dasharray: 5.55,2.4; stroke-dashoffset: 0; stroke: #cccccc; stroke-opacity: 0.6; stroke-width: 1.5"/>
     </g>
    </g>
    <g id="xtick_20">
     <g id="line2d_24">
      <path d="M 723.042105 324.814767 
L 723.042105 196.529011 
" clip-path="url(#pe2b6b2af4c)" style="fill: none; stroke-dasharray: 5.55,2.4; stroke-dashoffset: 0; stroke: #cccccc; stroke-opacity: 0.6; stroke-width: 1.5"/>
     </g>
    </g>
   </g>
   <g id="matplotlib.axis_4">
    <g id="ytick_4">
     <g id="line2d_25">
      <path d="M 79.880634 324.814767 
L 753.668842 324.814767 
" clip-path="url(#pe2b6b2af4c)" style="fill: none; stroke-dasharray: 5.55,2.4; stroke-dashoffset: 0; stroke: #cccccc; stroke-opacity: 0.6; stroke-width: 1.5"/>
     </g>
     <g id="text_7">
      <!-- $\mathdefault{0}$ -->
      <g style="fill: #262626" transform="translate(59.33278 330.522519) scale(0.165 -0.165)">
       <use xlink:href="#CMR17-30" transform="scale(0.996264)"/>
      </g>
     </g>
    </g>
    <g id="ytick_5">
     <g id="line2d_26">
      <path d="M 79.880634 250.186637 
L 753.668842 250.186637 
" clip-path="url(#pe2b6b2af4c)" style="fill: none; stroke-dasharray: 5.55,2.4; stroke-dashoffset: 0; stroke: #cccccc; stroke-opacity: 0.6; stroke-width: 1.5"/>
     </g>
     <g id="text_8">
      <!-- $\mathdefault{1000}$ -->
      <g style="fill: #262626" transform="translate(35.189218 255.894389) scale(0.165 -0.165)">
       <use xlink:href="#CMR17-31" transform="scale(0.996264)"/>
       <use xlink:href="#CMR17-30" transform="translate(45.690477 0) scale(0.996264)"/>
       <use xlink:href="#CMR17-30" transform="translate(91.380954 0) scale(0.996264)"/>
       <use xlink:href="#CMR17-30" transform="translate(137.071431 0) scale(0.996264)"/>
      </g>
     </g>
    </g>
    <g id="text_9">
     <!-- MHz -->
     <g style="fill: #262626" transform="translate(27.701154 277.629265) rotate(-90) scale(0.18 -0.18)">
      <defs>
       <path id="CMSS17-4d" d="M 3194 2371 
L 2886 1473 
C 2835 1307 2662 791 2624 587 
L 2618 587 
C 2598 715 2560 849 2458 1174 
C 2400 1365 2336 1562 2272 1741 
L 1325 4416 
L 576 4416 
L 576 0 
L 1075 0 
L 1075 3900 
L 1082 3900 
C 1082 3894 1139 3613 1530 2499 
L 2374 96 
L 2848 96 
L 3610 2231 
C 3661 2378 3821 2843 3891 3066 
C 3955 3257 4115 3728 4154 3913 
L 4160 3913 
L 4160 0 
L 4666 0 
L 4666 4416 
L 3923 4416 
L 3194 2371 
z
" transform="scale(0.015625)"/>
       <path id="CMSS17-48" d="M 3674 4416 
L 3136 4416 
L 3136 2501 
L 1101 2501 
L 1101 4416 
L 563 4416 
L 563 0 
L 1101 0 
L 1101 2112 
L 3136 2112 
L 3136 0 
L 3674 0 
L 3674 4416 
z
" transform="scale(0.015625)"/>
       <path id="CMSS17-7a" d="M 2400 2502 
L 2400 2750 
L 250 2750 
L 250 2368 
L 1069 2368 
C 1146 2368 1222 2368 1299 2368 
L 1747 2368 
L 166 261 
L 166 0 
L 2419 0 
L 2419 395 
L 1549 395 
C 1472 395 1395 395 1318 395 
L 826 395 
L 2400 2502 
z
" transform="scale(0.015625)"/>
      </defs>
      <use xlink:href="#CMSS17-4d" transform="scale(0.996264)"/>
      <use xlink:href="#CMSS17-48" transform="translate(81.67603 0) scale(0.996264)"/>
      <use xlink:href="#CMSS17-7a" transform="translate(147.737549 0) scale(0.996264)"/>
     </g>
    </g>
   </g>
   <g id="FillBetweenPolyCollection_2"/>
   <g id="line2d_27">
    <path d="M 110.507371 236.007292 
L 178.566786 233.022167 
L 246.626201 224.066791 
L 314.685616 281.157311 
L 382.745031 267.724247 
L 450.804445 227.425057 
L 518.86386 255.410606 
L 586.923275 269.963091 
L 654.98269 243.096965 
L 723.042105 200.55893 
" clip-path="url(#pe2b6b2af4c)" style="fill: none; stroke: #4c72b0; stroke-width: 2; stroke-linecap: round"/>
    <g clip-path="url(#pe2b6b2af4c)">
     <use xlink:href="#m9aed8874f4" x="110.507371" y="236.007292" style="fill: #4c72b0; stroke: #ffffff; stroke-width: 0.75"/>
     <use xlink:href="#m9aed8874f4" x="178.566786" y="233.022167" style="fill: #4c72b0; stroke: #ffffff; stroke-width: 0.75"/>
     <use xlink:href="#m9aed8874f4" x="246.626201" y="224.066791" style="fill: #4c72b0; stroke: #ffffff; stroke-width: 0.75"/>
     <use xlink:href="#m9aed8874f4" x="314.685616" y="281.157311" style="fill: #4c72b0; stroke: #ffffff; stroke-width: 0.75"/>
     <use xlink:href="#m9aed8874f4" x="382.745031" y="267.724247" style="fill: #4c72b0; stroke: #ffffff; stroke-width: 0.75"/>
     <use xlink:href="#m9aed8874f4" x="450.804445" y="227.425057" style="fill: #4c72b0; stroke: #ffffff; stroke-width: 0.75"/>
     <use xlink:href="#m9aed8874f4" x="518.86386" y="255.410606" style="fill: #4c72b0; stroke: #ffffff; stroke-width: 0.75"/>
     <use xlink:href="#m9aed8874f4" x="586.923275" y="269.963091" style="fill: #4c72b0; stroke: #ffffff; stroke-width: 0.75"/>
     <use xlink:href="#m9aed8874f4" x="654.98269" y="243.096965" style="fill: #4c72b0; stroke: #ffffff; stroke-width: 0.75"/>
     <use xlink:href="#m9aed8874f4" x="723.042105" y="200.55893" style="fill: #4c72b0; stroke: #ffffff; stroke-width: 0.75"/>
    </g>
   </g>
   <g id="patch_8">
    <path d="M 79.880634 324.814767 
L 79.880634 196.529011 
" style="fill: none; stroke: #cccccc; stroke-width: 1.875; stroke-linejoin: miter; stroke-linecap: square"/>
   </g>
   <g id="patch_9">
    <path d="M 753.668842 324.814767 
L 753.668842 196.529011 
" style="fill: none; stroke: #cccccc; stroke-width: 1.875; stroke-linejoin: miter; stroke-linecap: square"/>
   </g>
   <g id="patch_10">
    <path d="M 79.880634 324.814767 
L 753.668842 324.814767 
" style="fill: none; stroke: #cccccc; stroke-width: 1.875; stroke-linejoin: miter; stroke-linecap: square"/>
   </g>
   <g id="patch_11">
    <path d="M 79.880634 196.529011 
L 753.668842 196.529011 
" style="fill: none; stroke: #cccccc; stroke-width: 1.875; stroke-linejoin: miter; stroke-linecap: square"/>
   </g>
   <g id="text_10">
    <!-- Base Clock -->
    <g style="fill: #262626" transform="translate(380.602446 190.529011) scale(0.16 -0.16)">
     <defs>
      <path id="CMSS17-42" d="M 570 4416 
L 570 0 
L 2163 0 
C 3034 0 3667 574 3667 1200 
C 3667 1685 3251 2176 2502 2317 
C 3334 2558 3501 3040 3501 3313 
C 3501 3883 2874 4416 1997 4416 
L 570 4416 
z
M 1088 2496 
L 1088 4059 
L 1824 4059 
C 2483 4059 3002 3724 3002 3306 
C 3002 2926 2592 2496 1766 2496 
L 1088 2496 
z
M 1088 357 
L 1088 2107 
L 1939 2107 
C 2630 2107 3162 1679 3162 1206 
C 3162 772 2694 357 1984 357 
L 1088 357 
z
" transform="scale(0.015625)"/>
      <path id="CMSS17-65" d="M 2502 1377 
C 2502 1590 2490 2003 2285 2345 
C 2061 2713 1696 2816 1421 2816 
C 755 2816 192 2188 192 1375 
C 192 582 774 -64 1510 -64 
C 1798 -64 2150 19 2470 248 
C 2470 274 2458 414 2451 420 
C 2451 433 2432 630 2432 656 
C 2125 407 1773 325 1517 325 
C 1107 325 666 667 646 1377 
L 2502 1377 
z
M 698 1728 
C 781 2084 1062 2421 1421 2421 
C 1517 2421 1965 2421 2080 1728 
L 698 1728 
z
" transform="scale(0.015625)"/>
      <path id="CMSS17-6c" d="M 947 4416 
L 474 4416 
L 474 0 
L 947 0 
L 947 4416 
z
" transform="scale(0.015625)"/>
      <path id="CMSS17-63" d="M 2464 2541 
C 2464 2585 2170 2714 2093 2739 
C 1882 2816 1613 2816 1542 2816 
C 710 2816 211 2093 211 1363 
C 211 595 768 -64 1517 -64 
C 1946 -64 2253 76 2502 242 
L 2464 664 
C 2189 453 1869 337 1523 337 
C 1024 337 698 774 698 1369 
C 698 1831 909 2414 1549 2414 
C 1901 2414 2099 2343 2394 2145 
L 2464 2541 
z
" transform="scale(0.015625)"/>
      <path id="CMSS17-6b" d="M 1696 1688 
L 2688 2739 
L 2074 2739 
L 954 1554 
L 954 4416 
L 480 4416 
L 480 0 
L 947 0 
L 947 892 
L 1376 1344 
L 2278 0 
L 2822 0 
L 1696 1688 
z
" transform="scale(0.015625)"/>
     </defs>
     <use xlink:href="#CMSS17-42" transform="scale(0.996264)"/>
     <use xlink:href="#CMSS17-61" transform="translate(62.33804 0) scale(0.996264)"/>
     <use xlink:href="#CMSS17-73" transform="translate(107.259961 0) scale(0.996264)"/>
     <use xlink:href="#CMSS17-65" transform="translate(143.173503 0) scale(0.996264)"/>
     <use xlink:href="#CMSS17-43" transform="translate(216.041438 0) scale(0.996264)"/>
     <use xlink:href="#CMSS17-6c" transform="translate(275.897209 0) scale(0.996264)"/>
     <use xlink:href="#CMSS17-6f" transform="translate(298.077932 0) scale(0.996264)"/>
     <use xlink:href="#CMSS17-63" transform="translate(347.523994 0) scale(0.996264)"/>
     <use xlink:href="#CMSS17-6b" transform="translate(389.162817 0) scale(0.996264)"/>
    </g>
   </g>
  </g>
  <g id="axes_3">
   <g id="patch_12">
    <path d="M 79.880634 497.07419 
L 753.668842 497.07419 
L 753.668842 368.788434 
L 79.880634 368.788434 
z
" style="fill: #ffffff"/>
   </g>
   <g id="matplotlib.axis_5">
    <g id="xtick_21">
     <g id="line2d_28">
      <path d="M 110.507371 497.07419 
L 110.507371 368.788434 
" clip-path="url(#p0064123d70)" style="fill: none; stroke-dasharray: 5.55,2.4; stroke-dashoffset: 0; stroke: #cccccc; stroke-opacity: 0.6; stroke-width: 1.5"/>
     </g>
    </g>
    <g id="xtick_22">
     <g id="line2d_29">
      <path d="M 178.566786 497.07419 
L 178.566786 368.788434 
" clip-path="url(#p0064123d70)" style="fill: none; stroke-dasharray: 5.55,2.4; stroke-dashoffset: 0; stroke: #cccccc; stroke-opacity: 0.6; stroke-width: 1.5"/>
     </g>
    </g>
    <g id="xtick_23">
     <g id="line2d_30">
      <path d="M 246.626201 497.07419 
L 246.626201 368.788434 
" clip-path="url(#p0064123d70)" style="fill: none; stroke-dasharray: 5.55,2.4; stroke-dashoffset: 0; stroke: #cccccc; stroke-opacity: 0.6; stroke-width: 1.5"/>
     </g>
    </g>
    <g id="xtick_24">
     <g id="line2d_31">
      <path d="M 314.685616 497.07419 
L 314.685616 368.788434 
" clip-path="url(#p0064123d70)" style="fill: none; stroke-dasharray: 5.55,2.4; stroke-dashoffset: 0; stroke: #cccccc; stroke-opacity: 0.6; stroke-width: 1.5"/>
     </g>
    </g>
    <g id="xtick_25">
     <g id="line2d_32">
      <path d="M 382.745031 497.07419 
L 382.745031 368.788434 
" clip-path="url(#p0064123d70)" style="fill: none; stroke-dasharray: 5.55,2.4; stroke-dashoffset: 0; stroke: #cccccc; stroke-opacity: 0.6; stroke-width: 1.5"/>
     </g>
    </g>
    <g id="xtick_26">
     <g id="line2d_33">
      <path d="M 450.804445 497.07419 
L 450.804445 368.788434 
" clip-path="url(#p0064123d70)" style="fill: none; stroke-dasharray: 5.55,2.4; stroke-dashoffset: 0; stroke: #cccccc; stroke-opacity: 0.6; stroke-width: 1.5"/>
     </g>
    </g>
    <g id="xtick_27">
     <g id="line2d_34">
      <path d="M 518.86386 497.07419 
L 518.86386 368.788434 
" clip-path="url(#p0064123d70)" style="fill: none; stroke-dasharray: 5.55,2.4; stroke-dashoffset: 0; stroke: #cccccc; stroke-opacity: 0.6; stroke-width: 1.5"/>
     </g>
    </g>
    <g id="xtick_28">
     <g id="line2d_35">
      <path d="M 586.923275 497.07419 
L 586.923275 368.788434 
" clip-path="url(#p0064123d70)" style="fill: none; stroke-dasharray: 5.55,2.4; stroke-dashoffset: 0; stroke: #cccccc; stroke-opacity: 0.6; stroke-width: 1.5"/>
     </g>
    </g>
    <g id="xtick_29">
     <g id="line2d_36">
      <path d="M 654.98269 497.07419 
L 654.98269 368.788434 
" clip-path="url(#p0064123d70)" style="fill: none; stroke-dasharray: 5.55,2.4; stroke-dashoffset: 0; stroke: #cccccc; stroke-opacity: 0.6; stroke-width: 1.5"/>
     </g>
    </g>
    <g id="xtick_30">
     <g id="line2d_37">
      <path d="M 723.042105 497.07419 
L 723.042105 368.788434 
" clip-path="url(#p0064123d70)" style="fill: none; stroke-dasharray: 5.55,2.4; stroke-dashoffset: 0; stroke: #cccccc; stroke-opacity: 0.6; stroke-width: 1.5"/>
     </g>
    </g>
   </g>
   <g id="matplotlib.axis_6">
    <g id="ytick_6">
     <g id="line2d_38">
      <path d="M 79.880634 497.07419 
L 753.668842 497.07419 
" clip-path="url(#p0064123d70)" style="fill: none; stroke-dasharray: 5.55,2.4; stroke-dashoffset: 0; stroke: #cccccc; stroke-opacity: 0.6; stroke-width: 1.5"/>
     </g>
     <g id="text_11">
      <!-- $\mathdefault{0}$ -->
      <g style="fill: #262626" transform="translate(59.33278 502.781943) scale(0.165 -0.165)">
       <use xlink:href="#CMR17-30" transform="scale(0.996264)"/>
      </g>
     </g>
    </g>
    <g id="ytick_7">
     <g id="line2d_39">
      <path d="M 79.880634 422.437376 
L 753.668842 422.437376 
" clip-path="url(#p0064123d70)" style="fill: none; stroke-dasharray: 5.55,2.4; stroke-dashoffset: 0; stroke: #cccccc; stroke-opacity: 0.6; stroke-width: 1.5"/>
     </g>
     <g id="text_12">
      <!-- $\mathdefault{5000}$ -->
      <g style="fill: #262626" transform="translate(35.189218 428.145129) scale(0.165 -0.165)">
       <use xlink:href="#CMR17-35" transform="scale(0.996264)"/>
       <use xlink:href="#CMR17-30" transform="translate(45.690477 0) scale(0.996264)"/>
       <use xlink:href="#CMR17-30" transform="translate(91.380954 0) scale(0.996264)"/>
       <use xlink:href="#CMR17-30" transform="translate(137.071431 0) scale(0.996264)"/>
      </g>
     </g>
    </g>
    <g id="text_13">
     <!-- GB/s -->
     <g style="fill: #262626" transform="translate(26.721034 451.611118) rotate(-90) scale(0.18 -0.18)">
      <defs>
       <path id="CMSS17-47" d="M 3610 1856 
L 2336 1856 
L 2336 1461 
L 3123 1461 
L 3123 471 
C 2874 401 2618 350 2362 350 
C 1466 350 934 1301 934 2200 
C 934 3095 1491 4032 2362 4032 
C 2854 4032 3130 3881 3469 3627 
L 3552 4134 
C 3130 4351 2867 4440 2387 4440 
C 1146 4440 397 3324 397 2182 
C 397 1090 1152 -64 2349 -64 
C 2797 -64 3213 51 3610 248 
L 3610 1856 
z
" transform="scale(0.015625)"/>
       <path id="CMSS17-2f" d="M 2637 4545 
C 2669 4627 2669 4640 2669 4653 
C 2669 4729 2611 4768 2560 4768 
C 2483 4768 2458 4717 2432 4640 
L 365 -1377 
C 333 -1460 333 -1473 333 -1486 
C 333 -1562 390 -1600 442 -1600 
C 518 -1600 544 -1549 570 -1473 
L 2637 4545 
z
" transform="scale(0.015625)"/>
      </defs>
      <use xlink:href="#CMSS17-47" transform="scale(0.996264)"/>
      <use xlink:href="#CMSS17-42" transform="translate(62.458226 0) scale(0.996264)"/>
      <use xlink:href="#CMSS17-2f" transform="translate(124.796266 0) scale(0.996264)"/>
      <use xlink:href="#CMSS17-73" transform="translate(171.639889 0) scale(0.996264)"/>
     </g>
    </g>
   </g>
   <g id="FillBetweenPolyCollection_3"/>
   <g id="line2d_40">
    <path d="M 110.507371 486.147361 
L 178.566786 483.684346 
L 246.626201 487.878935 
L 314.685616 492.297434 
L 382.745031 473.787504 
L 450.804445 486.687731 
L 518.86386 483.145468 
L 586.923275 484.176949 
L 654.98269 466.62237 
L 723.042105 374.669815 
" clip-path="url(#p0064123d70)" style="fill: none; stroke: #4c72b0; stroke-width: 2; stroke-linecap: round"/>
    <g clip-path="url(#p0064123d70)">
     <use xlink:href="#m9aed8874f4" x="110.507371" y="486.147361" style="fill: #4c72b0; stroke: #ffffff; stroke-width: 0.75"/>
     <use xlink:href="#m9aed8874f4" x="178.566786" y="483.684346" style="fill: #4c72b0; stroke: #ffffff; stroke-width: 0.75"/>
     <use xlink:href="#m9aed8874f4" x="246.626201" y="487.878935" style="fill: #4c72b0; stroke: #ffffff; stroke-width: 0.75"/>
     <use xlink:href="#m9aed8874f4" x="314.685616" y="492.297434" style="fill: #4c72b0; stroke: #ffffff; stroke-width: 0.75"/>
     <use xlink:href="#m9aed8874f4" x="382.745031" y="473.787504" style="fill: #4c72b0; stroke: #ffffff; stroke-width: 0.75"/>
     <use xlink:href="#m9aed8874f4" x="450.804445" y="486.687731" style="fill: #4c72b0; stroke: #ffffff; stroke-width: 0.75"/>
     <use xlink:href="#m9aed8874f4" x="518.86386" y="483.145468" style="fill: #4c72b0; stroke: #ffffff; stroke-width: 0.75"/>
     <use xlink:href="#m9aed8874f4" x="586.923275" y="484.176949" style="fill: #4c72b0; stroke: #ffffff; stroke-width: 0.75"/>
     <use xlink:href="#m9aed8874f4" x="654.98269" y="466.62237" style="fill: #4c72b0; stroke: #ffffff; stroke-width: 0.75"/>
     <use xlink:href="#m9aed8874f4" x="723.042105" y="374.669815" style="fill: #4c72b0; stroke: #ffffff; stroke-width: 0.75"/>
    </g>
   </g>
   <g id="patch_13">
    <path d="M 79.880634 497.07419 
L 79.880634 368.788434 
" style="fill: none; stroke: #cccccc; stroke-width: 1.875; stroke-linejoin: miter; stroke-linecap: square"/>
   </g>
   <g id="patch_14">
    <path d="M 753.668842 497.07419 
L 753.668842 368.788434 
" style="fill: none; stroke: #cccccc; stroke-width: 1.875; stroke-linejoin: miter; stroke-linecap: square"/>
   </g>
   <g id="patch_15">
    <path d="M 79.880634 497.07419 
L 753.668842 497.07419 
" style="fill: none; stroke: #cccccc; stroke-width: 1.875; stroke-linejoin: miter; stroke-linecap: square"/>
   </g>
   <g id="patch_16">
    <path d="M 79.880634 368.788434 
L 753.668842 368.788434 
" style="fill: none; stroke: #cccccc; stroke-width: 1.875; stroke-linejoin: miter; stroke-linecap: square"/>
   </g>
   <g id="text_14">
    <!-- Bandwidth -->
    <g style="fill: #262626" transform="translate(381.887453 362.788434) scale(0.16 -0.16)">
     <defs>
      <path id="CMSS17-64" d="M 2611 4416 
L 2138 4416 
L 2138 2438 
C 1939 2603 1613 2756 1254 2756 
C 672 2756 211 2131 211 1347 
C 211 562 666 -64 1235 -64 
C 1677 -64 1971 172 2125 306 
L 2125 -13 
L 2611 -13 
L 2611 4416 
z
M 2125 836 
C 2125 747 2125 653 1926 482 
C 1798 375 1645 325 1498 325 
C 1152 325 698 576 698 1340 
C 698 2134 1210 2368 1562 2368 
C 1798 2368 1990 2254 2125 2065 
L 2125 836 
z
" transform="scale(0.015625)"/>
      <path id="CMSS17-77" d="M 4013 2752 
L 3526 2752 
L 3187 1601 
C 3117 1358 2918 685 2893 371 
L 2886 371 
C 2874 564 2765 1024 2586 1633 
L 2259 2752 
L 1818 2752 
L 1498 1658 
C 1338 1101 1216 627 1203 371 
L 1197 371 
C 1171 749 909 1633 870 1773 
L 582 2752 
L 83 2752 
L 915 0 
L 1402 0 
C 1734 1096 1990 1943 2010 2370 
C 2022 2160 2131 1707 2195 1484 
L 2618 0 
L 3181 0 
L 4013 2752 
z
" transform="scale(0.015625)"/>
      <path id="CMSS17-68" d="M 2618 1891 
C 2618 2292 2522 2820 1798 2820 
C 1395 2820 1133 2623 947 2407 
L 947 4448 
L 474 4448 
L 474 32 
L 960 32 
L 960 1573 
C 960 1973 1114 2432 1549 2432 
C 2112 2432 2131 2056 2131 1839 
L 2131 32 
L 2618 32 
L 2618 1891 
z
" transform="scale(0.015625)"/>
     </defs>
     <use xlink:href="#CMSS17-42" transform="scale(0.996264)"/>
     <use xlink:href="#CMSS17-61" transform="translate(62.33804 0) scale(0.996264)"/>
     <use xlink:href="#CMSS17-6e" transform="translate(107.259961 0) scale(0.996264)"/>
     <use xlink:href="#CMSS17-64" transform="translate(155.464904 0) scale(0.996264)"/>
     <use xlink:href="#CMSS17-77" transform="translate(203.669847 0) scale(0.996264)"/>
     <use xlink:href="#CMSS17-69" transform="translate(267.489392 0) scale(0.996264)"/>
     <use xlink:href="#CMSS17-64" transform="translate(289.670115 0) scale(0.996264)"/>
     <use xlink:href="#CMSS17-74" transform="translate(337.875058 0) scale(0.996264)"/>
     <use xlink:href="#CMSS17-68" transform="translate(371.706625 0) scale(0.996264)"/>
    </g>
   </g>
  </g>
  <g id="axes_4">
   <g id="patch_17">
    <path d="M 79.880634 669.333613 
L 753.668842 669.333613 
L 753.668842 541.047858 
L 79.880634 541.047858 
z
" style="fill: #ffffff"/>
   </g>
   <g id="matplotlib.axis_7">
    <g id="xtick_31">
     <g id="line2d_41">
      <path d="M 110.507371 669.333613 
L 110.507371 541.047858 
" clip-path="url(#pa856bd7fca)" style="fill: none; stroke-dasharray: 5.55,2.4; stroke-dashoffset: 0; stroke: #cccccc; stroke-opacity: 0.6; stroke-width: 1.5"/>
     </g>
    </g>
    <g id="xtick_32">
     <g id="line2d_42">
      <path d="M 178.566786 669.333613 
L 178.566786 541.047858 
" clip-path="url(#pa856bd7fca)" style="fill: none; stroke-dasharray: 5.55,2.4; stroke-dashoffset: 0; stroke: #cccccc; stroke-opacity: 0.6; stroke-width: 1.5"/>
     </g>
    </g>
    <g id="xtick_33">
     <g id="line2d_43">
      <path d="M 246.626201 669.333613 
L 246.626201 541.047858 
" clip-path="url(#pa856bd7fca)" style="fill: none; stroke-dasharray: 5.55,2.4; stroke-dashoffset: 0; stroke: #cccccc; stroke-opacity: 0.6; stroke-width: 1.5"/>
     </g>
    </g>
    <g id="xtick_34">
     <g id="line2d_44">
      <path d="M 314.685616 669.333613 
L 314.685616 541.047858 
" clip-path="url(#pa856bd7fca)" style="fill: none; stroke-dasharray: 5.55,2.4; stroke-dashoffset: 0; stroke: #cccccc; stroke-opacity: 0.6; stroke-width: 1.5"/>
     </g>
    </g>
    <g id="xtick_35">
     <g id="line2d_45">
      <path d="M 382.745031 669.333613 
L 382.745031 541.047858 
" clip-path="url(#pa856bd7fca)" style="fill: none; stroke-dasharray: 5.55,2.4; stroke-dashoffset: 0; stroke: #cccccc; stroke-opacity: 0.6; stroke-width: 1.5"/>
     </g>
    </g>
    <g id="xtick_36">
     <g id="line2d_46">
      <path d="M 450.804445 669.333613 
L 450.804445 541.047858 
" clip-path="url(#pa856bd7fca)" style="fill: none; stroke-dasharray: 5.55,2.4; stroke-dashoffset: 0; stroke: #cccccc; stroke-opacity: 0.6; stroke-width: 1.5"/>
     </g>
    </g>
    <g id="xtick_37">
     <g id="line2d_47">
      <path d="M 518.86386 669.333613 
L 518.86386 541.047858 
" clip-path="url(#pa856bd7fca)" style="fill: none; stroke-dasharray: 5.55,2.4; stroke-dashoffset: 0; stroke: #cccccc; stroke-opacity: 0.6; stroke-width: 1.5"/>
     </g>
    </g>
    <g id="xtick_38">
     <g id="line2d_48">
      <path d="M 586.923275 669.333613 
L 586.923275 541.047858 
" clip-path="url(#pa856bd7fca)" style="fill: none; stroke-dasharray: 5.55,2.4; stroke-dashoffset: 0; stroke: #cccccc; stroke-opacity: 0.6; stroke-width: 1.5"/>
     </g>
    </g>
    <g id="xtick_39">
     <g id="line2d_49">
      <path d="M 654.98269 669.333613 
L 654.98269 541.047858 
" clip-path="url(#pa856bd7fca)" style="fill: none; stroke-dasharray: 5.55,2.4; stroke-dashoffset: 0; stroke: #cccccc; stroke-opacity: 0.6; stroke-width: 1.5"/>
     </g>
    </g>
    <g id="xtick_40">
     <g id="line2d_50">
      <path d="M 723.042105 669.333613 
L 723.042105 541.047858 
" clip-path="url(#pa856bd7fca)" style="fill: none; stroke-dasharray: 5.55,2.4; stroke-dashoffset: 0; stroke: #cccccc; stroke-opacity: 0.6; stroke-width: 1.5"/>
     </g>
    </g>
   </g>
   <g id="matplotlib.axis_8">
    <g id="ytick_8">
     <g id="line2d_51">
      <path d="M 79.880634 669.333613 
L 753.668842 669.333613 
" clip-path="url(#pa856bd7fca)" style="fill: none; stroke-dasharray: 5.55,2.4; stroke-dashoffset: 0; stroke: #cccccc; stroke-opacity: 0.6; stroke-width: 1.5"/>
     </g>
     <g id="text_15">
      <!-- $\mathdefault{0}$ -->
      <g style="fill: #262626" transform="translate(59.33278 675.041366) scale(0.165 -0.165)">
       <use xlink:href="#CMR17-30" transform="scale(0.996264)"/>
      </g>
     </g>
    </g>
    <g id="ytick_9">
     <g id="line2d_52">
      <path d="M 79.880634 596.760661 
L 753.668842 596.760661 
" clip-path="url(#pa856bd7fca)" style="fill: none; stroke-dasharray: 5.55,2.4; stroke-dashoffset: 0; stroke: #cccccc; stroke-opacity: 0.6; stroke-width: 1.5"/>
     </g>
     <g id="text_16">
      <!-- $\mathdefault{20000}$ -->
      <g style="fill: #262626" transform="translate(27.141364 602.468414) scale(0.165 -0.165)">
       <defs>
        <path id="CMR17-32" d="M 2669 989 
L 2554 989 
C 2490 536 2438 459 2413 420 
C 2381 369 1920 369 1830 369 
L 602 369 
C 832 619 1280 1072 1824 1597 
C 2214 1967 2669 2402 2669 3035 
C 2669 3790 2067 4224 1395 4224 
C 691 4224 262 3604 262 3030 
C 262 2780 448 2748 525 2748 
C 589 2748 781 2787 781 3010 
C 781 3207 614 3264 525 3264 
C 486 3264 448 3258 422 3245 
C 544 3790 915 4058 1306 4058 
C 1862 4058 2227 3617 2227 3035 
C 2227 2479 1901 2000 1536 1584 
L 262 146 
L 262 0 
L 2515 0 
L 2669 989 
z
" transform="scale(0.015625)"/>
       </defs>
       <use xlink:href="#CMR17-32" transform="scale(0.996264)"/>
       <use xlink:href="#CMR17-30" transform="translate(45.690477 0) scale(0.996264)"/>
       <use xlink:href="#CMR17-30" transform="translate(91.380954 0) scale(0.996264)"/>
       <use xlink:href="#CMR17-30" transform="translate(137.071431 0) scale(0.996264)"/>
       <use xlink:href="#CMR17-30" transform="translate(182.761908 0) scale(0.996264)"/>
      </g>
     </g>
    </g>
    <g id="text_17">
     <!-- Count -->
     <g style="fill: #262626" transform="translate(19.6533 626.515408) rotate(-90) scale(0.18 -0.18)">
      <use xlink:href="#CMSS17-43" transform="scale(0.996264)"/>
      <use xlink:href="#CMSS17-6f" transform="translate(59.855772 0) scale(0.996264)"/>
      <use xlink:href="#CMSS17-75" transform="translate(106.699395 0) scale(0.996264)"/>
      <use xlink:href="#CMSS17-6e" transform="translate(154.904338 0) scale(0.996264)"/>
      <use xlink:href="#CMSS17-74" transform="translate(203.109281 0) scale(0.996264)"/>
     </g>
    </g>
   </g>
   <g id="FillBetweenPolyCollection_4"/>
   <g id="line2d_53">
    <path d="M 110.507371 656.32854 
L 178.566786 650.754937 
L 246.626201 653.541739 
L 314.685616 660.044275 
L 382.745031 645.70386 
L 450.804445 630.318394 
L 518.86386 656.32854 
L 586.923275 603.379314 
L 654.98269 618.532547 
L 723.042105 546.714354 
" clip-path="url(#pa856bd7fca)" style="fill: none; stroke: #4c72b0; stroke-width: 2; stroke-linecap: round"/>
    <g clip-path="url(#pa856bd7fca)">
     <use xlink:href="#m9aed8874f4" x="110.507371" y="656.32854" style="fill: #4c72b0; stroke: #ffffff; stroke-width: 0.75"/>
     <use xlink:href="#m9aed8874f4" x="178.566786" y="650.754937" style="fill: #4c72b0; stroke: #ffffff; stroke-width: 0.75"/>
     <use xlink:href="#m9aed8874f4" x="246.626201" y="653.541739" style="fill: #4c72b0; stroke: #ffffff; stroke-width: 0.75"/>
     <use xlink:href="#m9aed8874f4" x="314.685616" y="660.044275" style="fill: #4c72b0; stroke: #ffffff; stroke-width: 0.75"/>
     <use xlink:href="#m9aed8874f4" x="382.745031" y="645.70386" style="fill: #4c72b0; stroke: #ffffff; stroke-width: 0.75"/>
     <use xlink:href="#m9aed8874f4" x="450.804445" y="630.318394" style="fill: #4c72b0; stroke: #ffffff; stroke-width: 0.75"/>
     <use xlink:href="#m9aed8874f4" x="518.86386" y="656.32854" style="fill: #4c72b0; stroke: #ffffff; stroke-width: 0.75"/>
     <use xlink:href="#m9aed8874f4" x="586.923275" y="603.379314" style="fill: #4c72b0; stroke: #ffffff; stroke-width: 0.75"/>
     <use xlink:href="#m9aed8874f4" x="654.98269" y="618.532547" style="fill: #4c72b0; stroke: #ffffff; stroke-width: 0.75"/>
     <use xlink:href="#m9aed8874f4" x="723.042105" y="546.714354" style="fill: #4c72b0; stroke: #ffffff; stroke-width: 0.75"/>
    </g>
   </g>
   <g id="patch_18">
    <path d="M 79.880634 669.333613 
L 79.880634 541.047858 
" style="fill: none; stroke: #cccccc; stroke-width: 1.875; stroke-linejoin: miter; stroke-linecap: square"/>
   </g>
   <g id="patch_19">
    <path d="M 753.668842 669.333613 
L 753.668842 541.047858 
" style="fill: none; stroke: #cccccc; stroke-width: 1.875; stroke-linejoin: miter; stroke-linecap: square"/>
   </g>
   <g id="patch_20">
    <path d="M 79.880634 669.333613 
L 753.668842 669.333613 
" style="fill: none; stroke: #cccccc; stroke-width: 1.875; stroke-linejoin: miter; stroke-linecap: square"/>
   </g>
   <g id="patch_21">
    <path d="M 79.880634 541.047858 
L 753.668842 541.047858 
" style="fill: none; stroke: #cccccc; stroke-width: 1.875; stroke-linejoin: miter; stroke-linecap: square"/>
   </g>
   <g id="text_18">
    <!-- CUDA Cores -->
    <g style="fill: #262626" transform="translate(375.538155 535.047858) scale(0.16 -0.16)">
     <defs>
      <path id="CMSS17-55" d="M 3552 4384 
L 3066 4384 
L 3066 1449 
C 3066 604 2547 229 2074 229 
C 1587 229 1101 623 1101 1443 
L 1101 4384 
L 563 4384 
L 563 1454 
C 563 539 1274 -128 2067 -128 
C 2861 -128 3552 539 3552 1454 
L 3552 4384 
z
" transform="scale(0.015625)"/>
      <path id="CMSS17-44" d="M 570 4416 
L 570 0 
L 2144 0 
C 3194 0 4000 980 4000 2170 
C 4000 3398 3194 4416 2144 4416 
L 570 4416 
z
M 1094 357 
L 1094 4059 
L 2003 4059 
C 2861 4059 3475 3277 3475 2170 
C 3475 1107 2867 357 2003 357 
L 1094 357 
z
" transform="scale(0.015625)"/>
      <path id="CMSS17-41" d="M 2272 4416 
L 1722 4416 
L 166 0 
L 653 0 
L 1101 1280 
L 2816 1280 
L 3270 0 
L 3827 0 
L 2272 4416 
z
M 2694 1637 
L 1222 1637 
C 1530 2528 1914 3638 1958 3925 
L 1965 3925 
C 2010 3663 2138 3281 2246 2956 
L 2694 1637 
z
" transform="scale(0.015625)"/>
     </defs>
     <use xlink:href="#CMSS17-43" transform="scale(0.996264)"/>
     <use xlink:href="#CMSS17-55" transform="translate(59.855772 0) scale(0.996264)"/>
     <use xlink:href="#CMSS17-44" transform="translate(123.995512 0) scale(0.996264)"/>
     <use xlink:href="#CMSS17-41" transform="translate(188.9359 0) scale(0.996264)"/>
     <use xlink:href="#CMSS17-43" transform="translate(282.382867 0) scale(0.996264)"/>
     <use xlink:href="#CMSS17-6f" transform="translate(342.238639 0) scale(0.996264)"/>
     <use xlink:href="#CMSS17-72" transform="translate(386.479808 0) scale(0.996264)"/>
     <use xlink:href="#CMSS17-65" transform="translate(418.389581 0) scale(0.996264)"/>
     <use xlink:href="#CMSS17-73" transform="translate(460.028403 0) scale(0.996264)"/>
    </g>
   </g>
  </g>
  <g id="axes_5">
   <g id="patch_22">
    <path d="M 79.880634 841.593036 
L 753.668842 841.593036 
L 753.668842 713.307281 
L 79.880634 713.307281 
z
" style="fill: #ffffff"/>
   </g>
   <g id="matplotlib.axis_9">
    <g id="xtick_41">
     <g id="line2d_54">
      <path d="M 110.507371 841.593036 
L 110.507371 713.307281 
" clip-path="url(#p34138c9ffc)" style="fill: none; stroke-dasharray: 5.55,2.4; stroke-dashoffset: 0; stroke: #cccccc; stroke-opacity: 0.6; stroke-width: 1.5"/>
     </g>
    </g>
    <g id="xtick_42">
     <g id="line2d_55">
      <path d="M 178.566786 841.593036 
L 178.566786 713.307281 
" clip-path="url(#p34138c9ffc)" style="fill: none; stroke-dasharray: 5.55,2.4; stroke-dashoffset: 0; stroke: #cccccc; stroke-opacity: 0.6; stroke-width: 1.5"/>
     </g>
    </g>
    <g id="xtick_43">
     <g id="line2d_56">
      <path d="M 246.626201 841.593036 
L 246.626201 713.307281 
" clip-path="url(#p34138c9ffc)" style="fill: none; stroke-dasharray: 5.55,2.4; stroke-dashoffset: 0; stroke: #cccccc; stroke-opacity: 0.6; stroke-width: 1.5"/>
     </g>
    </g>
    <g id="xtick_44">
     <g id="line2d_57">
      <path d="M 314.685616 841.593036 
L 314.685616 713.307281 
" clip-path="url(#p34138c9ffc)" style="fill: none; stroke-dasharray: 5.55,2.4; stroke-dashoffset: 0; stroke: #cccccc; stroke-opacity: 0.6; stroke-width: 1.5"/>
     </g>
    </g>
    <g id="xtick_45">
     <g id="line2d_58">
      <path d="M 382.745031 841.593036 
L 382.745031 713.307281 
" clip-path="url(#p34138c9ffc)" style="fill: none; stroke-dasharray: 5.55,2.4; stroke-dashoffset: 0; stroke: #cccccc; stroke-opacity: 0.6; stroke-width: 1.5"/>
     </g>
    </g>
    <g id="xtick_46">
     <g id="line2d_59">
      <path d="M 450.804445 841.593036 
L 450.804445 713.307281 
" clip-path="url(#p34138c9ffc)" style="fill: none; stroke-dasharray: 5.55,2.4; stroke-dashoffset: 0; stroke: #cccccc; stroke-opacity: 0.6; stroke-width: 1.5"/>
     </g>
    </g>
    <g id="xtick_47">
     <g id="line2d_60">
      <path d="M 518.86386 841.593036 
L 518.86386 713.307281 
" clip-path="url(#p34138c9ffc)" style="fill: none; stroke-dasharray: 5.55,2.4; stroke-dashoffset: 0; stroke: #cccccc; stroke-opacity: 0.6; stroke-width: 1.5"/>
     </g>
    </g>
    <g id="xtick_48">
     <g id="line2d_61">
      <path d="M 586.923275 841.593036 
L 586.923275 713.307281 
" clip-path="url(#p34138c9ffc)" style="fill: none; stroke-dasharray: 5.55,2.4; stroke-dashoffset: 0; stroke: #cccccc; stroke-opacity: 0.6; stroke-width: 1.5"/>
     </g>
    </g>
    <g id="xtick_49">
     <g id="line2d_62">
      <path d="M 654.98269 841.593036 
L 654.98269 713.307281 
" clip-path="url(#p34138c9ffc)" style="fill: none; stroke-dasharray: 5.55,2.4; stroke-dashoffset: 0; stroke: #cccccc; stroke-opacity: 0.6; stroke-width: 1.5"/>
     </g>
    </g>
    <g id="xtick_50">
     <g id="line2d_63">
      <path d="M 723.042105 841.593036 
L 723.042105 713.307281 
" clip-path="url(#p34138c9ffc)" style="fill: none; stroke-dasharray: 5.55,2.4; stroke-dashoffset: 0; stroke: #cccccc; stroke-opacity: 0.6; stroke-width: 1.5"/>
     </g>
    </g>
   </g>
   <g id="matplotlib.axis_10">
    <g id="ytick_10">
     <g id="line2d_64">
      <path d="M 79.880634 841.593036 
L 753.668842 841.593036 
" clip-path="url(#p34138c9ffc)" style="fill: none; stroke-dasharray: 5.55,2.4; stroke-dashoffset: 0; stroke: #cccccc; stroke-opacity: 0.6; stroke-width: 1.5"/>
     </g>
     <g id="text_19">
      <!-- $\mathdefault{0}$ -->
      <g style="fill: #262626" transform="translate(59.33278 847.300789) scale(0.165 -0.165)">
       <use xlink:href="#CMR17-30" transform="scale(0.996264)"/>
      </g>
     </g>
    </g>
    <g id="ytick_11">
     <g id="line2d_65">
      <path d="M 79.880634 780.300272 
L 753.668842 780.300272 
" clip-path="url(#p34138c9ffc)" style="fill: none; stroke-dasharray: 5.55,2.4; stroke-dashoffset: 0; stroke: #cccccc; stroke-opacity: 0.6; stroke-width: 1.5"/>
     </g>
     <g id="text_20">
      <!-- $\mathdefault{500}$ -->
      <g style="fill: #262626" transform="translate(43.237072 786.008024) scale(0.165 -0.165)">
       <use xlink:href="#CMR17-35" transform="scale(0.996264)"/>
       <use xlink:href="#CMR17-30" transform="translate(45.690477 0) scale(0.996264)"/>
       <use xlink:href="#CMR17-30" transform="translate(91.380954 0) scale(0.996264)"/>
      </g>
     </g>
    </g>
    <g id="ytick_12">
     <g id="line2d_66">
      <path d="M 79.880634 719.007508 
L 753.668842 719.007508 
" clip-path="url(#p34138c9ffc)" style="fill: none; stroke-dasharray: 5.55,2.4; stroke-dashoffset: 0; stroke: #cccccc; stroke-opacity: 0.6; stroke-width: 1.5"/>
     </g>
     <g id="text_21">
      <!-- $\mathdefault{1000}$ -->
      <g style="fill: #262626" transform="translate(35.189218 724.71526) scale(0.165 -0.165)">
       <use xlink:href="#CMR17-31" transform="scale(0.996264)"/>
       <use xlink:href="#CMR17-30" transform="translate(45.690477 0) scale(0.996264)"/>
       <use xlink:href="#CMR17-30" transform="translate(91.380954 0) scale(0.996264)"/>
       <use xlink:href="#CMR17-30" transform="translate(137.071431 0) scale(0.996264)"/>
      </g>
     </g>
    </g>
    <g id="text_22">
     <!-- Watts -->
     <g style="fill: #262626" transform="translate(27.701154 798.522596) rotate(-90) scale(0.18 -0.18)">
      <defs>
       <path id="CMSS17-57" d="M 5581 4416 
L 5094 4416 
L 4557 2437 
C 4474 2118 4397 1801 4320 1482 
C 4205 1011 4122 681 4109 515 
L 4102 515 
C 4090 687 4006 1049 3904 1457 
C 3827 1795 3744 2131 3654 2462 
L 3123 4416 
L 2586 4416 
L 2080 2562 
L 1824 1549 
C 1632 747 1626 632 1613 505 
L 1606 505 
C 1606 543 1581 753 1402 1498 
C 1312 1868 1222 2244 1126 2601 
L 634 4416 
L 83 4416 
L 1299 0 
L 1830 0 
L 2336 1839 
L 2592 2851 
C 2765 3564 2803 3742 2816 3901 
L 2822 3901 
C 2822 3876 2880 3474 3130 2545 
L 3808 0 
L 4365 0 
L 5581 4416 
z
" transform="scale(0.015625)"/>
      </defs>
      <use xlink:href="#CMSS17-57" transform="scale(0.996264)"/>
      <use xlink:href="#CMSS17-61" transform="translate(85.639712 0) scale(0.996264)"/>
      <use xlink:href="#CMSS17-74" transform="translate(130.561633 0) scale(0.996264)"/>
      <use xlink:href="#CMSS17-74" transform="translate(164.3932 0) scale(0.996264)"/>
      <use xlink:href="#CMSS17-73" transform="translate(198.224766 0) scale(0.996264)"/>
     </g>
    </g>
   </g>
   <g id="FillBetweenPolyCollection_5"/>
   <g id="line2d_67">
    <path d="M 110.507371 804.817378 
L 178.566786 804.817378 
L 246.626201 810.946654 
L 314.685616 833.012049 
L 382.745031 810.946654 
L 450.804445 804.817378 
L 518.86386 821.366424 
L 586.923275 804.817378 
L 654.98269 755.783166 
L 723.042105 719.007508 
" clip-path="url(#p34138c9ffc)" style="fill: none; stroke: #4c72b0; stroke-width: 2; stroke-linecap: round"/>
    <g clip-path="url(#p34138c9ffc)">
     <use xlink:href="#m9aed8874f4" x="110.507371" y="804.817378" style="fill: #4c72b0; stroke: #ffffff; stroke-width: 0.75"/>
     <use xlink:href="#m9aed8874f4" x="178.566786" y="804.817378" style="fill: #4c72b0; stroke: #ffffff; stroke-width: 0.75"/>
     <use xlink:href="#m9aed8874f4" x="246.626201" y="810.946654" style="fill: #4c72b0; stroke: #ffffff; stroke-width: 0.75"/>
     <use xlink:href="#m9aed8874f4" x="314.685616" y="833.012049" style="fill: #4c72b0; stroke: #ffffff; stroke-width: 0.75"/>
     <use xlink:href="#m9aed8874f4" x="382.745031" y="810.946654" style="fill: #4c72b0; stroke: #ffffff; stroke-width: 0.75"/>
     <use xlink:href="#m9aed8874f4" x="450.804445" y="804.817378" style="fill: #4c72b0; stroke: #ffffff; stroke-width: 0.75"/>
     <use xlink:href="#m9aed8874f4" x="518.86386" y="821.366424" style="fill: #4c72b0; stroke: #ffffff; stroke-width: 0.75"/>
     <use xlink:href="#m9aed8874f4" x="586.923275" y="804.817378" style="fill: #4c72b0; stroke: #ffffff; stroke-width: 0.75"/>
     <use xlink:href="#m9aed8874f4" x="654.98269" y="755.783166" style="fill: #4c72b0; stroke: #ffffff; stroke-width: 0.75"/>
     <use xlink:href="#m9aed8874f4" x="723.042105" y="719.007508" style="fill: #4c72b0; stroke: #ffffff; stroke-width: 0.75"/>
    </g>
   </g>
   <g id="patch_23">
    <path d="M 79.880634 841.593036 
L 79.880634 713.307281 
" style="fill: none; stroke: #cccccc; stroke-width: 1.875; stroke-linejoin: miter; stroke-linecap: square"/>
   </g>
   <g id="patch_24">
    <path d="M 753.668842 841.593036 
L 753.668842 713.307281 
" style="fill: none; stroke: #cccccc; stroke-width: 1.875; stroke-linejoin: miter; stroke-linecap: square"/>
   </g>
   <g id="patch_25">
    <path d="M 79.880634 841.593036 
L 753.668842 841.593036 
" style="fill: none; stroke: #cccccc; stroke-width: 1.875; stroke-linejoin: miter; stroke-linecap: square"/>
   </g>
   <g id="patch_26">
    <path d="M 79.880634 713.307281 
L 753.668842 713.307281 
" style="fill: none; stroke: #cccccc; stroke-width: 1.875; stroke-linejoin: miter; stroke-linecap: square"/>
   </g>
   <g id="text_23">
    <!-- TDP -->
    <g style="fill: #262626" transform="translate(400.876212 707.307281) scale(0.16 -0.16)">
     <defs>
      <path id="CMSS17-50" d="M 2106 1856 
C 2874 1856 3501 2453 3501 3158 
C 3501 3850 2899 4453 2067 4453 
L 570 4453 
L 570 0 
L 1107 0 
L 1107 1856 
L 2106 1856 
z
M 1926 4096 
C 2669 4096 2995 3627 2995 3157 
C 2995 2720 2694 2226 1926 2226 
L 1094 2226 
L 1094 4096 
L 1926 4096 
z
" transform="scale(0.015625)"/>
     </defs>
     <use xlink:href="#CMSS17-54" transform="scale(0.996264)"/>
     <use xlink:href="#CMSS17-44" transform="translate(63.819454 0) scale(0.996264)"/>
     <use xlink:href="#CMSS17-50" transform="translate(131.362296 0) scale(0.996264)"/>
    </g>
   </g>
  </g>
  <g id="axes_6">
   <g id="patch_27">
    <path d="M 79.880634 1013.852459 
L 753.668842 1013.852459 
L 753.668842 885.566704 
L 79.880634 885.566704 
z
" style="fill: #ffffff"/>
   </g>
   <g id="matplotlib.axis_11">
    <g id="xtick_51">
     <g id="line2d_68">
      <path d="M 110.507371 1013.852459 
L 110.507371 885.566704 
" clip-path="url(#p9fa4246d08)" style="fill: none; stroke-dasharray: 5.55,2.4; stroke-dashoffset: 0; stroke: #cccccc; stroke-opacity: 0.6; stroke-width: 1.5"/>
     </g>
     <g id="text_24">
      <!-- 2016 - P100 -->
      <g style="fill: #262626" transform="translate(84.186273 1092.878474) rotate(-45) scale(0.165 -0.165)">
       <defs>
        <path id="CMSS17-32" d="M 1651 1357 
C 1830 1541 2099 1764 2285 1987 
C 2464 2204 2701 2511 2701 2957 
C 2701 3657 2227 4288 1421 4288 
C 787 4288 422 3893 250 3274 
L 499 2929 
C 640 3510 838 3880 1338 3880 
C 1888 3880 2195 3433 2195 2942 
C 2195 2355 1747 1901 1408 1563 
C 1030 1187 659 804 301 408 
L 301 0 
L 2701 0 
L 2701 433 
L 1613 433 
C 1536 433 1459 433 1382 433 
L 742 433 
L 742 439 
L 1651 1357 
z
" transform="scale(0.015625)"/>
        <path id="CMSS17-30" d="M 2758 2044 
C 2758 2405 2752 3077 2490 3596 
C 2227 4096 1805 4229 1504 4229 
C 1069 4229 698 3975 506 3570 
C 301 3146 243 2709 243 2044 
C 243 1589 262 1031 493 543 
C 755 5 1197 -128 1498 -128 
C 1894 -128 2278 81 2496 518 
C 2720 974 2758 1474 2758 2044 
z
M 1498 261 
C 1011 261 864 811 819 995 
C 742 1310 730 1614 730 2114 
C 730 2506 730 2948 851 3297 
C 998 3701 1254 3840 1498 3840 
C 1971 3840 2125 3372 2176 3208 
C 2272 2873 2272 2481 2272 2114 
C 2272 1526 2272 261 1498 261 
z
" transform="scale(0.015625)"/>
        <path id="CMSS17-31" d="M 1818 4288 
L 1696 4288 
C 1350 3940 947 3890 538 3890 
L 538 3520 
C 723 3520 1024 3520 1325 3667 
L 1325 369 
L 570 369 
L 570 0 
L 2573 0 
L 2573 369 
L 1818 369 
L 1818 4288 
z
" transform="scale(0.015625)"/>
        <path id="CMSS17-36" d="M 2496 4101 
C 2227 4210 2035 4229 1856 4229 
C 1024 4229 250 3368 250 2006 
C 250 265 986 -128 1510 -128 
C 1798 -128 2086 -39 2362 280 
C 2643 617 2752 898 2752 1389 
C 2752 2179 2362 2880 1779 2880 
C 1357 2880 992 2657 768 2376 
C 832 3258 1254 3840 1862 3840 
C 2029 3840 2246 3816 2496 3710 
L 2496 4101 
z
M 774 1369 
C 774 1420 774 1452 781 1548 
C 781 2045 1069 2491 1536 2491 
C 1837 2491 1990 2332 2106 2135 
C 2240 1886 2246 1650 2246 1388 
C 2246 1140 2246 891 2099 637 
C 1978 439 1818 267 1510 267 
C 902 267 800 1114 774 1369 
z
" transform="scale(0.015625)"/>
        <path id="CMSS17-2d" d="M 1664 1216 
L 1664 1585 
L 64 1585 
L 64 1216 
L 1664 1216 
z
" transform="scale(0.015625)"/>
       </defs>
       <use xlink:href="#CMSS17-32" transform="scale(0.996264)"/>
       <use xlink:href="#CMSS17-30" transform="translate(46.843624 0) scale(0.996264)"/>
       <use xlink:href="#CMSS17-31" transform="translate(93.687247 0) scale(0.996264)"/>
       <use xlink:href="#CMSS17-36" transform="translate(140.530871 0) scale(0.996264)"/>
       <use xlink:href="#CMSS17-2d" transform="translate(218.603607 0) scale(0.996264)"/>
       <use xlink:href="#CMSS17-50" transform="translate(281.061832 0) scale(0.996264)"/>
       <use xlink:href="#CMSS17-31" transform="translate(340.797419 0) scale(0.996264)"/>
       <use xlink:href="#CMSS17-30" transform="translate(387.641042 0) scale(0.996264)"/>
       <use xlink:href="#CMSS17-30" transform="translate(434.484666 0) scale(0.996264)"/>
      </g>
     </g>
    </g>
    <g id="xtick_52">
     <g id="line2d_69">
      <path d="M 178.566786 1013.852459 
L 178.566786 885.566704 
" clip-path="url(#p9fa4246d08)" style="fill: none; stroke-dasharray: 5.55,2.4; stroke-dashoffset: 0; stroke: #cccccc; stroke-opacity: 0.6; stroke-width: 1.5"/>
     </g>
     <g id="text_25">
      <!-- 2017 - V100 -->
      <g style="fill: #262626" transform="translate(152.104426 1093.160997) rotate(-45) scale(0.165 -0.165)">
       <defs>
        <path id="CMSS17-37" d="M 1389 3776 
C 1466 3776 1542 3776 1619 3776 
L 2355 3776 
C 1440 2711 915 1365 915 -32 
L 1427 -32 
C 1427 1323 1875 2696 2752 3795 
L 2752 4209 
L 250 4209 
L 250 3776 
L 1389 3776 
z
" transform="scale(0.015625)"/>
        <path id="CMSS17-56" d="M 3910 4416 
L 3411 4416 
L 2304 1362 
C 2272 1273 2074 688 2035 484 
L 2029 484 
C 1978 726 1773 1292 1664 1604 
L 922 3672 
L 646 4416 
L 83 4416 
L 1715 0 
L 2278 0 
L 3910 4416 
z
" transform="scale(0.015625)"/>
       </defs>
       <use xlink:href="#CMSS17-32" transform="scale(0.996264)"/>
       <use xlink:href="#CMSS17-30" transform="translate(46.843624 0) scale(0.996264)"/>
       <use xlink:href="#CMSS17-31" transform="translate(93.687247 0) scale(0.996264)"/>
       <use xlink:href="#CMSS17-37" transform="translate(140.530871 0) scale(0.996264)"/>
       <use xlink:href="#CMSS17-2d" transform="translate(218.603607 0) scale(0.996264)"/>
       <use xlink:href="#CMSS17-56" transform="translate(281.061832 0) scale(0.996264)"/>
       <use xlink:href="#CMSS17-31" transform="translate(343.279687 0) scale(0.996264)"/>
       <use xlink:href="#CMSS17-30" transform="translate(390.123311 0) scale(0.996264)"/>
       <use xlink:href="#CMSS17-30" transform="translate(436.966934 0) scale(0.996264)"/>
      </g>
     </g>
    </g>
    <g id="xtick_53">
     <g id="line2d_70">
      <path d="M 246.626201 1013.852459 
L 246.626201 885.566704 
" clip-path="url(#p9fa4246d08)" style="fill: none; stroke-dasharray: 5.55,2.4; stroke-dashoffset: 0; stroke: #cccccc; stroke-opacity: 0.6; stroke-width: 1.5"/>
     </g>
     <g id="text_26">
      <!-- 2018 - 2080ti -->
      <g style="fill: #262626" transform="translate(217.685093 1098.118491) rotate(-45) scale(0.165 -0.165)">
       <defs>
        <path id="CMSS17-38" d="M 1933 2222 
C 2419 2380 2669 2760 2669 3134 
C 2669 3722 2157 4229 1504 4229 
C 826 4229 333 3708 333 3144 
C 333 2780 576 2403 1069 2241 
C 442 1997 250 1512 250 1149 
C 250 446 819 -128 1498 -128 
C 2202 -128 2752 455 2752 1138 
C 2752 1557 2502 2000 1933 2222 
z
M 1504 2432 
C 1075 2432 787 2712 787 3136 
C 787 3566 1075 3840 1504 3840 
C 1901 3840 2214 3591 2214 3136 
C 2214 2687 1907 2432 1504 2432 
z
M 1504 267 
C 1139 267 749 517 749 1156 
C 749 1813 1184 2043 1498 2043 
C 1843 2043 2253 1800 2253 1156 
C 2253 491 1830 267 1504 267 
z
" transform="scale(0.015625)"/>
       </defs>
       <use xlink:href="#CMSS17-32" transform="scale(0.996264)"/>
       <use xlink:href="#CMSS17-30" transform="translate(46.843624 0) scale(0.996264)"/>
       <use xlink:href="#CMSS17-31" transform="translate(93.687247 0) scale(0.996264)"/>
       <use xlink:href="#CMSS17-38" transform="translate(140.530871 0) scale(0.996264)"/>
       <use xlink:href="#CMSS17-2d" transform="translate(218.603607 0) scale(0.996264)"/>
       <use xlink:href="#CMSS17-32" transform="translate(281.061832 0) scale(0.996264)"/>
       <use xlink:href="#CMSS17-30" transform="translate(327.905456 0) scale(0.996264)"/>
       <use xlink:href="#CMSS17-38" transform="translate(374.749079 0) scale(0.996264)"/>
       <use xlink:href="#CMSS17-30" transform="translate(421.592703 0) scale(0.996264)"/>
       <use xlink:href="#CMSS17-74" transform="translate(468.436326 0) scale(0.996264)"/>
       <use xlink:href="#CMSS17-69" transform="translate(502.267893 0) scale(0.996264)"/>
      </g>
     </g>
    </g>
    <g id="xtick_54">
     <g id="line2d_71">
      <path d="M 314.685616 1013.852459 
L 314.685616 885.566704 
" clip-path="url(#p9fa4246d08)" style="fill: none; stroke-dasharray: 5.55,2.4; stroke-dashoffset: 0; stroke: #cccccc; stroke-opacity: 0.6; stroke-width: 1.5"/>
     </g>
     <g id="text_27">
      <!-- 2018 - T4 -->
      <g style="fill: #262626" transform="translate(293.792868 1082.021773) rotate(-45) scale(0.165 -0.165)">
       <defs>
        <path id="CMSS17-34" d="M 2253 1088 
L 2835 1088 
L 2835 1477 
L 2253 1477 
L 2253 4192 
L 1690 4192 
L 166 1477 
L 166 1088 
L 1747 1088 
L 1747 0 
L 2253 0 
L 2253 1088 
z
M 659 1477 
C 1030 2127 1766 3439 1766 3885 
L 1766 1477 
L 659 1477 
z
" transform="scale(0.015625)"/>
       </defs>
       <use xlink:href="#CMSS17-32" transform="scale(0.996264)"/>
       <use xlink:href="#CMSS17-30" transform="translate(46.843624 0) scale(0.996264)"/>
       <use xlink:href="#CMSS17-31" transform="translate(93.687247 0) scale(0.996264)"/>
       <use xlink:href="#CMSS17-38" transform="translate(140.530871 0) scale(0.996264)"/>
       <use xlink:href="#CMSS17-2d" transform="translate(218.603607 0) scale(0.996264)"/>
       <use xlink:href="#CMSS17-54" transform="translate(281.061832 0) scale(0.996264)"/>
       <use xlink:href="#CMSS17-34" transform="translate(344.881286 0) scale(0.996264)"/>
      </g>
     </g>
    </g>
    <g id="xtick_55">
     <g id="line2d_72">
      <path d="M 382.745031 1013.852459 
L 382.745031 885.566704 
" clip-path="url(#p9fa4246d08)" style="fill: none; stroke-dasharray: 5.55,2.4; stroke-dashoffset: 0; stroke: #cccccc; stroke-opacity: 0.6; stroke-width: 1.5"/>
     </g>
     <g id="text_28">
      <!-- 2020 - A100 -->
      <g style="fill: #262626" transform="translate(356.28267 1093.160997) rotate(-45) scale(0.165 -0.165)">
       <use xlink:href="#CMSS17-32" transform="scale(0.996264)"/>
       <use xlink:href="#CMSS17-30" transform="translate(46.843624 0) scale(0.996264)"/>
       <use xlink:href="#CMSS17-32" transform="translate(93.687247 0) scale(0.996264)"/>
       <use xlink:href="#CMSS17-30" transform="translate(140.530871 0) scale(0.996264)"/>
       <use xlink:href="#CMSS17-2d" transform="translate(218.603607 0) scale(0.996264)"/>
       <use xlink:href="#CMSS17-41" transform="translate(281.061832 0) scale(0.996264)"/>
       <use xlink:href="#CMSS17-31" transform="translate(343.279687 0) scale(0.996264)"/>
       <use xlink:href="#CMSS17-30" transform="translate(390.123311 0) scale(0.996264)"/>
       <use xlink:href="#CMSS17-30" transform="translate(436.966934 0) scale(0.996264)"/>
      </g>
     </g>
    </g>
    <g id="xtick_56">
     <g id="line2d_73">
      <path d="M 450.804445 1013.852459 
L 450.804445 885.566704 
" clip-path="url(#p9fa4246d08)" style="fill: none; stroke-dasharray: 5.55,2.4; stroke-dashoffset: 0; stroke: #cccccc; stroke-opacity: 0.6; stroke-width: 1.5"/>
     </g>
     <g id="text_29">
      <!-- 2020 - A40 -->
      <g style="fill: #262626" transform="translate(427.187431 1087.470305) rotate(-45) scale(0.165 -0.165)">
       <use xlink:href="#CMSS17-32" transform="scale(0.996264)"/>
       <use xlink:href="#CMSS17-30" transform="translate(46.843624 0) scale(0.996264)"/>
       <use xlink:href="#CMSS17-32" transform="translate(93.687247 0) scale(0.996264)"/>
       <use xlink:href="#CMSS17-30" transform="translate(140.530871 0) scale(0.996264)"/>
       <use xlink:href="#CMSS17-2d" transform="translate(218.603607 0) scale(0.996264)"/>
       <use xlink:href="#CMSS17-41" transform="translate(281.061832 0) scale(0.996264)"/>
       <use xlink:href="#CMSS17-34" transform="translate(343.279687 0) scale(0.996264)"/>
       <use xlink:href="#CMSS17-30" transform="translate(390.123311 0) scale(0.996264)"/>
      </g>
     </g>
    </g>
    <g id="xtick_57">
     <g id="line2d_74">
      <path d="M 518.86386 1013.852459 
L 518.86386 885.566704 
" clip-path="url(#p9fa4246d08)" style="fill: none; stroke-dasharray: 5.55,2.4; stroke-dashoffset: 0; stroke: #cccccc; stroke-opacity: 0.6; stroke-width: 1.5"/>
     </g>
     <g id="text_30">
      <!-- 2021 - A30 -->
      <g style="fill: #262626" transform="translate(495.246846 1087.470305) rotate(-45) scale(0.165 -0.165)">
       <defs>
        <path id="CMSS17-33" d="M 1005 2025 
L 1440 2025 
C 2042 2025 2214 1507 2214 1146 
C 2214 653 1933 267 1472 267 
C 1114 267 608 444 320 912 
C 275 691 275 678 250 526 
C 550 88 1037 -128 1485 -128 
C 2214 -128 2752 473 2752 1138 
C 2752 1638 2400 2057 1920 2215 
C 2304 2424 2586 2816 2586 3273 
C 2586 3805 2093 4229 1491 4229 
C 941 4229 512 3892 333 3530 
C 378 3468 493 3284 550 3189 
C 691 3562 1056 3840 1485 3840 
C 1843 3840 2080 3607 2080 3271 
C 2080 2923 1856 2543 1478 2455 
C 1453 2455 1056 2417 1005 2411 
L 1005 2025 
z
" transform="scale(0.015625)"/>
       </defs>
       <use xlink:href="#CMSS17-32" transform="scale(0.996264)"/>
       <use xlink:href="#CMSS17-30" transform="translate(46.843624 0) scale(0.996264)"/>
       <use xlink:href="#CMSS17-32" transform="translate(93.687247 0) scale(0.996264)"/>
       <use xlink:href="#CMSS17-31" transform="translate(140.530871 0) scale(0.996264)"/>
       <use xlink:href="#CMSS17-2d" transform="translate(218.603607 0) scale(0.996264)"/>
       <use xlink:href="#CMSS17-41" transform="translate(281.061832 0) scale(0.996264)"/>
       <use xlink:href="#CMSS17-33" transform="translate(343.279687 0) scale(0.996264)"/>
       <use xlink:href="#CMSS17-30" transform="translate(390.123311 0) scale(0.996264)"/>
      </g>
     </g>
    </g>
    <g id="xtick_58">
     <g id="line2d_75">
      <path d="M 586.923275 1013.852459 
L 586.923275 885.566704 
" clip-path="url(#p9fa4246d08)" style="fill: none; stroke-dasharray: 5.55,2.4; stroke-dashoffset: 0; stroke: #cccccc; stroke-opacity: 0.6; stroke-width: 1.5"/>
     </g>
     <g id="text_31">
      <!-- 2022 - L40 -->
      <g style="fill: #262626" transform="translate(563.992383 1086.098062) rotate(-45) scale(0.165 -0.165)">
       <defs>
        <path id="CMSS17-4c" d="M 1670 414 
C 1594 414 1517 414 1440 414 
L 1101 414 
L 1101 4416 
L 563 4416 
L 563 0 
L 3002 0 
L 3002 414 
L 1670 414 
z
" transform="scale(0.015625)"/>
       </defs>
       <use xlink:href="#CMSS17-32" transform="scale(0.996264)"/>
       <use xlink:href="#CMSS17-30" transform="translate(46.843624 0) scale(0.996264)"/>
       <use xlink:href="#CMSS17-32" transform="translate(93.687247 0) scale(0.996264)"/>
       <use xlink:href="#CMSS17-32" transform="translate(140.530871 0) scale(0.996264)"/>
       <use xlink:href="#CMSS17-2d" transform="translate(218.603607 0) scale(0.996264)"/>
       <use xlink:href="#CMSS17-4c" transform="translate(281.061832 0) scale(0.996264)"/>
       <use xlink:href="#CMSS17-34" transform="translate(331.748938 0) scale(0.996264)"/>
       <use xlink:href="#CMSS17-30" transform="translate(378.592561 0) scale(0.996264)"/>
      </g>
     </g>
    </g>
    <g id="xtick_59">
     <g id="line2d_76">
      <path d="M 654.98269 1013.852459 
L 654.98269 885.566704 
" clip-path="url(#p9fa4246d08)" style="fill: none; stroke-dasharray: 5.55,2.4; stroke-dashoffset: 0; stroke: #cccccc; stroke-opacity: 0.6; stroke-width: 1.5"/>
     </g>
     <g id="text_32">
      <!-- 2023 - H100 -->
      <g style="fill: #262626" transform="translate(628.291623 1093.618411) rotate(-45) scale(0.165 -0.165)">
       <use xlink:href="#CMSS17-32" transform="scale(0.996264)"/>
       <use xlink:href="#CMSS17-30" transform="translate(46.843624 0) scale(0.996264)"/>
       <use xlink:href="#CMSS17-32" transform="translate(93.687247 0) scale(0.996264)"/>
       <use xlink:href="#CMSS17-33" transform="translate(140.530871 0) scale(0.996264)"/>
       <use xlink:href="#CMSS17-2d" transform="translate(218.603607 0) scale(0.996264)"/>
       <use xlink:href="#CMSS17-48" transform="translate(281.061832 0) scale(0.996264)"/>
       <use xlink:href="#CMSS17-31" transform="translate(347.123352 0) scale(0.996264)"/>
       <use xlink:href="#CMSS17-30" transform="translate(393.966975 0) scale(0.996264)"/>
       <use xlink:href="#CMSS17-30" transform="translate(440.810599 0) scale(0.996264)"/>
      </g>
     </g>
    </g>
    <g id="xtick_60">
     <g id="line2d_77">
      <path d="M 723.042105 1013.852459 
L 723.042105 885.566704 
" clip-path="url(#p9fa4246d08)" style="fill: none; stroke-dasharray: 5.55,2.4; stroke-dashoffset: 0; stroke: #cccccc; stroke-opacity: 0.6; stroke-width: 1.5"/>
     </g>
     <g id="text_33">
      <!-- 2024 - B200 -->
      <g style="fill: #262626" transform="translate(696.562928 1093.194632) rotate(-45) scale(0.165 -0.165)">
       <use xlink:href="#CMSS17-32" transform="scale(0.996264)"/>
       <use xlink:href="#CMSS17-30" transform="translate(46.843624 0) scale(0.996264)"/>
       <use xlink:href="#CMSS17-32" transform="translate(93.687247 0) scale(0.996264)"/>
       <use xlink:href="#CMSS17-34" transform="translate(140.530871 0) scale(0.996264)"/>
       <use xlink:href="#CMSS17-2d" transform="translate(218.603607 0) scale(0.996264)"/>
       <use xlink:href="#CMSS17-42" transform="translate(281.061832 0) scale(0.996264)"/>
       <use xlink:href="#CMSS17-32" transform="translate(343.399873 0) scale(0.996264)"/>
       <use xlink:href="#CMSS17-30" transform="translate(390.243496 0) scale(0.996264)"/>
       <use xlink:href="#CMSS17-30" transform="translate(437.08712 0) scale(0.996264)"/>
      </g>
     </g>
    </g>
    <g id="text_34">
     <!-- Year  GPU -->
     <g style="fill: #262626" transform="translate(374.842499 1116.831936) scale(0.18 -0.18)">
      <defs>
       <path id="CMSS17-59" d="M 3974 4416 
L 3424 4416 
L 2432 2877 
C 2355 2755 2138 2425 2035 2240 
L 1722 2743 
L 646 4416 
L 19 4416 
L 1734 1769 
L 1734 0 
L 2259 0 
L 2259 1763 
L 3974 4416 
z
" transform="scale(0.015625)"/>
       <path id="CMSS17-7b" d="M 3002 1472 
L 3002 1861 
L 0 1861 
L 0 1472 
L 3002 1472 
z
" transform="scale(0.015625)"/>
      </defs>
      <use xlink:href="#CMSS17-59" transform="scale(0.996264)"/>
      <use xlink:href="#CMSS17-65" transform="translate(54.4106 0) scale(0.996264)"/>
      <use xlink:href="#CMSS17-61" transform="translate(96.049422 0) scale(0.996264)"/>
      <use xlink:href="#CMSS17-72" transform="translate(138.368888 0) scale(0.996264)"/>
      <use xlink:href="#CMSS17-7b" transform="translate(201.507774 0) scale(0.996264)"/>
      <use xlink:href="#CMSS17-47" transform="translate(279.58051 0) scale(0.996264)"/>
      <use xlink:href="#CMSS17-50" transform="translate(342.038735 0) scale(0.996264)"/>
      <use xlink:href="#CMSS17-55" transform="translate(401.774322 0) scale(0.996264)"/>
     </g>
    </g>
   </g>
   <g id="matplotlib.axis_12">
    <g id="ytick_13">
     <g id="line2d_78">
      <path d="M 79.880634 1013.852459 
L 753.668842 1013.852459 
" clip-path="url(#p9fa4246d08)" style="fill: none; stroke-dasharray: 5.55,2.4; stroke-dashoffset: 0; stroke: #cccccc; stroke-opacity: 0.6; stroke-width: 1.5"/>
     </g>
     <g id="text_35">
      <!-- $\mathdefault{0}$ -->
      <g style="fill: #262626" transform="translate(59.33278 1019.560212) scale(0.165 -0.165)">
       <use xlink:href="#CMR17-30" transform="scale(0.996264)"/>
      </g>
     </g>
    </g>
    <g id="ytick_14">
     <g id="line2d_79">
      <path d="M 79.880634 951.078129 
L 753.668842 951.078129 
" clip-path="url(#p9fa4246d08)" style="fill: none; stroke-dasharray: 5.55,2.4; stroke-dashoffset: 0; stroke: #cccccc; stroke-opacity: 0.6; stroke-width: 1.5"/>
     </g>
     <g id="text_36">
      <!-- $\mathdefault{1}$ -->
      <g style="fill: #262626" transform="translate(59.33278 956.785881) scale(0.165 -0.165)">
       <use xlink:href="#CMR17-31" transform="scale(0.996264)"/>
      </g>
     </g>
    </g>
    <g id="ytick_15">
     <g id="line2d_80">
      <path d="M 79.880634 888.303798 
L 753.668842 888.303798 
" clip-path="url(#p9fa4246d08)" style="fill: none; stroke-dasharray: 5.55,2.4; stroke-dashoffset: 0; stroke: #cccccc; stroke-opacity: 0.6; stroke-width: 1.5"/>
     </g>
     <g id="text_37">
      <!-- $\mathdefault{2}$ -->
      <g style="fill: #262626" transform="translate(59.33278 894.011551) scale(0.165 -0.165)">
       <use xlink:href="#CMR17-32" transform="scale(0.996264)"/>
      </g>
     </g>
    </g>
    <g id="text_38">
     <!-- W / transistor -->
     <g style="fill: #262626" transform="translate(50.864596 1000.145781) rotate(-90) scale(0.18 -0.18)">
      <use xlink:href="#CMSS17-57" transform="scale(0.996264)"/>
      <use xlink:href="#CMSS17-2f" transform="translate(119.471279 0) scale(0.996264)"/>
      <use xlink:href="#CMSS17-74" transform="translate(197.544015 0) scale(0.996264)"/>
      <use xlink:href="#CMSS17-72" transform="translate(231.375582 0) scale(0.996264)"/>
      <use xlink:href="#CMSS17-61" transform="translate(263.285354 0) scale(0.996264)"/>
      <use xlink:href="#CMSS17-6e" transform="translate(308.207275 0) scale(0.996264)"/>
      <use xlink:href="#CMSS17-73" transform="translate(356.412218 0) scale(0.996264)"/>
      <use xlink:href="#CMSS17-69" transform="translate(392.32576 0) scale(0.996264)"/>
      <use xlink:href="#CMSS17-73" transform="translate(414.506483 0) scale(0.996264)"/>
      <use xlink:href="#CMSS17-74" transform="translate(450.420025 0) scale(0.996264)"/>
      <use xlink:href="#CMSS17-6f" transform="translate(484.251592 0) scale(0.996264)"/>
      <use xlink:href="#CMSS17-72" transform="translate(528.492762 0) scale(0.996264)"/>
     </g>
    </g>
    <g id="text_39">
     <!-- $\times\mathdefault{10^{8}}\mathdefault{}$ -->
     <g style="fill: #262626" transform="translate(79.880634 882.566704) scale(0.165 -0.165)">
      <defs>
       <path id="CMSY10-0" d="M 4218 1472 
C 4326 1472 4442 1472 4442 1600 
C 4442 1728 4326 1728 4218 1728 
L 755 1728 
C 646 1728 531 1728 531 1600 
C 531 1472 646 1472 755 1472 
L 4218 1472 
z
" transform="scale(0.015625)"/>
       <path id="CMR17-38" d="M 1741 2264 
C 2144 2467 2554 2773 2554 3263 
C 2554 3841 1990 4179 1472 4179 
C 890 4179 378 3759 378 3180 
C 378 3021 416 2747 666 2505 
C 730 2442 998 2251 1171 2130 
C 883 1983 211 1634 211 934 
C 211 279 838 -128 1459 -128 
C 2144 -128 2720 362 2720 1010 
C 2720 1590 2330 1857 2074 2029 
L 1741 2264 
z
M 902 2822 
C 851 2854 595 3051 595 3351 
C 595 3739 998 4032 1459 4032 
C 1965 4032 2336 3676 2336 3262 
C 2336 2669 1670 2331 1638 2331 
C 1632 2331 1626 2331 1574 2370 
L 902 2822 
z
M 2080 1519 
C 2176 1449 2483 1240 2483 851 
C 2483 381 2010 25 1472 25 
C 890 25 448 438 448 940 
C 448 1443 838 1862 1280 2060 
L 2080 1519 
z
" transform="scale(0.015625)"/>
      </defs>
      <use xlink:href="#CMSY10-2" transform="scale(0.996264)"/>
      <use xlink:href="#CMR17-31" transform="translate(77.487468 0) scale(0.996264)"/>
      <use xlink:href="#CMR17-30" transform="translate(123.177945 0) scale(0.996264)"/>
      <use xlink:href="#CMSY10-0" transform="translate(168.868422 36.153639) scale(0.697382)"/>
      <use xlink:href="#CMR17-38" transform="translate(223.109415 36.153639) scale(0.697382)"/>
     </g>
    </g>
   </g>
   <g id="FillBetweenPolyCollection_6"/>
   <g id="line2d_81">
    <path d="M 110.507371 890.765537 
L 178.566786 924.599857 
L 246.626201 929.478359 
L 314.685616 981.542142 
L 382.745031 984.89751 
L 450.804445 947.307233 
L 518.86386 994.742193 
L 586.923275 989.170547 
L 654.98269 958.92492 
L 723.042105 953.492526 
" clip-path="url(#p9fa4246d08)" style="fill: none; stroke: #4c72b0; stroke-width: 2; stroke-linecap: round"/>
    <g clip-path="url(#p9fa4246d08)">
     <use xlink:href="#m9aed8874f4" x="110.507371" y="890.765537" style="fill: #4c72b0; stroke: #ffffff; stroke-width: 0.75"/>
     <use xlink:href="#m9aed8874f4" x="178.566786" y="924.599857" style="fill: #4c72b0; stroke: #ffffff; stroke-width: 0.75"/>
     <use xlink:href="#m9aed8874f4" x="246.626201" y="929.478359" style="fill: #4c72b0; stroke: #ffffff; stroke-width: 0.75"/>
     <use xlink:href="#m9aed8874f4" x="314.685616" y="981.542142" style="fill: #4c72b0; stroke: #ffffff; stroke-width: 0.75"/>
     <use xlink:href="#m9aed8874f4" x="382.745031" y="984.89751" style="fill: #4c72b0; stroke: #ffffff; stroke-width: 0.75"/>
     <use xlink:href="#m9aed8874f4" x="450.804445" y="947.307233" style="fill: #4c72b0; stroke: #ffffff; stroke-width: 0.75"/>
     <use xlink:href="#m9aed8874f4" x="518.86386" y="994.742193" style="fill: #4c72b0; stroke: #ffffff; stroke-width: 0.75"/>
     <use xlink:href="#m9aed8874f4" x="586.923275" y="989.170547" style="fill: #4c72b0; stroke: #ffffff; stroke-width: 0.75"/>
     <use xlink:href="#m9aed8874f4" x="654.98269" y="958.92492" style="fill: #4c72b0; stroke: #ffffff; stroke-width: 0.75"/>
     <use xlink:href="#m9aed8874f4" x="723.042105" y="953.492526" style="fill: #4c72b0; stroke: #ffffff; stroke-width: 0.75"/>
    </g>
   </g>
   <g id="patch_28">
    <path d="M 79.880634 1013.852459 
L 79.880634 885.566704 
" style="fill: none; stroke: #cccccc; stroke-width: 1.875; stroke-linejoin: miter; stroke-linecap: square"/>
   </g>
   <g id="patch_29">
    <path d="M 753.668842 1013.852459 
L 753.668842 885.566704 
" style="fill: none; stroke: #cccccc; stroke-width: 1.875; stroke-linejoin: miter; stroke-linecap: square"/>
   </g>
   <g id="patch_30">
    <path d="M 79.880634 1013.852459 
L 753.668842 1013.852459 
" style="fill: none; stroke: #cccccc; stroke-width: 1.875; stroke-linejoin: miter; stroke-linecap: square"/>
   </g>
   <g id="patch_31">
    <path d="M 79.880634 885.566704 
L 753.668842 885.566704 
" style="fill: none; stroke: #cccccc; stroke-width: 1.875; stroke-linejoin: miter; stroke-linecap: square"/>
   </g>
   <g id="text_40">
    <!-- TDP per Transistor -->
    <g style="fill: #262626" transform="translate(353.294976 879.566704) scale(0.16 -0.16)">
     <defs>
      <path id="CMSS17-70" d="M 966 333 
C 1178 129 1466 -5 1773 -5 
C 2368 -5 2880 603 2880 1412 
C 2880 2159 2496 2816 1946 2816 
C 1626 2816 1242 2702 954 2472 
L 954 2765 
L 480 2765 
L 480 -1216 
L 966 -1216 
L 966 333 
z
M 966 2100 
C 1018 2176 1235 2415 1587 2415 
C 2035 2415 2394 1960 2394 1412 
C 2394 787 1958 384 1530 384 
C 1402 384 1267 415 1139 523 
C 966 674 966 768 966 857 
L 966 2100 
z
" transform="scale(0.015625)"/>
     </defs>
     <use xlink:href="#CMSS17-54" transform="scale(0.996264)"/>
     <use xlink:href="#CMSS17-44" transform="translate(63.819454 0) scale(0.996264)"/>
     <use xlink:href="#CMSS17-50" transform="translate(131.362296 0) scale(0.996264)"/>
     <use xlink:href="#CMSS17-70" transform="translate(222.326995 0) scale(0.996264)"/>
     <use xlink:href="#CMSS17-65" transform="translate(273.134376 0) scale(0.996264)"/>
     <use xlink:href="#CMSS17-72" transform="translate(314.773199 0) scale(0.996264)"/>
     <use xlink:href="#CMSS17-54" transform="translate(377.912084 0) scale(0.996264)"/>
     <use xlink:href="#CMSS17-72" transform="translate(433.924282 0) scale(0.996264)"/>
     <use xlink:href="#CMSS17-61" transform="translate(465.834055 0) scale(0.996264)"/>
     <use xlink:href="#CMSS17-6e" transform="translate(510.755976 0) scale(0.996264)"/>
     <use xlink:href="#CMSS17-73" transform="translate(558.960919 0) scale(0.996264)"/>
     <use xlink:href="#CMSS17-69" transform="translate(594.874461 0) scale(0.996264)"/>
     <use xlink:href="#CMSS17-73" transform="translate(617.055184 0) scale(0.996264)"/>
     <use xlink:href="#CMSS17-74" transform="translate(652.968726 0) scale(0.996264)"/>
     <use xlink:href="#CMSS17-6f" transform="translate(686.800292 0) scale(0.996264)"/>
     <use xlink:href="#CMSS17-72" transform="translate(731.041462 0) scale(0.996264)"/>
    </g>
   </g>
  </g>
 </g>
 <defs>
  <clipPath id="p372668396a">
   <rect x="79.880634" y="24.269588" width="673.788207" height="128.285756"/>
  </clipPath>
  <clipPath id="pe2b6b2af4c">
   <rect x="79.880634" y="196.529011" width="673.788207" height="128.285756"/>
  </clipPath>
  <clipPath id="p0064123d70">
   <rect x="79.880634" y="368.788434" width="673.788207" height="128.285756"/>
  </clipPath>
  <clipPath id="pa856bd7fca">
   <rect x="79.880634" y="541.047858" width="673.788207" height="128.285756"/>
  </clipPath>
  <clipPath id="p34138c9ffc">
   <rect x="79.880634" y="713.307281" width="673.788207" height="128.285756"/>
  </clipPath>
  <clipPath id="p9fa4246d08">
   <rect x="79.880634" y="885.566704" width="673.788207" height="128.285756"/>
  </clipPath>
 </defs>
</svg>
