<?xml version="1.0" encoding="utf-8" standalone="no"?>
<!DOCTYPE svg PUBLIC "-//W3C//DTD SVG 1.1//EN"
  "http://www.w3.org/Graphics/SVG/1.1/DTD/svg11.dtd">
<svg xmlns:xlink="http://www.w3.org/1999/xlink" width="765.479979pt" height="1127.916875pt" viewBox="0 0 765.479979 1127.916875" xmlns="http://www.w3.org/2000/svg" version="1.1">
 <metadata>
  <rdf:RDF xmlns:dc="http://purl.org/dc/elements/1.1/" xmlns:cc="http://creativecommons.org/ns#" xmlns:rdf="http://www.w3.org/1999/02/22-rdf-syntax-ns#">
   <cc:Work>
    <dc:type rdf:resource="http://purl.org/dc/dcmitype/StillImage"/>
    <dc:date>2025-08-22T16:08:40.095852</dc:date>
    <dc:format>image/svg+xml</dc:format>
    <dc:creator>
     <cc:Agent>
      <dc:title>Matplotlib v3.10.3, https://matplotlib.org/</dc:title>
     </cc:Agent>
    </dc:creator>
   </cc:Work>
  </rdf:RDF>
 </metadata>
 <defs>
  <style type="text/css">*{stroke-linejoin: round; stroke-linecap: butt}</style>
 </defs>
 <g id="figure_1">
  <g id="patch_1">
   <path d="M 0 1127.916875 
L 765.479979 1127.916875 
L 765.479979 0 
L 0 0 
z
" style="fill: #ffffff"/>
  </g>
  <g id="axes_1">
   <g id="patch_2">
    <path d="M 86.039297 151.822611 
L 751.405602 151.822611 
L 751.405602 24.6525 
L 86.039297 24.6525 
z
" style="fill: #ffffff"/>
   </g>
   <g id="matplotlib.axis_1">
    <g id="xtick_1">
     <g id="line2d_1">
      <path d="M 116.28322 151.822611 
L 116.28322 24.6525 
" clip-path="url(#pb20ac814c2)" style="fill: none; stroke-dasharray: 5.55,2.4; stroke-dashoffset: 0; stroke: #cccccc; stroke-opacity: 0.6; stroke-width: 1.5"/>
     </g>
    </g>
    <g id="xtick_2">
     <g id="line2d_2">
      <path d="M 176.771066 151.822611 
L 176.771066 24.6525 
" clip-path="url(#pb20ac814c2)" style="fill: none; stroke-dasharray: 5.55,2.4; stroke-dashoffset: 0; stroke: #cccccc; stroke-opacity: 0.6; stroke-width: 1.5"/>
     </g>
    </g>
    <g id="xtick_3">
     <g id="line2d_3">
      <path d="M 237.258912 151.822611 
L 237.258912 24.6525 
" clip-path="url(#pb20ac814c2)" style="fill: none; stroke-dasharray: 5.55,2.4; stroke-dashoffset: 0; stroke: #cccccc; stroke-opacity: 0.6; stroke-width: 1.5"/>
     </g>
    </g>
    <g id="xtick_4">
     <g id="line2d_4">
      <path d="M 297.746758 151.822611 
L 297.746758 24.6525 
" clip-path="url(#pb20ac814c2)" style="fill: none; stroke-dasharray: 5.55,2.4; stroke-dashoffset: 0; stroke: #cccccc; stroke-opacity: 0.6; stroke-width: 1.5"/>
     </g>
    </g>
    <g id="xtick_5">
     <g id="line2d_5">
      <path d="M 358.234604 151.822611 
L 358.234604 24.6525 
" clip-path="url(#pb20ac814c2)" style="fill: none; stroke-dasharray: 5.55,2.4; stroke-dashoffset: 0; stroke: #cccccc; stroke-opacity: 0.6; stroke-width: 1.5"/>
     </g>
    </g>
    <g id="xtick_6">
     <g id="line2d_6">
      <path d="M 418.722449 151.822611 
L 418.722449 24.6525 
" clip-path="url(#pb20ac814c2)" style="fill: none; stroke-dasharray: 5.55,2.4; stroke-dashoffset: 0; stroke: #cccccc; stroke-opacity: 0.6; stroke-width: 1.5"/>
     </g>
    </g>
    <g id="xtick_7">
     <g id="line2d_7">
      <path d="M 479.210295 151.822611 
L 479.210295 24.6525 
" clip-path="url(#pb20ac814c2)" style="fill: none; stroke-dasharray: 5.55,2.4; stroke-dashoffset: 0; stroke: #cccccc; stroke-opacity: 0.6; stroke-width: 1.5"/>
     </g>
    </g>
    <g id="xtick_8">
     <g id="line2d_8">
      <path d="M 539.698141 151.822611 
L 539.698141 24.6525 
" clip-path="url(#pb20ac814c2)" style="fill: none; stroke-dasharray: 5.55,2.4; stroke-dashoffset: 0; stroke: #cccccc; stroke-opacity: 0.6; stroke-width: 1.5"/>
     </g>
    </g>
    <g id="xtick_9">
     <g id="line2d_9">
      <path d="M 600.185987 151.822611 
L 600.185987 24.6525 
" clip-path="url(#pb20ac814c2)" style="fill: none; stroke-dasharray: 5.55,2.4; stroke-dashoffset: 0; stroke: #cccccc; stroke-opacity: 0.6; stroke-width: 1.5"/>
     </g>
    </g>
    <g id="xtick_10">
     <g id="line2d_10">
      <path d="M 660.673833 151.822611 
L 660.673833 24.6525 
" clip-path="url(#pb20ac814c2)" style="fill: none; stroke-dasharray: 5.55,2.4; stroke-dashoffset: 0; stroke: #cccccc; stroke-opacity: 0.6; stroke-width: 1.5"/>
     </g>
    </g>
    <g id="xtick_11">
     <g id="line2d_11">
      <path d="M 721.161679 151.822611 
L 721.161679 24.6525 
" clip-path="url(#pb20ac814c2)" style="fill: none; stroke-dasharray: 5.55,2.4; stroke-dashoffset: 0; stroke: #cccccc; stroke-opacity: 0.6; stroke-width: 1.5"/>
     </g>
    </g>
   </g>
   <g id="matplotlib.axis_2">
    <g id="ytick_1">
     <g id="line2d_12">
      <path d="M 86.039297 151.822611 
L 751.405602 151.822611 
" clip-path="url(#pb20ac814c2)" style="fill: none; stroke-dasharray: 5.55,2.4; stroke-dashoffset: 0; stroke: #cccccc; stroke-opacity: 0.6; stroke-width: 1.5"/>
     </g>
     <g id="text_1">
      <!-- 0.0 -->
      <g style="fill: #262626" transform="translate(50.604297 157.727807) scale(0.165 -0.165)">
       <defs>
        <path id="ArialMT-30" d="M 266 2259 
Q 266 3072 433 3567 
Q 600 4063 929 4331 
Q 1259 4600 1759 4600 
Q 2128 4600 2406 4451 
Q 2684 4303 2865 4023 
Q 3047 3744 3150 3342 
Q 3253 2941 3253 2259 
Q 3253 1453 3087 958 
Q 2922 463 2592 192 
Q 2263 -78 1759 -78 
Q 1097 -78 719 397 
Q 266 969 266 2259 
z
M 844 2259 
Q 844 1131 1108 757 
Q 1372 384 1759 384 
Q 2147 384 2411 759 
Q 2675 1134 2675 2259 
Q 2675 3391 2411 3762 
Q 2147 4134 1753 4134 
Q 1366 4134 1134 3806 
Q 844 3388 844 2259 
z
" transform="scale(0.015625)"/>
        <path id="ArialMT-2e" d="M 581 0 
L 581 641 
L 1222 641 
L 1222 0 
L 581 0 
z
" transform="scale(0.015625)"/>
       </defs>
       <use xlink:href="#ArialMT-30"/>
       <use xlink:href="#ArialMT-2e" transform="translate(55.615234 0)"/>
       <use xlink:href="#ArialMT-30" transform="translate(83.398438 0)"/>
      </g>
     </g>
    </g>
    <g id="ytick_2">
     <g id="line2d_13">
      <path d="M 86.039297 93.404627 
L 751.405602 93.404627 
" clip-path="url(#pb20ac814c2)" style="fill: none; stroke-dasharray: 5.55,2.4; stroke-dashoffset: 0; stroke: #cccccc; stroke-opacity: 0.6; stroke-width: 1.5"/>
     </g>
     <g id="text_2">
      <!-- 0.5 -->
      <g style="fill: #262626" transform="translate(50.604297 99.309822) scale(0.165 -0.165)">
       <defs>
        <path id="ArialMT-35" d="M 266 1200 
L 856 1250 
Q 922 819 1161 601 
Q 1400 384 1738 384 
Q 2144 384 2425 690 
Q 2706 997 2706 1503 
Q 2706 1984 2436 2262 
Q 2166 2541 1728 2541 
Q 1456 2541 1237 2417 
Q 1019 2294 894 2097 
L 366 2166 
L 809 4519 
L 3088 4519 
L 3088 3981 
L 1259 3981 
L 1013 2750 
Q 1425 3038 1878 3038 
Q 2478 3038 2890 2622 
Q 3303 2206 3303 1553 
Q 3303 931 2941 478 
Q 2500 -78 1738 -78 
Q 1113 -78 717 272 
Q 322 622 266 1200 
z
" transform="scale(0.015625)"/>
       </defs>
       <use xlink:href="#ArialMT-30"/>
       <use xlink:href="#ArialMT-2e" transform="translate(55.615234 0)"/>
       <use xlink:href="#ArialMT-35" transform="translate(83.398438 0)"/>
      </g>
     </g>
    </g>
    <g id="ytick_3">
     <g id="line2d_14">
      <path d="M 86.039297 34.986642 
L 751.405602 34.986642 
" clip-path="url(#pb20ac814c2)" style="fill: none; stroke-dasharray: 5.55,2.4; stroke-dashoffset: 0; stroke: #cccccc; stroke-opacity: 0.6; stroke-width: 1.5"/>
     </g>
     <g id="text_3">
      <!-- 1.0 -->
      <g style="fill: #262626" transform="translate(50.604297 40.891837) scale(0.165 -0.165)">
       <defs>
        <path id="ArialMT-31" d="M 2384 0 
L 1822 0 
L 1822 3584 
Q 1619 3391 1289 3197 
Q 959 3003 697 2906 
L 697 3450 
Q 1169 3672 1522 3987 
Q 1875 4303 2022 4600 
L 2384 4600 
L 2384 0 
z
" transform="scale(0.015625)"/>
       </defs>
       <use xlink:href="#ArialMT-31"/>
       <use xlink:href="#ArialMT-2e" transform="translate(55.615234 0)"/>
       <use xlink:href="#ArialMT-30" transform="translate(83.398438 0)"/>
      </g>
     </g>
    </g>
    <g id="text_4">
     <!-- Transistors -->
     <g style="fill: #262626" transform="translate(43.026797 132.405056) rotate(-90) scale(0.18 -0.18)">
      <defs>
       <path id="ArialMT-54" d="M 1659 0 
L 1659 4041 
L 150 4041 
L 150 4581 
L 3781 4581 
L 3781 4041 
L 2266 4041 
L 2266 0 
L 1659 0 
z
" transform="scale(0.015625)"/>
       <path id="ArialMT-72" d="M 416 0 
L 416 3319 
L 922 3319 
L 922 2816 
Q 1116 3169 1280 3281 
Q 1444 3394 1641 3394 
Q 1925 3394 2219 3213 
L 2025 2691 
Q 1819 2813 1613 2813 
Q 1428 2813 1281 2702 
Q 1134 2591 1072 2394 
Q 978 2094 978 1738 
L 978 0 
L 416 0 
z
" transform="scale(0.015625)"/>
       <path id="ArialMT-61" d="M 2588 409 
Q 2275 144 1986 34 
Q 1697 -75 1366 -75 
Q 819 -75 525 192 
Q 231 459 231 875 
Q 231 1119 342 1320 
Q 453 1522 633 1644 
Q 813 1766 1038 1828 
Q 1203 1872 1538 1913 
Q 2219 1994 2541 2106 
Q 2544 2222 2544 2253 
Q 2544 2597 2384 2738 
Q 2169 2928 1744 2928 
Q 1347 2928 1158 2789 
Q 969 2650 878 2297 
L 328 2372 
Q 403 2725 575 2942 
Q 747 3159 1072 3276 
Q 1397 3394 1825 3394 
Q 2250 3394 2515 3294 
Q 2781 3194 2906 3042 
Q 3031 2891 3081 2659 
Q 3109 2516 3109 2141 
L 3109 1391 
Q 3109 606 3145 398 
Q 3181 191 3288 0 
L 2700 0 
Q 2613 175 2588 409 
z
M 2541 1666 
Q 2234 1541 1622 1453 
Q 1275 1403 1131 1340 
Q 988 1278 909 1158 
Q 831 1038 831 891 
Q 831 666 1001 516 
Q 1172 366 1500 366 
Q 1825 366 2078 508 
Q 2331 650 2450 897 
Q 2541 1088 2541 1459 
L 2541 1666 
z
" transform="scale(0.015625)"/>
       <path id="ArialMT-6e" d="M 422 0 
L 422 3319 
L 928 3319 
L 928 2847 
Q 1294 3394 1984 3394 
Q 2284 3394 2536 3286 
Q 2788 3178 2913 3003 
Q 3038 2828 3088 2588 
Q 3119 2431 3119 2041 
L 3119 0 
L 2556 0 
L 2556 2019 
Q 2556 2363 2490 2533 
Q 2425 2703 2258 2804 
Q 2091 2906 1866 2906 
Q 1506 2906 1245 2678 
Q 984 2450 984 1813 
L 984 0 
L 422 0 
z
" transform="scale(0.015625)"/>
       <path id="ArialMT-73" d="M 197 991 
L 753 1078 
Q 800 744 1014 566 
Q 1228 388 1613 388 
Q 2000 388 2187 545 
Q 2375 703 2375 916 
Q 2375 1106 2209 1216 
Q 2094 1291 1634 1406 
Q 1016 1563 777 1677 
Q 538 1791 414 1992 
Q 291 2194 291 2438 
Q 291 2659 392 2848 
Q 494 3038 669 3163 
Q 800 3259 1026 3326 
Q 1253 3394 1513 3394 
Q 1903 3394 2198 3281 
Q 2494 3169 2634 2976 
Q 2775 2784 2828 2463 
L 2278 2388 
Q 2241 2644 2061 2787 
Q 1881 2931 1553 2931 
Q 1166 2931 1000 2803 
Q 834 2675 834 2503 
Q 834 2394 903 2306 
Q 972 2216 1119 2156 
Q 1203 2125 1616 2013 
Q 2213 1853 2448 1751 
Q 2684 1650 2818 1456 
Q 2953 1263 2953 975 
Q 2953 694 2789 445 
Q 2625 197 2315 61 
Q 2006 -75 1616 -75 
Q 969 -75 630 194 
Q 291 463 197 991 
z
" transform="scale(0.015625)"/>
       <path id="ArialMT-69" d="M 425 3934 
L 425 4581 
L 988 4581 
L 988 3934 
L 425 3934 
z
M 425 0 
L 425 3319 
L 988 3319 
L 988 0 
L 425 0 
z
" transform="scale(0.015625)"/>
       <path id="ArialMT-74" d="M 1650 503 
L 1731 6 
Q 1494 -44 1306 -44 
Q 1000 -44 831 53 
Q 663 150 594 308 
Q 525 466 525 972 
L 525 2881 
L 113 2881 
L 113 3319 
L 525 3319 
L 525 4141 
L 1084 4478 
L 1084 3319 
L 1650 3319 
L 1650 2881 
L 1084 2881 
L 1084 941 
Q 1084 700 1114 631 
Q 1144 563 1211 522 
Q 1278 481 1403 481 
Q 1497 481 1650 503 
z
" transform="scale(0.015625)"/>
       <path id="ArialMT-6f" d="M 213 1659 
Q 213 2581 725 3025 
Q 1153 3394 1769 3394 
Q 2453 3394 2887 2945 
Q 3322 2497 3322 1706 
Q 3322 1066 3130 698 
Q 2938 331 2570 128 
Q 2203 -75 1769 -75 
Q 1072 -75 642 372 
Q 213 819 213 1659 
z
M 791 1659 
Q 791 1022 1069 705 
Q 1347 388 1769 388 
Q 2188 388 2466 706 
Q 2744 1025 2744 1678 
Q 2744 2294 2464 2611 
Q 2184 2928 1769 2928 
Q 1347 2928 1069 2612 
Q 791 2297 791 1659 
z
" transform="scale(0.015625)"/>
      </defs>
      <use xlink:href="#ArialMT-54"/>
      <use xlink:href="#ArialMT-72" transform="translate(57.333984 0)"/>
      <use xlink:href="#ArialMT-61" transform="translate(90.634766 0)"/>
      <use xlink:href="#ArialMT-6e" transform="translate(146.25 0)"/>
      <use xlink:href="#ArialMT-73" transform="translate(201.865234 0)"/>
      <use xlink:href="#ArialMT-69" transform="translate(251.865234 0)"/>
      <use xlink:href="#ArialMT-73" transform="translate(274.082031 0)"/>
      <use xlink:href="#ArialMT-74" transform="translate(324.082031 0)"/>
      <use xlink:href="#ArialMT-6f" transform="translate(351.865234 0)"/>
      <use xlink:href="#ArialMT-72" transform="translate(407.480469 0)"/>
      <use xlink:href="#ArialMT-73" transform="translate(440.78125 0)"/>
     </g>
    </g>
    <g id="text_5">
     <!-- 1e11 -->
     <g style="fill: #262626" transform="translate(86.039297 21.6525) scale(0.165 -0.165)">
      <defs>
       <path id="ArialMT-65" d="M 2694 1069 
L 3275 997 
Q 3138 488 2766 206 
Q 2394 -75 1816 -75 
Q 1088 -75 661 373 
Q 234 822 234 1631 
Q 234 2469 665 2931 
Q 1097 3394 1784 3394 
Q 2450 3394 2872 2941 
Q 3294 2488 3294 1666 
Q 3294 1616 3291 1516 
L 816 1516 
Q 847 969 1125 678 
Q 1403 388 1819 388 
Q 2128 388 2347 550 
Q 2566 713 2694 1069 
z
M 847 1978 
L 2700 1978 
Q 2663 2397 2488 2606 
Q 2219 2931 1791 2931 
Q 1403 2931 1139 2672 
Q 875 2413 847 1978 
z
" transform="scale(0.015625)"/>
      </defs>
      <use xlink:href="#ArialMT-31"/>
      <use xlink:href="#ArialMT-65" transform="translate(55.615234 0)"/>
      <use xlink:href="#ArialMT-31" transform="translate(111.230469 0)"/>
      <use xlink:href="#ArialMT-31" transform="translate(159.470703 0)"/>
     </g>
    </g>
   </g>
   <g id="FillBetweenPolyCollection_1"/>
   <g id="line2d_15">
    <path d="M 116.28322 143.527258 
L 176.771066 133.946708 
L 237.258912 127.170222 
L 297.746758 130.091121 
L 358.234604 135.93292 
L 418.722449 88.497516 
L 479.210295 118.758032 
L 539.698141 88.497516 
L 600.185987 62.676766 
L 660.673833 58.353836 
L 721.161679 30.313203 
" clip-path="url(#pb20ac814c2)" style="fill: none; stroke: #4c72b0; stroke-width: 2; stroke-linecap: round"/>
    <defs>
     <path id="m6cb56e31e4" d="M 0 4.5 
C 1.193414 4.5 2.338109 4.025852 3.181981 3.181981 
C 4.025852 2.338109 4.5 1.193414 4.5 0 
C 4.5 -1.193414 4.025852 -2.338109 3.181981 -3.181981 
C 2.338109 -4.025852 1.193414 -4.5 0 -4.5 
C -1.193414 -4.5 -2.338109 -4.025852 -3.181981 -3.181981 
C -4.025852 -2.338109 -4.5 -1.193414 -4.5 0 
C -4.5 1.193414 -4.025852 2.338109 -3.181981 3.181981 
C -2.338109 4.025852 -1.193414 4.5 0 4.5 
z
" style="stroke: #ffffff; stroke-width: 0.75"/>
    </defs>
    <g clip-path="url(#pb20ac814c2)">
     <use xlink:href="#m6cb56e31e4" x="116.28322" y="143.527258" style="fill: #4c72b0; stroke: #ffffff; stroke-width: 0.75"/>
     <use xlink:href="#m6cb56e31e4" x="176.771066" y="133.946708" style="fill: #4c72b0; stroke: #ffffff; stroke-width: 0.75"/>
     <use xlink:href="#m6cb56e31e4" x="237.258912" y="127.170222" style="fill: #4c72b0; stroke: #ffffff; stroke-width: 0.75"/>
     <use xlink:href="#m6cb56e31e4" x="297.746758" y="130.091121" style="fill: #4c72b0; stroke: #ffffff; stroke-width: 0.75"/>
     <use xlink:href="#m6cb56e31e4" x="358.234604" y="135.93292" style="fill: #4c72b0; stroke: #ffffff; stroke-width: 0.75"/>
     <use xlink:href="#m6cb56e31e4" x="418.722449" y="88.497516" style="fill: #4c72b0; stroke: #ffffff; stroke-width: 0.75"/>
     <use xlink:href="#m6cb56e31e4" x="479.210295" y="118.758032" style="fill: #4c72b0; stroke: #ffffff; stroke-width: 0.75"/>
     <use xlink:href="#m6cb56e31e4" x="539.698141" y="88.497516" style="fill: #4c72b0; stroke: #ffffff; stroke-width: 0.75"/>
     <use xlink:href="#m6cb56e31e4" x="600.185987" y="62.676766" style="fill: #4c72b0; stroke: #ffffff; stroke-width: 0.75"/>
     <use xlink:href="#m6cb56e31e4" x="660.673833" y="58.353836" style="fill: #4c72b0; stroke: #ffffff; stroke-width: 0.75"/>
     <use xlink:href="#m6cb56e31e4" x="721.161679" y="30.313203" style="fill: #4c72b0; stroke: #ffffff; stroke-width: 0.75"/>
    </g>
   </g>
   <g id="patch_3">
    <path d="M 86.039297 151.822611 
L 86.039297 24.6525 
" style="fill: none; stroke: #cccccc; stroke-width: 1.875; stroke-linejoin: miter; stroke-linecap: square"/>
   </g>
   <g id="patch_4">
    <path d="M 751.405602 151.822611 
L 751.405602 24.6525 
" style="fill: none; stroke: #cccccc; stroke-width: 1.875; stroke-linejoin: miter; stroke-linecap: square"/>
   </g>
   <g id="patch_5">
    <path d="M 86.039297 151.822611 
L 751.405602 151.822611 
" style="fill: none; stroke: #cccccc; stroke-width: 1.875; stroke-linejoin: miter; stroke-linecap: square"/>
   </g>
   <g id="patch_6">
    <path d="M 86.039297 24.6525 
L 751.405602 24.6525 
" style="fill: none; stroke: #cccccc; stroke-width: 1.875; stroke-linejoin: miter; stroke-linecap: square"/>
   </g>
   <g id="text_6">
    <!-- Transistor Count -->
    <g style="fill: #262626" transform="translate(354.721199 18.6525) scale(0.16 -0.16)">
     <defs>
      <path id="Arial-BoldMT-54" d="M 1497 0 
L 1497 3806 
L 138 3806 
L 138 4581 
L 3778 4581 
L 3778 3806 
L 2422 3806 
L 2422 0 
L 1497 0 
z
" transform="scale(0.015625)"/>
      <path id="Arial-BoldMT-72" d="M 1300 0 
L 422 0 
L 422 3319 
L 1238 3319 
L 1238 2847 
Q 1447 3181 1614 3287 
Q 1781 3394 1994 3394 
Q 2294 3394 2572 3228 
L 2300 2463 
Q 2078 2606 1888 2606 
Q 1703 2606 1575 2504 
Q 1447 2403 1373 2137 
Q 1300 1872 1300 1025 
L 1300 0 
z
" transform="scale(0.015625)"/>
      <path id="Arial-BoldMT-61" d="M 1116 2306 
L 319 2450 
Q 453 2931 781 3162 
Q 1109 3394 1756 3394 
Q 2344 3394 2631 3255 
Q 2919 3116 3036 2902 
Q 3153 2688 3153 2116 
L 3144 1091 
Q 3144 653 3186 445 
Q 3228 238 3344 0 
L 2475 0 
Q 2441 88 2391 259 
Q 2369 338 2359 363 
Q 2134 144 1878 34 
Q 1622 -75 1331 -75 
Q 819 -75 523 203 
Q 228 481 228 906 
Q 228 1188 362 1408 
Q 497 1628 739 1745 
Q 981 1863 1438 1950 
Q 2053 2066 2291 2166 
L 2291 2253 
Q 2291 2506 2166 2614 
Q 2041 2722 1694 2722 
Q 1459 2722 1328 2630 
Q 1197 2538 1116 2306 
z
M 2291 1594 
Q 2122 1538 1756 1459 
Q 1391 1381 1278 1306 
Q 1106 1184 1106 997 
Q 1106 813 1243 678 
Q 1381 544 1594 544 
Q 1831 544 2047 700 
Q 2206 819 2256 991 
Q 2291 1103 2291 1419 
L 2291 1594 
z
" transform="scale(0.015625)"/>
      <path id="Arial-BoldMT-6e" d="M 3478 0 
L 2600 0 
L 2600 1694 
Q 2600 2231 2544 2389 
Q 2488 2547 2361 2634 
Q 2234 2722 2056 2722 
Q 1828 2722 1647 2597 
Q 1466 2472 1398 2265 
Q 1331 2059 1331 1503 
L 1331 0 
L 453 0 
L 453 3319 
L 1269 3319 
L 1269 2831 
Q 1703 3394 2363 3394 
Q 2653 3394 2893 3289 
Q 3134 3184 3257 3021 
Q 3381 2859 3429 2653 
Q 3478 2447 3478 2063 
L 3478 0 
z
" transform="scale(0.015625)"/>
      <path id="Arial-BoldMT-73" d="M 150 947 
L 1031 1081 
Q 1088 825 1259 692 
Q 1431 559 1741 559 
Q 2081 559 2253 684 
Q 2369 772 2369 919 
Q 2369 1019 2306 1084 
Q 2241 1147 2013 1200 
Q 950 1434 666 1628 
Q 272 1897 272 2375 
Q 272 2806 612 3100 
Q 953 3394 1669 3394 
Q 2350 3394 2681 3172 
Q 3013 2950 3138 2516 
L 2309 2363 
Q 2256 2556 2107 2659 
Q 1959 2763 1684 2763 
Q 1338 2763 1188 2666 
Q 1088 2597 1088 2488 
Q 1088 2394 1175 2328 
Q 1294 2241 1995 2081 
Q 2697 1922 2975 1691 
Q 3250 1456 3250 1038 
Q 3250 581 2869 253 
Q 2488 -75 1741 -75 
Q 1063 -75 667 200 
Q 272 475 150 947 
z
" transform="scale(0.015625)"/>
      <path id="Arial-BoldMT-69" d="M 459 3769 
L 459 4581 
L 1338 4581 
L 1338 3769 
L 459 3769 
z
M 459 0 
L 459 3319 
L 1338 3319 
L 1338 0 
L 459 0 
z
" transform="scale(0.015625)"/>
      <path id="Arial-BoldMT-74" d="M 1981 3319 
L 1981 2619 
L 1381 2619 
L 1381 1281 
Q 1381 875 1398 808 
Q 1416 741 1477 697 
Q 1538 653 1625 653 
Q 1747 653 1978 738 
L 2053 56 
Q 1747 -75 1359 -75 
Q 1122 -75 931 4 
Q 741 84 652 211 
Q 563 338 528 553 
Q 500 706 500 1172 
L 500 2619 
L 97 2619 
L 97 3319 
L 500 3319 
L 500 3978 
L 1381 4491 
L 1381 3319 
L 1981 3319 
z
" transform="scale(0.015625)"/>
      <path id="Arial-BoldMT-6f" d="M 256 1706 
Q 256 2144 472 2553 
Q 688 2963 1083 3178 
Q 1478 3394 1966 3394 
Q 2719 3394 3200 2905 
Q 3681 2416 3681 1669 
Q 3681 916 3195 420 
Q 2709 -75 1972 -75 
Q 1516 -75 1102 131 
Q 688 338 472 736 
Q 256 1134 256 1706 
z
M 1156 1659 
Q 1156 1166 1390 903 
Q 1625 641 1969 641 
Q 2313 641 2545 903 
Q 2778 1166 2778 1666 
Q 2778 2153 2545 2415 
Q 2313 2678 1969 2678 
Q 1625 2678 1390 2415 
Q 1156 2153 1156 1659 
z
" transform="scale(0.015625)"/>
      <path id="Arial-BoldMT-20" transform="scale(0.015625)"/>
      <path id="Arial-BoldMT-43" d="M 3397 1684 
L 4294 1400 
Q 4088 650 3608 286 
Q 3128 -78 2391 -78 
Q 1478 -78 890 545 
Q 303 1169 303 2250 
Q 303 3394 893 4026 
Q 1484 4659 2447 4659 
Q 3288 4659 3813 4163 
Q 4125 3869 4281 3319 
L 3366 3100 
Q 3284 3456 3026 3662 
Q 2769 3869 2400 3869 
Q 1891 3869 1573 3503 
Q 1256 3138 1256 2319 
Q 1256 1450 1568 1081 
Q 1881 713 2381 713 
Q 2750 713 3015 947 
Q 3281 1181 3397 1684 
z
" transform="scale(0.015625)"/>
      <path id="Arial-BoldMT-75" d="M 2644 0 
L 2644 497 
Q 2463 231 2167 78 
Q 1872 -75 1544 -75 
Q 1209 -75 943 72 
Q 678 219 559 484 
Q 441 750 441 1219 
L 441 3319 
L 1319 3319 
L 1319 1794 
Q 1319 1094 1367 936 
Q 1416 778 1544 686 
Q 1672 594 1869 594 
Q 2094 594 2272 717 
Q 2450 841 2515 1023 
Q 2581 1206 2581 1919 
L 2581 3319 
L 3459 3319 
L 3459 0 
L 2644 0 
z
" transform="scale(0.015625)"/>
     </defs>
     <use xlink:href="#Arial-BoldMT-54"/>
     <use xlink:href="#Arial-BoldMT-72" transform="translate(55.583984 0)"/>
     <use xlink:href="#Arial-BoldMT-61" transform="translate(94.5 0)"/>
     <use xlink:href="#Arial-BoldMT-6e" transform="translate(150.115234 0)"/>
     <use xlink:href="#Arial-BoldMT-73" transform="translate(211.199219 0)"/>
     <use xlink:href="#Arial-BoldMT-69" transform="translate(266.814453 0)"/>
     <use xlink:href="#Arial-BoldMT-73" transform="translate(294.597656 0)"/>
     <use xlink:href="#Arial-BoldMT-74" transform="translate(350.212891 0)"/>
     <use xlink:href="#Arial-BoldMT-6f" transform="translate(383.513672 0)"/>
     <use xlink:href="#Arial-BoldMT-72" transform="translate(444.597656 0)"/>
     <use xlink:href="#Arial-BoldMT-20" transform="translate(483.513672 0)"/>
     <use xlink:href="#Arial-BoldMT-43" transform="translate(511.296875 0)"/>
     <use xlink:href="#Arial-BoldMT-6f" transform="translate(583.513672 0)"/>
     <use xlink:href="#Arial-BoldMT-75" transform="translate(644.597656 0)"/>
     <use xlink:href="#Arial-BoldMT-6e" transform="translate(705.681641 0)"/>
     <use xlink:href="#Arial-BoldMT-74" transform="translate(766.765625 0)"/>
    </g>
   </g>
  </g>
  <g id="axes_2">
   <g id="patch_7">
    <path d="M 86.039297 323.253973 
L 751.405602 323.253973 
L 751.405602 196.083861 
L 86.039297 196.083861 
z
" style="fill: #ffffff"/>
   </g>
   <g id="matplotlib.axis_3">
    <g id="xtick_12">
     <g id="line2d_16">
      <path d="M 116.28322 323.253973 
L 116.28322 196.083861 
" clip-path="url(#pb2be769004)" style="fill: none; stroke-dasharray: 5.55,2.4; stroke-dashoffset: 0; stroke: #cccccc; stroke-opacity: 0.6; stroke-width: 1.5"/>
     </g>
    </g>
    <g id="xtick_13">
     <g id="line2d_17">
      <path d="M 176.771066 323.253973 
L 176.771066 196.083861 
" clip-path="url(#pb2be769004)" style="fill: none; stroke-dasharray: 5.55,2.4; stroke-dashoffset: 0; stroke: #cccccc; stroke-opacity: 0.6; stroke-width: 1.5"/>
     </g>
    </g>
    <g id="xtick_14">
     <g id="line2d_18">
      <path d="M 237.258912 323.253973 
L 237.258912 196.083861 
" clip-path="url(#pb2be769004)" style="fill: none; stroke-dasharray: 5.55,2.4; stroke-dashoffset: 0; stroke: #cccccc; stroke-opacity: 0.6; stroke-width: 1.5"/>
     </g>
    </g>
    <g id="xtick_15">
     <g id="line2d_19">
      <path d="M 297.746758 323.253973 
L 297.746758 196.083861 
" clip-path="url(#pb2be769004)" style="fill: none; stroke-dasharray: 5.55,2.4; stroke-dashoffset: 0; stroke: #cccccc; stroke-opacity: 0.6; stroke-width: 1.5"/>
     </g>
    </g>
    <g id="xtick_16">
     <g id="line2d_20">
      <path d="M 358.234604 323.253973 
L 358.234604 196.083861 
" clip-path="url(#pb2be769004)" style="fill: none; stroke-dasharray: 5.55,2.4; stroke-dashoffset: 0; stroke: #cccccc; stroke-opacity: 0.6; stroke-width: 1.5"/>
     </g>
    </g>
    <g id="xtick_17">
     <g id="line2d_21">
      <path d="M 418.722449 323.253973 
L 418.722449 196.083861 
" clip-path="url(#pb2be769004)" style="fill: none; stroke-dasharray: 5.55,2.4; stroke-dashoffset: 0; stroke: #cccccc; stroke-opacity: 0.6; stroke-width: 1.5"/>
     </g>
    </g>
    <g id="xtick_18">
     <g id="line2d_22">
      <path d="M 479.210295 323.253973 
L 479.210295 196.083861 
" clip-path="url(#pb2be769004)" style="fill: none; stroke-dasharray: 5.55,2.4; stroke-dashoffset: 0; stroke: #cccccc; stroke-opacity: 0.6; stroke-width: 1.5"/>
     </g>
    </g>
    <g id="xtick_19">
     <g id="line2d_23">
      <path d="M 539.698141 323.253973 
L 539.698141 196.083861 
" clip-path="url(#pb2be769004)" style="fill: none; stroke-dasharray: 5.55,2.4; stroke-dashoffset: 0; stroke: #cccccc; stroke-opacity: 0.6; stroke-width: 1.5"/>
     </g>
    </g>
    <g id="xtick_20">
     <g id="line2d_24">
      <path d="M 600.185987 323.253973 
L 600.185987 196.083861 
" clip-path="url(#pb2be769004)" style="fill: none; stroke-dasharray: 5.55,2.4; stroke-dashoffset: 0; stroke: #cccccc; stroke-opacity: 0.6; stroke-width: 1.5"/>
     </g>
    </g>
    <g id="xtick_21">
     <g id="line2d_25">
      <path d="M 660.673833 323.253973 
L 660.673833 196.083861 
" clip-path="url(#pb2be769004)" style="fill: none; stroke-dasharray: 5.55,2.4; stroke-dashoffset: 0; stroke: #cccccc; stroke-opacity: 0.6; stroke-width: 1.5"/>
     </g>
    </g>
    <g id="xtick_22">
     <g id="line2d_26">
      <path d="M 721.161679 323.253973 
L 721.161679 196.083861 
" clip-path="url(#pb2be769004)" style="fill: none; stroke-dasharray: 5.55,2.4; stroke-dashoffset: 0; stroke: #cccccc; stroke-opacity: 0.6; stroke-width: 1.5"/>
     </g>
    </g>
   </g>
   <g id="matplotlib.axis_4">
    <g id="ytick_4">
     <g id="line2d_27">
      <path d="M 86.039297 323.253973 
L 751.405602 323.253973 
" clip-path="url(#pb2be769004)" style="fill: none; stroke-dasharray: 5.55,2.4; stroke-dashoffset: 0; stroke: #cccccc; stroke-opacity: 0.6; stroke-width: 1.5"/>
     </g>
     <g id="text_7">
      <!-- 0 -->
      <g style="fill: #262626" transform="translate(64.36375 329.159168) scale(0.165 -0.165)">
       <use xlink:href="#ArialMT-30"/>
      </g>
     </g>
    </g>
    <g id="ytick_5">
     <g id="line2d_28">
      <path d="M 86.039297 249.324309 
L 751.405602 249.324309 
" clip-path="url(#pb2be769004)" style="fill: none; stroke-dasharray: 5.55,2.4; stroke-dashoffset: 0; stroke: #cccccc; stroke-opacity: 0.6; stroke-width: 1.5"/>
     </g>
     <g id="text_8">
      <!-- 1000 -->
      <g style="fill: #262626" transform="translate(36.837109 255.229504) scale(0.165 -0.165)">
       <use xlink:href="#ArialMT-31"/>
       <use xlink:href="#ArialMT-30" transform="translate(55.615234 0)"/>
       <use xlink:href="#ArialMT-30" transform="translate(111.230469 0)"/>
       <use xlink:href="#ArialMT-30" transform="translate(166.845703 0)"/>
      </g>
     </g>
    </g>
    <g id="text_9">
     <!-- MHz -->
     <g style="fill: #262626" transform="translate(29.259609 278.165323) rotate(-90) scale(0.18 -0.18)">
      <defs>
       <path id="ArialMT-4d" d="M 475 0 
L 475 4581 
L 1388 4581 
L 2472 1338 
Q 2622 884 2691 659 
Q 2769 909 2934 1394 
L 4031 4581 
L 4847 4581 
L 4847 0 
L 4263 0 
L 4263 3834 
L 2931 0 
L 2384 0 
L 1059 3900 
L 1059 0 
L 475 0 
z
" transform="scale(0.015625)"/>
       <path id="ArialMT-48" d="M 513 0 
L 513 4581 
L 1119 4581 
L 1119 2700 
L 3500 2700 
L 3500 4581 
L 4106 4581 
L 4106 0 
L 3500 0 
L 3500 2159 
L 1119 2159 
L 1119 0 
L 513 0 
z
" transform="scale(0.015625)"/>
       <path id="ArialMT-7a" d="M 125 0 
L 125 456 
L 2238 2881 
Q 1878 2863 1603 2863 
L 250 2863 
L 250 3319 
L 2963 3319 
L 2963 2947 
L 1166 841 
L 819 456 
Q 1197 484 1528 484 
L 3063 484 
L 3063 0 
L 125 0 
z
" transform="scale(0.015625)"/>
      </defs>
      <use xlink:href="#ArialMT-4d"/>
      <use xlink:href="#ArialMT-48" transform="translate(83.300781 0)"/>
      <use xlink:href="#ArialMT-7a" transform="translate(155.517578 0)"/>
     </g>
    </g>
   </g>
   <g id="FillBetweenPolyCollection_2"/>
   <g id="line2d_29">
    <path d="M 116.28322 281.705502 
L 176.771066 235.277673 
L 237.258912 232.320486 
L 297.746758 223.448927 
L 358.234604 280.00512 
L 418.722449 266.69778 
L 479.210295 226.775761 
L 539.698141 254.499385 
L 600.185987 268.91567 
L 660.673833 242.300991 
L 721.161679 200.161082 
" clip-path="url(#pb2be769004)" style="fill: none; stroke: #4c72b0; stroke-width: 2; stroke-linecap: round"/>
    <g clip-path="url(#pb2be769004)">
     <use xlink:href="#m6cb56e31e4" x="116.28322" y="281.705502" style="fill: #4c72b0; stroke: #ffffff; stroke-width: 0.75"/>
     <use xlink:href="#m6cb56e31e4" x="176.771066" y="235.277673" style="fill: #4c72b0; stroke: #ffffff; stroke-width: 0.75"/>
     <use xlink:href="#m6cb56e31e4" x="237.258912" y="232.320486" style="fill: #4c72b0; stroke: #ffffff; stroke-width: 0.75"/>
     <use xlink:href="#m6cb56e31e4" x="297.746758" y="223.448927" style="fill: #4c72b0; stroke: #ffffff; stroke-width: 0.75"/>
     <use xlink:href="#m6cb56e31e4" x="358.234604" y="280.00512" style="fill: #4c72b0; stroke: #ffffff; stroke-width: 0.75"/>
     <use xlink:href="#m6cb56e31e4" x="418.722449" y="266.69778" style="fill: #4c72b0; stroke: #ffffff; stroke-width: 0.75"/>
     <use xlink:href="#m6cb56e31e4" x="479.210295" y="226.775761" style="fill: #4c72b0; stroke: #ffffff; stroke-width: 0.75"/>
     <use xlink:href="#m6cb56e31e4" x="539.698141" y="254.499385" style="fill: #4c72b0; stroke: #ffffff; stroke-width: 0.75"/>
     <use xlink:href="#m6cb56e31e4" x="600.185987" y="268.91567" style="fill: #4c72b0; stroke: #ffffff; stroke-width: 0.75"/>
     <use xlink:href="#m6cb56e31e4" x="660.673833" y="242.300991" style="fill: #4c72b0; stroke: #ffffff; stroke-width: 0.75"/>
     <use xlink:href="#m6cb56e31e4" x="721.161679" y="200.161082" style="fill: #4c72b0; stroke: #ffffff; stroke-width: 0.75"/>
    </g>
   </g>
   <g id="patch_8">
    <path d="M 86.039297 323.253973 
L 86.039297 196.083861 
" style="fill: none; stroke: #cccccc; stroke-width: 1.875; stroke-linejoin: miter; stroke-linecap: square"/>
   </g>
   <g id="patch_9">
    <path d="M 751.405602 323.253973 
L 751.405602 196.083861 
" style="fill: none; stroke: #cccccc; stroke-width: 1.875; stroke-linejoin: miter; stroke-linecap: square"/>
   </g>
   <g id="patch_10">
    <path d="M 86.039297 323.253973 
L 751.405602 323.253973 
" style="fill: none; stroke: #cccccc; stroke-width: 1.875; stroke-linejoin: miter; stroke-linecap: square"/>
   </g>
   <g id="patch_11">
    <path d="M 86.039297 196.083861 
L 751.405602 196.083861 
" style="fill: none; stroke: #cccccc; stroke-width: 1.875; stroke-linejoin: miter; stroke-linecap: square"/>
   </g>
   <g id="text_10">
    <!-- Base Clock -->
    <g style="fill: #262626" transform="translate(375.592449 190.083861) scale(0.16 -0.16)">
     <defs>
      <path id="Arial-BoldMT-42" d="M 469 4581 
L 2300 4581 
Q 2844 4581 3111 4536 
Q 3378 4491 3589 4347 
Q 3800 4203 3940 3964 
Q 4081 3725 4081 3428 
Q 4081 3106 3907 2837 
Q 3734 2569 3438 2434 
Q 3856 2313 4081 2019 
Q 4306 1725 4306 1328 
Q 4306 1016 4161 720 
Q 4016 425 3764 248 
Q 3513 72 3144 31 
Q 2913 6 2028 0 
L 469 0 
L 469 4581 
z
M 1394 3819 
L 1394 2759 
L 2000 2759 
Q 2541 2759 2672 2775 
Q 2909 2803 3045 2939 
Q 3181 3075 3181 3297 
Q 3181 3509 3064 3642 
Q 2947 3775 2716 3803 
Q 2578 3819 1925 3819 
L 1394 3819 
z
M 1394 1997 
L 1394 772 
L 2250 772 
Q 2750 772 2884 800 
Q 3091 838 3220 983 
Q 3350 1128 3350 1372 
Q 3350 1578 3250 1722 
Q 3150 1866 2961 1931 
Q 2772 1997 2141 1997 
L 1394 1997 
z
" transform="scale(0.015625)"/>
      <path id="Arial-BoldMT-65" d="M 2381 1056 
L 3256 909 
Q 3088 428 2723 176 
Q 2359 -75 1813 -75 
Q 947 -75 531 491 
Q 203 944 203 1634 
Q 203 2459 634 2926 
Q 1066 3394 1725 3394 
Q 2466 3394 2894 2905 
Q 3322 2416 3303 1406 
L 1103 1406 
Q 1113 1016 1316 798 
Q 1519 581 1822 581 
Q 2028 581 2168 693 
Q 2309 806 2381 1056 
z
M 2431 1944 
Q 2422 2325 2234 2523 
Q 2047 2722 1778 2722 
Q 1491 2722 1303 2513 
Q 1116 2303 1119 1944 
L 2431 1944 
z
" transform="scale(0.015625)"/>
      <path id="Arial-BoldMT-6c" d="M 459 0 
L 459 4581 
L 1338 4581 
L 1338 0 
L 459 0 
z
" transform="scale(0.015625)"/>
      <path id="Arial-BoldMT-63" d="M 3353 2338 
L 2488 2181 
Q 2444 2441 2289 2572 
Q 2134 2703 1888 2703 
Q 1559 2703 1364 2476 
Q 1169 2250 1169 1719 
Q 1169 1128 1367 884 
Q 1566 641 1900 641 
Q 2150 641 2309 783 
Q 2469 925 2534 1272 
L 3397 1125 
Q 3263 531 2881 228 
Q 2500 -75 1859 -75 
Q 1131 -75 698 384 
Q 266 844 266 1656 
Q 266 2478 700 2936 
Q 1134 3394 1875 3394 
Q 2481 3394 2839 3133 
Q 3197 2872 3353 2338 
z
" transform="scale(0.015625)"/>
      <path id="Arial-BoldMT-6b" d="M 428 0 
L 428 4581 
L 1306 4581 
L 1306 2150 
L 2334 3319 
L 3416 3319 
L 2281 2106 
L 3497 0 
L 2550 0 
L 1716 1491 
L 1306 1063 
L 1306 0 
L 428 0 
z
" transform="scale(0.015625)"/>
     </defs>
     <use xlink:href="#Arial-BoldMT-42"/>
     <use xlink:href="#Arial-BoldMT-61" transform="translate(72.216797 0)"/>
     <use xlink:href="#Arial-BoldMT-73" transform="translate(127.832031 0)"/>
     <use xlink:href="#Arial-BoldMT-65" transform="translate(183.447266 0)"/>
     <use xlink:href="#Arial-BoldMT-20" transform="translate(239.0625 0)"/>
     <use xlink:href="#Arial-BoldMT-43" transform="translate(266.845703 0)"/>
     <use xlink:href="#Arial-BoldMT-6c" transform="translate(339.0625 0)"/>
     <use xlink:href="#Arial-BoldMT-6f" transform="translate(366.845703 0)"/>
     <use xlink:href="#Arial-BoldMT-63" transform="translate(427.929688 0)"/>
     <use xlink:href="#Arial-BoldMT-6b" transform="translate(483.544922 0)"/>
    </g>
   </g>
  </g>
  <g id="axes_3">
   <g id="patch_12">
    <path d="M 86.039297 494.685334 
L 751.405602 494.685334 
L 751.405602 367.515223 
L 86.039297 367.515223 
z
" style="fill: #ffffff"/>
   </g>
   <g id="matplotlib.axis_5">
    <g id="xtick_23">
     <g id="line2d_30">
      <path d="M 116.28322 494.685334 
L 116.28322 367.515223 
" clip-path="url(#p15f4e30360)" style="fill: none; stroke-dasharray: 5.55,2.4; stroke-dashoffset: 0; stroke: #cccccc; stroke-opacity: 0.6; stroke-width: 1.5"/>
     </g>
    </g>
    <g id="xtick_24">
     <g id="line2d_31">
      <path d="M 176.771066 494.685334 
L 176.771066 367.515223 
" clip-path="url(#p15f4e30360)" style="fill: none; stroke-dasharray: 5.55,2.4; stroke-dashoffset: 0; stroke: #cccccc; stroke-opacity: 0.6; stroke-width: 1.5"/>
     </g>
    </g>
    <g id="xtick_25">
     <g id="line2d_32">
      <path d="M 237.258912 494.685334 
L 237.258912 367.515223 
" clip-path="url(#p15f4e30360)" style="fill: none; stroke-dasharray: 5.55,2.4; stroke-dashoffset: 0; stroke: #cccccc; stroke-opacity: 0.6; stroke-width: 1.5"/>
     </g>
    </g>
    <g id="xtick_26">
     <g id="line2d_33">
      <path d="M 297.746758 494.685334 
L 297.746758 367.515223 
" clip-path="url(#p15f4e30360)" style="fill: none; stroke-dasharray: 5.55,2.4; stroke-dashoffset: 0; stroke: #cccccc; stroke-opacity: 0.6; stroke-width: 1.5"/>
     </g>
    </g>
    <g id="xtick_27">
     <g id="line2d_34">
      <path d="M 358.234604 494.685334 
L 358.234604 367.515223 
" clip-path="url(#p15f4e30360)" style="fill: none; stroke-dasharray: 5.55,2.4; stroke-dashoffset: 0; stroke: #cccccc; stroke-opacity: 0.6; stroke-width: 1.5"/>
     </g>
    </g>
    <g id="xtick_28">
     <g id="line2d_35">
      <path d="M 418.722449 494.685334 
L 418.722449 367.515223 
" clip-path="url(#p15f4e30360)" style="fill: none; stroke-dasharray: 5.55,2.4; stroke-dashoffset: 0; stroke: #cccccc; stroke-opacity: 0.6; stroke-width: 1.5"/>
     </g>
    </g>
    <g id="xtick_29">
     <g id="line2d_36">
      <path d="M 479.210295 494.685334 
L 479.210295 367.515223 
" clip-path="url(#p15f4e30360)" style="fill: none; stroke-dasharray: 5.55,2.4; stroke-dashoffset: 0; stroke: #cccccc; stroke-opacity: 0.6; stroke-width: 1.5"/>
     </g>
    </g>
    <g id="xtick_30">
     <g id="line2d_37">
      <path d="M 539.698141 494.685334 
L 539.698141 367.515223 
" clip-path="url(#p15f4e30360)" style="fill: none; stroke-dasharray: 5.55,2.4; stroke-dashoffset: 0; stroke: #cccccc; stroke-opacity: 0.6; stroke-width: 1.5"/>
     </g>
    </g>
    <g id="xtick_31">
     <g id="line2d_38">
      <path d="M 600.185987 494.685334 
L 600.185987 367.515223 
" clip-path="url(#p15f4e30360)" style="fill: none; stroke-dasharray: 5.55,2.4; stroke-dashoffset: 0; stroke: #cccccc; stroke-opacity: 0.6; stroke-width: 1.5"/>
     </g>
    </g>
    <g id="xtick_32">
     <g id="line2d_39">
      <path d="M 660.673833 494.685334 
L 660.673833 367.515223 
" clip-path="url(#p15f4e30360)" style="fill: none; stroke-dasharray: 5.55,2.4; stroke-dashoffset: 0; stroke: #cccccc; stroke-opacity: 0.6; stroke-width: 1.5"/>
     </g>
    </g>
    <g id="xtick_33">
     <g id="line2d_40">
      <path d="M 721.161679 494.685334 
L 721.161679 367.515223 
" clip-path="url(#p15f4e30360)" style="fill: none; stroke-dasharray: 5.55,2.4; stroke-dashoffset: 0; stroke: #cccccc; stroke-opacity: 0.6; stroke-width: 1.5"/>
     </g>
    </g>
   </g>
   <g id="matplotlib.axis_6">
    <g id="ytick_6">
     <g id="line2d_41">
      <path d="M 86.039297 494.685334 
L 751.405602 494.685334 
" clip-path="url(#p15f4e30360)" style="fill: none; stroke-dasharray: 5.55,2.4; stroke-dashoffset: 0; stroke: #cccccc; stroke-opacity: 0.6; stroke-width: 1.5"/>
     </g>
     <g id="text_11">
      <!-- 0 -->
      <g style="fill: #262626" transform="translate(64.36375 500.59053) scale(0.165 -0.165)">
       <use xlink:href="#ArialMT-30"/>
      </g>
     </g>
    </g>
    <g id="ytick_7">
     <g id="line2d_42">
      <path d="M 86.039297 420.697604 
L 751.405602 420.697604 
" clip-path="url(#p15f4e30360)" style="fill: none; stroke-dasharray: 5.55,2.4; stroke-dashoffset: 0; stroke: #cccccc; stroke-opacity: 0.6; stroke-width: 1.5"/>
     </g>
     <g id="text_12">
      <!-- 5000 -->
      <g style="fill: #262626" transform="translate(36.837109 426.602799) scale(0.165 -0.165)">
       <use xlink:href="#ArialMT-35"/>
       <use xlink:href="#ArialMT-30" transform="translate(55.615234 0)"/>
       <use xlink:href="#ArialMT-30" transform="translate(111.230469 0)"/>
       <use xlink:href="#ArialMT-30" transform="translate(166.845703 0)"/>
      </g>
     </g>
    </g>
    <g id="text_13">
     <!-- GB/s -->
     <g style="fill: #262626" transform="translate(29.259609 451.104185) rotate(-90) scale(0.18 -0.18)">
      <defs>
       <path id="ArialMT-47" d="M 2638 1797 
L 2638 2334 
L 4578 2338 
L 4578 638 
Q 4131 281 3656 101 
Q 3181 -78 2681 -78 
Q 2006 -78 1454 211 
Q 903 500 622 1047 
Q 341 1594 341 2269 
Q 341 2938 620 3517 
Q 900 4097 1425 4378 
Q 1950 4659 2634 4659 
Q 3131 4659 3532 4498 
Q 3934 4338 4162 4050 
Q 4391 3763 4509 3300 
L 3963 3150 
Q 3859 3500 3706 3700 
Q 3553 3900 3268 4020 
Q 2984 4141 2638 4141 
Q 2222 4141 1919 4014 
Q 1616 3888 1430 3681 
Q 1244 3475 1141 3228 
Q 966 2803 966 2306 
Q 966 1694 1177 1281 
Q 1388 869 1791 669 
Q 2194 469 2647 469 
Q 3041 469 3416 620 
Q 3791 772 3984 944 
L 3984 1797 
L 2638 1797 
z
" transform="scale(0.015625)"/>
       <path id="ArialMT-42" d="M 469 0 
L 469 4581 
L 2188 4581 
Q 2713 4581 3030 4442 
Q 3347 4303 3526 4014 
Q 3706 3725 3706 3409 
Q 3706 3116 3547 2856 
Q 3388 2597 3066 2438 
Q 3481 2316 3704 2022 
Q 3928 1728 3928 1328 
Q 3928 1006 3792 729 
Q 3656 453 3456 303 
Q 3256 153 2954 76 
Q 2653 0 2216 0 
L 469 0 
z
M 1075 2656 
L 2066 2656 
Q 2469 2656 2644 2709 
Q 2875 2778 2992 2937 
Q 3109 3097 3109 3338 
Q 3109 3566 3000 3739 
Q 2891 3913 2687 3977 
Q 2484 4041 1991 4041 
L 1075 4041 
L 1075 2656 
z
M 1075 541 
L 2216 541 
Q 2509 541 2628 563 
Q 2838 600 2978 687 
Q 3119 775 3209 942 
Q 3300 1109 3300 1328 
Q 3300 1584 3169 1773 
Q 3038 1963 2805 2039 
Q 2572 2116 2134 2116 
L 1075 2116 
L 1075 541 
z
" transform="scale(0.015625)"/>
       <path id="ArialMT-2f" d="M 0 -78 
L 1328 4659 
L 1778 4659 
L 453 -78 
L 0 -78 
z
" transform="scale(0.015625)"/>
      </defs>
      <use xlink:href="#ArialMT-47"/>
      <use xlink:href="#ArialMT-42" transform="translate(77.783203 0)"/>
      <use xlink:href="#ArialMT-2f" transform="translate(144.482422 0)"/>
      <use xlink:href="#ArialMT-73" transform="translate(172.265625 0)"/>
     </g>
    </g>
   </g>
   <g id="FillBetweenPolyCollection_3"/>
   <g id="line2d_43">
    <path d="M 116.28322 487.564755 
L 176.771066 483.853531 
L 237.258912 481.411936 
L 297.746758 485.570046 
L 358.234604 489.95012 
L 418.722449 471.601162 
L 479.210295 484.389202 
L 539.698141 480.877744 
L 600.185987 481.900255 
L 660.673833 464.49834 
L 721.161679 373.345456 
" clip-path="url(#p15f4e30360)" style="fill: none; stroke: #4c72b0; stroke-width: 2; stroke-linecap: round"/>
    <g clip-path="url(#p15f4e30360)">
     <use xlink:href="#m6cb56e31e4" x="116.28322" y="487.564755" style="fill: #4c72b0; stroke: #ffffff; stroke-width: 0.75"/>
     <use xlink:href="#m6cb56e31e4" x="176.771066" y="483.853531" style="fill: #4c72b0; stroke: #ffffff; stroke-width: 0.75"/>
     <use xlink:href="#m6cb56e31e4" x="237.258912" y="481.411936" style="fill: #4c72b0; stroke: #ffffff; stroke-width: 0.75"/>
     <use xlink:href="#m6cb56e31e4" x="297.746758" y="485.570046" style="fill: #4c72b0; stroke: #ffffff; stroke-width: 0.75"/>
     <use xlink:href="#m6cb56e31e4" x="358.234604" y="489.95012" style="fill: #4c72b0; stroke: #ffffff; stroke-width: 0.75"/>
     <use xlink:href="#m6cb56e31e4" x="418.722449" y="471.601162" style="fill: #4c72b0; stroke: #ffffff; stroke-width: 0.75"/>
     <use xlink:href="#m6cb56e31e4" x="479.210295" y="484.389202" style="fill: #4c72b0; stroke: #ffffff; stroke-width: 0.75"/>
     <use xlink:href="#m6cb56e31e4" x="539.698141" y="480.877744" style="fill: #4c72b0; stroke: #ffffff; stroke-width: 0.75"/>
     <use xlink:href="#m6cb56e31e4" x="600.185987" y="481.900255" style="fill: #4c72b0; stroke: #ffffff; stroke-width: 0.75"/>
     <use xlink:href="#m6cb56e31e4" x="660.673833" y="464.49834" style="fill: #4c72b0; stroke: #ffffff; stroke-width: 0.75"/>
     <use xlink:href="#m6cb56e31e4" x="721.161679" y="373.345456" style="fill: #4c72b0; stroke: #ffffff; stroke-width: 0.75"/>
    </g>
   </g>
   <g id="patch_13">
    <path d="M 86.039297 494.685334 
L 86.039297 367.515223 
" style="fill: none; stroke: #cccccc; stroke-width: 1.875; stroke-linejoin: miter; stroke-linecap: square"/>
   </g>
   <g id="patch_14">
    <path d="M 751.405602 494.685334 
L 751.405602 367.515223 
" style="fill: none; stroke: #cccccc; stroke-width: 1.875; stroke-linejoin: miter; stroke-linecap: square"/>
   </g>
   <g id="patch_15">
    <path d="M 86.039297 494.685334 
L 751.405602 494.685334 
" style="fill: none; stroke: #cccccc; stroke-width: 1.875; stroke-linejoin: miter; stroke-linecap: square"/>
   </g>
   <g id="patch_16">
    <path d="M 86.039297 367.515223 
L 751.405602 367.515223 
" style="fill: none; stroke: #cccccc; stroke-width: 1.875; stroke-linejoin: miter; stroke-linecap: square"/>
   </g>
   <g id="text_14">
    <!-- Bandwidth -->
    <g style="fill: #262626" transform="translate(377.842449 361.515223) scale(0.16 -0.16)">
     <defs>
      <path id="Arial-BoldMT-64" d="M 3503 0 
L 2688 0 
L 2688 488 
Q 2484 203 2207 64 
Q 1931 -75 1650 -75 
Q 1078 -75 670 386 
Q 263 847 263 1672 
Q 263 2516 659 2955 
Q 1056 3394 1663 3394 
Q 2219 3394 2625 2931 
L 2625 4581 
L 3503 4581 
L 3503 0 
z
M 1159 1731 
Q 1159 1200 1306 963 
Q 1519 619 1900 619 
Q 2203 619 2415 876 
Q 2628 1134 2628 1647 
Q 2628 2219 2422 2470 
Q 2216 2722 1894 2722 
Q 1581 2722 1370 2473 
Q 1159 2225 1159 1731 
z
" transform="scale(0.015625)"/>
      <path id="Arial-BoldMT-77" d="M 1078 0 
L 28 3319 
L 881 3319 
L 1503 1144 
L 2075 3319 
L 2922 3319 
L 3475 1144 
L 4109 3319 
L 4975 3319 
L 3909 0 
L 3066 0 
L 2494 2134 
L 1931 0 
L 1078 0 
z
" transform="scale(0.015625)"/>
      <path id="Arial-BoldMT-68" d="M 1334 4581 
L 1334 2897 
Q 1759 3394 2350 3394 
Q 2653 3394 2897 3281 
Q 3141 3169 3264 2994 
Q 3388 2819 3433 2606 
Q 3478 2394 3478 1947 
L 3478 0 
L 2600 0 
L 2600 1753 
Q 2600 2275 2550 2415 
Q 2500 2556 2373 2639 
Q 2247 2722 2056 2722 
Q 1838 2722 1666 2615 
Q 1494 2509 1414 2295 
Q 1334 2081 1334 1663 
L 1334 0 
L 456 0 
L 456 4581 
L 1334 4581 
z
" transform="scale(0.015625)"/>
     </defs>
     <use xlink:href="#Arial-BoldMT-42"/>
     <use xlink:href="#Arial-BoldMT-61" transform="translate(72.216797 0)"/>
     <use xlink:href="#Arial-BoldMT-6e" transform="translate(127.832031 0)"/>
     <use xlink:href="#Arial-BoldMT-64" transform="translate(188.916016 0)"/>
     <use xlink:href="#Arial-BoldMT-77" transform="translate(250 0)"/>
     <use xlink:href="#Arial-BoldMT-69" transform="translate(327.783203 0)"/>
     <use xlink:href="#Arial-BoldMT-64" transform="translate(355.566406 0)"/>
     <use xlink:href="#Arial-BoldMT-74" transform="translate(416.650391 0)"/>
     <use xlink:href="#Arial-BoldMT-68" transform="translate(449.951172 0)"/>
    </g>
   </g>
  </g>
  <g id="axes_4">
   <g id="patch_17">
    <path d="M 86.039297 666.116696 
L 751.405602 666.116696 
L 751.405602 538.946584 
L 86.039297 538.946584 
z
" style="fill: #ffffff"/>
   </g>
   <g id="matplotlib.axis_7">
    <g id="xtick_34">
     <g id="line2d_44">
      <path d="M 116.28322 666.116696 
L 116.28322 538.946584 
" clip-path="url(#pf9b99701ee)" style="fill: none; stroke-dasharray: 5.55,2.4; stroke-dashoffset: 0; stroke: #cccccc; stroke-opacity: 0.6; stroke-width: 1.5"/>
     </g>
    </g>
    <g id="xtick_35">
     <g id="line2d_45">
      <path d="M 176.771066 666.116696 
L 176.771066 538.946584 
" clip-path="url(#pf9b99701ee)" style="fill: none; stroke-dasharray: 5.55,2.4; stroke-dashoffset: 0; stroke: #cccccc; stroke-opacity: 0.6; stroke-width: 1.5"/>
     </g>
    </g>
    <g id="xtick_36">
     <g id="line2d_46">
      <path d="M 237.258912 666.116696 
L 237.258912 538.946584 
" clip-path="url(#pf9b99701ee)" style="fill: none; stroke-dasharray: 5.55,2.4; stroke-dashoffset: 0; stroke: #cccccc; stroke-opacity: 0.6; stroke-width: 1.5"/>
     </g>
    </g>
    <g id="xtick_37">
     <g id="line2d_47">
      <path d="M 297.746758 666.116696 
L 297.746758 538.946584 
" clip-path="url(#pf9b99701ee)" style="fill: none; stroke-dasharray: 5.55,2.4; stroke-dashoffset: 0; stroke: #cccccc; stroke-opacity: 0.6; stroke-width: 1.5"/>
     </g>
    </g>
    <g id="xtick_38">
     <g id="line2d_48">
      <path d="M 358.234604 666.116696 
L 358.234604 538.946584 
" clip-path="url(#pf9b99701ee)" style="fill: none; stroke-dasharray: 5.55,2.4; stroke-dashoffset: 0; stroke: #cccccc; stroke-opacity: 0.6; stroke-width: 1.5"/>
     </g>
    </g>
    <g id="xtick_39">
     <g id="line2d_49">
      <path d="M 418.722449 666.116696 
L 418.722449 538.946584 
" clip-path="url(#pf9b99701ee)" style="fill: none; stroke-dasharray: 5.55,2.4; stroke-dashoffset: 0; stroke: #cccccc; stroke-opacity: 0.6; stroke-width: 1.5"/>
     </g>
    </g>
    <g id="xtick_40">
     <g id="line2d_50">
      <path d="M 479.210295 666.116696 
L 479.210295 538.946584 
" clip-path="url(#pf9b99701ee)" style="fill: none; stroke-dasharray: 5.55,2.4; stroke-dashoffset: 0; stroke: #cccccc; stroke-opacity: 0.6; stroke-width: 1.5"/>
     </g>
    </g>
    <g id="xtick_41">
     <g id="line2d_51">
      <path d="M 539.698141 666.116696 
L 539.698141 538.946584 
" clip-path="url(#pf9b99701ee)" style="fill: none; stroke-dasharray: 5.55,2.4; stroke-dashoffset: 0; stroke: #cccccc; stroke-opacity: 0.6; stroke-width: 1.5"/>
     </g>
    </g>
    <g id="xtick_42">
     <g id="line2d_52">
      <path d="M 600.185987 666.116696 
L 600.185987 538.946584 
" clip-path="url(#pf9b99701ee)" style="fill: none; stroke-dasharray: 5.55,2.4; stroke-dashoffset: 0; stroke: #cccccc; stroke-opacity: 0.6; stroke-width: 1.5"/>
     </g>
    </g>
    <g id="xtick_43">
     <g id="line2d_53">
      <path d="M 660.673833 666.116696 
L 660.673833 538.946584 
" clip-path="url(#pf9b99701ee)" style="fill: none; stroke-dasharray: 5.55,2.4; stroke-dashoffset: 0; stroke: #cccccc; stroke-opacity: 0.6; stroke-width: 1.5"/>
     </g>
    </g>
    <g id="xtick_44">
     <g id="line2d_54">
      <path d="M 721.161679 666.116696 
L 721.161679 538.946584 
" clip-path="url(#pf9b99701ee)" style="fill: none; stroke-dasharray: 5.55,2.4; stroke-dashoffset: 0; stroke: #cccccc; stroke-opacity: 0.6; stroke-width: 1.5"/>
     </g>
    </g>
   </g>
   <g id="matplotlib.axis_8">
    <g id="ytick_8">
     <g id="line2d_55">
      <path d="M 86.039297 666.116696 
L 751.405602 666.116696 
" clip-path="url(#pf9b99701ee)" style="fill: none; stroke-dasharray: 5.55,2.4; stroke-dashoffset: 0; stroke: #cccccc; stroke-opacity: 0.6; stroke-width: 1.5"/>
     </g>
     <g id="text_15">
      <!-- 0 -->
      <g style="fill: #262626" transform="translate(64.36375 672.021891) scale(0.165 -0.165)">
       <use xlink:href="#ArialMT-30"/>
      </g>
     </g>
    </g>
    <g id="ytick_9">
     <g id="line2d_56">
      <path d="M 86.039297 594.174879 
L 751.405602 594.174879 
" clip-path="url(#pf9b99701ee)" style="fill: none; stroke-dasharray: 5.55,2.4; stroke-dashoffset: 0; stroke: #cccccc; stroke-opacity: 0.6; stroke-width: 1.5"/>
     </g>
     <g id="text_16">
      <!-- 20000 -->
      <g style="fill: #262626" transform="translate(27.661563 600.080074) scale(0.165 -0.165)">
       <defs>
        <path id="ArialMT-32" d="M 3222 541 
L 3222 0 
L 194 0 
Q 188 203 259 391 
Q 375 700 629 1000 
Q 884 1300 1366 1694 
Q 2113 2306 2375 2664 
Q 2638 3022 2638 3341 
Q 2638 3675 2398 3904 
Q 2159 4134 1775 4134 
Q 1369 4134 1125 3890 
Q 881 3647 878 3216 
L 300 3275 
Q 359 3922 746 4261 
Q 1134 4600 1788 4600 
Q 2447 4600 2831 4234 
Q 3216 3869 3216 3328 
Q 3216 3053 3103 2787 
Q 2991 2522 2730 2228 
Q 2469 1934 1863 1422 
Q 1356 997 1212 845 
Q 1069 694 975 541 
L 3222 541 
z
" transform="scale(0.015625)"/>
       </defs>
       <use xlink:href="#ArialMT-32"/>
       <use xlink:href="#ArialMT-30" transform="translate(55.615234 0)"/>
       <use xlink:href="#ArialMT-30" transform="translate(111.230469 0)"/>
       <use xlink:href="#ArialMT-30" transform="translate(166.845703 0)"/>
       <use xlink:href="#ArialMT-30" transform="translate(222.460938 0)"/>
      </g>
     </g>
    </g>
    <g id="text_17">
     <!-- Count -->
     <g style="fill: #262626" transform="translate(20.084063 626.546171) rotate(-90) scale(0.18 -0.18)">
      <defs>
       <path id="ArialMT-43" d="M 3763 1606 
L 4369 1453 
Q 4178 706 3683 314 
Q 3188 -78 2472 -78 
Q 1731 -78 1267 223 
Q 803 525 561 1097 
Q 319 1669 319 2325 
Q 319 3041 592 3573 
Q 866 4106 1370 4382 
Q 1875 4659 2481 4659 
Q 3169 4659 3637 4309 
Q 4106 3959 4291 3325 
L 3694 3184 
Q 3534 3684 3231 3912 
Q 2928 4141 2469 4141 
Q 1941 4141 1586 3887 
Q 1231 3634 1087 3207 
Q 944 2781 944 2328 
Q 944 1744 1114 1308 
Q 1284 872 1643 656 
Q 2003 441 2422 441 
Q 2931 441 3284 734 
Q 3638 1028 3763 1606 
z
" transform="scale(0.015625)"/>
       <path id="ArialMT-75" d="M 2597 0 
L 2597 488 
Q 2209 -75 1544 -75 
Q 1250 -75 995 37 
Q 741 150 617 320 
Q 494 491 444 738 
Q 409 903 409 1263 
L 409 3319 
L 972 3319 
L 972 1478 
Q 972 1038 1006 884 
Q 1059 663 1231 536 
Q 1403 409 1656 409 
Q 1909 409 2131 539 
Q 2353 669 2445 892 
Q 2538 1116 2538 1541 
L 2538 3319 
L 3100 3319 
L 3100 0 
L 2597 0 
z
" transform="scale(0.015625)"/>
      </defs>
      <use xlink:href="#ArialMT-43"/>
      <use xlink:href="#ArialMT-6f" transform="translate(72.216797 0)"/>
      <use xlink:href="#ArialMT-75" transform="translate(127.832031 0)"/>
      <use xlink:href="#ArialMT-6e" transform="translate(183.447266 0)"/>
      <use xlink:href="#ArialMT-74" transform="translate(239.0625 0)"/>
     </g>
    </g>
   </g>
   <g id="FillBetweenPolyCollection_4"/>
   <g id="line2d_57">
    <path d="M 116.28322 648.160018 
L 176.771066 653.224722 
L 237.258912 647.699591 
L 297.746758 650.462157 
L 358.234604 656.908143 
L 418.722449 642.69244 
L 479.210295 627.440775 
L 539.698141 653.224722 
L 600.185987 600.735972 
L 660.673833 615.757424 
L 721.161679 544.563802 
" clip-path="url(#pf9b99701ee)" style="fill: none; stroke: #4c72b0; stroke-width: 2; stroke-linecap: round"/>
    <g clip-path="url(#pf9b99701ee)">
     <use xlink:href="#m6cb56e31e4" x="116.28322" y="648.160018" style="fill: #4c72b0; stroke: #ffffff; stroke-width: 0.75"/>
     <use xlink:href="#m6cb56e31e4" x="176.771066" y="653.224722" style="fill: #4c72b0; stroke: #ffffff; stroke-width: 0.75"/>
     <use xlink:href="#m6cb56e31e4" x="237.258912" y="647.699591" style="fill: #4c72b0; stroke: #ffffff; stroke-width: 0.75"/>
     <use xlink:href="#m6cb56e31e4" x="297.746758" y="650.462157" style="fill: #4c72b0; stroke: #ffffff; stroke-width: 0.75"/>
     <use xlink:href="#m6cb56e31e4" x="358.234604" y="656.908143" style="fill: #4c72b0; stroke: #ffffff; stroke-width: 0.75"/>
     <use xlink:href="#m6cb56e31e4" x="418.722449" y="642.69244" style="fill: #4c72b0; stroke: #ffffff; stroke-width: 0.75"/>
     <use xlink:href="#m6cb56e31e4" x="479.210295" y="627.440775" style="fill: #4c72b0; stroke: #ffffff; stroke-width: 0.75"/>
     <use xlink:href="#m6cb56e31e4" x="539.698141" y="653.224722" style="fill: #4c72b0; stroke: #ffffff; stroke-width: 0.75"/>
     <use xlink:href="#m6cb56e31e4" x="600.185987" y="600.735972" style="fill: #4c72b0; stroke: #ffffff; stroke-width: 0.75"/>
     <use xlink:href="#m6cb56e31e4" x="660.673833" y="615.757424" style="fill: #4c72b0; stroke: #ffffff; stroke-width: 0.75"/>
     <use xlink:href="#m6cb56e31e4" x="721.161679" y="544.563802" style="fill: #4c72b0; stroke: #ffffff; stroke-width: 0.75"/>
    </g>
   </g>
   <g id="patch_18">
    <path d="M 86.039297 666.116696 
L 86.039297 538.946584 
" style="fill: none; stroke: #cccccc; stroke-width: 1.875; stroke-linejoin: miter; stroke-linecap: square"/>
   </g>
   <g id="patch_19">
    <path d="M 751.405602 666.116696 
L 751.405602 538.946584 
" style="fill: none; stroke: #cccccc; stroke-width: 1.875; stroke-linejoin: miter; stroke-linecap: square"/>
   </g>
   <g id="patch_20">
    <path d="M 86.039297 666.116696 
L 751.405602 666.116696 
" style="fill: none; stroke: #cccccc; stroke-width: 1.875; stroke-linejoin: miter; stroke-linecap: square"/>
   </g>
   <g id="patch_21">
    <path d="M 86.039297 538.946584 
L 751.405602 538.946584 
" style="fill: none; stroke: #cccccc; stroke-width: 1.875; stroke-linejoin: miter; stroke-linecap: square"/>
   </g>
   <g id="text_18">
    <!-- CUDA Cores -->
    <g style="fill: #262626" transform="translate(371.014949 532.946584) scale(0.16 -0.16)">
     <defs>
      <path id="Arial-BoldMT-55" d="M 459 4581 
L 1384 4581 
L 1384 2100 
Q 1384 1509 1419 1334 
Q 1478 1053 1701 883 
Q 1925 713 2313 713 
Q 2706 713 2906 873 
Q 3106 1034 3147 1268 
Q 3188 1503 3188 2047 
L 3188 4581 
L 4113 4581 
L 4113 2175 
Q 4113 1350 4038 1009 
Q 3963 669 3761 434 
Q 3559 200 3221 61 
Q 2884 -78 2341 -78 
Q 1684 -78 1345 73 
Q 1006 225 809 467 
Q 613 709 550 975 
Q 459 1369 459 2138 
L 459 4581 
z
" transform="scale(0.015625)"/>
      <path id="Arial-BoldMT-44" d="M 463 4581 
L 2153 4581 
Q 2725 4581 3025 4494 
Q 3428 4375 3715 4072 
Q 4003 3769 4153 3330 
Q 4303 2891 4303 2247 
Q 4303 1681 4163 1272 
Q 3991 772 3672 463 
Q 3431 228 3022 97 
Q 2716 0 2203 0 
L 463 0 
L 463 4581 
z
M 1388 3806 
L 1388 772 
L 2078 772 
Q 2466 772 2638 816 
Q 2863 872 3011 1006 
Q 3159 1141 3253 1448 
Q 3347 1756 3347 2288 
Q 3347 2819 3253 3103 
Q 3159 3388 2990 3547 
Q 2822 3706 2563 3763 
Q 2369 3806 1803 3806 
L 1388 3806 
z
" transform="scale(0.015625)"/>
      <path id="Arial-BoldMT-41" d="M 4597 0 
L 3591 0 
L 3191 1041 
L 1359 1041 
L 981 0 
L 0 0 
L 1784 4581 
L 2763 4581 
L 4597 0 
z
M 2894 1813 
L 2263 3513 
L 1644 1813 
L 2894 1813 
z
" transform="scale(0.015625)"/>
     </defs>
     <use xlink:href="#Arial-BoldMT-43"/>
     <use xlink:href="#Arial-BoldMT-55" transform="translate(72.216797 0)"/>
     <use xlink:href="#Arial-BoldMT-44" transform="translate(144.433594 0)"/>
     <use xlink:href="#Arial-BoldMT-41" transform="translate(216.650391 0)"/>
     <use xlink:href="#Arial-BoldMT-20" transform="translate(285.117188 0)"/>
     <use xlink:href="#Arial-BoldMT-43" transform="translate(312.900391 0)"/>
     <use xlink:href="#Arial-BoldMT-6f" transform="translate(385.117188 0)"/>
     <use xlink:href="#Arial-BoldMT-72" transform="translate(446.201172 0)"/>
     <use xlink:href="#Arial-BoldMT-65" transform="translate(485.117188 0)"/>
     <use xlink:href="#Arial-BoldMT-73" transform="translate(540.732422 0)"/>
    </g>
   </g>
  </g>
  <g id="axes_5">
   <g id="patch_22">
    <path d="M 86.039297 837.548057 
L 751.405602 837.548057 
L 751.405602 710.377946 
L 86.039297 710.377946 
z
" style="fill: #ffffff"/>
   </g>
   <g id="matplotlib.axis_9">
    <g id="xtick_45">
     <g id="line2d_58">
      <path d="M 116.28322 837.548057 
L 116.28322 710.377946 
" clip-path="url(#pf94227efb0)" style="fill: none; stroke-dasharray: 5.55,2.4; stroke-dashoffset: 0; stroke: #cccccc; stroke-opacity: 0.6; stroke-width: 1.5"/>
     </g>
    </g>
    <g id="xtick_46">
     <g id="line2d_59">
      <path d="M 176.771066 837.548057 
L 176.771066 710.377946 
" clip-path="url(#pf94227efb0)" style="fill: none; stroke-dasharray: 5.55,2.4; stroke-dashoffset: 0; stroke: #cccccc; stroke-opacity: 0.6; stroke-width: 1.5"/>
     </g>
    </g>
    <g id="xtick_47">
     <g id="line2d_60">
      <path d="M 237.258912 837.548057 
L 237.258912 710.377946 
" clip-path="url(#pf94227efb0)" style="fill: none; stroke-dasharray: 5.55,2.4; stroke-dashoffset: 0; stroke: #cccccc; stroke-opacity: 0.6; stroke-width: 1.5"/>
     </g>
    </g>
    <g id="xtick_48">
     <g id="line2d_61">
      <path d="M 297.746758 837.548057 
L 297.746758 710.377946 
" clip-path="url(#pf94227efb0)" style="fill: none; stroke-dasharray: 5.55,2.4; stroke-dashoffset: 0; stroke: #cccccc; stroke-opacity: 0.6; stroke-width: 1.5"/>
     </g>
    </g>
    <g id="xtick_49">
     <g id="line2d_62">
      <path d="M 358.234604 837.548057 
L 358.234604 710.377946 
" clip-path="url(#pf94227efb0)" style="fill: none; stroke-dasharray: 5.55,2.4; stroke-dashoffset: 0; stroke: #cccccc; stroke-opacity: 0.6; stroke-width: 1.5"/>
     </g>
    </g>
    <g id="xtick_50">
     <g id="line2d_63">
      <path d="M 418.722449 837.548057 
L 418.722449 710.377946 
" clip-path="url(#pf94227efb0)" style="fill: none; stroke-dasharray: 5.55,2.4; stroke-dashoffset: 0; stroke: #cccccc; stroke-opacity: 0.6; stroke-width: 1.5"/>
     </g>
    </g>
    <g id="xtick_51">
     <g id="line2d_64">
      <path d="M 479.210295 837.548057 
L 479.210295 710.377946 
" clip-path="url(#pf94227efb0)" style="fill: none; stroke-dasharray: 5.55,2.4; stroke-dashoffset: 0; stroke: #cccccc; stroke-opacity: 0.6; stroke-width: 1.5"/>
     </g>
    </g>
    <g id="xtick_52">
     <g id="line2d_65">
      <path d="M 539.698141 837.548057 
L 539.698141 710.377946 
" clip-path="url(#pf94227efb0)" style="fill: none; stroke-dasharray: 5.55,2.4; stroke-dashoffset: 0; stroke: #cccccc; stroke-opacity: 0.6; stroke-width: 1.5"/>
     </g>
    </g>
    <g id="xtick_53">
     <g id="line2d_66">
      <path d="M 600.185987 837.548057 
L 600.185987 710.377946 
" clip-path="url(#pf94227efb0)" style="fill: none; stroke-dasharray: 5.55,2.4; stroke-dashoffset: 0; stroke: #cccccc; stroke-opacity: 0.6; stroke-width: 1.5"/>
     </g>
    </g>
    <g id="xtick_54">
     <g id="line2d_67">
      <path d="M 660.673833 837.548057 
L 660.673833 710.377946 
" clip-path="url(#pf94227efb0)" style="fill: none; stroke-dasharray: 5.55,2.4; stroke-dashoffset: 0; stroke: #cccccc; stroke-opacity: 0.6; stroke-width: 1.5"/>
     </g>
    </g>
    <g id="xtick_55">
     <g id="line2d_68">
      <path d="M 721.161679 837.548057 
L 721.161679 710.377946 
" clip-path="url(#pf94227efb0)" style="fill: none; stroke-dasharray: 5.55,2.4; stroke-dashoffset: 0; stroke: #cccccc; stroke-opacity: 0.6; stroke-width: 1.5"/>
     </g>
    </g>
   </g>
   <g id="matplotlib.axis_10">
    <g id="ytick_10">
     <g id="line2d_69">
      <path d="M 86.039297 837.548057 
L 751.405602 837.548057 
" clip-path="url(#pf94227efb0)" style="fill: none; stroke-dasharray: 5.55,2.4; stroke-dashoffset: 0; stroke: #cccccc; stroke-opacity: 0.6; stroke-width: 1.5"/>
     </g>
     <g id="text_19">
      <!-- 0 -->
      <g style="fill: #262626" transform="translate(64.36375 843.453253) scale(0.165 -0.165)">
       <use xlink:href="#ArialMT-30"/>
      </g>
     </g>
    </g>
    <g id="ytick_11">
     <g id="line2d_70">
      <path d="M 86.039297 776.788329 
L 751.405602 776.788329 
" clip-path="url(#pf94227efb0)" style="fill: none; stroke-dasharray: 5.55,2.4; stroke-dashoffset: 0; stroke: #cccccc; stroke-opacity: 0.6; stroke-width: 1.5"/>
     </g>
     <g id="text_20">
      <!-- 500 -->
      <g style="fill: #262626" transform="translate(46.012656 782.693524) scale(0.165 -0.165)">
       <use xlink:href="#ArialMT-35"/>
       <use xlink:href="#ArialMT-30" transform="translate(55.615234 0)"/>
       <use xlink:href="#ArialMT-30" transform="translate(111.230469 0)"/>
      </g>
     </g>
    </g>
    <g id="ytick_12">
     <g id="line2d_71">
      <path d="M 86.039297 716.028601 
L 751.405602 716.028601 
" clip-path="url(#pf94227efb0)" style="fill: none; stroke-dasharray: 5.55,2.4; stroke-dashoffset: 0; stroke: #cccccc; stroke-opacity: 0.6; stroke-width: 1.5"/>
     </g>
     <g id="text_21">
      <!-- 1000 -->
      <g style="fill: #262626" transform="translate(36.837109 721.933796) scale(0.165 -0.165)">
       <use xlink:href="#ArialMT-31"/>
       <use xlink:href="#ArialMT-30" transform="translate(55.615234 0)"/>
       <use xlink:href="#ArialMT-30" transform="translate(111.230469 0)"/>
       <use xlink:href="#ArialMT-30" transform="translate(166.845703 0)"/>
      </g>
     </g>
    </g>
    <g id="text_22">
     <!-- Watts -->
     <g style="fill: #262626" transform="translate(29.259609 796.626127) rotate(-90) scale(0.18 -0.18)">
      <defs>
       <path id="ArialMT-57" d="M 1294 0 
L 78 4581 
L 700 4581 
L 1397 1578 
Q 1509 1106 1591 641 
Q 1766 1375 1797 1488 
L 2669 4581 
L 3400 4581 
L 4056 2263 
Q 4303 1400 4413 641 
Q 4500 1075 4641 1638 
L 5359 4581 
L 5969 4581 
L 4713 0 
L 4128 0 
L 3163 3491 
Q 3041 3928 3019 4028 
Q 2947 3713 2884 3491 
L 1913 0 
L 1294 0 
z
" transform="scale(0.015625)"/>
      </defs>
      <use xlink:href="#ArialMT-57"/>
      <use xlink:href="#ArialMT-61" transform="translate(90.634766 0)"/>
      <use xlink:href="#ArialMT-74" transform="translate(146.25 0)"/>
      <use xlink:href="#ArialMT-74" transform="translate(174.033203 0)"/>
      <use xlink:href="#ArialMT-73" transform="translate(201.816406 0)"/>
     </g>
    </g>
   </g>
   <g id="FillBetweenPolyCollection_5"/>
   <g id="line2d_72">
    <path d="M 116.28322 801.09222 
L 176.771066 801.09222 
L 237.258912 801.09222 
L 297.746758 807.168193 
L 358.234604 829.041695 
L 418.722449 807.168193 
L 479.210295 801.09222 
L 539.698141 817.497347 
L 600.185987 801.09222 
L 660.673833 752.484438 
L 721.161679 716.028601 
" clip-path="url(#pf94227efb0)" style="fill: none; stroke: #4c72b0; stroke-width: 2; stroke-linecap: round"/>
    <g clip-path="url(#pf94227efb0)">
     <use xlink:href="#m6cb56e31e4" x="116.28322" y="801.09222" style="fill: #4c72b0; stroke: #ffffff; stroke-width: 0.75"/>
     <use xlink:href="#m6cb56e31e4" x="176.771066" y="801.09222" style="fill: #4c72b0; stroke: #ffffff; stroke-width: 0.75"/>
     <use xlink:href="#m6cb56e31e4" x="237.258912" y="801.09222" style="fill: #4c72b0; stroke: #ffffff; stroke-width: 0.75"/>
     <use xlink:href="#m6cb56e31e4" x="297.746758" y="807.168193" style="fill: #4c72b0; stroke: #ffffff; stroke-width: 0.75"/>
     <use xlink:href="#m6cb56e31e4" x="358.234604" y="829.041695" style="fill: #4c72b0; stroke: #ffffff; stroke-width: 0.75"/>
     <use xlink:href="#m6cb56e31e4" x="418.722449" y="807.168193" style="fill: #4c72b0; stroke: #ffffff; stroke-width: 0.75"/>
     <use xlink:href="#m6cb56e31e4" x="479.210295" y="801.09222" style="fill: #4c72b0; stroke: #ffffff; stroke-width: 0.75"/>
     <use xlink:href="#m6cb56e31e4" x="539.698141" y="817.497347" style="fill: #4c72b0; stroke: #ffffff; stroke-width: 0.75"/>
     <use xlink:href="#m6cb56e31e4" x="600.185987" y="801.09222" style="fill: #4c72b0; stroke: #ffffff; stroke-width: 0.75"/>
     <use xlink:href="#m6cb56e31e4" x="660.673833" y="752.484438" style="fill: #4c72b0; stroke: #ffffff; stroke-width: 0.75"/>
     <use xlink:href="#m6cb56e31e4" x="721.161679" y="716.028601" style="fill: #4c72b0; stroke: #ffffff; stroke-width: 0.75"/>
    </g>
   </g>
   <g id="patch_23">
    <path d="M 86.039297 837.548057 
L 86.039297 710.377946 
" style="fill: none; stroke: #cccccc; stroke-width: 1.875; stroke-linejoin: miter; stroke-linecap: square"/>
   </g>
   <g id="patch_24">
    <path d="M 751.405602 837.548057 
L 751.405602 710.377946 
" style="fill: none; stroke: #cccccc; stroke-width: 1.875; stroke-linejoin: miter; stroke-linecap: square"/>
   </g>
   <g id="patch_25">
    <path d="M 86.039297 837.548057 
L 751.405602 837.548057 
" style="fill: none; stroke: #cccccc; stroke-width: 1.875; stroke-linejoin: miter; stroke-linecap: square"/>
   </g>
   <g id="patch_26">
    <path d="M 86.039297 710.377946 
L 751.405602 710.377946 
" style="fill: none; stroke: #cccccc; stroke-width: 1.875; stroke-linejoin: miter; stroke-linecap: square"/>
   </g>
   <g id="text_23">
    <!-- TDP -->
    <g style="fill: #262626" transform="translate(402.722449 704.377946) scale(0.16 -0.16)">
     <defs>
      <path id="Arial-BoldMT-50" d="M 466 0 
L 466 4581 
L 1950 4581 
Q 2794 4581 3050 4513 
Q 3444 4409 3709 4064 
Q 3975 3719 3975 3172 
Q 3975 2750 3822 2462 
Q 3669 2175 3433 2011 
Q 3197 1847 2953 1794 
Q 2622 1728 1994 1728 
L 1391 1728 
L 1391 0 
L 466 0 
z
M 1391 3806 
L 1391 2506 
L 1897 2506 
Q 2444 2506 2628 2578 
Q 2813 2650 2917 2803 
Q 3022 2956 3022 3159 
Q 3022 3409 2875 3571 
Q 2728 3734 2503 3775 
Q 2338 3806 1838 3806 
L 1391 3806 
z
" transform="scale(0.015625)"/>
     </defs>
     <use xlink:href="#Arial-BoldMT-54"/>
     <use xlink:href="#Arial-BoldMT-44" transform="translate(61.083984 0)"/>
     <use xlink:href="#Arial-BoldMT-50" transform="translate(133.300781 0)"/>
    </g>
   </g>
  </g>
  <g id="axes_6">
   <g id="patch_27">
    <path d="M 86.039297 1008.979419 
L 751.405602 1008.979419 
L 751.405602 881.809307 
L 86.039297 881.809307 
z
" style="fill: #ffffff"/>
   </g>
   <g id="matplotlib.axis_11">
    <g id="xtick_56">
     <g id="line2d_73">
      <path d="M 116.28322 1008.979419 
L 116.28322 881.809307 
" clip-path="url(#p56bedcfb4b)" style="fill: none; stroke-dasharray: 5.55,2.4; stroke-dashoffset: 0; stroke: #cccccc; stroke-opacity: 0.6; stroke-width: 1.5"/>
     </g>
     <g id="text_24">
      <!-- 2014 - K80 -->
      <g style="fill: #262626" transform="translate(90.760173 1086.909059) rotate(-45) scale(0.165 -0.165)">
       <defs>
        <path id="ArialMT-34" d="M 2069 0 
L 2069 1097 
L 81 1097 
L 81 1613 
L 2172 4581 
L 2631 4581 
L 2631 1613 
L 3250 1613 
L 3250 1097 
L 2631 1097 
L 2631 0 
L 2069 0 
z
M 2069 1613 
L 2069 3678 
L 634 1613 
L 2069 1613 
z
" transform="scale(0.015625)"/>
        <path id="ArialMT-20" transform="scale(0.015625)"/>
        <path id="ArialMT-2d" d="M 203 1375 
L 203 1941 
L 1931 1941 
L 1931 1375 
L 203 1375 
z
" transform="scale(0.015625)"/>
        <path id="ArialMT-4b" d="M 469 0 
L 469 4581 
L 1075 4581 
L 1075 2309 
L 3350 4581 
L 4172 4581 
L 2250 2725 
L 4256 0 
L 3456 0 
L 1825 2319 
L 1075 1588 
L 1075 0 
L 469 0 
z
" transform="scale(0.015625)"/>
        <path id="ArialMT-38" d="M 1131 2484 
Q 781 2613 612 2850 
Q 444 3088 444 3419 
Q 444 3919 803 4259 
Q 1163 4600 1759 4600 
Q 2359 4600 2725 4251 
Q 3091 3903 3091 3403 
Q 3091 3084 2923 2848 
Q 2756 2613 2416 2484 
Q 2838 2347 3058 2040 
Q 3278 1734 3278 1309 
Q 3278 722 2862 322 
Q 2447 -78 1769 -78 
Q 1091 -78 675 323 
Q 259 725 259 1325 
Q 259 1772 486 2073 
Q 713 2375 1131 2484 
z
M 1019 3438 
Q 1019 3113 1228 2906 
Q 1438 2700 1772 2700 
Q 2097 2700 2305 2904 
Q 2513 3109 2513 3406 
Q 2513 3716 2298 3927 
Q 2084 4138 1766 4138 
Q 1444 4138 1231 3931 
Q 1019 3725 1019 3438 
z
M 838 1322 
Q 838 1081 952 856 
Q 1066 631 1291 507 
Q 1516 384 1775 384 
Q 2178 384 2440 643 
Q 2703 903 2703 1303 
Q 2703 1709 2433 1975 
Q 2163 2241 1756 2241 
Q 1359 2241 1098 1978 
Q 838 1716 838 1322 
z
" transform="scale(0.015625)"/>
       </defs>
       <use xlink:href="#ArialMT-32"/>
       <use xlink:href="#ArialMT-30" transform="translate(55.615234 0)"/>
       <use xlink:href="#ArialMT-31" transform="translate(111.230469 0)"/>
       <use xlink:href="#ArialMT-34" transform="translate(166.845703 0)"/>
       <use xlink:href="#ArialMT-20" transform="translate(222.460938 0)"/>
       <use xlink:href="#ArialMT-2d" transform="translate(250.244141 0)"/>
       <use xlink:href="#ArialMT-20" transform="translate(283.544922 0)"/>
       <use xlink:href="#ArialMT-4b" transform="translate(311.328125 0)"/>
       <use xlink:href="#ArialMT-38" transform="translate(378.027344 0)"/>
       <use xlink:href="#ArialMT-30" transform="translate(433.642578 0)"/>
      </g>
     </g>
    </g>
    <g id="xtick_57">
     <g id="line2d_74">
      <path d="M 176.771066 1008.979419 
L 176.771066 881.809307 
" clip-path="url(#p56bedcfb4b)" style="fill: none; stroke-dasharray: 5.55,2.4; stroke-dashoffset: 0; stroke: #cccccc; stroke-opacity: 0.6; stroke-width: 1.5"/>
     </g>
     <g id="text_25">
      <!-- 2016 - P100 -->
      <g style="fill: #262626" transform="translate(148.003973 1093.39715) rotate(-45) scale(0.165 -0.165)">
       <defs>
        <path id="ArialMT-36" d="M 3184 3459 
L 2625 3416 
Q 2550 3747 2413 3897 
Q 2184 4138 1850 4138 
Q 1581 4138 1378 3988 
Q 1113 3794 959 3422 
Q 806 3050 800 2363 
Q 1003 2672 1297 2822 
Q 1591 2972 1913 2972 
Q 2475 2972 2870 2558 
Q 3266 2144 3266 1488 
Q 3266 1056 3080 686 
Q 2894 316 2569 119 
Q 2244 -78 1831 -78 
Q 1128 -78 684 439 
Q 241 956 241 2144 
Q 241 3472 731 4075 
Q 1159 4600 1884 4600 
Q 2425 4600 2770 4297 
Q 3116 3994 3184 3459 
z
M 888 1484 
Q 888 1194 1011 928 
Q 1134 663 1356 523 
Q 1578 384 1822 384 
Q 2178 384 2434 671 
Q 2691 959 2691 1453 
Q 2691 1928 2437 2201 
Q 2184 2475 1800 2475 
Q 1419 2475 1153 2201 
Q 888 1928 888 1484 
z
" transform="scale(0.015625)"/>
        <path id="ArialMT-50" d="M 494 0 
L 494 4581 
L 2222 4581 
Q 2678 4581 2919 4538 
Q 3256 4481 3484 4323 
Q 3713 4166 3852 3881 
Q 3991 3597 3991 3256 
Q 3991 2672 3619 2267 
Q 3247 1863 2275 1863 
L 1100 1863 
L 1100 0 
L 494 0 
z
M 1100 2403 
L 2284 2403 
Q 2872 2403 3119 2622 
Q 3366 2841 3366 3238 
Q 3366 3525 3220 3729 
Q 3075 3934 2838 4000 
Q 2684 4041 2272 4041 
L 1100 4041 
L 1100 2403 
z
" transform="scale(0.015625)"/>
       </defs>
       <use xlink:href="#ArialMT-32"/>
       <use xlink:href="#ArialMT-30" transform="translate(55.615234 0)"/>
       <use xlink:href="#ArialMT-31" transform="translate(111.230469 0)"/>
       <use xlink:href="#ArialMT-36" transform="translate(166.845703 0)"/>
       <use xlink:href="#ArialMT-20" transform="translate(222.460938 0)"/>
       <use xlink:href="#ArialMT-2d" transform="translate(250.244141 0)"/>
       <use xlink:href="#ArialMT-20" transform="translate(283.544922 0)"/>
       <use xlink:href="#ArialMT-50" transform="translate(311.328125 0)"/>
       <use xlink:href="#ArialMT-31" transform="translate(378.027344 0)"/>
       <use xlink:href="#ArialMT-30" transform="translate(433.642578 0)"/>
       <use xlink:href="#ArialMT-30" transform="translate(489.257812 0)"/>
      </g>
     </g>
    </g>
    <g id="xtick_58">
     <g id="line2d_75">
      <path d="M 237.258912 1008.979419 
L 237.258912 881.809307 
" clip-path="url(#p56bedcfb4b)" style="fill: none; stroke-dasharray: 5.55,2.4; stroke-dashoffset: 0; stroke: #cccccc; stroke-opacity: 0.6; stroke-width: 1.5"/>
     </g>
     <g id="text_26">
      <!-- 2017 - V100 -->
      <g style="fill: #262626" transform="translate(208.491819 1093.39715) rotate(-45) scale(0.165 -0.165)">
       <defs>
        <path id="ArialMT-37" d="M 303 3981 
L 303 4522 
L 3269 4522 
L 3269 4084 
Q 2831 3619 2401 2847 
Q 1972 2075 1738 1259 
Q 1569 684 1522 0 
L 944 0 
Q 953 541 1156 1306 
Q 1359 2072 1739 2783 
Q 2119 3494 2547 3981 
L 303 3981 
z
" transform="scale(0.015625)"/>
        <path id="ArialMT-56" d="M 1803 0 
L 28 4581 
L 684 4581 
L 1875 1253 
Q 2019 853 2116 503 
Q 2222 878 2363 1253 
L 3600 4581 
L 4219 4581 
L 2425 0 
L 1803 0 
z
" transform="scale(0.015625)"/>
       </defs>
       <use xlink:href="#ArialMT-32"/>
       <use xlink:href="#ArialMT-30" transform="translate(55.615234 0)"/>
       <use xlink:href="#ArialMT-31" transform="translate(111.230469 0)"/>
       <use xlink:href="#ArialMT-37" transform="translate(166.845703 0)"/>
       <use xlink:href="#ArialMT-20" transform="translate(222.460938 0)"/>
       <use xlink:href="#ArialMT-2d" transform="translate(250.244141 0)"/>
       <use xlink:href="#ArialMT-20" transform="translate(283.544922 0)"/>
       <use xlink:href="#ArialMT-56" transform="translate(311.328125 0)"/>
       <use xlink:href="#ArialMT-31" transform="translate(378.027344 0)"/>
       <use xlink:href="#ArialMT-30" transform="translate(433.642578 0)"/>
       <use xlink:href="#ArialMT-30" transform="translate(489.257812 0)"/>
      </g>
     </g>
    </g>
    <g id="xtick_59">
     <g id="line2d_76">
      <path d="M 297.746758 1008.979419 
L 297.746758 881.809307 
" clip-path="url(#p56bedcfb4b)" style="fill: none; stroke-dasharray: 5.55,2.4; stroke-dashoffset: 0; stroke: #cccccc; stroke-opacity: 0.6; stroke-width: 1.5"/>
     </g>
     <g id="text_27">
      <!-- 2018 - 2080ti -->
      <g style="fill: #262626" transform="translate(266.710018 1097.936445) rotate(-45) scale(0.165 -0.165)">
       <use xlink:href="#ArialMT-32"/>
       <use xlink:href="#ArialMT-30" transform="translate(55.615234 0)"/>
       <use xlink:href="#ArialMT-31" transform="translate(111.230469 0)"/>
       <use xlink:href="#ArialMT-38" transform="translate(166.845703 0)"/>
       <use xlink:href="#ArialMT-20" transform="translate(222.460938 0)"/>
       <use xlink:href="#ArialMT-2d" transform="translate(250.244141 0)"/>
       <use xlink:href="#ArialMT-20" transform="translate(283.544922 0)"/>
       <use xlink:href="#ArialMT-32" transform="translate(311.328125 0)"/>
       <use xlink:href="#ArialMT-30" transform="translate(366.943359 0)"/>
       <use xlink:href="#ArialMT-38" transform="translate(422.558594 0)"/>
       <use xlink:href="#ArialMT-30" transform="translate(478.173828 0)"/>
       <use xlink:href="#ArialMT-74" transform="translate(533.789062 0)"/>
       <use xlink:href="#ArialMT-69" transform="translate(561.572266 0)"/>
      </g>
     </g>
    </g>
    <g id="xtick_60">
     <g id="line2d_77">
      <path d="M 358.234604 1008.979419 
L 358.234604 881.809307 
" clip-path="url(#p56bedcfb4b)" style="fill: none; stroke-dasharray: 5.55,2.4; stroke-dashoffset: 0; stroke: #cccccc; stroke-opacity: 0.6; stroke-width: 1.5"/>
     </g>
     <g id="text_28">
      <!-- 2018 - T4 -->
      <g style="fill: #262626" transform="translate(336.385833 1079.560507) rotate(-45) scale(0.165 -0.165)">
       <use xlink:href="#ArialMT-32"/>
       <use xlink:href="#ArialMT-30" transform="translate(55.615234 0)"/>
       <use xlink:href="#ArialMT-31" transform="translate(111.230469 0)"/>
       <use xlink:href="#ArialMT-38" transform="translate(166.845703 0)"/>
       <use xlink:href="#ArialMT-20" transform="translate(222.460938 0)"/>
       <use xlink:href="#ArialMT-2d" transform="translate(250.244141 0)"/>
       <use xlink:href="#ArialMT-20" transform="translate(283.544922 0)"/>
       <use xlink:href="#ArialMT-54" transform="translate(309.578125 0)"/>
       <use xlink:href="#ArialMT-34" transform="translate(370.662109 0)"/>
      </g>
     </g>
    </g>
    <g id="xtick_61">
     <g id="line2d_78">
      <path d="M 418.722449 1008.979419 
L 418.722449 881.809307 
" clip-path="url(#p56bedcfb4b)" style="fill: none; stroke-dasharray: 5.55,2.4; stroke-dashoffset: 0; stroke: #cccccc; stroke-opacity: 0.6; stroke-width: 1.5"/>
     </g>
     <g id="text_29">
      <!-- 2020 - A100 -->
      <g style="fill: #262626" transform="translate(390.276207 1092.755451) rotate(-45) scale(0.165 -0.165)">
       <defs>
        <path id="ArialMT-41" d="M -9 0 
L 1750 4581 
L 2403 4581 
L 4278 0 
L 3588 0 
L 3053 1388 
L 1138 1388 
L 634 0 
L -9 0 
z
M 1313 1881 
L 2866 1881 
L 2388 3150 
Q 2169 3728 2063 4100 
Q 1975 3659 1816 3225 
L 1313 1881 
z
" transform="scale(0.015625)"/>
       </defs>
       <use xlink:href="#ArialMT-32"/>
       <use xlink:href="#ArialMT-30" transform="translate(55.615234 0)"/>
       <use xlink:href="#ArialMT-32" transform="translate(111.230469 0)"/>
       <use xlink:href="#ArialMT-30" transform="translate(166.845703 0)"/>
       <use xlink:href="#ArialMT-20" transform="translate(222.460938 0)"/>
       <use xlink:href="#ArialMT-2d" transform="translate(250.244141 0)"/>
       <use xlink:href="#ArialMT-20" transform="translate(283.544922 0)"/>
       <use xlink:href="#ArialMT-41" transform="translate(305.828125 0)"/>
       <use xlink:href="#ArialMT-31" transform="translate(372.527344 0)"/>
       <use xlink:href="#ArialMT-30" transform="translate(428.142578 0)"/>
       <use xlink:href="#ArialMT-30" transform="translate(483.757812 0)"/>
      </g>
     </g>
    </g>
    <g id="xtick_62">
     <g id="line2d_79">
      <path d="M 479.210295 1008.979419 
L 479.210295 881.809307 
" clip-path="url(#p56bedcfb4b)" style="fill: none; stroke-dasharray: 5.55,2.4; stroke-dashoffset: 0; stroke: #cccccc; stroke-opacity: 0.6; stroke-width: 1.5"/>
     </g>
     <g id="text_30">
      <!-- 2020 - A40 -->
      <g style="fill: #262626" transform="translate(454.008098 1086.26736) rotate(-45) scale(0.165 -0.165)">
       <use xlink:href="#ArialMT-32"/>
       <use xlink:href="#ArialMT-30" transform="translate(55.615234 0)"/>
       <use xlink:href="#ArialMT-32" transform="translate(111.230469 0)"/>
       <use xlink:href="#ArialMT-30" transform="translate(166.845703 0)"/>
       <use xlink:href="#ArialMT-20" transform="translate(222.460938 0)"/>
       <use xlink:href="#ArialMT-2d" transform="translate(250.244141 0)"/>
       <use xlink:href="#ArialMT-20" transform="translate(283.544922 0)"/>
       <use xlink:href="#ArialMT-41" transform="translate(305.828125 0)"/>
       <use xlink:href="#ArialMT-34" transform="translate(372.527344 0)"/>
       <use xlink:href="#ArialMT-30" transform="translate(428.142578 0)"/>
      </g>
     </g>
    </g>
    <g id="xtick_63">
     <g id="line2d_80">
      <path d="M 539.698141 1008.979419 
L 539.698141 881.809307 
" clip-path="url(#p56bedcfb4b)" style="fill: none; stroke-dasharray: 5.55,2.4; stroke-dashoffset: 0; stroke: #cccccc; stroke-opacity: 0.6; stroke-width: 1.5"/>
     </g>
     <g id="text_31">
      <!-- 2021 - A30 -->
      <g style="fill: #262626" transform="translate(514.495944 1086.26736) rotate(-45) scale(0.165 -0.165)">
       <defs>
        <path id="ArialMT-33" d="M 269 1209 
L 831 1284 
Q 928 806 1161 595 
Q 1394 384 1728 384 
Q 2125 384 2398 659 
Q 2672 934 2672 1341 
Q 2672 1728 2419 1979 
Q 2166 2231 1775 2231 
Q 1616 2231 1378 2169 
L 1441 2663 
Q 1497 2656 1531 2656 
Q 1891 2656 2178 2843 
Q 2466 3031 2466 3422 
Q 2466 3731 2256 3934 
Q 2047 4138 1716 4138 
Q 1388 4138 1169 3931 
Q 950 3725 888 3313 
L 325 3413 
Q 428 3978 793 4289 
Q 1159 4600 1703 4600 
Q 2078 4600 2393 4439 
Q 2709 4278 2876 4000 
Q 3044 3722 3044 3409 
Q 3044 3113 2884 2869 
Q 2725 2625 2413 2481 
Q 2819 2388 3044 2092 
Q 3269 1797 3269 1353 
Q 3269 753 2831 336 
Q 2394 -81 1725 -81 
Q 1122 -81 723 278 
Q 325 638 269 1209 
z
" transform="scale(0.015625)"/>
       </defs>
       <use xlink:href="#ArialMT-32"/>
       <use xlink:href="#ArialMT-30" transform="translate(55.615234 0)"/>
       <use xlink:href="#ArialMT-32" transform="translate(111.230469 0)"/>
       <use xlink:href="#ArialMT-31" transform="translate(166.845703 0)"/>
       <use xlink:href="#ArialMT-20" transform="translate(222.460938 0)"/>
       <use xlink:href="#ArialMT-2d" transform="translate(250.244141 0)"/>
       <use xlink:href="#ArialMT-20" transform="translate(283.544922 0)"/>
       <use xlink:href="#ArialMT-41" transform="translate(305.828125 0)"/>
       <use xlink:href="#ArialMT-33" transform="translate(372.527344 0)"/>
       <use xlink:href="#ArialMT-30" transform="translate(428.142578 0)"/>
      </g>
     </g>
    </g>
    <g id="xtick_64">
     <g id="line2d_81">
      <path d="M 600.185987 1008.979419 
L 600.185987 881.809307 
" clip-path="url(#p56bedcfb4b)" style="fill: none; stroke-dasharray: 5.55,2.4; stroke-dashoffset: 0; stroke: #cccccc; stroke-opacity: 0.6; stroke-width: 1.5"/>
     </g>
     <g id="text_32">
      <!-- 2022 - L40 -->
      <g style="fill: #262626" transform="translate(575.310109 1085.614722) rotate(-45) scale(0.165 -0.165)">
       <defs>
        <path id="ArialMT-4c" d="M 469 0 
L 469 4581 
L 1075 4581 
L 1075 541 
L 3331 541 
L 3331 0 
L 469 0 
z
" transform="scale(0.015625)"/>
       </defs>
       <use xlink:href="#ArialMT-32"/>
       <use xlink:href="#ArialMT-30" transform="translate(55.615234 0)"/>
       <use xlink:href="#ArialMT-32" transform="translate(111.230469 0)"/>
       <use xlink:href="#ArialMT-32" transform="translate(166.845703 0)"/>
       <use xlink:href="#ArialMT-20" transform="translate(222.460938 0)"/>
       <use xlink:href="#ArialMT-2d" transform="translate(250.244141 0)"/>
       <use xlink:href="#ArialMT-20" transform="translate(283.544922 0)"/>
       <use xlink:href="#ArialMT-4c" transform="translate(311.328125 0)"/>
       <use xlink:href="#ArialMT-34" transform="translate(366.943359 0)"/>
       <use xlink:href="#ArialMT-30" transform="translate(422.558594 0)"/>
      </g>
     </g>
    </g>
    <g id="xtick_65">
     <g id="line2d_82">
      <path d="M 660.673833 1008.979419 
L 660.673833 881.809307 
" clip-path="url(#p56bedcfb4b)" style="fill: none; stroke-dasharray: 5.55,2.4; stroke-dashoffset: 0; stroke: #cccccc; stroke-opacity: 0.6; stroke-width: 1.5"/>
     </g>
     <g id="text_33">
      <!-- 2023 - H100 -->
      <g style="fill: #262626" transform="translate(631.584979 1094.040673) rotate(-45) scale(0.165 -0.165)">
       <use xlink:href="#ArialMT-32"/>
       <use xlink:href="#ArialMT-30" transform="translate(55.615234 0)"/>
       <use xlink:href="#ArialMT-32" transform="translate(111.230469 0)"/>
       <use xlink:href="#ArialMT-33" transform="translate(166.845703 0)"/>
       <use xlink:href="#ArialMT-20" transform="translate(222.460938 0)"/>
       <use xlink:href="#ArialMT-2d" transform="translate(250.244141 0)"/>
       <use xlink:href="#ArialMT-20" transform="translate(283.544922 0)"/>
       <use xlink:href="#ArialMT-48" transform="translate(311.328125 0)"/>
       <use xlink:href="#ArialMT-31" transform="translate(383.544922 0)"/>
       <use xlink:href="#ArialMT-30" transform="translate(439.160156 0)"/>
       <use xlink:href="#ArialMT-30" transform="translate(494.775391 0)"/>
      </g>
     </g>
    </g>
    <g id="xtick_66">
     <g id="line2d_83">
      <path d="M 721.161679 1008.979419 
L 721.161679 881.809307 
" clip-path="url(#p56bedcfb4b)" style="fill: none; stroke-dasharray: 5.55,2.4; stroke-dashoffset: 0; stroke: #cccccc; stroke-opacity: 0.6; stroke-width: 1.5"/>
     </g>
     <g id="text_34">
      <!-- 2024 - B200 -->
      <g style="fill: #262626" transform="translate(692.394587 1093.39715) rotate(-45) scale(0.165 -0.165)">
       <use xlink:href="#ArialMT-32"/>
       <use xlink:href="#ArialMT-30" transform="translate(55.615234 0)"/>
       <use xlink:href="#ArialMT-32" transform="translate(111.230469 0)"/>
       <use xlink:href="#ArialMT-34" transform="translate(166.845703 0)"/>
       <use xlink:href="#ArialMT-20" transform="translate(222.460938 0)"/>
       <use xlink:href="#ArialMT-2d" transform="translate(250.244141 0)"/>
       <use xlink:href="#ArialMT-20" transform="translate(283.544922 0)"/>
       <use xlink:href="#ArialMT-42" transform="translate(311.328125 0)"/>
       <use xlink:href="#ArialMT-32" transform="translate(378.027344 0)"/>
       <use xlink:href="#ArialMT-30" transform="translate(433.642578 0)"/>
       <use xlink:href="#ArialMT-30" transform="translate(489.257812 0)"/>
      </g>
     </g>
    </g>
    <g id="text_35">
     <!-- Year  GPU -->
     <g style="fill: #262626" transform="translate(371.025262 1117.139375) scale(0.18 -0.18)">
      <defs>
       <path id="ArialMT-59" d="M 1784 0 
L 1784 1941 
L 19 4581 
L 756 4581 
L 1659 3200 
Q 1909 2813 2125 2425 
Q 2331 2784 2625 3234 
L 3513 4581 
L 4219 4581 
L 2391 1941 
L 2391 0 
L 1784 0 
z
" transform="scale(0.015625)"/>
       <path id="ArialMT-2013" d="M -13 1431 
L -13 1884 
L 3547 1884 
L 3547 1431 
L -13 1431 
z
" transform="scale(0.015625)"/>
       <path id="ArialMT-55" d="M 3500 4581 
L 4106 4581 
L 4106 1934 
Q 4106 1244 3950 837 
Q 3794 431 3386 176 
Q 2978 -78 2316 -78 
Q 1672 -78 1262 144 
Q 853 366 678 786 
Q 503 1206 503 1934 
L 503 4581 
L 1109 4581 
L 1109 1938 
Q 1109 1341 1220 1058 
Q 1331 775 1601 622 
Q 1872 469 2263 469 
Q 2931 469 3215 772 
Q 3500 1075 3500 1938 
L 3500 4581 
z
" transform="scale(0.015625)"/>
      </defs>
      <use xlink:href="#ArialMT-59"/>
      <use xlink:href="#ArialMT-65" transform="translate(57.574219 0)"/>
      <use xlink:href="#ArialMT-61" transform="translate(113.189453 0)"/>
      <use xlink:href="#ArialMT-72" transform="translate(168.804688 0)"/>
      <use xlink:href="#ArialMT-20" transform="translate(202.105469 0)"/>
      <use xlink:href="#ArialMT-2013" transform="translate(229.888672 0)"/>
      <use xlink:href="#ArialMT-20" transform="translate(285.503906 0)"/>
      <use xlink:href="#ArialMT-47" transform="translate(313.287109 0)"/>
      <use xlink:href="#ArialMT-50" transform="translate(391.070312 0)"/>
      <use xlink:href="#ArialMT-55" transform="translate(457.769531 0)"/>
     </g>
    </g>
   </g>
   <g id="matplotlib.axis_12">
    <g id="ytick_13">
     <g id="line2d_84">
      <path d="M 86.039297 1008.979419 
L 751.405602 1008.979419 
" clip-path="url(#p56bedcfb4b)" style="fill: none; stroke-dasharray: 5.55,2.4; stroke-dashoffset: 0; stroke: #cccccc; stroke-opacity: 0.6; stroke-width: 1.5"/>
     </g>
     <g id="text_36">
      <!-- 0 -->
      <g style="fill: #262626" transform="translate(64.36375 1014.884614) scale(0.165 -0.165)">
       <use xlink:href="#ArialMT-30"/>
      </g>
     </g>
    </g>
    <g id="ytick_14">
     <g id="line2d_85">
      <path d="M 86.039297 951.454581 
L 751.405602 951.454581 
" clip-path="url(#p56bedcfb4b)" style="fill: none; stroke-dasharray: 5.55,2.4; stroke-dashoffset: 0; stroke: #cccccc; stroke-opacity: 0.6; stroke-width: 1.5"/>
     </g>
     <g id="text_37">
      <!-- 2 -->
      <g style="fill: #262626" transform="translate(64.36375 957.359776) scale(0.165 -0.165)">
       <use xlink:href="#ArialMT-32"/>
      </g>
     </g>
    </g>
    <g id="ytick_15">
     <g id="line2d_86">
      <path d="M 86.039297 893.929742 
L 751.405602 893.929742 
" clip-path="url(#p56bedcfb4b)" style="fill: none; stroke-dasharray: 5.55,2.4; stroke-dashoffset: 0; stroke: #cccccc; stroke-opacity: 0.6; stroke-width: 1.5"/>
     </g>
     <g id="text_38">
      <!-- 4 -->
      <g style="fill: #262626" transform="translate(64.36375 899.834938) scale(0.165 -0.165)">
       <use xlink:href="#ArialMT-34"/>
      </g>
     </g>
    </g>
    <g id="text_39">
     <!-- W / transistor -->
     <g style="fill: #262626" transform="translate(56.78625 998.398738) rotate(-90) scale(0.18 -0.18)">
      <use xlink:href="#ArialMT-57"/>
      <use xlink:href="#ArialMT-20" transform="translate(94.384766 0)"/>
      <use xlink:href="#ArialMT-2f" transform="translate(122.167969 0)"/>
      <use xlink:href="#ArialMT-20" transform="translate(149.951172 0)"/>
      <use xlink:href="#ArialMT-74" transform="translate(177.734375 0)"/>
      <use xlink:href="#ArialMT-72" transform="translate(205.517578 0)"/>
      <use xlink:href="#ArialMT-61" transform="translate(238.818359 0)"/>
      <use xlink:href="#ArialMT-6e" transform="translate(294.433594 0)"/>
      <use xlink:href="#ArialMT-73" transform="translate(350.048828 0)"/>
      <use xlink:href="#ArialMT-69" transform="translate(400.048828 0)"/>
      <use xlink:href="#ArialMT-73" transform="translate(422.265625 0)"/>
      <use xlink:href="#ArialMT-74" transform="translate(472.265625 0)"/>
      <use xlink:href="#ArialMT-6f" transform="translate(500.048828 0)"/>
      <use xlink:href="#ArialMT-72" transform="translate(555.664062 0)"/>
     </g>
    </g>
    <g id="text_40">
     <!-- 1e8 -->
     <g style="fill: #262626" transform="translate(86.039297 878.809307) scale(0.165 -0.165)">
      <defs>
       <path id="ArialMT-2212" d="M 3381 1997 
L 356 1997 
L 356 2522 
L 3381 2522 
L 3381 1997 
z
" transform="scale(0.015625)"/>
      </defs>
      <use xlink:href="#ArialMT-31"/>
      <use xlink:href="#ArialMT-65" transform="translate(55.615234 0)"/>
      <use xlink:href="#ArialMT-2212" transform="translate(111.230469 0)"/>
      <use xlink:href="#ArialMT-38" transform="translate(169.628906 0)"/>
     </g>
    </g>
   </g>
   <g id="FillBetweenPolyCollection_6"/>
   <g id="line2d_87">
    <path d="M 116.28322 887.448071 
L 176.771066 952.582519 
L 237.258912 968.084984 
L 297.746758 970.320253 
L 358.234604 994.175233 
L 418.722449 995.71262 
L 479.210295 978.489222 
L 539.698141 1000.223332 
L 600.185987 997.670473 
L 660.673833 983.812302 
L 721.161679 981.323247 
" clip-path="url(#p56bedcfb4b)" style="fill: none; stroke: #4c72b0; stroke-width: 2; stroke-linecap: round"/>
    <g clip-path="url(#p56bedcfb4b)">
     <use xlink:href="#m6cb56e31e4" x="116.28322" y="887.448071" style="fill: #4c72b0; stroke: #ffffff; stroke-width: 0.75"/>
     <use xlink:href="#m6cb56e31e4" x="176.771066" y="952.582519" style="fill: #4c72b0; stroke: #ffffff; stroke-width: 0.75"/>
     <use xlink:href="#m6cb56e31e4" x="237.258912" y="968.084984" style="fill: #4c72b0; stroke: #ffffff; stroke-width: 0.75"/>
     <use xlink:href="#m6cb56e31e4" x="297.746758" y="970.320253" style="fill: #4c72b0; stroke: #ffffff; stroke-width: 0.75"/>
     <use xlink:href="#m6cb56e31e4" x="358.234604" y="994.175233" style="fill: #4c72b0; stroke: #ffffff; stroke-width: 0.75"/>
     <use xlink:href="#m6cb56e31e4" x="418.722449" y="995.71262" style="fill: #4c72b0; stroke: #ffffff; stroke-width: 0.75"/>
     <use xlink:href="#m6cb56e31e4" x="479.210295" y="978.489222" style="fill: #4c72b0; stroke: #ffffff; stroke-width: 0.75"/>
     <use xlink:href="#m6cb56e31e4" x="539.698141" y="1000.223332" style="fill: #4c72b0; stroke: #ffffff; stroke-width: 0.75"/>
     <use xlink:href="#m6cb56e31e4" x="600.185987" y="997.670473" style="fill: #4c72b0; stroke: #ffffff; stroke-width: 0.75"/>
     <use xlink:href="#m6cb56e31e4" x="660.673833" y="983.812302" style="fill: #4c72b0; stroke: #ffffff; stroke-width: 0.75"/>
     <use xlink:href="#m6cb56e31e4" x="721.161679" y="981.323247" style="fill: #4c72b0; stroke: #ffffff; stroke-width: 0.75"/>
    </g>
   </g>
   <g id="patch_28">
    <path d="M 86.039297 1008.979419 
L 86.039297 881.809307 
" style="fill: none; stroke: #cccccc; stroke-width: 1.875; stroke-linejoin: miter; stroke-linecap: square"/>
   </g>
   <g id="patch_29">
    <path d="M 751.405602 1008.979419 
L 751.405602 881.809307 
" style="fill: none; stroke: #cccccc; stroke-width: 1.875; stroke-linejoin: miter; stroke-linecap: square"/>
   </g>
   <g id="patch_30">
    <path d="M 86.039297 1008.979419 
L 751.405602 1008.979419 
" style="fill: none; stroke: #cccccc; stroke-width: 1.875; stroke-linejoin: miter; stroke-linecap: square"/>
   </g>
   <g id="patch_31">
    <path d="M 86.039297 881.809307 
L 751.405602 881.809307 
" style="fill: none; stroke: #cccccc; stroke-width: 1.875; stroke-linejoin: miter; stroke-linecap: square"/>
   </g>
   <g id="text_41">
    <!-- TDP per Transistor -->
    <g style="fill: #262626" transform="translate(347.289949 875.809307) scale(0.16 -0.16)">
     <defs>
      <path id="Arial-BoldMT-70" d="M 434 3319 
L 1253 3319 
L 1253 2831 
Q 1413 3081 1684 3237 
Q 1956 3394 2288 3394 
Q 2866 3394 3269 2941 
Q 3672 2488 3672 1678 
Q 3672 847 3265 386 
Q 2859 -75 2281 -75 
Q 2006 -75 1782 34 
Q 1559 144 1313 409 
L 1313 -1263 
L 434 -1263 
L 434 3319 
z
M 1303 1716 
Q 1303 1156 1525 889 
Q 1747 622 2066 622 
Q 2372 622 2575 867 
Q 2778 1113 2778 1672 
Q 2778 2194 2568 2447 
Q 2359 2700 2050 2700 
Q 1728 2700 1515 2451 
Q 1303 2203 1303 1716 
z
" transform="scale(0.015625)"/>
     </defs>
     <use xlink:href="#Arial-BoldMT-54"/>
     <use xlink:href="#Arial-BoldMT-44" transform="translate(61.083984 0)"/>
     <use xlink:href="#Arial-BoldMT-50" transform="translate(133.300781 0)"/>
     <use xlink:href="#Arial-BoldMT-20" transform="translate(198.25 0)"/>
     <use xlink:href="#Arial-BoldMT-70" transform="translate(226.033203 0)"/>
     <use xlink:href="#Arial-BoldMT-65" transform="translate(287.117188 0)"/>
     <use xlink:href="#Arial-BoldMT-72" transform="translate(342.732422 0)"/>
     <use xlink:href="#Arial-BoldMT-20" transform="translate(381.648438 0)"/>
     <use xlink:href="#Arial-BoldMT-54" transform="translate(409.431641 0)"/>
     <use xlink:href="#Arial-BoldMT-72" transform="translate(465.015625 0)"/>
     <use xlink:href="#Arial-BoldMT-61" transform="translate(503.931641 0)"/>
     <use xlink:href="#Arial-BoldMT-6e" transform="translate(559.546875 0)"/>
     <use xlink:href="#Arial-BoldMT-73" transform="translate(620.630859 0)"/>
     <use xlink:href="#Arial-BoldMT-69" transform="translate(676.246094 0)"/>
     <use xlink:href="#Arial-BoldMT-73" transform="translate(704.029297 0)"/>
     <use xlink:href="#Arial-BoldMT-74" transform="translate(759.644531 0)"/>
     <use xlink:href="#Arial-BoldMT-6f" transform="translate(792.945312 0)"/>
     <use xlink:href="#Arial-BoldMT-72" transform="translate(854.029297 0)"/>
    </g>
   </g>
  </g>
 </g>
 <defs>
  <clipPath id="pb20ac814c2">
   <rect x="86.039297" y="24.6525" width="665.366305" height="127.170111"/>
  </clipPath>
  <clipPath id="pb2be769004">
   <rect x="86.039297" y="196.083861" width="665.366305" height="127.170111"/>
  </clipPath>
  <clipPath id="p15f4e30360">
   <rect x="86.039297" y="367.515223" width="665.366305" height="127.170111"/>
  </clipPath>
  <clipPath id="pf9b99701ee">
   <rect x="86.039297" y="538.946584" width="665.366305" height="127.170111"/>
  </clipPath>
  <clipPath id="pf94227efb0">
   <rect x="86.039297" y="710.377946" width="665.366305" height="127.170111"/>
  </clipPath>
  <clipPath id="p56bedcfb4b">
   <rect x="86.039297" y="881.809307" width="665.366305" height="127.170111"/>
  </clipPath>
 </defs>
</svg>
