<?xml version="1.0" encoding="utf-8" standalone="no"?>
<!DOCTYPE svg PUBLIC "-//W3C//DTD SVG 1.1//EN"
  "http://www.w3.org/Graphics/SVG/1.1/DTD/svg11.dtd">
<svg xmlns:xlink="http://www.w3.org/1999/xlink" width="497.654687pt" height="340.877344pt" viewBox="0 0 497.654687 340.877344" xmlns="http://www.w3.org/2000/svg" version="1.1">
 <metadata>
  <rdf:RDF xmlns:dc="http://purl.org/dc/elements/1.1/" xmlns:cc="http://creativecommons.org/ns#" xmlns:rdf="http://www.w3.org/1999/02/22-rdf-syntax-ns#">
   <cc:Work>
    <dc:type rdf:resource="http://purl.org/dc/dcmitype/StillImage"/>
    <dc:date>2025-08-19T10:54:34.367956</dc:date>
    <dc:format>image/svg+xml</dc:format>
    <dc:creator>
     <cc:Agent>
      <dc:title>Matplotlib v3.10.3, https://matplotlib.org/</dc:title>
     </cc:Agent>
    </dc:creator>
   </cc:Work>
  </rdf:RDF>
 </metadata>
 <defs>
  <style type="text/css">*{stroke-linejoin: round; stroke-linecap: butt}</style>
 </defs>
 <g id="figure_1">
  <g id="patch_1">
   <path d="M 0 340.877344 
L 497.654687 340.877344 
L 497.654687 0 
L 0 0 
z
" style="fill: #ffffff"/>
  </g>
  <g id="axes_1">
   <g id="patch_2">
    <path d="M 44.054688 299.143125 
L 490.454687 299.143125 
L 490.454687 21.943125 
L 44.054688 21.943125 
z
" style="fill: #ffffff"/>
   </g>
   <g id="matplotlib.axis_1">
    <g id="xtick_1">
     <g id="line2d_1">
      <path d="M 64.345597 299.143125 
L 64.345597 21.943125 
" clip-path="url(#pdc51430671)" style="fill: none; stroke: #cccccc; stroke-linecap: round"/>
     </g>
     <g id="text_1">
      <!-- 2016 -->
      <g style="fill: #262626" transform="translate(52.111534 316.516719) scale(0.11 -0.11)">
       <defs>
        <path id="ArialMT-32" d="M 3222 541 
L 3222 0 
L 194 0 
Q 188 203 259 391 
Q 375 700 629 1000 
Q 884 1300 1366 1694 
Q 2113 2306 2375 2664 
Q 2638 3022 2638 3341 
Q 2638 3675 2398 3904 
Q 2159 4134 1775 4134 
Q 1369 4134 1125 3890 
Q 881 3647 878 3216 
L 300 3275 
Q 359 3922 746 4261 
Q 1134 4600 1788 4600 
Q 2447 4600 2831 4234 
Q 3216 3869 3216 3328 
Q 3216 3053 3103 2787 
Q 2991 2522 2730 2228 
Q 2469 1934 1863 1422 
Q 1356 997 1212 845 
Q 1069 694 975 541 
L 3222 541 
z
" transform="scale(0.015625)"/>
        <path id="ArialMT-30" d="M 266 2259 
Q 266 3072 433 3567 
Q 600 4063 929 4331 
Q 1259 4600 1759 4600 
Q 2128 4600 2406 4451 
Q 2684 4303 2865 4023 
Q 3047 3744 3150 3342 
Q 3253 2941 3253 2259 
Q 3253 1453 3087 958 
Q 2922 463 2592 192 
Q 2263 -78 1759 -78 
Q 1097 -78 719 397 
Q 266 969 266 2259 
z
M 844 2259 
Q 844 1131 1108 757 
Q 1372 384 1759 384 
Q 2147 384 2411 759 
Q 2675 1134 2675 2259 
Q 2675 3391 2411 3762 
Q 2147 4134 1753 4134 
Q 1366 4134 1134 3806 
Q 844 3388 844 2259 
z
" transform="scale(0.015625)"/>
        <path id="ArialMT-31" d="M 2384 0 
L 1822 0 
L 1822 3584 
Q 1619 3391 1289 3197 
Q 959 3003 697 2906 
L 697 3450 
Q 1169 3672 1522 3987 
Q 1875 4303 2022 4600 
L 2384 4600 
L 2384 0 
z
" transform="scale(0.015625)"/>
        <path id="ArialMT-36" d="M 3184 3459 
L 2625 3416 
Q 2550 3747 2413 3897 
Q 2184 4138 1850 4138 
Q 1581 4138 1378 3988 
Q 1113 3794 959 3422 
Q 806 3050 800 2363 
Q 1003 2672 1297 2822 
Q 1591 2972 1913 2972 
Q 2475 2972 2870 2558 
Q 3266 2144 3266 1488 
Q 3266 1056 3080 686 
Q 2894 316 2569 119 
Q 2244 -78 1831 -78 
Q 1128 -78 684 439 
Q 241 956 241 2144 
Q 241 3472 731 4075 
Q 1159 4600 1884 4600 
Q 2425 4600 2770 4297 
Q 3116 3994 3184 3459 
z
M 888 1484 
Q 888 1194 1011 928 
Q 1134 663 1356 523 
Q 1578 384 1822 384 
Q 2178 384 2434 671 
Q 2691 959 2691 1453 
Q 2691 1928 2437 2201 
Q 2184 2475 1800 2475 
Q 1419 2475 1153 2201 
Q 888 1928 888 1484 
z
" transform="scale(0.015625)"/>
       </defs>
       <use xlink:href="#ArialMT-32"/>
       <use xlink:href="#ArialMT-30" transform="translate(55.615234 0)"/>
       <use xlink:href="#ArialMT-31" transform="translate(111.230469 0)"/>
       <use xlink:href="#ArialMT-36" transform="translate(166.845703 0)"/>
      </g>
     </g>
    </g>
    <g id="xtick_2">
     <g id="line2d_2">
      <path d="M 115.072869 299.143125 
L 115.072869 21.943125 
" clip-path="url(#pdc51430671)" style="fill: none; stroke: #cccccc; stroke-linecap: round"/>
     </g>
     <g id="text_2">
      <!-- 2017 -->
      <g style="fill: #262626" transform="translate(102.838807 316.516719) scale(0.11 -0.11)">
       <defs>
        <path id="ArialMT-37" d="M 303 3981 
L 303 4522 
L 3269 4522 
L 3269 4084 
Q 2831 3619 2401 2847 
Q 1972 2075 1738 1259 
Q 1569 684 1522 0 
L 944 0 
Q 953 541 1156 1306 
Q 1359 2072 1739 2783 
Q 2119 3494 2547 3981 
L 303 3981 
z
" transform="scale(0.015625)"/>
       </defs>
       <use xlink:href="#ArialMT-32"/>
       <use xlink:href="#ArialMT-30" transform="translate(55.615234 0)"/>
       <use xlink:href="#ArialMT-31" transform="translate(111.230469 0)"/>
       <use xlink:href="#ArialMT-37" transform="translate(166.845703 0)"/>
      </g>
     </g>
    </g>
    <g id="xtick_3">
     <g id="line2d_3">
      <path d="M 165.800142 299.143125 
L 165.800142 21.943125 
" clip-path="url(#pdc51430671)" style="fill: none; stroke: #cccccc; stroke-linecap: round"/>
     </g>
     <g id="text_3">
      <!-- 2018 -->
      <g style="fill: #262626" transform="translate(153.56608 316.516719) scale(0.11 -0.11)">
       <defs>
        <path id="ArialMT-38" d="M 1131 2484 
Q 781 2613 612 2850 
Q 444 3088 444 3419 
Q 444 3919 803 4259 
Q 1163 4600 1759 4600 
Q 2359 4600 2725 4251 
Q 3091 3903 3091 3403 
Q 3091 3084 2923 2848 
Q 2756 2613 2416 2484 
Q 2838 2347 3058 2040 
Q 3278 1734 3278 1309 
Q 3278 722 2862 322 
Q 2447 -78 1769 -78 
Q 1091 -78 675 323 
Q 259 725 259 1325 
Q 259 1772 486 2073 
Q 713 2375 1131 2484 
z
M 1019 3438 
Q 1019 3113 1228 2906 
Q 1438 2700 1772 2700 
Q 2097 2700 2305 2904 
Q 2513 3109 2513 3406 
Q 2513 3716 2298 3927 
Q 2084 4138 1766 4138 
Q 1444 4138 1231 3931 
Q 1019 3725 1019 3438 
z
M 838 1322 
Q 838 1081 952 856 
Q 1066 631 1291 507 
Q 1516 384 1775 384 
Q 2178 384 2440 643 
Q 2703 903 2703 1303 
Q 2703 1709 2433 1975 
Q 2163 2241 1756 2241 
Q 1359 2241 1098 1978 
Q 838 1716 838 1322 
z
" transform="scale(0.015625)"/>
       </defs>
       <use xlink:href="#ArialMT-32"/>
       <use xlink:href="#ArialMT-30" transform="translate(55.615234 0)"/>
       <use xlink:href="#ArialMT-31" transform="translate(111.230469 0)"/>
       <use xlink:href="#ArialMT-38" transform="translate(166.845703 0)"/>
      </g>
     </g>
    </g>
    <g id="xtick_4">
     <g id="line2d_4">
      <path d="M 216.527415 299.143125 
L 216.527415 21.943125 
" clip-path="url(#pdc51430671)" style="fill: none; stroke: #cccccc; stroke-linecap: round"/>
     </g>
     <g id="text_4">
      <!-- 2019 -->
      <g style="fill: #262626" transform="translate(204.293352 316.516719) scale(0.11 -0.11)">
       <defs>
        <path id="ArialMT-39" d="M 350 1059 
L 891 1109 
Q 959 728 1153 556 
Q 1347 384 1650 384 
Q 1909 384 2104 503 
Q 2300 622 2425 820 
Q 2550 1019 2634 1356 
Q 2719 1694 2719 2044 
Q 2719 2081 2716 2156 
Q 2547 1888 2255 1720 
Q 1963 1553 1622 1553 
Q 1053 1553 659 1965 
Q 266 2378 266 3053 
Q 266 3750 677 4175 
Q 1088 4600 1706 4600 
Q 2153 4600 2523 4359 
Q 2894 4119 3086 3673 
Q 3278 3228 3278 2384 
Q 3278 1506 3087 986 
Q 2897 466 2520 194 
Q 2144 -78 1638 -78 
Q 1100 -78 759 220 
Q 419 519 350 1059 
z
M 2653 3081 
Q 2653 3566 2395 3850 
Q 2138 4134 1775 4134 
Q 1400 4134 1122 3828 
Q 844 3522 844 3034 
Q 844 2597 1108 2323 
Q 1372 2050 1759 2050 
Q 2150 2050 2401 2323 
Q 2653 2597 2653 3081 
z
" transform="scale(0.015625)"/>
       </defs>
       <use xlink:href="#ArialMT-32"/>
       <use xlink:href="#ArialMT-30" transform="translate(55.615234 0)"/>
       <use xlink:href="#ArialMT-31" transform="translate(111.230469 0)"/>
       <use xlink:href="#ArialMT-39" transform="translate(166.845703 0)"/>
      </g>
     </g>
    </g>
    <g id="xtick_5">
     <g id="line2d_5">
      <path d="M 267.254688 299.143125 
L 267.254688 21.943125 
" clip-path="url(#pdc51430671)" style="fill: none; stroke: #cccccc; stroke-linecap: round"/>
     </g>
     <g id="text_5">
      <!-- 2020 -->
      <g style="fill: #262626" transform="translate(255.020625 316.516719) scale(0.11 -0.11)">
       <use xlink:href="#ArialMT-32"/>
       <use xlink:href="#ArialMT-30" transform="translate(55.615234 0)"/>
       <use xlink:href="#ArialMT-32" transform="translate(111.230469 0)"/>
       <use xlink:href="#ArialMT-30" transform="translate(166.845703 0)"/>
      </g>
     </g>
    </g>
    <g id="xtick_6">
     <g id="line2d_6">
      <path d="M 317.98196 299.143125 
L 317.98196 21.943125 
" clip-path="url(#pdc51430671)" style="fill: none; stroke: #cccccc; stroke-linecap: round"/>
     </g>
     <g id="text_6">
      <!-- 2021 -->
      <g style="fill: #262626" transform="translate(305.747898 316.516719) scale(0.11 -0.11)">
       <use xlink:href="#ArialMT-32"/>
       <use xlink:href="#ArialMT-30" transform="translate(55.615234 0)"/>
       <use xlink:href="#ArialMT-32" transform="translate(111.230469 0)"/>
       <use xlink:href="#ArialMT-31" transform="translate(166.845703 0)"/>
      </g>
     </g>
    </g>
    <g id="xtick_7">
     <g id="line2d_7">
      <path d="M 368.709233 299.143125 
L 368.709233 21.943125 
" clip-path="url(#pdc51430671)" style="fill: none; stroke: #cccccc; stroke-linecap: round"/>
     </g>
     <g id="text_7">
      <!-- 2022 -->
      <g style="fill: #262626" transform="translate(356.47517 316.516719) scale(0.11 -0.11)">
       <use xlink:href="#ArialMT-32"/>
       <use xlink:href="#ArialMT-30" transform="translate(55.615234 0)"/>
       <use xlink:href="#ArialMT-32" transform="translate(111.230469 0)"/>
       <use xlink:href="#ArialMT-32" transform="translate(166.845703 0)"/>
      </g>
     </g>
    </g>
    <g id="xtick_8">
     <g id="line2d_8">
      <path d="M 419.436506 299.143125 
L 419.436506 21.943125 
" clip-path="url(#pdc51430671)" style="fill: none; stroke: #cccccc; stroke-linecap: round"/>
     </g>
     <g id="text_8">
      <!-- 2023 -->
      <g style="fill: #262626" transform="translate(407.202443 316.516719) scale(0.11 -0.11)">
       <defs>
        <path id="ArialMT-33" d="M 269 1209 
L 831 1284 
Q 928 806 1161 595 
Q 1394 384 1728 384 
Q 2125 384 2398 659 
Q 2672 934 2672 1341 
Q 2672 1728 2419 1979 
Q 2166 2231 1775 2231 
Q 1616 2231 1378 2169 
L 1441 2663 
Q 1497 2656 1531 2656 
Q 1891 2656 2178 2843 
Q 2466 3031 2466 3422 
Q 2466 3731 2256 3934 
Q 2047 4138 1716 4138 
Q 1388 4138 1169 3931 
Q 950 3725 888 3313 
L 325 3413 
Q 428 3978 793 4289 
Q 1159 4600 1703 4600 
Q 2078 4600 2393 4439 
Q 2709 4278 2876 4000 
Q 3044 3722 3044 3409 
Q 3044 3113 2884 2869 
Q 2725 2625 2413 2481 
Q 2819 2388 3044 2092 
Q 3269 1797 3269 1353 
Q 3269 753 2831 336 
Q 2394 -81 1725 -81 
Q 1122 -81 723 278 
Q 325 638 269 1209 
z
" transform="scale(0.015625)"/>
       </defs>
       <use xlink:href="#ArialMT-32"/>
       <use xlink:href="#ArialMT-30" transform="translate(55.615234 0)"/>
       <use xlink:href="#ArialMT-32" transform="translate(111.230469 0)"/>
       <use xlink:href="#ArialMT-33" transform="translate(166.845703 0)"/>
      </g>
     </g>
    </g>
    <g id="xtick_9">
     <g id="line2d_9">
      <path d="M 470.163778 299.143125 
L 470.163778 21.943125 
" clip-path="url(#pdc51430671)" style="fill: none; stroke: #cccccc; stroke-linecap: round"/>
     </g>
     <g id="text_9">
      <!-- 2024 -->
      <g style="fill: #262626" transform="translate(457.929716 316.516719) scale(0.11 -0.11)">
       <defs>
        <path id="ArialMT-34" d="M 2069 0 
L 2069 1097 
L 81 1097 
L 81 1613 
L 2172 4581 
L 2631 4581 
L 2631 1613 
L 3250 1613 
L 3250 1097 
L 2631 1097 
L 2631 0 
L 2069 0 
z
M 2069 1613 
L 2069 3678 
L 634 1613 
L 2069 1613 
z
" transform="scale(0.015625)"/>
       </defs>
       <use xlink:href="#ArialMT-32"/>
       <use xlink:href="#ArialMT-30" transform="translate(55.615234 0)"/>
       <use xlink:href="#ArialMT-32" transform="translate(111.230469 0)"/>
       <use xlink:href="#ArialMT-34" transform="translate(166.845703 0)"/>
      </g>
     </g>
    </g>
    <g id="text_10">
     <!-- Year -->
     <g style="fill: #262626" transform="translate(255.129062 331.292344) scale(0.12 -0.12)">
      <defs>
       <path id="ArialMT-59" d="M 1784 0 
L 1784 1941 
L 19 4581 
L 756 4581 
L 1659 3200 
Q 1909 2813 2125 2425 
Q 2331 2784 2625 3234 
L 3513 4581 
L 4219 4581 
L 2391 1941 
L 2391 0 
L 1784 0 
z
" transform="scale(0.015625)"/>
       <path id="ArialMT-65" d="M 2694 1069 
L 3275 997 
Q 3138 488 2766 206 
Q 2394 -75 1816 -75 
Q 1088 -75 661 373 
Q 234 822 234 1631 
Q 234 2469 665 2931 
Q 1097 3394 1784 3394 
Q 2450 3394 2872 2941 
Q 3294 2488 3294 1666 
Q 3294 1616 3291 1516 
L 816 1516 
Q 847 969 1125 678 
Q 1403 388 1819 388 
Q 2128 388 2347 550 
Q 2566 713 2694 1069 
z
M 847 1978 
L 2700 1978 
Q 2663 2397 2488 2606 
Q 2219 2931 1791 2931 
Q 1403 2931 1139 2672 
Q 875 2413 847 1978 
z
" transform="scale(0.015625)"/>
       <path id="ArialMT-61" d="M 2588 409 
Q 2275 144 1986 34 
Q 1697 -75 1366 -75 
Q 819 -75 525 192 
Q 231 459 231 875 
Q 231 1119 342 1320 
Q 453 1522 633 1644 
Q 813 1766 1038 1828 
Q 1203 1872 1538 1913 
Q 2219 1994 2541 2106 
Q 2544 2222 2544 2253 
Q 2544 2597 2384 2738 
Q 2169 2928 1744 2928 
Q 1347 2928 1158 2789 
Q 969 2650 878 2297 
L 328 2372 
Q 403 2725 575 2942 
Q 747 3159 1072 3276 
Q 1397 3394 1825 3394 
Q 2250 3394 2515 3294 
Q 2781 3194 2906 3042 
Q 3031 2891 3081 2659 
Q 3109 2516 3109 2141 
L 3109 1391 
Q 3109 606 3145 398 
Q 3181 191 3288 0 
L 2700 0 
Q 2613 175 2588 409 
z
M 2541 1666 
Q 2234 1541 1622 1453 
Q 1275 1403 1131 1340 
Q 988 1278 909 1158 
Q 831 1038 831 891 
Q 831 666 1001 516 
Q 1172 366 1500 366 
Q 1825 366 2078 508 
Q 2331 650 2450 897 
Q 2541 1088 2541 1459 
L 2541 1666 
z
" transform="scale(0.015625)"/>
       <path id="ArialMT-72" d="M 416 0 
L 416 3319 
L 922 3319 
L 922 2816 
Q 1116 3169 1280 3281 
Q 1444 3394 1641 3394 
Q 1925 3394 2219 3213 
L 2025 2691 
Q 1819 2813 1613 2813 
Q 1428 2813 1281 2702 
Q 1134 2591 1072 2394 
Q 978 2094 978 1738 
L 978 0 
L 416 0 
z
" transform="scale(0.015625)"/>
      </defs>
      <use xlink:href="#ArialMT-59"/>
      <use xlink:href="#ArialMT-65" transform="translate(57.574219 0)"/>
      <use xlink:href="#ArialMT-61" transform="translate(113.189453 0)"/>
      <use xlink:href="#ArialMT-72" transform="translate(168.804688 0)"/>
     </g>
    </g>
   </g>
   <g id="matplotlib.axis_2">
    <g id="ytick_1">
     <g id="line2d_10">
      <path d="M 44.054688 285.53955 
L 490.454687 285.53955 
" clip-path="url(#pdc51430671)" style="fill: none; stroke: #cccccc; stroke-linecap: round"/>
     </g>
     <g id="text_11">
      <!-- 0 -->
      <g style="fill: #262626" transform="translate(28.437656 289.476347) scale(0.11 -0.11)">
       <use xlink:href="#ArialMT-30"/>
      </g>
     </g>
    </g>
    <g id="ytick_2">
     <g id="line2d_11">
      <path d="M 44.054688 237.397364 
L 490.454687 237.397364 
" clip-path="url(#pdc51430671)" style="fill: none; stroke: #cccccc; stroke-linecap: round"/>
     </g>
     <g id="text_12">
      <!-- 5 -->
      <g style="fill: #262626" transform="translate(28.437656 241.334161) scale(0.11 -0.11)">
       <defs>
        <path id="ArialMT-35" d="M 266 1200 
L 856 1250 
Q 922 819 1161 601 
Q 1400 384 1738 384 
Q 2144 384 2425 690 
Q 2706 997 2706 1503 
Q 2706 1984 2436 2262 
Q 2166 2541 1728 2541 
Q 1456 2541 1237 2417 
Q 1019 2294 894 2097 
L 366 2166 
L 809 4519 
L 3088 4519 
L 3088 3981 
L 1259 3981 
L 1013 2750 
Q 1425 3038 1878 3038 
Q 2478 3038 2890 2622 
Q 3303 2206 3303 1553 
Q 3303 931 2941 478 
Q 2500 -78 1738 -78 
Q 1113 -78 717 272 
Q 322 622 266 1200 
z
" transform="scale(0.015625)"/>
       </defs>
       <use xlink:href="#ArialMT-35"/>
      </g>
     </g>
    </g>
    <g id="ytick_3">
     <g id="line2d_12">
      <path d="M 44.054688 189.255178 
L 490.454687 189.255178 
" clip-path="url(#pdc51430671)" style="fill: none; stroke: #cccccc; stroke-linecap: round"/>
     </g>
     <g id="text_13">
      <!-- 10 -->
      <g style="fill: #262626" transform="translate(22.320625 193.191975) scale(0.11 -0.11)">
       <use xlink:href="#ArialMT-31"/>
       <use xlink:href="#ArialMT-30" transform="translate(55.615234 0)"/>
      </g>
     </g>
    </g>
    <g id="ytick_4">
     <g id="line2d_13">
      <path d="M 44.054688 141.112992 
L 490.454687 141.112992 
" clip-path="url(#pdc51430671)" style="fill: none; stroke: #cccccc; stroke-linecap: round"/>
     </g>
     <g id="text_14">
      <!-- 15 -->
      <g style="fill: #262626" transform="translate(22.320625 145.049789) scale(0.11 -0.11)">
       <use xlink:href="#ArialMT-31"/>
       <use xlink:href="#ArialMT-35" transform="translate(55.615234 0)"/>
      </g>
     </g>
    </g>
    <g id="ytick_5">
     <g id="line2d_14">
      <path d="M 44.054688 92.970807 
L 490.454687 92.970807 
" clip-path="url(#pdc51430671)" style="fill: none; stroke: #cccccc; stroke-linecap: round"/>
     </g>
     <g id="text_15">
      <!-- 20 -->
      <g style="fill: #262626" transform="translate(22.320625 96.907604) scale(0.11 -0.11)">
       <use xlink:href="#ArialMT-32"/>
       <use xlink:href="#ArialMT-30" transform="translate(55.615234 0)"/>
      </g>
     </g>
    </g>
    <g id="ytick_6">
     <g id="line2d_15">
      <path d="M 44.054688 44.828621 
L 490.454687 44.828621 
" clip-path="url(#pdc51430671)" style="fill: none; stroke: #cccccc; stroke-linecap: round"/>
     </g>
     <g id="text_16">
      <!-- 25 -->
      <g style="fill: #262626" transform="translate(22.320625 48.765418) scale(0.11 -0.11)">
       <use xlink:href="#ArialMT-32"/>
       <use xlink:href="#ArialMT-35" transform="translate(55.615234 0)"/>
      </g>
     </g>
    </g>
    <g id="text_17">
     <!-- Speedup vs Earliest Year -->
     <g style="fill: #262626" transform="translate(15.935625 227.592187) rotate(-90) scale(0.12 -0.12)">
      <defs>
       <path id="ArialMT-53" d="M 288 1472 
L 859 1522 
Q 900 1178 1048 958 
Q 1197 738 1509 602 
Q 1822 466 2213 466 
Q 2559 466 2825 569 
Q 3091 672 3220 851 
Q 3350 1031 3350 1244 
Q 3350 1459 3225 1620 
Q 3100 1781 2813 1891 
Q 2628 1963 1997 2114 
Q 1366 2266 1113 2400 
Q 784 2572 623 2826 
Q 463 3081 463 3397 
Q 463 3744 659 4045 
Q 856 4347 1234 4503 
Q 1613 4659 2075 4659 
Q 2584 4659 2973 4495 
Q 3363 4331 3572 4012 
Q 3781 3694 3797 3291 
L 3216 3247 
Q 3169 3681 2898 3903 
Q 2628 4125 2100 4125 
Q 1550 4125 1298 3923 
Q 1047 3722 1047 3438 
Q 1047 3191 1225 3031 
Q 1400 2872 2139 2705 
Q 2878 2538 3153 2413 
Q 3553 2228 3743 1945 
Q 3934 1663 3934 1294 
Q 3934 928 3725 604 
Q 3516 281 3123 101 
Q 2731 -78 2241 -78 
Q 1619 -78 1198 103 
Q 778 284 539 648 
Q 300 1013 288 1472 
z
" transform="scale(0.015625)"/>
       <path id="ArialMT-70" d="M 422 -1272 
L 422 3319 
L 934 3319 
L 934 2888 
Q 1116 3141 1344 3267 
Q 1572 3394 1897 3394 
Q 2322 3394 2647 3175 
Q 2972 2956 3137 2557 
Q 3303 2159 3303 1684 
Q 3303 1175 3120 767 
Q 2938 359 2589 142 
Q 2241 -75 1856 -75 
Q 1575 -75 1351 44 
Q 1128 163 984 344 
L 984 -1272 
L 422 -1272 
z
M 931 1641 
Q 931 1000 1190 694 
Q 1450 388 1819 388 
Q 2194 388 2461 705 
Q 2728 1022 2728 1688 
Q 2728 2322 2467 2637 
Q 2206 2953 1844 2953 
Q 1484 2953 1207 2617 
Q 931 2281 931 1641 
z
" transform="scale(0.015625)"/>
       <path id="ArialMT-64" d="M 2575 0 
L 2575 419 
Q 2259 -75 1647 -75 
Q 1250 -75 917 144 
Q 584 363 401 755 
Q 219 1147 219 1656 
Q 219 2153 384 2558 
Q 550 2963 881 3178 
Q 1213 3394 1622 3394 
Q 1922 3394 2156 3267 
Q 2391 3141 2538 2938 
L 2538 4581 
L 3097 4581 
L 3097 0 
L 2575 0 
z
M 797 1656 
Q 797 1019 1065 703 
Q 1334 388 1700 388 
Q 2069 388 2326 689 
Q 2584 991 2584 1609 
Q 2584 2291 2321 2609 
Q 2059 2928 1675 2928 
Q 1300 2928 1048 2622 
Q 797 2316 797 1656 
z
" transform="scale(0.015625)"/>
       <path id="ArialMT-75" d="M 2597 0 
L 2597 488 
Q 2209 -75 1544 -75 
Q 1250 -75 995 37 
Q 741 150 617 320 
Q 494 491 444 738 
Q 409 903 409 1263 
L 409 3319 
L 972 3319 
L 972 1478 
Q 972 1038 1006 884 
Q 1059 663 1231 536 
Q 1403 409 1656 409 
Q 1909 409 2131 539 
Q 2353 669 2445 892 
Q 2538 1116 2538 1541 
L 2538 3319 
L 3100 3319 
L 3100 0 
L 2597 0 
z
" transform="scale(0.015625)"/>
       <path id="ArialMT-20" transform="scale(0.015625)"/>
       <path id="ArialMT-76" d="M 1344 0 
L 81 3319 
L 675 3319 
L 1388 1331 
Q 1503 1009 1600 663 
Q 1675 925 1809 1294 
L 2547 3319 
L 3125 3319 
L 1869 0 
L 1344 0 
z
" transform="scale(0.015625)"/>
       <path id="ArialMT-73" d="M 197 991 
L 753 1078 
Q 800 744 1014 566 
Q 1228 388 1613 388 
Q 2000 388 2187 545 
Q 2375 703 2375 916 
Q 2375 1106 2209 1216 
Q 2094 1291 1634 1406 
Q 1016 1563 777 1677 
Q 538 1791 414 1992 
Q 291 2194 291 2438 
Q 291 2659 392 2848 
Q 494 3038 669 3163 
Q 800 3259 1026 3326 
Q 1253 3394 1513 3394 
Q 1903 3394 2198 3281 
Q 2494 3169 2634 2976 
Q 2775 2784 2828 2463 
L 2278 2388 
Q 2241 2644 2061 2787 
Q 1881 2931 1553 2931 
Q 1166 2931 1000 2803 
Q 834 2675 834 2503 
Q 834 2394 903 2306 
Q 972 2216 1119 2156 
Q 1203 2125 1616 2013 
Q 2213 1853 2448 1751 
Q 2684 1650 2818 1456 
Q 2953 1263 2953 975 
Q 2953 694 2789 445 
Q 2625 197 2315 61 
Q 2006 -75 1616 -75 
Q 969 -75 630 194 
Q 291 463 197 991 
z
" transform="scale(0.015625)"/>
       <path id="ArialMT-45" d="M 506 0 
L 506 4581 
L 3819 4581 
L 3819 4041 
L 1113 4041 
L 1113 2638 
L 3647 2638 
L 3647 2100 
L 1113 2100 
L 1113 541 
L 3925 541 
L 3925 0 
L 506 0 
z
" transform="scale(0.015625)"/>
       <path id="ArialMT-6c" d="M 409 0 
L 409 4581 
L 972 4581 
L 972 0 
L 409 0 
z
" transform="scale(0.015625)"/>
       <path id="ArialMT-69" d="M 425 3934 
L 425 4581 
L 988 4581 
L 988 3934 
L 425 3934 
z
M 425 0 
L 425 3319 
L 988 3319 
L 988 0 
L 425 0 
z
" transform="scale(0.015625)"/>
       <path id="ArialMT-74" d="M 1650 503 
L 1731 6 
Q 1494 -44 1306 -44 
Q 1000 -44 831 53 
Q 663 150 594 308 
Q 525 466 525 972 
L 525 2881 
L 113 2881 
L 113 3319 
L 525 3319 
L 525 4141 
L 1084 4478 
L 1084 3319 
L 1650 3319 
L 1650 2881 
L 1084 2881 
L 1084 941 
Q 1084 700 1114 631 
Q 1144 563 1211 522 
Q 1278 481 1403 481 
Q 1497 481 1650 503 
z
" transform="scale(0.015625)"/>
      </defs>
      <use xlink:href="#ArialMT-53"/>
      <use xlink:href="#ArialMT-70" transform="translate(66.699219 0)"/>
      <use xlink:href="#ArialMT-65" transform="translate(122.314453 0)"/>
      <use xlink:href="#ArialMT-65" transform="translate(177.929688 0)"/>
      <use xlink:href="#ArialMT-64" transform="translate(233.544922 0)"/>
      <use xlink:href="#ArialMT-75" transform="translate(289.160156 0)"/>
      <use xlink:href="#ArialMT-70" transform="translate(344.775391 0)"/>
      <use xlink:href="#ArialMT-20" transform="translate(400.390625 0)"/>
      <use xlink:href="#ArialMT-76" transform="translate(428.173828 0)"/>
      <use xlink:href="#ArialMT-73" transform="translate(478.173828 0)"/>
      <use xlink:href="#ArialMT-20" transform="translate(528.173828 0)"/>
      <use xlink:href="#ArialMT-45" transform="translate(555.957031 0)"/>
      <use xlink:href="#ArialMT-61" transform="translate(622.65625 0)"/>
      <use xlink:href="#ArialMT-72" transform="translate(678.271484 0)"/>
      <use xlink:href="#ArialMT-6c" transform="translate(711.572266 0)"/>
      <use xlink:href="#ArialMT-69" transform="translate(733.789062 0)"/>
      <use xlink:href="#ArialMT-65" transform="translate(756.005859 0)"/>
      <use xlink:href="#ArialMT-73" transform="translate(811.621094 0)"/>
      <use xlink:href="#ArialMT-74" transform="translate(861.621094 0)"/>
      <use xlink:href="#ArialMT-20" transform="translate(889.404297 0)"/>
      <use xlink:href="#ArialMT-59" transform="translate(915.4375 0)"/>
      <use xlink:href="#ArialMT-65" transform="translate(973.011719 0)"/>
      <use xlink:href="#ArialMT-61" transform="translate(1028.626953 0)"/>
      <use xlink:href="#ArialMT-72" transform="translate(1084.242188 0)"/>
     </g>
    </g>
   </g>
   <g id="PathCollection_1">
    <defs>
     <path id="m6e741c1097" d="M 0 3 
C 0.795609 3 1.55874 2.683901 2.12132 2.12132 
C 2.683901 1.55874 3 0.795609 3 0 
C 3 -0.795609 2.683901 -1.55874 2.12132 -2.12132 
C 1.55874 -2.683901 0.795609 -3 0 -3 
C -0.795609 -3 -1.55874 -2.683901 -2.12132 -2.12132 
C -2.683901 -1.55874 -3 -0.795609 -3 0 
C -3 0.795609 -2.683901 1.55874 -2.12132 2.12132 
C -1.55874 2.683901 -0.795609 3 0 3 
z
" style="stroke: #0000ff; stroke-opacity: 0.7"/>
    </defs>
    <g clip-path="url(#pdc51430671)">
     <use xlink:href="#m6e741c1097" x="419.436506" y="181.97699" style="fill: #0000ff; fill-opacity: 0.7; stroke: #0000ff; stroke-opacity: 0.7"/>
     <use xlink:href="#m6e741c1097" x="115.072869" y="271.256104" style="fill: #0000ff; fill-opacity: 0.7; stroke: #0000ff; stroke-opacity: 0.7"/>
     <use xlink:href="#m6e741c1097" x="267.254688" y="246.131191" style="fill: #0000ff; fill-opacity: 0.7; stroke: #0000ff; stroke-opacity: 0.7"/>
     <use xlink:href="#m6e741c1097" x="470.163778" y="34.543125" style="fill: #0000ff; fill-opacity: 0.7; stroke: #0000ff; stroke-opacity: 0.7"/>
     <use xlink:href="#m6e741c1097" x="267.254688" y="266.626368" style="fill: #0000ff; fill-opacity: 0.7; stroke: #0000ff; stroke-opacity: 0.7"/>
     <use xlink:href="#m6e741c1097" x="165.800142" y="271.943489" style="fill: #0000ff; fill-opacity: 0.7; stroke: #0000ff; stroke-opacity: 0.7"/>
     <use xlink:href="#m6e741c1097" x="64.345597" y="275.911113" style="fill: #0000ff; fill-opacity: 0.7; stroke: #0000ff; stroke-opacity: 0.7"/>
     <use xlink:href="#m6e741c1097" x="165.800142" y="252.620909" style="fill: #0000ff; fill-opacity: 0.7; stroke: #0000ff; stroke-opacity: 0.7"/>
     <use xlink:href="#m6e741c1097" x="317.98196" y="280.323515" style="fill: #0000ff; fill-opacity: 0.7; stroke: #0000ff; stroke-opacity: 0.7"/>
     <use xlink:href="#m6e741c1097" x="368.709233" y="239.788047" style="fill: #0000ff; fill-opacity: 0.7; stroke: #0000ff; stroke-opacity: 0.7"/>
    </g>
   </g>
   <g id="PathCollection_2">
    <defs>
     <path id="mc8de66092a" d="M 0 3 
C 0.795609 3 1.55874 2.683901 2.12132 2.12132 
C 2.683901 1.55874 3 0.795609 3 0 
C 3 -0.795609 2.683901 -1.55874 2.12132 -2.12132 
C 1.55874 -2.683901 0.795609 -3 0 -3 
C -0.795609 -3 -1.55874 -2.683901 -2.12132 -2.12132 
C -2.683901 -1.55874 -3 -0.795609 -3 0 
C -3 0.795609 -2.683901 1.55874 -2.12132 2.12132 
C -1.55874 2.683901 -0.795609 3 0 3 
z
" style="stroke: #008000; stroke-opacity: 0.7"/>
    </defs>
    <g clip-path="url(#pdc51430671)">
     <use xlink:href="#mc8de66092a" x="419.436506" y="233.768759" style="fill: #008000; fill-opacity: 0.7; stroke: #008000; stroke-opacity: 0.7"/>
     <use xlink:href="#mc8de66092a" x="115.072869" y="271.257604" style="fill: #008000; fill-opacity: 0.7; stroke: #008000; stroke-opacity: 0.7"/>
     <use xlink:href="#mc8de66092a" x="267.254688" y="265.839966" style="fill: #008000; fill-opacity: 0.7; stroke: #008000; stroke-opacity: 0.7"/>
     <use xlink:href="#mc8de66092a" x="470.163778" y="160.044404" style="fill: #008000; fill-opacity: 0.7; stroke: #008000; stroke-opacity: 0.7"/>
     <use xlink:href="#mc8de66092a" x="267.254688" y="247.717157" style="fill: #008000; fill-opacity: 0.7; stroke: #008000; stroke-opacity: 0.7"/>
     <use xlink:href="#mc8de66092a" x="165.800142" y="271.944916" style="fill: #008000; fill-opacity: 0.7; stroke: #008000; stroke-opacity: 0.7"/>
     <use xlink:href="#mc8de66092a" x="64.345597" y="275.911113" style="fill: #008000; fill-opacity: 0.7; stroke: #008000; stroke-opacity: 0.7"/>
     <use xlink:href="#mc8de66092a" x="165.800142" y="277.311006" style="fill: #008000; fill-opacity: 0.7; stroke: #008000; stroke-opacity: 0.7"/>
     <use xlink:href="#mc8de66092a" x="317.98196" y="275.108574" style="fill: #008000; fill-opacity: 0.7; stroke: #008000; stroke-opacity: 0.7"/>
     <use xlink:href="#mc8de66092a" x="368.709233" y="194.046149" style="fill: #008000; fill-opacity: 0.7; stroke: #008000; stroke-opacity: 0.7"/>
    </g>
   </g>
   <g id="PathCollection_3">
    <defs>
     <path id="mbb6f3de052" d="M 0 3 
C 0.795609 3 1.55874 2.683901 2.12132 2.12132 
C 2.683901 1.55874 3 0.795609 3 0 
C 3 -0.795609 2.683901 -1.55874 2.12132 -2.12132 
C 1.55874 -2.683901 0.795609 -3 0 -3 
C -0.795609 -3 -1.55874 -2.683901 -2.12132 -2.12132 
C -2.683901 -1.55874 -3 -0.795609 -3 0 
C -3 0.795609 -2.683901 1.55874 -2.12132 2.12132 
C -1.55874 2.683901 -0.795609 3 0 3 
z
" style="stroke: #ff0000; stroke-opacity: 0.7"/>
    </defs>
    <g clip-path="url(#pdc51430671)">
     <use xlink:href="#mbb6f3de052" x="419.436506" y="233.768759" style="fill: #ff0000; fill-opacity: 0.7; stroke: #ff0000; stroke-opacity: 0.7"/>
     <use xlink:href="#mbb6f3de052" x="115.072869" y="271.255582" style="fill: #ff0000; fill-opacity: 0.7; stroke: #ff0000; stroke-opacity: 0.7"/>
     <use xlink:href="#mbb6f3de052" x="267.254688" y="265.837944" style="fill: #ff0000; fill-opacity: 0.7; stroke: #ff0000; stroke-opacity: 0.7"/>
     <use xlink:href="#mbb6f3de052" x="470.163778" y="160.044404" style="fill: #ff0000; fill-opacity: 0.7; stroke: #ff0000; stroke-opacity: 0.7"/>
     <use xlink:href="#mbb6f3de052" x="267.254688" y="284.35899" style="fill: #ff0000; fill-opacity: 0.7; stroke: #ff0000; stroke-opacity: 0.7"/>
     <use xlink:href="#mbb6f3de052" x="165.800142" y="284.690113" style="fill: #ff0000; fill-opacity: 0.7; stroke: #ff0000; stroke-opacity: 0.7"/>
     <use xlink:href="#mbb6f3de052" x="64.345597" y="275.911113" style="fill: #ff0000; fill-opacity: 0.7; stroke: #ff0000; stroke-opacity: 0.7"/>
     <use xlink:href="#mbb6f3de052" x="165.800142" y="285.025278" style="fill: #ff0000; fill-opacity: 0.7; stroke: #ff0000; stroke-opacity: 0.7"/>
     <use xlink:href="#mbb6f3de052" x="317.98196" y="275.106553" style="fill: #ff0000; fill-opacity: 0.7; stroke: #ff0000; stroke-opacity: 0.7"/>
     <use xlink:href="#mbb6f3de052" x="368.709233" y="282.680533" style="fill: #ff0000; fill-opacity: 0.7; stroke: #ff0000; stroke-opacity: 0.7"/>
    </g>
   </g>
   <g id="line2d_16">
    <path d="M 44.054688 275.911113 
L 490.454687 275.911113 
" clip-path="url(#pdc51430671)" style="fill: none; stroke-dasharray: 5.55,2.4; stroke-dashoffset: 0; stroke: #808080; stroke-width: 1.5"/>
   </g>
   <g id="line2d_17">
    <path d="M 64.345597 275.911113 
L 103.705888 272.483296 
L 115.921151 271.156578 
L 126.779163 269.764982 
L 136.279923 268.340034 
L 145.780683 266.684474 
L 153.924192 265.055009 
L 162.067701 263.207755 
L 170.211209 261.124221 
L 181.069221 258.083955 
L 195.998987 253.901228 
L 204.142495 251.85906 
L 210.928753 250.400403 
L 216.357758 249.443554 
L 221.786764 248.712669 
L 227.21577 248.243961 
L 231.287524 248.086267 
L 235.359279 248.111694 
L 239.431033 248.335518 
L 243.502787 248.773017 
L 247.574542 249.439468 
L 251.646296 250.350147 
L 255.71805 251.520332 
L 259.789805 252.9653 
L 263.861559 254.700328 
L 267.933313 256.740615 
L 272.005068 259.075075 
L 277.434073 262.513096 
L 293.721091 273.139736 
L 297.792845 275.419944 
L 301.864599 277.379152 
L 304.579102 278.46488 
L 307.293605 279.344824 
L 310.008108 279.993737 
L 312.722611 280.386372 
L 315.437114 280.497482 
L 318.151617 280.301822 
L 320.86612 279.783498 
L 323.580622 278.957646 
L 326.295125 277.845831 
L 329.009628 276.46962 
L 331.724131 274.850578 
L 334.438634 273.010271 
L 337.153137 270.970264 
L 341.224891 267.582991 
L 345.296646 263.867701 
L 350.725651 258.52953 
L 357.511909 251.481562 
L 368.36992 240.131892 
L 375.156177 233.430952 
L 391.443195 217.608144 
L 396.8722 211.922028 
L 400.943955 207.37587 
L 405.015709 202.522305 
L 409.087463 197.301879 
L 413.159218 191.655137 
L 417.230972 185.522625 
L 421.302726 178.844888 
L 425.374481 171.562472 
L 429.446235 163.615922 
L 433.517989 154.945785 
L 437.589744 145.492606 
L 441.661498 135.19693 
L 445.733252 123.999303 
L 449.805007 111.840271 
L 453.876761 98.660379 
L 457.948515 84.400173 
L 462.02027 69.000198 
L 466.092024 52.401 
L 470.163778 34.543125 
L 470.163778 34.543125 
" clip-path="url(#pdc51430671)" style="fill: none; stroke: #0000ff; stroke-width: 2; stroke-linecap: round"/>
   </g>
   <g id="line2d_18">
    <path d="M 64.345597 275.911113 
L 68.417351 274.099424 
L 72.489105 272.625923 
L 76.56086 271.465607 
L 80.632614 270.593472 
L 84.704368 269.984516 
L 88.776123 269.613736 
L 92.847877 269.456129 
L 96.919631 269.486693 
L 102.348637 269.77694 
L 107.777643 270.297996 
L 114.5639 271.183605 
L 126.779163 273.083671 
L 136.279923 274.470468 
L 143.06618 275.217804 
L 148.495186 275.580834 
L 152.56694 275.677224 
L 156.638695 275.595077 
L 160.710449 275.309389 
L 164.782203 274.795159 
L 168.853958 274.031329 
L 172.925712 273.031198 
L 176.997466 271.825751 
L 182.426472 269.952913 
L 187.855478 267.844206 
L 195.998987 264.400313 
L 212.286004 257.414714 
L 217.71501 255.327774 
L 223.144016 253.484618 
L 227.21577 252.306626 
L 231.287524 251.338403 
L 235.359279 250.611081 
L 239.431033 250.155789 
L 243.502787 250.003661 
L 246.21729 250.08604 
L 248.931793 250.326218 
L 251.646296 250.73342 
L 254.360799 251.316869 
L 257.075302 252.08579 
L 259.789805 253.049407 
L 262.504307 254.216944 
L 265.21881 255.597625 
L 267.933313 257.200525 
L 270.647816 259.016536 
L 274.71957 262.041711 
L 281.505828 267.482835 
L 286.934833 271.758737 
L 291.006588 274.666274 
L 293.721091 276.371181 
L 296.435594 277.832779 
L 299.150096 279.002594 
L 301.864599 279.832155 
L 304.579102 280.272992 
L 305.936354 280.332492 
L 307.293605 280.276633 
L 308.650857 280.099357 
L 310.008108 279.794606 
L 311.365359 279.356319 
L 312.722611 278.778439 
L 314.079862 278.054906 
L 315.437114 277.179662 
L 316.794365 276.146647 
L 318.151617 274.949808 
L 319.508868 273.586802 
L 322.223371 270.395705 
L 324.937874 266.648958 
L 327.652377 262.423924 
L 330.36688 257.797961 
L 334.438634 250.276504 
L 339.86764 239.566675 
L 348.011148 223.299286 
L 352.082903 215.640098 
L 354.797406 210.887 
L 357.511909 206.506577 
L 360.226411 202.576191 
L 362.940914 199.1732 
L 365.655417 196.374967 
L 367.012669 195.226809 
L 368.36992 194.25885 
L 369.727172 193.479566 
L 371.084423 192.887036 
L 372.441674 192.473988 
L 373.798926 192.233102 
L 375.156177 192.157061 
L 376.513429 192.238549 
L 377.87068 192.470245 
L 379.227932 192.844834 
L 380.585183 193.354998 
L 383.299686 194.752776 
L 386.014189 196.605039 
L 388.728692 198.853244 
L 391.443195 201.438849 
L 394.157698 204.303313 
L 398.229452 208.994808 
L 403.658458 215.679746 
L 410.444715 224.067772 
L 414.516469 228.766322 
L 417.230972 231.63745 
L 419.945475 234.231288 
L 422.659978 236.489293 
L 425.374481 238.352924 
L 428.088984 239.763639 
L 429.446235 240.280859 
L 430.803487 240.662896 
L 432.160738 240.902433 
L 433.517989 240.992152 
L 434.875241 240.924736 
L 436.232492 240.692866 
L 437.589744 240.289226 
L 438.946995 239.706497 
L 440.304247 238.937361 
L 441.661498 237.974501 
L 443.01875 236.810599 
L 444.376001 235.438337 
L 445.733252 233.850397 
L 447.090504 232.039463 
L 448.447755 229.998215 
L 449.805007 227.719337 
L 451.162258 225.19551 
L 452.51951 222.419417 
L 455.234013 216.081161 
L 457.948515 208.646027 
L 460.663018 200.055473 
L 463.377521 190.250958 
L 466.092024 179.173938 
L 468.806527 166.765873 
L 470.163778 160.044404 
L 470.163778 160.044404 
" clip-path="url(#pdc51430671)" style="fill: none; stroke: #008000; stroke-width: 2; stroke-linecap: round"/>
   </g>
   <g id="line2d_19">
    <path d="M 64.345597 275.911113 
L 67.060099 274.50345 
L 71.131854 272.703266 
L 75.203608 271.257178 
L 79.275362 270.143274 
L 83.347117 269.339643 
L 87.418871 268.824373 
L 91.490625 268.575551 
L 95.56238 268.571267 
L 99.634134 268.789608 
L 103.705888 269.208663 
L 109.134894 270.041753 
L 114.5639 271.140773 
L 119.992906 272.453787 
L 126.779163 274.316855 
L 137.637175 277.571236 
L 149.852438 281.179456 
L 156.638695 282.951498 
L 162.067701 284.161899 
L 167.496706 285.132191 
L 172.925712 285.836279 
L 178.354718 286.289827 
L 183.783724 286.512373 
L 189.212729 286.523453 
L 194.641735 286.342604 
L 201.427992 285.876407 
L 208.21425 285.179004 
L 216.357758 284.090657 
L 225.858518 282.557538 
L 238.073781 280.330786 
L 261.147056 276.082243 
L 270.647816 274.59913 
L 277.434073 273.73244 
L 284.220331 273.08804 
L 289.649336 272.769917 
L 295.078342 272.658086 
L 300.507348 272.781001 
L 305.936354 273.16712 
L 310.008108 273.646553 
L 314.079862 274.302049 
L 318.151617 275.145612 
L 323.580622 276.55219 
L 331.724131 279.004478 
L 339.86764 281.436499 
L 345.296646 282.807045 
L 349.3684 283.601105 
L 353.440154 284.127353 
L 356.154657 284.299456 
L 358.86916 284.307618 
L 361.583663 284.133873 
L 364.298166 283.760254 
L 367.012669 283.168797 
L 369.727172 282.341777 
L 372.441674 281.272369 
L 375.156177 279.968878 
L 377.87068 278.440719 
L 380.585183 276.69731 
L 383.299686 274.748069 
L 386.014189 272.602412 
L 390.085943 269.036246 
L 394.157698 265.081116 
L 398.229452 260.768805 
L 402.301206 256.131094 
L 406.372961 251.199766 
L 411.801966 244.22286 
L 417.230972 236.855807 
L 424.017229 227.213119 
L 432.160738 215.199776 
L 457.948515 176.77131 
L 464.734773 167.267267 
L 470.163778 160.044404 
L 470.163778 160.044404 
" clip-path="url(#pdc51430671)" style="fill: none; stroke: #ff0000; stroke-width: 2; stroke-linecap: round"/>
   </g>
   <g id="patch_3">
    <path d="M 44.054688 299.143125 
L 44.054688 21.943125 
" style="fill: none; stroke: #cccccc; stroke-width: 1.25; stroke-linejoin: miter; stroke-linecap: square"/>
   </g>
   <g id="patch_4">
    <path d="M 490.454687 299.143125 
L 490.454687 21.943125 
" style="fill: none; stroke: #cccccc; stroke-width: 1.25; stroke-linejoin: miter; stroke-linecap: square"/>
   </g>
   <g id="patch_5">
    <path d="M 44.054688 299.143125 
L 490.454688 299.143125 
" style="fill: none; stroke: #cccccc; stroke-width: 1.25; stroke-linejoin: miter; stroke-linecap: square"/>
   </g>
   <g id="patch_6">
    <path d="M 44.054688 21.943125 
L 490.454688 21.943125 
" style="fill: none; stroke: #cccccc; stroke-width: 1.25; stroke-linejoin: miter; stroke-linecap: square"/>
   </g>
   <g id="text_18">
    <!-- FP16 / FP32 / FP64 Speedup Over Time -->
    <g style="fill: #262626" transform="translate(159.207812 15.943125) scale(0.12 -0.12)">
     <defs>
      <path id="ArialMT-46" d="M 525 0 
L 525 4581 
L 3616 4581 
L 3616 4041 
L 1131 4041 
L 1131 2622 
L 3281 2622 
L 3281 2081 
L 1131 2081 
L 1131 0 
L 525 0 
z
" transform="scale(0.015625)"/>
      <path id="ArialMT-50" d="M 494 0 
L 494 4581 
L 2222 4581 
Q 2678 4581 2919 4538 
Q 3256 4481 3484 4323 
Q 3713 4166 3852 3881 
Q 3991 3597 3991 3256 
Q 3991 2672 3619 2267 
Q 3247 1863 2275 1863 
L 1100 1863 
L 1100 0 
L 494 0 
z
M 1100 2403 
L 2284 2403 
Q 2872 2403 3119 2622 
Q 3366 2841 3366 3238 
Q 3366 3525 3220 3729 
Q 3075 3934 2838 4000 
Q 2684 4041 2272 4041 
L 1100 4041 
L 1100 2403 
z
" transform="scale(0.015625)"/>
      <path id="ArialMT-2f" d="M 0 -78 
L 1328 4659 
L 1778 4659 
L 453 -78 
L 0 -78 
z
" transform="scale(0.015625)"/>
      <path id="ArialMT-4f" d="M 309 2231 
Q 309 3372 921 4017 
Q 1534 4663 2503 4663 
Q 3138 4663 3647 4359 
Q 4156 4056 4423 3514 
Q 4691 2972 4691 2284 
Q 4691 1588 4409 1038 
Q 4128 488 3612 205 
Q 3097 -78 2500 -78 
Q 1853 -78 1343 234 
Q 834 547 571 1087 
Q 309 1628 309 2231 
z
M 934 2222 
Q 934 1394 1379 917 
Q 1825 441 2497 441 
Q 3181 441 3623 922 
Q 4066 1403 4066 2288 
Q 4066 2847 3877 3264 
Q 3688 3681 3323 3911 
Q 2959 4141 2506 4141 
Q 1863 4141 1398 3698 
Q 934 3256 934 2222 
z
" transform="scale(0.015625)"/>
      <path id="ArialMT-54" d="M 1659 0 
L 1659 4041 
L 150 4041 
L 150 4581 
L 3781 4581 
L 3781 4041 
L 2266 4041 
L 2266 0 
L 1659 0 
z
" transform="scale(0.015625)"/>
      <path id="ArialMT-6d" d="M 422 0 
L 422 3319 
L 925 3319 
L 925 2853 
Q 1081 3097 1340 3245 
Q 1600 3394 1931 3394 
Q 2300 3394 2536 3241 
Q 2772 3088 2869 2813 
Q 3263 3394 3894 3394 
Q 4388 3394 4653 3120 
Q 4919 2847 4919 2278 
L 4919 0 
L 4359 0 
L 4359 2091 
Q 4359 2428 4304 2576 
Q 4250 2725 4106 2815 
Q 3963 2906 3769 2906 
Q 3419 2906 3187 2673 
Q 2956 2441 2956 1928 
L 2956 0 
L 2394 0 
L 2394 2156 
Q 2394 2531 2256 2718 
Q 2119 2906 1806 2906 
Q 1569 2906 1367 2781 
Q 1166 2656 1075 2415 
Q 984 2175 984 1722 
L 984 0 
L 422 0 
z
" transform="scale(0.015625)"/>
     </defs>
     <use xlink:href="#ArialMT-46"/>
     <use xlink:href="#ArialMT-50" transform="translate(61.083984 0)"/>
     <use xlink:href="#ArialMT-31" transform="translate(127.783203 0)"/>
     <use xlink:href="#ArialMT-36" transform="translate(183.398438 0)"/>
     <use xlink:href="#ArialMT-20" transform="translate(239.013672 0)"/>
     <use xlink:href="#ArialMT-2f" transform="translate(266.796875 0)"/>
     <use xlink:href="#ArialMT-20" transform="translate(294.580078 0)"/>
     <use xlink:href="#ArialMT-46" transform="translate(322.363281 0)"/>
     <use xlink:href="#ArialMT-50" transform="translate(383.447266 0)"/>
     <use xlink:href="#ArialMT-33" transform="translate(450.146484 0)"/>
     <use xlink:href="#ArialMT-32" transform="translate(505.761719 0)"/>
     <use xlink:href="#ArialMT-20" transform="translate(561.376953 0)"/>
     <use xlink:href="#ArialMT-2f" transform="translate(589.160156 0)"/>
     <use xlink:href="#ArialMT-20" transform="translate(616.943359 0)"/>
     <use xlink:href="#ArialMT-46" transform="translate(644.726562 0)"/>
     <use xlink:href="#ArialMT-50" transform="translate(705.810547 0)"/>
     <use xlink:href="#ArialMT-36" transform="translate(772.509766 0)"/>
     <use xlink:href="#ArialMT-34" transform="translate(828.125 0)"/>
     <use xlink:href="#ArialMT-20" transform="translate(883.740234 0)"/>
     <use xlink:href="#ArialMT-53" transform="translate(911.523438 0)"/>
     <use xlink:href="#ArialMT-70" transform="translate(978.222656 0)"/>
     <use xlink:href="#ArialMT-65" transform="translate(1033.837891 0)"/>
     <use xlink:href="#ArialMT-65" transform="translate(1089.453125 0)"/>
     <use xlink:href="#ArialMT-64" transform="translate(1145.068359 0)"/>
     <use xlink:href="#ArialMT-75" transform="translate(1200.683594 0)"/>
     <use xlink:href="#ArialMT-70" transform="translate(1256.298828 0)"/>
     <use xlink:href="#ArialMT-20" transform="translate(1311.914062 0)"/>
     <use xlink:href="#ArialMT-4f" transform="translate(1339.697266 0)"/>
     <use xlink:href="#ArialMT-76" transform="translate(1417.480469 0)"/>
     <use xlink:href="#ArialMT-65" transform="translate(1467.480469 0)"/>
     <use xlink:href="#ArialMT-72" transform="translate(1523.095703 0)"/>
     <use xlink:href="#ArialMT-20" transform="translate(1556.396484 0)"/>
     <use xlink:href="#ArialMT-54" transform="translate(1582.429688 0)"/>
     <use xlink:href="#ArialMT-69" transform="translate(1639.763672 0)"/>
     <use xlink:href="#ArialMT-6d" transform="translate(1661.980469 0)"/>
     <use xlink:href="#ArialMT-65" transform="translate(1745.28125 0)"/>
    </g>
   </g>
   <g id="legend_1">
    <g id="patch_7">
     <path d="M 51.754688 77.520625 
L 145.651719 77.520625 
Q 147.851719 77.520625 147.851719 75.320625 
L 147.851719 29.643125 
Q 147.851719 27.443125 145.651719 27.443125 
L 51.754688 27.443125 
Q 49.554688 27.443125 49.554688 29.643125 
L 49.554688 75.320625 
Q 49.554688 77.520625 51.754688 77.520625 
z
" style="fill: #ffffff; opacity: 0.8; stroke: #cccccc; stroke-linejoin: miter"/>
    </g>
    <g id="PathCollection_4">
     <g>
      <use xlink:href="#m6e741c1097" x="64.954688" y="36.861875" style="fill: #0000ff; fill-opacity: 0.7; stroke: #0000ff; stroke-opacity: 0.7"/>
     </g>
    </g>
    <g id="text_19">
     <!-- FP16 points -->
     <g style="fill: #262626" transform="translate(84.754688 39.749375) scale(0.11 -0.11)">
      <defs>
       <path id="ArialMT-6f" d="M 213 1659 
Q 213 2581 725 3025 
Q 1153 3394 1769 3394 
Q 2453 3394 2887 2945 
Q 3322 2497 3322 1706 
Q 3322 1066 3130 698 
Q 2938 331 2570 128 
Q 2203 -75 1769 -75 
Q 1072 -75 642 372 
Q 213 819 213 1659 
z
M 791 1659 
Q 791 1022 1069 705 
Q 1347 388 1769 388 
Q 2188 388 2466 706 
Q 2744 1025 2744 1678 
Q 2744 2294 2464 2611 
Q 2184 2928 1769 2928 
Q 1347 2928 1069 2612 
Q 791 2297 791 1659 
z
" transform="scale(0.015625)"/>
       <path id="ArialMT-6e" d="M 422 0 
L 422 3319 
L 928 3319 
L 928 2847 
Q 1294 3394 1984 3394 
Q 2284 3394 2536 3286 
Q 2788 3178 2913 3003 
Q 3038 2828 3088 2588 
Q 3119 2431 3119 2041 
L 3119 0 
L 2556 0 
L 2556 2019 
Q 2556 2363 2490 2533 
Q 2425 2703 2258 2804 
Q 2091 2906 1866 2906 
Q 1506 2906 1245 2678 
Q 984 2450 984 1813 
L 984 0 
L 422 0 
z
" transform="scale(0.015625)"/>
      </defs>
      <use xlink:href="#ArialMT-46"/>
      <use xlink:href="#ArialMT-50" transform="translate(61.083984 0)"/>
      <use xlink:href="#ArialMT-31" transform="translate(127.783203 0)"/>
      <use xlink:href="#ArialMT-36" transform="translate(183.398438 0)"/>
      <use xlink:href="#ArialMT-20" transform="translate(239.013672 0)"/>
      <use xlink:href="#ArialMT-70" transform="translate(266.796875 0)"/>
      <use xlink:href="#ArialMT-6f" transform="translate(322.412109 0)"/>
      <use xlink:href="#ArialMT-69" transform="translate(378.027344 0)"/>
      <use xlink:href="#ArialMT-6e" transform="translate(400.244141 0)"/>
      <use xlink:href="#ArialMT-74" transform="translate(455.859375 0)"/>
      <use xlink:href="#ArialMT-73" transform="translate(483.642578 0)"/>
     </g>
    </g>
    <g id="PathCollection_5">
     <g>
      <use xlink:href="#mc8de66092a" x="64.954688" y="52.454375" style="fill: #008000; fill-opacity: 0.7; stroke: #008000; stroke-opacity: 0.7"/>
     </g>
    </g>
    <g id="text_20">
     <!-- FP32 points -->
     <g style="fill: #262626" transform="translate(84.754688 55.341875) scale(0.11 -0.11)">
      <use xlink:href="#ArialMT-46"/>
      <use xlink:href="#ArialMT-50" transform="translate(61.083984 0)"/>
      <use xlink:href="#ArialMT-33" transform="translate(127.783203 0)"/>
      <use xlink:href="#ArialMT-32" transform="translate(183.398438 0)"/>
      <use xlink:href="#ArialMT-20" transform="translate(239.013672 0)"/>
      <use xlink:href="#ArialMT-70" transform="translate(266.796875 0)"/>
      <use xlink:href="#ArialMT-6f" transform="translate(322.412109 0)"/>
      <use xlink:href="#ArialMT-69" transform="translate(378.027344 0)"/>
      <use xlink:href="#ArialMT-6e" transform="translate(400.244141 0)"/>
      <use xlink:href="#ArialMT-74" transform="translate(455.859375 0)"/>
      <use xlink:href="#ArialMT-73" transform="translate(483.642578 0)"/>
     </g>
    </g>
    <g id="PathCollection_6">
     <g>
      <use xlink:href="#mbb6f3de052" x="64.954688" y="68.046875" style="fill: #ff0000; fill-opacity: 0.7; stroke: #ff0000; stroke-opacity: 0.7"/>
     </g>
    </g>
    <g id="text_21">
     <!-- FP64 points -->
     <g style="fill: #262626" transform="translate(84.754688 70.934375) scale(0.11 -0.11)">
      <use xlink:href="#ArialMT-46"/>
      <use xlink:href="#ArialMT-50" transform="translate(61.083984 0)"/>
      <use xlink:href="#ArialMT-36" transform="translate(127.783203 0)"/>
      <use xlink:href="#ArialMT-34" transform="translate(183.398438 0)"/>
      <use xlink:href="#ArialMT-20" transform="translate(239.013672 0)"/>
      <use xlink:href="#ArialMT-70" transform="translate(266.796875 0)"/>
      <use xlink:href="#ArialMT-6f" transform="translate(322.412109 0)"/>
      <use xlink:href="#ArialMT-69" transform="translate(378.027344 0)"/>
      <use xlink:href="#ArialMT-6e" transform="translate(400.244141 0)"/>
      <use xlink:href="#ArialMT-74" transform="translate(455.859375 0)"/>
      <use xlink:href="#ArialMT-73" transform="translate(483.642578 0)"/>
     </g>
    </g>
   </g>
  </g>
 </g>
 <defs>
  <clipPath id="pdc51430671">
   <rect x="44.054688" y="21.943125" width="446.4" height="277.2"/>
  </clipPath>
 </defs>
</svg>
